<svg width="107" height="29" viewBox="0 0 107 29" fill="none" xmlns="http://www.w3.org/2000/svg">
<path d="M84.5 0H0L21 28.5H84.5H106.5L84.5 0Z" fill="url(#paint0_linear_6_39)"/>
<path d="M20.984 5.2H24.872C26.184 5.2 27.168 5.552 27.824 6.256C28.48 6.96 28.808 7.992 28.808 9.352V11.008C28.808 12.368 28.48 13.4 27.824 14.104C27.168 14.808 26.184 15.16 24.872 15.16H23.624V22H20.984V5.2ZM24.872 12.76C25.304 12.76 25.624 12.64 25.832 12.4C26.056 12.16 26.168 11.752 26.168 11.176V9.184C26.168 8.608 26.056 8.2 25.832 7.96C25.624 7.72 25.304 7.6 24.872 7.6H23.624V12.76H24.872ZM34.0578 22.24C32.7618 22.24 31.7698 21.872 31.0818 21.136C30.3938 20.4 30.0498 19.36 30.0498 18.016V9.184C30.0498 7.84 30.3938 6.8 31.0818 6.064C31.7698 5.328 32.7618 4.96 34.0578 4.96C35.3538 4.96 36.3458 5.328 37.0338 6.064C37.7218 6.8 38.0658 7.84 38.0658 9.184V18.016C38.0658 19.36 37.7218 20.4 37.0338 21.136C36.3458 21.872 35.3538 22.24 34.0578 22.24ZM34.0578 19.84C34.9698 19.84 35.4258 19.288 35.4258 18.184V9.016C35.4258 7.912 34.9698 7.36 34.0578 7.36C33.1458 7.36 32.6898 7.912 32.6898 9.016V18.184C32.6898 19.288 33.1458 19.84 34.0578 19.84ZM43.2832 22.24C42.0032 22.24 41.0352 21.88 40.3792 21.16C39.7232 20.424 39.3952 19.376 39.3952 18.016V17.056H41.8912V18.208C41.8912 19.296 42.3472 19.84 43.2592 19.84C43.7072 19.84 44.0432 19.712 44.2672 19.456C44.5072 19.184 44.6272 18.752 44.6272 18.16C44.6272 17.456 44.4672 16.84 44.1472 16.312C43.8272 15.768 43.2352 15.12 42.3712 14.368C41.2832 13.408 40.5232 12.544 40.0912 11.776C39.6592 10.992 39.4432 10.112 39.4432 9.136C39.4432 7.808 39.7792 6.784 40.4512 6.064C41.1232 5.328 42.0992 4.96 43.3792 4.96C44.6432 4.96 45.5952 5.328 46.2352 6.064C46.8912 6.784 47.2192 7.824 47.2192 9.184V9.88H44.7232V9.016C44.7232 8.44 44.6112 8.024 44.3872 7.768C44.1632 7.496 43.8352 7.36 43.4032 7.36C42.5232 7.36 42.0832 7.896 42.0832 8.968C42.0832 9.576 42.2432 10.144 42.5632 10.672C42.8992 11.2 43.4992 11.84 44.3632 12.592C45.4672 13.552 46.2272 14.424 46.6432 15.208C47.0592 15.992 47.2672 16.912 47.2672 17.968C47.2672 19.344 46.9232 20.4 46.2352 21.136C45.5632 21.872 44.5792 22.24 43.2832 22.24ZM48.7809 5.2H51.4209V22H48.7809V5.2ZM55.4621 7.6H52.7021V5.2H60.8621V7.6H58.1021V22H55.4621V7.6ZM62.1403 5.2H64.7803V22H62.1403V5.2ZM70.5734 22.24C69.2774 22.24 68.2854 21.872 67.5974 21.136C66.9094 20.4 66.5654 19.36 66.5654 18.016V9.184C66.5654 7.84 66.9094 6.8 67.5974 6.064C68.2854 5.328 69.2774 4.96 70.5734 4.96C71.8694 4.96 72.8614 5.328 73.5494 6.064C74.2374 6.8 74.5814 7.84 74.5814 9.184V18.016C74.5814 19.36 74.2374 20.4 73.5494 21.136C72.8614 21.872 71.8694 22.24 70.5734 22.24ZM70.5734 19.84C71.4854 19.84 71.9414 19.288 71.9414 18.184V9.016C71.9414 7.912 71.4854 7.36 70.5734 7.36C69.6614 7.36 69.2054 7.912 69.2054 9.016V18.184C69.2054 19.288 69.6614 19.84 70.5734 19.84ZM76.3668 5.2H79.6788L82.2468 15.256H82.2948V5.2H84.6468V22H81.9348L78.7668 9.736H78.7188V22H76.3668V5.2Z" fill="white"/>
<defs>
<linearGradient id="paint0_linear_6_39" x1="0" y1="14.25" x2="106.5" y2="14.25" gradientUnits="userSpaceOnUse">
<stop stop-color="#F24444"/>
<stop offset="1" stop-color="#7A0F0F"/>
</linearGradient>
</defs>
</svg>
