<svg width="107" height="29" viewBox="0 0 107 29" fill="none" xmlns="http://www.w3.org/2000/svg">
<path d="M84.5 0H0L21 28.5H84.5H106.5L84.5 0Z" fill="url(#paint0_linear_6_38)"/>
<path d="M32.984 5.2H39.968V7.6H35.624V12.28H39.032V14.68H35.624V22H32.984V5.2ZM41.234 5.2H43.874V22H41.234V5.2ZM45.8512 5.2H49.7632C51.1232 5.2 52.1152 5.52 52.7392 6.16C53.3632 6.784 53.6752 7.752 53.6752 9.064V10.096C53.6752 11.84 53.0992 12.944 51.9472 13.408V13.456C52.5872 13.648 53.0352 14.04 53.2912 14.632C53.5632 15.224 53.6992 16.016 53.6992 17.008V19.96C53.6992 20.44 53.7152 20.832 53.7472 21.136C53.7792 21.424 53.8592 21.712 53.9872 22H51.2992C51.2032 21.728 51.1392 21.472 51.1072 21.232C51.0752 20.992 51.0592 20.56 51.0592 19.936V16.864C51.0592 16.096 50.9312 15.56 50.6752 15.256C50.4352 14.952 50.0112 14.8 49.4032 14.8H48.4912V22H45.8512V5.2ZM49.4512 12.4C49.9792 12.4 50.3712 12.264 50.6272 11.992C50.8992 11.72 51.0352 11.264 51.0352 10.624V9.328C51.0352 8.72 50.9232 8.28 50.6992 8.008C50.4912 7.736 50.1552 7.6 49.6912 7.6H48.4912V12.4H49.4512ZM58.9629 22.24C57.6829 22.24 56.7149 21.88 56.0589 21.16C55.4029 20.424 55.0749 19.376 55.0749 18.016V17.056H57.5709V18.208C57.5709 19.296 58.0269 19.84 58.9389 19.84C59.3869 19.84 59.7229 19.712 59.9469 19.456C60.1869 19.184 60.3069 18.752 60.3069 18.16C60.3069 17.456 60.1469 16.84 59.8269 16.312C59.5069 15.768 58.9149 15.12 58.0509 14.368C56.9629 13.408 56.2029 12.544 55.7709 11.776C55.3389 10.992 55.1229 10.112 55.1229 9.136C55.1229 7.808 55.4589 6.784 56.1309 6.064C56.8029 5.328 57.7789 4.96 59.0589 4.96C60.3229 4.96 61.2749 5.328 61.9149 6.064C62.5709 6.784 62.8989 7.824 62.8989 9.184V9.88H60.4029V9.016C60.4029 8.44 60.2909 8.024 60.0669 7.768C59.8429 7.496 59.5149 7.36 59.0829 7.36C58.2029 7.36 57.7629 7.896 57.7629 8.968C57.7629 9.576 57.9229 10.144 58.2429 10.672C58.5789 11.2 59.1789 11.84 60.0429 12.592C61.1469 13.552 61.9069 14.424 62.3229 15.208C62.7389 15.992 62.9469 16.912 62.9469 17.968C62.9469 19.344 62.6029 20.4 61.9149 21.136C61.2429 21.872 60.2589 22.24 58.9629 22.24ZM66.5246 7.6H63.7646V5.2H71.9246V7.6H69.1646V22H66.5246V7.6Z" fill="white"/>
<defs>
<linearGradient id="paint0_linear_6_38" x1="0" y1="14.25" x2="106.5" y2="14.25" gradientUnits="userSpaceOnUse">
<stop stop-color="#F24444"/>
<stop offset="1" stop-color="#7A0F0F"/>
</linearGradient>
</defs>
</svg>
