<svg width="107" height="30" viewBox="0 0 107 30" fill="none" xmlns="http://www.w3.org/2000/svg">
<path d="M84.5 1H0L21 29.5H84.5H106.5L84.5 1Z" fill="url(#paint0_linear_6_40)"/>
<path d="M22.984 5.2H26.896C28.256 5.2 29.248 5.52 29.872 6.16C30.496 6.784 30.808 7.752 30.808 9.064V10.096C30.808 11.84 30.232 12.944 29.08 13.408V13.456C29.72 13.648 30.168 14.04 30.424 14.632C30.696 15.224 30.832 16.016 30.832 17.008V19.96C30.832 20.44 30.848 20.832 30.88 21.136C30.912 21.424 30.992 21.712 31.12 22H28.432C28.336 21.728 28.272 21.472 28.24 21.232C28.208 20.992 28.192 20.56 28.192 19.936V16.864C28.192 16.096 28.064 15.56 27.808 15.256C27.568 14.952 27.144 14.8 26.536 14.8H25.624V22H22.984V5.2ZM26.584 12.4C27.112 12.4 27.504 12.264 27.76 11.992C28.032 11.72 28.168 11.264 28.168 10.624V9.328C28.168 8.72 28.056 8.28 27.832 8.008C27.624 7.736 27.288 7.6 26.824 7.6H25.624V12.4H26.584ZM32.6637 5.2H39.8637V7.6H35.3037V12.04H38.9277V14.44H35.3037V19.6H39.8637V22H32.6637V5.2ZM41.3824 5.2H45.1504L46.8304 17.224H46.8784L48.5584 5.2H52.3264V22H49.8304V9.28H49.7824L47.8624 22H45.6544L43.7344 9.28H43.6864V22H41.3824V5.2ZM58.1125 22.24C56.8165 22.24 55.8245 21.872 55.1365 21.136C54.4485 20.4 54.1045 19.36 54.1045 18.016V9.184C54.1045 7.84 54.4485 6.8 55.1365 6.064C55.8245 5.328 56.8165 4.96 58.1125 4.96C59.4085 4.96 60.4005 5.328 61.0885 6.064C61.7765 6.8 62.1205 7.84 62.1205 9.184V18.016C62.1205 19.36 61.7765 20.4 61.0885 21.136C60.4005 21.872 59.4085 22.24 58.1125 22.24ZM58.1125 19.84C59.0245 19.84 59.4805 19.288 59.4805 18.184V9.016C59.4805 7.912 59.0245 7.36 58.1125 7.36C57.2005 7.36 56.7445 7.912 56.7445 9.016V18.184C56.7445 19.288 57.2005 19.84 58.1125 19.84ZM63.163 5.2H65.827L67.555 18.232H67.603L69.331 5.2H71.755L69.211 22H65.707L63.163 5.2ZM73.0231 5.2H80.2231V7.6H75.6631V12.04H79.2871V14.44H75.6631V19.6H80.2231V22H73.0231V5.2Z" fill="white"/>
<defs>
<linearGradient id="paint0_linear_6_40" x1="0" y1="15.25" x2="106.5" y2="15.25" gradientUnits="userSpaceOnUse">
<stop stop-color="#F24444"/>
<stop offset="1" stop-color="#7A0F0F"/>
</linearGradient>
</defs>
</svg>
