<svg width="28" height="25" viewBox="0 0 28 25" fill="none" xmlns="http://www.w3.org/2000/svg">
<path d="M9.29329 5.01936C9.20031 4.93769 9.12655 4.84071 9.07623 4.73397C9.0259 4.62722 9 4.5128 9 4.39724C9 4.28169 9.0259 4.16727 9.07623 4.06052C9.12655 3.95377 9.20031 3.8568 9.29329 3.77513L13.2933 0.25789C13.3862 0.176135 13.4964 0.111278 13.6178 0.067027C13.7392 0.0227764 13.8694 0 14.0008 0C14.1322 0 14.2623 0.0227764 14.3837 0.067027C14.5051 0.111278 14.6154 0.176135 14.7083 0.25789L18.7083 3.77513C18.8959 3.94013 19.0013 4.16391 19.0013 4.39724C19.0013 4.63058 18.8959 4.85436 18.7083 5.01936C18.5206 5.18435 18.2661 5.27704 18.0008 5.27704C17.7354 5.27704 17.4809 5.18435 17.2933 5.01936L15.0008 3.00244V8.7938C15.0008 9.027 14.8954 9.25066 14.7079 9.41556C14.5204 9.58046 14.266 9.67311 14.0008 9.67311C13.7356 9.67311 13.4812 9.58046 13.2937 9.41556C13.1061 9.25066 13.0008 9.027 13.0008 8.7938V3.00244L10.7083 5.01936C10.6154 5.10111 10.5051 5.16597 10.3837 5.21022C10.2623 5.25447 10.1322 5.27725 10.0008 5.27725C9.86937 5.27725 9.73924 5.25447 9.61785 5.21022C9.49645 5.16597 9.38616 5.10111 9.29329 5.01936ZM17.2933 19.6027L15.0008 21.6196V15.8283C15.0008 15.5951 14.8954 15.3714 14.7079 15.2065C14.5204 15.0416 14.266 14.949 14.0008 14.949C13.7356 14.949 13.4812 15.0416 13.2937 15.2065C13.1061 15.3714 13.0008 15.5951 13.0008 15.8283V21.6196L10.7083 19.6027C10.5206 19.4377 10.2662 19.345 10.0008 19.345C9.73542 19.345 9.48093 19.4377 9.29329 19.6027C9.10565 19.7677 9.00023 19.9915 9.00023 20.2248C9.00023 20.4582 9.10565 20.6819 9.29329 20.8469L13.2933 24.3642C13.3862 24.4459 13.4964 24.5108 13.6178 24.555C13.7392 24.5993 13.8694 24.6221 14.0008 24.6221C14.1322 24.6221 14.2623 24.5993 14.3837 24.555C14.5051 24.5108 14.6154 24.4459 14.7083 24.3642L18.7083 20.8469C18.8959 20.6819 19.0013 20.4582 19.0013 20.2248C19.0013 19.9915 18.8959 19.7677 18.7083 19.6027C18.5206 19.4377 18.2661 19.345 18.0008 19.345C17.7354 19.345 17.4809 19.4377 17.2933 19.6027ZM27.7083 11.6889L23.7083 8.17168C23.5206 8.00669 23.2661 7.914 23.0008 7.914C22.7354 7.914 22.4809 8.00669 22.2933 8.17168C22.1056 8.33668 22.0002 8.56046 22.0002 8.7938C22.0002 9.02713 22.1056 9.25091 22.2933 9.41591L24.587 11.4317H18.0008C17.7356 11.4317 17.4812 11.5244 17.2937 11.6893C17.1061 11.8542 17.0008 12.0778 17.0008 12.311C17.0008 12.5442 17.1061 12.7679 17.2937 12.9328C17.4812 13.0977 17.7356 13.1903 18.0008 13.1903H24.587L22.2933 15.2062C22.1056 15.3712 22.0002 15.5949 22.0002 15.8283C22.0002 16.0616 22.1056 16.2854 22.2933 16.4504C22.4809 16.6154 22.7354 16.7081 23.0008 16.7081C23.2661 16.7081 23.5206 16.6154 23.7083 16.4504L27.7083 12.9331C27.8013 12.8515 27.875 12.7545 27.9253 12.6478C27.9757 12.541 28.0016 12.4266 28.0016 12.311C28.0016 12.1955 27.9757 12.0811 27.9253 11.9743C27.875 11.8676 27.8013 11.7706 27.7083 11.6889ZM3.41454 13.1903H10.0008C10.266 13.1903 10.5204 13.0977 10.7079 12.9328C10.8954 12.7679 11.0008 12.5442 11.0008 12.311C11.0008 12.0778 10.8954 11.8542 10.7079 11.6893C10.5204 11.5244 10.266 11.4317 10.0008 11.4317H3.41454L5.70829 9.41591C5.89593 9.25091 6.00134 9.02713 6.00134 8.7938C6.00134 8.56046 5.89593 8.33668 5.70829 8.17168C5.52065 8.00669 5.26615 7.914 5.00079 7.914C4.73542 7.914 4.48093 8.00669 4.29329 8.17168L0.293287 11.6889C0.20031 11.7706 0.126551 11.8676 0.0762268 11.9743C0.0259025 12.0811 0 12.1955 0 12.311C0 12.4266 0.0259025 12.541 0.0762268 12.6478C0.126551 12.7545 0.20031 12.8515 0.293287 12.9331L4.29329 16.4504C4.48093 16.6154 4.73542 16.7081 5.00079 16.7081C5.26615 16.7081 5.52065 16.6154 5.70829 16.4504C5.89593 16.2854 6.00134 16.0616 6.00134 15.8283C6.00134 15.5949 5.89593 15.3712 5.70829 15.2062L3.41454 13.1903Z" fill="url(#paint0_linear_4_14)"/>
<defs>
<linearGradient id="paint0_linear_4_14" x1="0" y1="12.311" x2="28.0016" y2="12.311" gradientUnits="userSpaceOnUse">
<stop stop-color="#007AFF"/>
<stop offset="0.3" stop-color="#6F45FF"/>
<stop offset="0.45" stop-color="#AE47FF"/>
<stop offset="0.7" stop-color="#FF3B7F"/>
<stop offset="0.85" stop-color="#FF6A00"/>
<stop offset="1" stop-color="#FF4B58"/>
</linearGradient>
</defs>
</svg>
