<svg width="24" height="28" viewBox="0 0 24 28" fill="none" xmlns="http://www.w3.org/2000/svg">
<path d="M12 4C9.62663 4 7.30655 4.70379 5.33316 6.02236C3.35977 7.34094 1.8217 9.21509 0.913451 11.4078C0.00519943 13.6005 -0.232441 16.0133 0.230582 18.3411C0.693605 20.6689 1.83649 22.8071 3.51472 24.4853C5.19295 26.1635 7.33115 27.3064 9.65892 27.7694C11.9867 28.2324 14.3995 27.9948 16.5922 27.0866C18.7849 26.1783 20.6591 24.6402 21.9776 22.6668C23.2962 20.6935 24 18.3734 24 16C23.9964 12.8185 22.7309 9.76839 20.4813 7.51874C18.2316 5.26909 15.1815 4.00364 12 4ZM12 26C10.0222 26 8.0888 25.4135 6.4443 24.3147C4.79981 23.2159 3.51809 21.6541 2.76121 19.8268C2.00433 17.9996 1.8063 15.9889 2.19215 14.0491C2.578 12.1093 3.53041 10.3275 4.92894 8.92893C6.32746 7.53041 8.10929 6.578 10.0491 6.19215C11.9889 5.8063 13.9996 6.00433 15.8268 6.7612C17.6541 7.51808 19.2159 8.79981 20.3147 10.4443C21.4135 12.0888 22 14.0222 22 16C21.997 18.6513 20.9425 21.1931 19.0678 23.0678C17.1931 24.9425 14.6513 25.997 12 26ZM17.7075 10.2925C17.8005 10.3854 17.8742 10.4957 17.9246 10.6171C17.9749 10.7385 18.0008 10.8686 18.0008 11C18.0008 11.1314 17.9749 11.2615 17.9246 11.3829C17.8742 11.5043 17.8005 11.6146 17.7075 11.7075L12.7075 16.7075C12.6146 16.8004 12.5043 16.8741 12.3829 16.9244C12.2615 16.9747 12.1314 17.0006 12 17.0006C11.8686 17.0006 11.7385 16.9747 11.6171 16.9244C11.4957 16.8741 11.3854 16.8004 11.2925 16.7075C11.1996 16.6146 11.1259 16.5043 11.0756 16.3829C11.0253 16.2615 10.9994 16.1314 10.9994 16C10.9994 15.8686 11.0253 15.7385 11.0756 15.6171C11.1259 15.4957 11.1996 15.3854 11.2925 15.2925L16.2925 10.2925C16.3854 10.1995 16.4957 10.1258 16.6171 10.0754C16.7385 10.0251 16.8686 9.99921 17 9.99921C17.1314 9.99921 17.2615 10.0251 17.3829 10.0754C17.5043 10.1258 17.6146 10.1995 17.7075 10.2925ZM8.00001 1C8.00001 0.734784 8.10536 0.48043 8.2929 0.292893C8.48044 0.105357 8.73479 0 9.00001 0H15C15.2652 0 15.5196 0.105357 15.7071 0.292893C15.8946 0.48043 16 0.734784 16 1C16 1.26522 15.8946 1.51957 15.7071 1.70711C15.5196 1.89464 15.2652 2 15 2H9.00001C8.73479 2 8.48044 1.89464 8.2929 1.70711C8.10536 1.51957 8.00001 1.26522 8.00001 1Z" fill="url(#paint0_linear_2_11)"/>
<defs>
<linearGradient id="paint0_linear_2_11" x1="0" y1="14" x2="24" y2="14" gradientUnits="userSpaceOnUse">
<stop stop-color="#007AFF"/>
<stop offset="0.3" stop-color="#6F45FF"/>
<stop offset="0.45" stop-color="#AE47FF"/>
<stop offset="0.7" stop-color="#FF3B7F"/>
<stop offset="0.85" stop-color="#FF6A00"/>
<stop offset="1" stop-color="#FF4B58"/>
</linearGradient>
</defs>
</svg>
