<svg width="34" height="34" viewBox="0 0 34 34" fill="none" xmlns="http://www.w3.org/2000/svg">
<circle cx="17" cy="17" r="17" fill="#BC3B3B"/>
<path fill-rule="evenodd" clip-rule="evenodd" d="M16 9.8C15.4165 9.8 14.8569 10.0318 14.4444 10.4444C14.0318 10.8569 13.8 11.4165 13.8 12V12.3544C13.164 12.416 12.5328 12.4952 11.908 12.5928C11.829 12.6036 11.7529 12.63 11.6842 12.6705C11.6156 12.711 11.5556 12.7647 11.508 12.8286C11.4603 12.8926 11.4259 12.9653 11.4067 13.0427C11.3874 13.1201 11.3838 13.2005 11.3961 13.2793C11.4083 13.3581 11.4361 13.4337 11.4779 13.5016C11.5196 13.5695 11.5745 13.6284 11.6393 13.6749C11.7041 13.7214 11.7775 13.7544 11.8552 13.7722C11.933 13.79 12.0134 13.7921 12.092 13.7784L12.2112 13.7608L12.884 22.1752C12.928 22.7266 13.1781 23.2411 13.5845 23.6163C13.9909 23.9916 14.5237 24.1999 15.0768 24.2H18.9224C19.4755 24.2002 20.0084 23.992 20.4149 23.6169C20.8214 23.2418 21.0717 22.7274 21.116 22.176L21.7888 13.76L21.908 13.7784C22.0637 13.7996 22.2216 13.7589 22.3476 13.6649C22.4737 13.5709 22.5578 13.4313 22.5819 13.2759C22.606 13.1206 22.5682 12.962 22.4766 12.8342C22.3849 12.7065 22.2469 12.6198 22.092 12.5928C21.4638 12.495 20.8328 12.4155 20.2 12.3544V12C20.2 11.4165 19.9682 10.8569 19.5556 10.4444C19.143 10.0318 18.5835 9.8 18 9.8H16ZM17 12.2C17.672 12.2 18.3384 12.22 19 12.26V12C19 11.448 18.552 11 18 11H16C15.448 11 15 11.448 15 12V12.26C15.6616 12.22 16.328 12.2 17 12.2ZM15.864 15.176C15.8576 15.0169 15.7883 14.8668 15.6713 14.7588C15.5543 14.6507 15.3991 14.5936 15.24 14.6C15.0809 14.6064 14.9308 14.6757 14.8228 14.7927C14.7147 14.9097 14.6576 15.0649 14.664 15.224L14.904 21.224C14.9071 21.3028 14.9258 21.3802 14.9588 21.4518C14.9919 21.5234 15.0388 21.5878 15.0967 21.6412C15.1546 21.6947 15.2225 21.7363 15.2966 21.7635C15.3706 21.7908 15.4492 21.8032 15.528 21.8C15.6068 21.7969 15.6842 21.7782 15.7558 21.7451C15.8274 21.7121 15.8917 21.6652 15.9452 21.6073C15.9987 21.5494 16.0403 21.4814 16.0675 21.4074C16.0947 21.3334 16.1071 21.2548 16.104 21.176L15.864 15.176ZM19.336 15.224C19.3391 15.1452 19.3267 15.0666 19.2995 14.9926C19.2723 14.9186 19.2307 14.8507 19.1772 14.7927C19.1237 14.7348 19.0594 14.6879 18.9878 14.6549C18.9162 14.6218 18.8388 14.6032 18.76 14.6C18.6009 14.5936 18.4457 14.6507 18.3287 14.7588C18.2117 14.8668 18.1424 15.0169 18.136 15.176L17.896 21.176C17.8928 21.2548 17.9052 21.3334 17.9325 21.4074C17.9597 21.4814 18.0013 21.5494 18.0548 21.6073C18.1082 21.6652 18.1726 21.7121 18.2442 21.7451C18.3158 21.7782 18.3932 21.7969 18.472 21.8C18.5508 21.8032 18.6294 21.7908 18.7034 21.7635C18.7774 21.7363 18.8453 21.6947 18.9033 21.6412C18.9612 21.5878 19.0081 21.5234 19.0411 21.4518C19.0742 21.3802 19.0928 21.3028 19.096 21.224L19.336 15.224Z" fill="white"/>
</svg>
