<svg width="34" height="34" viewBox="0 0 34 34" fill="none" xmlns="http://www.w3.org/2000/svg">
<circle cx="17" cy="17" r="17" fill="black"/>
<path fill-rule="evenodd" clip-rule="evenodd" d="M18.424 13.176C18.5364 13.2885 18.5995 13.441 18.5995 13.6C18.5995 13.759 18.5364 13.9115 18.424 14.024L15.448 17L18.424 19.976C18.483 20.0309 18.5303 20.0972 18.563 20.1708C18.5958 20.2444 18.6135 20.3238 18.6149 20.4044C18.6163 20.4849 18.6015 20.565 18.5713 20.6397C18.5411 20.7144 18.4962 20.7822 18.4393 20.8392C18.3823 20.8962 18.3144 20.9411 18.2397 20.9713C18.165 21.0015 18.085 21.0163 18.0044 21.0149C17.9238 21.0134 17.8444 20.9958 17.7708 20.963C17.6972 20.9302 17.631 20.8829 17.576 20.824L14.176 17.424C14.0637 17.3115 14.0005 17.159 14.0005 17C14.0005 16.841 14.0637 16.6885 14.176 16.576L17.576 13.176C17.6885 13.0636 17.841 13.0005 18 13.0005C18.159 13.0005 18.3115 13.0636 18.424 13.176Z" fill="white"/>
</svg>
