<svg width="34" height="34" viewBox="0 0 34 34" fill="none" xmlns="http://www.w3.org/2000/svg">
<circle cx="17" cy="17" r="17" fill="black"/>
<path fill-rule="evenodd" clip-rule="evenodd" d="M16.2 11.8C15.033 11.8 13.9139 12.2636 13.0887 13.0887C12.2635 13.9139 11.8 15.033 11.8 16.2C11.8 17.367 12.2635 18.4861 13.0887 19.3113C13.9139 20.1364 15.033 20.6 16.2 20.6C17.3669 20.6 18.4861 20.1364 19.3112 19.3113C20.1364 18.4861 20.6 17.367 20.6 16.2C20.6 15.033 20.1364 13.9139 19.3112 13.0887C18.4861 12.2636 17.3669 11.8 16.2 11.8ZM10.6 16.2C10.6001 15.3045 10.8149 14.4221 11.2264 13.6268C11.6379 12.8316 12.2342 12.1465 12.9651 11.6293C13.6961 11.112 14.5404 10.7776 15.4273 10.654C16.3142 10.5305 17.2178 10.6214 18.0623 10.9192C18.9068 11.217 19.6676 11.713 20.2808 12.3655C20.894 13.0181 21.3418 13.8082 21.5866 14.6695C21.8314 15.5309 21.8661 16.4384 21.6878 17.3159C21.5094 18.1934 21.1232 19.0154 20.5616 19.7128L23.224 22.376C23.2829 22.4309 23.3302 22.4972 23.363 22.5708C23.3958 22.6444 23.4134 22.7238 23.4148 22.8044C23.4163 22.8849 23.4015 22.965 23.3713 23.0397C23.3411 23.1144 23.2962 23.1823 23.2392 23.2392C23.1822 23.2962 23.1144 23.3411 23.0397 23.3713C22.9649 23.4015 22.8849 23.4163 22.8044 23.4149C22.7238 23.4135 22.6443 23.3958 22.5707 23.363C22.4971 23.3302 22.4309 23.283 22.376 23.224L19.7128 20.5616C18.89 21.2243 17.8966 21.6408 16.8472 21.7629C15.7978 21.885 14.7353 21.7077 13.7823 21.2516C12.8294 20.7955 12.0249 20.0792 11.4618 19.1853C10.8987 18.2914 10.5999 17.2565 10.6 16.2Z" fill="white"/>
</svg>
