<svg width="34" height="34" viewBox="0 0 34 34" fill="none" xmlns="http://www.w3.org/2000/svg">
<circle cx="17" cy="17" r="17" fill="black"/>
<path d="M13.3464 20.1336L14.356 17.6096C14.5169 17.2075 14.7578 16.8423 15.064 16.536L20.6 11.0016C20.9183 10.6833 21.3499 10.5045 21.8 10.5045C22.2501 10.5045 22.6817 10.6833 23 11.0016C23.3183 11.3199 23.4971 11.7515 23.4971 12.2016C23.4971 12.6517 23.3183 13.0833 23 13.4016L17.464 18.936C17.1576 19.2424 16.792 19.484 16.3896 19.6448L13.8664 20.6544C13.7937 20.6835 13.7141 20.6906 13.6374 20.6749C13.5607 20.6592 13.4903 20.6213 13.4349 20.5659C13.3795 20.5105 13.3416 20.4401 13.3259 20.3634C13.3102 20.2867 13.3173 20.2071 13.3464 20.1344V20.1336Z" fill="white"/>
<path d="M11.8 13.6C11.8 13.048 12.248 12.6 12.8 12.6H17C17.1591 12.6 17.3117 12.5368 17.4242 12.4243C17.5368 12.3117 17.6 12.1591 17.6 12C17.6 11.8409 17.5368 11.6883 17.4242 11.5757C17.3117 11.4632 17.1591 11.4 17 11.4H12.8C12.2165 11.4 11.6569 11.6318 11.2443 12.0444C10.8318 12.4569 10.6 13.0165 10.6 13.6V21.2C10.6 21.7835 10.8318 22.3431 11.2443 22.7556C11.6569 23.1682 12.2165 23.4 12.8 23.4H20.4C20.9835 23.4 21.543 23.1682 21.9556 22.7556C22.3682 22.3431 22.6 21.7835 22.6 21.2V17C22.6 16.8409 22.5368 16.6883 22.4242 16.5757C22.3117 16.4632 22.1591 16.4 22 16.4C21.8408 16.4 21.6882 16.4632 21.5757 16.5757C21.4632 16.6883 21.4 16.8409 21.4 17V21.2C21.4 21.752 20.952 22.2 20.4 22.2H12.8C12.248 22.2 11.8 21.752 11.8 21.2V13.6Z" fill="white"/>
</svg>
