<svg width="34" height="34" viewBox="0 0 34 34" fill="none" xmlns="http://www.w3.org/2000/svg">
<circle cx="17" cy="17" r="17" fill="black"/>
<path d="M14.024 13.176C13.9103 13.07 13.7598 13.0123 13.6044 13.015C13.449 13.0178 13.3006 13.0808 13.1907 13.1907C13.0808 13.3006 13.0178 13.4489 13.0151 13.6044C13.0123 13.7598 13.07 13.9102 13.176 14.024L16.152 17L13.176 19.976C13.1171 20.0309 13.0698 20.0972 13.037 20.1708C13.0042 20.2444 12.9866 20.3238 12.9851 20.4044C12.9837 20.4849 12.9985 20.565 13.0287 20.6397C13.0589 20.7144 13.1038 20.7822 13.1608 20.8392C13.2178 20.8962 13.2856 20.9411 13.3603 20.9713C13.435 21.0015 13.5151 21.0163 13.5956 21.0149C13.6762 21.0134 13.7556 20.9958 13.8292 20.963C13.9028 20.9302 13.9691 20.8829 14.024 20.824L17 17.848L19.976 20.824C20.0309 20.8829 20.0972 20.9302 20.1708 20.963C20.2444 20.9958 20.3238 21.0134 20.4044 21.0149C20.485 21.0163 20.565 21.0015 20.6397 20.9713C20.7144 20.9411 20.7823 20.8962 20.8392 20.8392C20.8962 20.7822 20.9411 20.7144 20.9713 20.6397C21.0015 20.565 21.0163 20.4849 21.0149 20.4044C21.0135 20.3238 20.9958 20.2444 20.963 20.1708C20.9302 20.0972 20.883 20.0309 20.824 19.976L17.848 17L20.824 14.024C20.93 13.9102 20.9877 13.7598 20.985 13.6044C20.9822 13.4489 20.9192 13.3006 20.8093 13.1907C20.6994 13.0808 20.5511 13.0178 20.3956 13.015C20.2402 13.0123 20.0898 13.07 19.976 13.176L17 16.152L14.024 13.176Z" fill="white"/>
</svg>
