<svg width="360" height="50" viewBox="0 0 360 50" fill="none" xmlns="http://www.w3.org/2000/svg">
<path opacity="0.4" fill-rule="evenodd" clip-rule="evenodd" d="M2.92893 2.92893C0 5.85786 0 10.5719 0 20V30C0 39.4281 0 44.1421 2.92893 47.0711C5.85786 50 10.5719 50 20 50H120V0H20C10.5719 0 5.85786 0 2.92893 2.92893Z" fill="white"/>
<path opacity="0.6" fill-rule="evenodd" clip-rule="evenodd" d="M120 50H340C349.428 50 354.142 50 357.071 47.0711C360 44.1421 360 39.4281 360 30V20C360 10.5719 360 5.85786 357.071 2.92893C354.142 0 349.428 0 340 0H120V50Z" fill="white"/>
<path opacity="0.8" d="M21.152 24.272H23.12V28.736C22.544 29.1947 21.872 29.5467 21.104 29.792C20.336 30.0373 19.5467 30.16 18.736 30.16C17.5947 30.16 16.5653 29.9147 15.648 29.424C14.7307 28.9227 14.0107 28.2347 13.488 27.36C12.9653 26.4853 12.704 25.4987 12.704 24.4C12.704 23.3013 12.9653 22.3147 13.488 21.44C14.0107 20.5653 14.7307 19.8827 15.648 19.392C16.576 18.8907 17.616 18.64 18.768 18.64C19.7067 18.64 20.56 18.7947 21.328 19.104C22.096 19.4133 22.7413 19.8667 23.264 20.464L21.952 21.744C21.0987 20.8907 20.0693 20.464 18.864 20.464C18.0747 20.464 17.3707 20.6293 16.752 20.96C16.144 21.2907 15.664 21.7547 15.312 22.352C14.9707 22.9493 14.8 23.632 14.8 24.4C14.8 25.1467 14.9707 25.8187 15.312 26.416C15.664 27.0133 16.144 27.4827 16.752 27.824C17.3707 28.1653 18.0693 28.336 18.848 28.336C19.7227 28.336 20.4907 28.144 21.152 27.76V24.272ZM33.7034 25.776C33.7034 25.9147 33.6927 26.112 33.6714 26.368H26.9674C27.0847 26.9973 27.3887 27.4987 27.8794 27.872C28.3807 28.2347 28.9994 28.416 29.7354 28.416C30.674 28.416 31.4474 28.1067 32.0554 27.488L33.1274 28.72C32.7434 29.1787 32.258 29.5253 31.6714 29.76C31.0847 29.9947 30.4234 30.112 29.6874 30.112C28.7487 30.112 27.922 29.9253 27.2074 29.552C26.4927 29.1787 25.938 28.6613 25.5434 28C25.1594 27.328 24.9674 26.5707 24.9674 25.728C24.9674 24.896 25.154 24.1493 25.5274 23.488C25.9114 22.816 26.4394 22.2933 27.1114 21.92C27.7834 21.5467 28.5407 21.36 29.3834 21.36C30.2154 21.36 30.9567 21.5467 31.6074 21.92C32.2687 22.2827 32.7807 22.8 33.1434 23.472C33.5167 24.1333 33.7034 24.9013 33.7034 25.776ZM29.3834 22.96C28.7434 22.96 28.1994 23.152 27.7514 23.536C27.314 23.9093 27.0474 24.4107 26.9514 25.04H31.7994C31.714 24.4213 31.4527 23.92 31.0154 23.536C30.578 23.152 30.034 22.96 29.3834 22.96ZM40.4725 21.36C41.5498 21.36 42.4138 21.6747 43.0645 22.304C43.7152 22.9333 44.0405 23.8667 44.0405 25.104V30H42.0405V25.36C42.0405 24.6133 41.8645 24.0533 41.5125 23.68C41.1605 23.296 40.6592 23.104 40.0085 23.104C39.2725 23.104 38.6912 23.328 38.2645 23.776C37.8378 24.2133 37.6245 24.848 37.6245 25.68V30H35.6245V21.456H37.5285V22.56C37.8592 22.1653 38.2752 21.8667 38.7765 21.664C39.2778 21.4613 39.8432 21.36 40.4725 21.36ZM54.6878 25.776C54.6878 25.9147 54.6771 26.112 54.6558 26.368H47.9518C48.0691 26.9973 48.3731 27.4987 48.8638 27.872C49.3651 28.2347 49.9838 28.416 50.7198 28.416C51.6584 28.416 52.4318 28.1067 53.0398 27.488L54.1118 28.72C53.7278 29.1787 53.2424 29.5253 52.6558 29.76C52.0691 29.9947 51.4078 30.112 50.6718 30.112C49.7331 30.112 48.9064 29.9253 48.1918 29.552C47.4771 29.1787 46.9224 28.6613 46.5278 28C46.1438 27.328 45.9518 26.5707 45.9518 25.728C45.9518 24.896 46.1384 24.1493 46.5118 23.488C46.8958 22.816 47.4238 22.2933 48.0958 21.92C48.7678 21.5467 49.5251 21.36 50.3678 21.36C51.1998 21.36 51.9411 21.5467 52.5918 21.92C53.2531 22.2827 53.7651 22.8 54.1278 23.472C54.5011 24.1333 54.6878 24.9013 54.6878 25.776ZM50.3678 22.96C49.7278 22.96 49.1838 23.152 48.7358 23.536C48.2984 23.9093 48.0318 24.4107 47.9358 25.04H52.7838C52.6984 24.4213 52.4371 23.92 51.9998 23.536C51.5624 23.152 51.0184 22.96 50.3678 22.96ZM58.5129 22.704C59.0889 21.808 60.1022 21.36 61.5529 21.36V23.264C61.3822 23.232 61.2275 23.216 61.0889 23.216C60.3102 23.216 59.7022 23.4453 59.2649 23.904C58.8275 24.352 58.6089 25.0027 58.6089 25.856V30H56.6089V21.456H58.5129V22.704ZM67.0114 30.112C66.1474 30.112 65.3687 29.9253 64.6754 29.552C63.982 29.1787 63.438 28.6613 63.0434 28C62.6594 27.328 62.4674 26.5707 62.4674 25.728C62.4674 24.8853 62.6594 24.1333 63.0434 23.472C63.438 22.8107 63.982 22.2933 64.6754 21.92C65.3687 21.5467 66.1474 21.36 67.0114 21.36C67.886 21.36 68.67 21.5467 69.3634 21.92C70.0567 22.2933 70.5954 22.8107 70.9794 23.472C71.374 24.1333 71.5714 24.8853 71.5714 25.728C71.5714 26.5707 71.374 27.328 70.9794 28C70.5954 28.6613 70.0567 29.1787 69.3634 29.552C68.67 29.9253 67.886 30.112 67.0114 30.112ZM67.0114 28.4C67.7474 28.4 68.3554 28.1547 68.8354 27.664C69.3154 27.1733 69.5554 26.528 69.5554 25.728C69.5554 24.928 69.3154 24.2827 68.8354 23.792C68.3554 23.3013 67.7474 23.056 67.0114 23.056C66.2754 23.056 65.6674 23.3013 65.1874 23.792C64.718 24.2827 64.4834 24.928 64.4834 25.728C64.4834 26.528 64.718 27.1733 65.1874 27.664C65.6674 28.1547 66.2754 28.4 67.0114 28.4ZM74.1239 24.016C73.7612 24.016 73.4519 23.8933 73.1959 23.648C72.9399 23.392 72.8119 23.072 72.8119 22.688C72.8119 22.2933 72.9345 21.9733 73.1799 21.728C73.4359 21.4827 73.7505 21.36 74.1239 21.36C74.4972 21.36 74.8065 21.4827 75.0519 21.728C75.3079 21.9733 75.4359 22.2933 75.4359 22.688C75.4359 23.072 75.3079 23.392 75.0519 23.648C74.7959 23.8933 74.4865 24.016 74.1239 24.016ZM74.1239 30.112C73.7612 30.112 73.4519 29.9893 73.1959 29.744C72.9399 29.488 72.8119 29.168 72.8119 28.784C72.8119 28.3893 72.9345 28.0693 73.1799 27.824C73.4359 27.5787 73.7505 27.456 74.1239 27.456C74.4972 27.456 74.8065 27.5787 75.0519 27.824C75.3079 28.0693 75.4359 28.3893 75.4359 28.784C75.4359 29.168 75.3079 29.488 75.0519 29.744C74.7959 29.9893 74.4865 30.112 74.1239 30.112Z" fill="white"/>
</svg>
