<svg width="360" height="50" viewBox="0 0 360 50" fill="none" xmlns="http://www.w3.org/2000/svg">
<path opacity="0.4" fill-rule="evenodd" clip-rule="evenodd" d="M2.92893 2.92893C0 5.85786 0 10.5719 0 20V30C0 39.4281 0 44.1421 2.92893 47.0711C5.85786 50 10.5719 50 20 50H120V0H20C10.5719 0 5.85786 0 2.92893 2.92893Z" fill="white"/>
<path opacity="0.6" fill-rule="evenodd" clip-rule="evenodd" d="M120 50H340C349.428 50 354.142 50 357.071 47.0711C360 44.1421 360 39.4281 360 30V20C360 10.5719 360 5.85786 357.071 2.92893C354.142 0 349.428 0 340 0H120V50Z" fill="white"/>
<path opacity="0.8" d="M18.688 30.16C17.5573 30.16 16.5333 29.9147 15.616 29.424C14.7093 28.9227 13.9947 28.2347 13.472 27.36C12.96 26.4853 12.704 25.4987 12.704 24.4C12.704 23.3013 12.9653 22.3147 13.488 21.44C14.0107 20.5653 14.7253 19.8827 15.632 19.392C16.5493 18.8907 17.5733 18.64 18.704 18.64C19.6213 18.64 20.4587 18.8 21.216 19.12C21.9733 19.44 22.6133 19.904 23.136 20.512L21.792 21.776C20.9813 20.9013 19.984 20.464 18.8 20.464C18.032 20.464 17.344 20.6347 16.736 20.976C16.128 21.3067 15.6533 21.7707 15.312 22.368C14.9707 22.9653 14.8 23.6427 14.8 24.4C14.8 25.1573 14.9707 25.8347 15.312 26.432C15.6533 27.0293 16.128 27.4987 16.736 27.84C17.344 28.1707 18.032 28.336 18.8 28.336C19.984 28.336 20.9813 27.8933 21.792 27.008L23.136 28.288C22.6133 28.896 21.968 29.36 21.2 29.68C20.4427 30 19.6053 30.16 18.688 30.16ZM28.1229 21.36C29.3815 21.36 30.3415 21.664 31.0029 22.272C31.6749 22.8693 32.0109 23.776 32.0109 24.992V30H30.1229V28.96C29.8775 29.3333 29.5255 29.6213 29.0669 29.824C28.6189 30.016 28.0749 30.112 27.4349 30.112C26.7949 30.112 26.2349 30.0053 25.7549 29.792C25.2749 29.568 24.9015 29.264 24.6349 28.88C24.3789 28.4853 24.2509 28.0427 24.2509 27.552C24.2509 26.784 24.5335 26.1707 25.0989 25.712C25.6749 25.2427 26.5762 25.008 27.8029 25.008H30.0109V24.88C30.0109 24.2827 29.8295 23.824 29.4669 23.504C29.1149 23.184 28.5869 23.024 27.8829 23.024C27.4029 23.024 26.9282 23.0987 26.4589 23.248C26.0002 23.3973 25.6109 23.6053 25.2909 23.872L24.5069 22.416C24.9549 22.0747 25.4935 21.8133 26.1229 21.632C26.7522 21.4507 27.4189 21.36 28.1229 21.36ZM27.8509 28.656C28.3522 28.656 28.7949 28.544 29.1789 28.32C29.5735 28.0853 29.8509 27.7547 30.0109 27.328V26.336H27.9469C26.7949 26.336 26.2189 26.7147 26.2189 27.472C26.2189 27.8347 26.3629 28.1227 26.6509 28.336C26.9389 28.5493 27.3389 28.656 27.8509 28.656ZM39.7136 29.536C39.479 29.728 39.191 29.872 38.8496 29.968C38.519 30.064 38.167 30.112 37.7936 30.112C36.855 30.112 36.1296 29.8667 35.6176 29.376C35.1056 28.8853 34.8496 28.1707 34.8496 27.232V23.12H33.4416V21.52H34.8496V19.568H36.8496V21.52H39.1376V23.12H36.8496V27.184C36.8496 27.6 36.951 27.92 37.1536 28.144C37.3563 28.3573 37.6496 28.464 38.0336 28.464C38.4816 28.464 38.855 28.3467 39.1536 28.112L39.7136 29.536ZM49.1096 25.776C49.1096 25.9147 49.099 26.112 49.0776 26.368H42.3736C42.491 26.9973 42.795 27.4987 43.2856 27.872C43.787 28.2347 44.4056 28.416 45.1416 28.416C46.0803 28.416 46.8536 28.1067 47.4616 27.488L48.5336 28.72C48.1496 29.1787 47.6643 29.5253 47.0776 29.76C46.491 29.9947 45.8296 30.112 45.0936 30.112C44.155 30.112 43.3283 29.9253 42.6136 29.552C41.899 29.1787 41.3443 28.6613 40.9496 28C40.5656 27.328 40.3736 26.5707 40.3736 25.728C40.3736 24.896 40.5603 24.1493 40.9336 23.488C41.3176 22.816 41.8456 22.2933 42.5176 21.92C43.1896 21.5467 43.947 21.36 44.7896 21.36C45.6216 21.36 46.363 21.5467 47.0136 21.92C47.675 22.2827 48.187 22.8 48.5496 23.472C48.923 24.1333 49.1096 24.9013 49.1096 25.776ZM44.7896 22.96C44.1496 22.96 43.6056 23.152 43.1576 23.536C42.7203 23.9093 42.4536 24.4107 42.3576 25.04H47.2056C47.1203 24.4213 46.859 23.92 46.4216 23.536C45.9843 23.152 45.4403 22.96 44.7896 22.96ZM59.5108 21.456V28.704C59.5108 31.712 57.9748 33.216 54.9028 33.216C54.0814 33.216 53.3028 33.1093 52.5668 32.896C51.8308 32.6933 51.2228 32.3947 50.7428 32L51.6388 30.496C52.0121 30.8053 52.4814 31.0507 53.0468 31.232C53.6228 31.424 54.2041 31.52 54.7908 31.52C55.7294 31.52 56.4174 31.3067 56.8548 30.88C57.2921 30.4533 57.5108 29.8027 57.5108 28.928V28.48C57.1694 28.8533 56.7534 29.136 56.2628 29.328C55.7721 29.52 55.2334 29.616 54.6468 29.616C53.8361 29.616 53.1001 29.4453 52.4388 29.104C51.7881 28.752 51.2708 28.2613 50.8868 27.632C50.5134 27.0027 50.3268 26.2827 50.3268 25.472C50.3268 24.6613 50.5134 23.9467 50.8868 23.328C51.2708 22.6987 51.7881 22.2133 52.4388 21.872C53.1001 21.5307 53.8361 21.36 54.6468 21.36C55.2654 21.36 55.8254 21.4613 56.3268 21.664C56.8388 21.8667 57.2654 22.176 57.6068 22.592V21.456H59.5108ZM54.9508 27.92C55.7081 27.92 56.3268 27.696 56.8068 27.248C57.2974 26.7893 57.5428 26.1973 57.5428 25.472C57.5428 24.7573 57.2974 24.176 56.8068 23.728C56.3268 23.28 55.7081 23.056 54.9508 23.056C54.1828 23.056 53.5534 23.28 53.0628 23.728C52.5828 24.176 52.3428 24.7573 52.3428 25.472C52.3428 26.1973 52.5828 26.7893 53.0628 27.248C53.5534 27.696 54.1828 27.92 54.9508 27.92ZM65.9801 30.112C65.1161 30.112 64.3375 29.9253 63.6441 29.552C62.9508 29.1787 62.4068 28.6613 62.0121 28C61.6281 27.328 61.4361 26.5707 61.4361 25.728C61.4361 24.8853 61.6281 24.1333 62.0121 23.472C62.4068 22.8107 62.9508 22.2933 63.6441 21.92C64.3375 21.5467 65.1161 21.36 65.9801 21.36C66.8548 21.36 67.6388 21.5467 68.3321 21.92C69.0255 22.2933 69.5641 22.8107 69.9481 23.472C70.3428 24.1333 70.5401 24.8853 70.5401 25.728C70.5401 26.5707 70.3428 27.328 69.9481 28C69.5641 28.6613 69.0255 29.1787 68.3321 29.552C67.6388 29.9253 66.8548 30.112 65.9801 30.112ZM65.9801 28.4C66.7161 28.4 67.3241 28.1547 67.8041 27.664C68.2841 27.1733 68.5241 26.528 68.5241 25.728C68.5241 24.928 68.2841 24.2827 67.8041 23.792C67.3241 23.3013 66.7161 23.056 65.9801 23.056C65.2441 23.056 64.6361 23.3013 64.1561 23.792C63.6868 24.2827 63.4521 24.928 63.4521 25.728C63.4521 26.528 63.6868 27.1733 64.1561 27.664C64.6361 28.1547 65.2441 28.4 65.9801 28.4ZM74.3566 22.704C74.9326 21.808 75.946 21.36 77.3966 21.36V23.264C77.226 23.232 77.0713 23.216 76.9326 23.216C76.154 23.216 75.546 23.4453 75.1086 23.904C74.6713 24.352 74.4526 25.0027 74.4526 25.856V30H72.4526V21.456H74.3566V22.704ZM79.0933 21.456H81.0933V30H79.0933V21.456ZM80.9173 18.096H83.2693L80.4853 20.288H78.7573L80.9173 18.096ZM86.9823 21.36C88.2409 21.36 89.2009 21.664 89.8623 22.272C90.5343 22.8693 90.8703 23.776 90.8703 24.992V30H88.9823V28.96C88.7369 29.3333 88.3849 29.6213 87.9263 29.824C87.4783 30.016 86.9343 30.112 86.2943 30.112C85.6543 30.112 85.0943 30.0053 84.6143 29.792C84.1343 29.568 83.7609 29.264 83.4943 28.88C83.2383 28.4853 83.1103 28.0427 83.1103 27.552C83.1103 26.784 83.3929 26.1707 83.9583 25.712C84.5343 25.2427 85.4356 25.008 86.6623 25.008H88.8703V24.88C88.8703 24.2827 88.6889 23.824 88.3263 23.504C87.9743 23.184 87.4463 23.024 86.7423 23.024C86.2623 23.024 85.7876 23.0987 85.3183 23.248C84.8596 23.3973 84.4703 23.6053 84.1503 23.872L83.3663 22.416C83.8143 22.0747 84.3529 21.8133 84.9823 21.632C85.6116 21.4507 86.2783 21.36 86.9823 21.36ZM86.7103 28.656C87.2116 28.656 87.6543 28.544 88.0383 28.32C88.4329 28.0853 88.7103 27.7547 88.8703 27.328V26.336H86.8063C85.6543 26.336 85.0783 26.7147 85.0783 27.472C85.0783 27.8347 85.2223 28.1227 85.5103 28.336C85.7983 28.5493 86.1983 28.656 86.7103 28.656ZM94.077 24.016C93.7143 24.016 93.405 23.8933 93.149 23.648C92.893 23.392 92.765 23.072 92.765 22.688C92.765 22.2933 92.8877 21.9733 93.133 21.728C93.389 21.4827 93.7037 21.36 94.077 21.36C94.4503 21.36 94.7597 21.4827 95.005 21.728C95.261 21.9733 95.389 22.2933 95.389 22.688C95.389 23.072 95.261 23.392 95.005 23.648C94.749 23.8933 94.4397 24.016 94.077 24.016ZM94.077 30.112C93.7143 30.112 93.405 29.9893 93.149 29.744C92.893 29.488 92.765 29.168 92.765 28.784C92.765 28.3893 92.8877 28.0693 93.133 27.824C93.389 27.5787 93.7037 27.456 94.077 27.456C94.4503 27.456 94.7597 27.5787 95.005 27.824C95.261 28.0693 95.389 28.3893 95.389 28.784C95.389 29.168 95.261 29.488 95.005 29.744C94.749 29.9893 94.4397 30.112 94.077 30.112Z" fill="white"/>
</svg>
