<svg width="32" height="32" viewBox="0 0 32 32" fill="none" xmlns="http://www.w3.org/2000/svg">
<g clip-path="url(#clip0_9_634)">
<path d="M32 16.098C32 7.20605 24.836 -0.00195312 16 -0.00195312C7.15997 4.68751e-05 -0.00402832 7.20605 -0.00402832 16.1C-0.00402832 24.134 5.84797 30.794 13.496 32.002V20.752H9.43597V16.1H13.5V12.55C13.5 8.51605 15.89 6.28805 19.544 6.28805C21.296 6.28805 23.126 6.60205 23.126 6.60205V10.562H21.108C19.122 10.562 18.502 11.804 18.502 13.078V16.098H22.938L22.23 20.75H18.5V32C26.148 30.792 32 24.132 32 16.098Z" fill="black"/>
</g>
<defs>
<clipPath id="clip0_9_634">
<rect width="32" height="32" fill="white"/>
</clipPath>
</defs>
</svg>
