<svg width="32" height="32" viewBox="0 0 32 32" fill="none" xmlns="http://www.w3.org/2000/svg">
<g clip-path="url(#clip0_9_636)">
<path d="M18 0H21.96C22.248 1.43 23.04 3.234 24.43 5.024C25.79 6.778 27.594 8 30 8V12C26.494 12 23.86 10.372 22 8.342V22C22 23.9778 21.4135 25.9112 20.3147 27.5557C19.2159 29.2002 17.6541 30.4819 15.8268 31.2388C13.9996 31.9957 11.9889 32.1937 10.0491 31.8079C8.10929 31.422 6.32746 30.4696 4.92894 29.0711C3.53041 27.6725 2.578 25.8907 2.19215 23.9509C1.8063 22.0111 2.00433 20.0004 2.76121 18.1732C3.51809 16.3459 4.79981 14.7841 6.4443 13.6853C8.08879 12.5865 10.0222 12 12 12V16C10.8133 16 9.65328 16.3519 8.66658 17.0112C7.67989 17.6705 6.91085 18.6075 6.45673 19.7039C6.0026 20.8003 5.88378 22.0067 6.11529 23.1705C6.3468 24.3344 6.91825 25.4035 7.75736 26.2426C8.59648 27.0818 9.66558 27.6532 10.8295 27.8847C11.9933 28.1162 13.1997 27.9974 14.2961 27.5433C15.3925 27.0892 16.3295 26.3201 16.9888 25.3334C17.6481 24.3467 18 23.1867 18 22V0Z" fill="black"/>
</g>
<defs>
<clipPath id="clip0_9_636">
<rect width="32" height="32" fill="white"/>
</clipPath>
</defs>
</svg>
