<svg width="92" height="92" viewBox="0 0 92 92" fill="none" xmlns="http://www.w3.org/2000/svg">
<path d="M34.5416 66.4583L66.625 45.8333L34.5416 25.2083V66.4583ZM46 91.6667C39.6597 91.6667 33.7014 90.4628 28.125 88.055C22.5486 85.6472 17.6979 82.3824 13.5729 78.2604C9.44788 74.1385 6.18302 69.2878 3.7783 63.7083C1.37358 58.1289 0.169687 52.1706 0.166632 45.8333C0.163576 39.4961 1.36747 33.5378 3.7783 27.9583C6.18913 22.3789 9.45399 17.5282 13.5729 13.4063C17.6918 9.28431 22.5425 6.01945 28.125 3.61167C33.7075 1.20389 39.6658 0 46 0C52.3341 0 58.2925 1.20389 63.875 3.61167C69.4575 6.01945 74.3082 9.28431 78.427 13.4063C82.5459 17.5282 85.8123 22.3789 88.2262 27.9583C90.6401 33.5378 91.8425 39.4961 91.8333 45.8333C91.8241 52.1706 90.6202 58.1289 88.2216 63.7083C85.823 69.2878 82.5582 74.1385 78.427 78.2604C74.2959 82.3824 69.4452 85.6488 63.875 88.0596C58.3047 90.4704 52.3463 91.6728 46 91.6667Z" fill="#B7A63C" fill-opacity="0.8"/>
</svg>
