<svg width="42" height="43" viewBox="0 0 42 43" fill="none" xmlns="http://www.w3.org/2000/svg">
<path d="M20.8333 0.833344C18.0975 0.833344 15.3884 1.37221 12.8608 2.41919C10.3331 3.46616 8.0365 5.00073 6.10194 6.93529C2.19493 10.8423 0 16.1413 0 21.6667C0 27.192 2.19493 32.4911 6.10194 36.3981C8.0365 38.3326 10.3331 39.8672 12.8608 40.9142C15.3884 41.9611 18.0975 42.5 20.8333 42.5C26.3587 42.5 31.6577 40.3051 35.5647 36.3981C39.4717 32.4911 41.6667 27.192 41.6667 21.6667C41.6667 18.9308 41.1278 16.2217 40.0808 13.6941C39.0339 11.1665 37.4993 8.86984 35.5647 6.93529C33.6302 5.00073 31.3335 3.46616 28.8059 2.41919C26.2783 1.37221 23.5692 0.833344 20.8333 0.833344ZM12.5 13.3333L22.9167 21.6667L12.5 30M25 13.3333H29.1667V30H25" fill="#B7A63C" fill-opacity="0.8"/>
</svg>
