<svg width="92" height="92" viewBox="0 0 92 92" fill="none" xmlns="http://www.w3.org/2000/svg">
<path d="M32.0845 64.169H41.2515V27.501H32.0845V64.169ZM50.4185 64.169H59.5855V27.501H50.4185V64.169ZM45.835 91.6699C39.4945 91.6699 33.5359 90.466 27.9593 88.0581C22.3828 85.6503 17.5319 82.3853 13.4067 78.2632C9.28159 74.1411 6.01661 69.2902 3.6118 63.7106C1.20699 58.131 0.00306147 52.1724 5.80189e-06 45.835C-0.00304986 39.4975 1.20088 33.539 3.6118 27.9593C6.02272 22.3797 9.2877 17.5288 13.4067 13.4067C17.5258 9.28464 22.3766 6.01966 27.9593 3.6118C33.542 1.20393 39.5006 0 45.835 0C52.1694 0 58.1279 1.20393 63.7106 3.6118C69.2933 6.01966 74.1442 9.28464 78.2632 13.4067C82.3823 17.5288 85.6488 22.3797 88.0627 27.9593C90.4767 33.539 91.6791 39.4975 91.6699 45.835C91.6608 52.1724 90.4569 58.131 88.0582 63.7106C85.6595 69.2902 82.3945 74.1411 78.2632 78.2632C74.132 82.3853 69.2811 85.6518 63.7106 88.0627C58.1401 90.4736 52.1816 91.676 45.835 91.6699Z" fill="#B7A63C" fill-opacity="0.8"/>
</svg>
