<svg width="42" height="43" viewBox="0 0 42 43" fill="none" xmlns="http://www.w3.org/2000/svg">
<path d="M20.8334 0.833344C23.5692 0.833344 26.2783 1.37221 28.8059 2.41919C31.3335 3.46616 33.6302 5.00073 35.5647 6.93529C39.4718 10.8423 41.6667 16.1413 41.6667 21.6667C41.6667 27.192 39.4718 32.4911 35.5647 36.3981C33.6302 38.3326 31.3335 39.8672 28.8059 40.9142C26.2783 41.9611 23.5692 42.5 20.8334 42.5C15.308 42.5 10.009 40.3051 6.10196 36.3981C2.19495 32.4911 1.52588e-05 27.192 1.52588e-05 21.6667C1.52588e-05 18.9308 0.538887 16.2217 1.58586 13.6941C2.63283 11.1665 4.1674 8.86984 6.10196 6.93529C8.03651 5.00073 10.3332 3.46616 12.8608 2.41919C15.3884 1.37221 18.0975 0.833344 20.8334 0.833344ZM29.1667 13.3333L18.75 21.6667L29.1667 30M16.6667 13.3333H12.5V30H16.6667" fill="#B7A63C" fill-opacity="0.8"/>
</svg>
