<svg width="380" height="700" viewBox="0 0 380 700" fill="none" xmlns="http://www.w3.org/2000/svg">
<g clip-path="url(#clip0_80_18)">
<path d="M0 237H50C87.0031 237 117 266.997 117 304V371H0V237Z" fill="white" fill-opacity="0.3"/>
<path d="M265.378 185.499L267.342 185.499L272.251 190.408L274.214 190.408L276.178 192.372L278.141 192.372L282.069 196.299L284.032 196.299L285.996 198.263L287.959 198.263L289.923 200.226L291.886 200.226L292.868 201.208L294.832 201.208L295.813 202.19L297.777 202.19L298.759 203.171L302.686 203.171L303.668 204.153L305.631 204.153L306.613 205.135L308.577 205.135L309.558 206.117L313.485 206.117L314.467 207.099L322.321 207.099L323.303 208.08L342.939 208.08L343.921 207.099L353.738 207.099L354.72 206.117L358.647 206.117L360.611 204.153L362.574 204.153L363.556 203.171L367.483 203.171L368.465 202.19L370.429 202.19L371.41 201.208L373.374 201.208L375.338 199.244L377.301 199.244L378.283 198.263L380.246 198.263L383.192 195.317L385.155 195.317L388.101 192.372L390.064 192.372L392.028 190.408L393.991 190.408L398.9 185.499L400.864 185.499L420.499 165.864L420.499 163.9L425.408 158.991L425.408 157.028L427.372 155.064L427.372 153.101L430.317 150.155L430.317 148.192L433.263 145.246L433.263 143.283L434.244 142.301L434.244 140.338L435.226 139.356L435.226 137.392L436.208 136.41L436.208 134.447L437.19 133.465L437.19 131.502L438.171 130.52L438.171 128.556L439.153 127.574L439.153 125.611L440.135 124.629L440.135 122.666L441.117 121.684L441.117 117.757L442.099 116.775L442.099 108.921L443.08 107.939L443.08 88.3033L442.099 87.3215L442.099 79.4673L441.117 78.4855L441.117 74.5584L440.135 73.5766L440.135 71.6131L439.153 70.6313L439.153 68.6677L438.171 67.6859L438.171 63.7588L437.19 62.777L437.19 60.8135L436.208 59.8317L436.208 57.8681L435.226 56.8864L435.226 54.9228L433.263 52.9592L433.263 50.9957L430.317 48.0503L430.317 46.0868L427.372 43.1415L427.372 41.1779L425.408 39.2143L425.408 37.2508L420.499 32.3419L420.499 30.3783L377.301 73.5766L379.265 75.5402L379.265 77.5037L382.21 80.4491L382.21 82.4126L383.192 83.3944L383.192 89.2851L384.174 90.2669L384.174 105.975L383.192 106.957L383.192 112.848L382.21 113.83L382.21 115.793L379.265 118.738L379.265 120.702L377.301 122.666L377.301 124.629L374.356 127.574L374.356 129.538L364.538 139.356L362.574 139.356L359.629 142.301L357.666 142.301L355.702 144.265L353.738 144.265L350.793 147.21L348.83 147.21L347.848 148.192L341.957 148.192L340.975 149.174L325.267 149.174L324.285 148.192L318.394 148.192L317.413 147.21L315.449 147.21L312.504 144.265L310.54 144.265L308.577 142.301L265.378 185.499Z" fill="white" fill-opacity="0.3"/>
<path d="M307.595 76.522V78.4855L303.668 82.4126V84.3762L302.686 85.358V87.3215L301.704 88.3033V90.2669L300.722 91.2486V97.1393L299.741 98.1211L300.722 99.1029V104.994L301.704 105.975V107.939L302.686 108.921V110.884L303.668 111.866V113.83L305.631 115.793V117.757L312.504 124.629H314.467L317.413 127.574H319.376L320.358 128.556H322.322L323.303 129.538H325.267L326.249 130.52H330.176L331.158 131.502H333.121L334.103 130.52H339.994L340.975 129.538H342.939L343.921 128.556H345.884L346.866 127.574H348.83L351.775 124.629H353.738L359.629 118.738V116.775L362.575 113.83V111.866L363.556 110.884V108.921L364.538 107.939V105.975L365.52 104.994V93.2122L364.538 92.2304V88.3033L363.556 87.3215V85.358L362.575 84.3762V82.4126L359.629 79.4673V77.5037L354.72 72.5948H352.757L348.83 68.6677H346.866L345.884 67.6859H343.921L342.939 66.7042H339.012L338.03 65.7224H326.249L325.267 66.7042H323.303L322.322 67.6859H320.358L319.376 68.6677H317.413L313.486 72.5948H311.522L307.595 76.522Z" fill="white" fill-opacity="0.3"/>
<path d="M245.743 30.3783L245.743 32.3419L240.834 37.2508L240.834 39.2143L238.87 41.1779L238.87 43.1415L235.925 46.0868L235.925 48.0503L231.998 51.9775L231.998 53.941L231.016 54.9228L231.016 56.8864L230.034 57.8681L230.034 59.8317L229.053 60.8135L229.053 62.777L228.071 63.7588L228.071 65.7224L227.089 66.7042L227.089 70.6313L225.125 72.5948L225.125 76.5219L224.144 77.5037L224.144 87.3215L223.162 88.3033L223.162 107.939L224.144 108.921L224.144 118.738L225.125 119.72L225.125 123.647L227.089 125.611L227.089 129.538L228.071 130.52L228.071 132.483L229.053 133.465L229.053 135.429L230.034 136.41L230.034 138.374L231.016 139.356L231.016 141.319L232.98 143.283L232.98 145.246L234.943 147.21L234.943 149.174L237.889 152.119L237.889 154.083L240.834 157.028L240.834 158.991L244.761 162.919L244.761 164.882L245.743 165.864L287.959 123.647L287.959 121.684L285.996 119.72L285.996 117.757L284.032 115.793L284.032 113.83L283.05 112.848L283.05 108.921L282.069 107.939L282.069 90.2669L283.05 89.2851L283.05 83.3944L284.032 82.4126L284.032 80.4491L285.996 78.4855L285.996 76.5219L287.959 74.5584L287.959 72.5948L290.905 69.6495L290.905 67.6859L302.686 55.9046L304.65 55.9046L307.595 52.9592L309.558 52.9592L311.522 50.9957L313.486 50.9957L315.449 49.0321L317.413 49.0321L318.394 48.0503L324.285 48.0503L325.267 47.0686L340.975 47.0686L341.957 48.0503L347.848 48.0503L348.83 49.0321L350.793 49.0321L353.738 51.9775L355.702 51.9775L357.666 53.941L400.864 10.7427L398.9 10.7427L394.973 6.81561L393.01 6.81561L390.064 3.87028L388.101 3.87028L385.155 0.924939L383.192 0.924939L380.247 -2.0204L378.283 -2.0204L376.319 -3.98396L374.356 -3.98396L373.374 -4.96574L371.411 -4.96574L370.429 -5.94752L368.465 -5.94752L367.483 -6.92929L363.556 -6.92929L362.575 -7.91107L360.611 -7.91107L359.629 -8.89285L357.666 -8.89285L356.684 -9.87463L352.757 -9.87463L351.775 -10.8564L343.921 -10.8564L342.939 -11.8382L323.303 -11.8382L322.322 -10.8564L314.467 -10.8564L313.486 -9.87463L309.558 -9.87463L308.577 -8.89285L306.613 -8.89285L305.631 -7.91107L303.668 -7.91107L302.686 -6.92929L298.759 -6.92929L297.777 -5.94751L295.814 -5.94751L294.832 -4.96573L292.868 -4.96573L291.886 -3.98395L289.923 -3.98395L287.959 -2.02039L285.996 -2.02039L283.05 0.924943L281.087 0.924943L278.141 3.87028L276.178 3.87028L274.214 5.83384L272.251 5.83384L267.342 10.7427L265.378 10.7427L245.743 30.3783Z" fill="white" fill-opacity="0.3"/>
<path d="M0 358C0 341.431 13.4315 328 30 328H350C366.569 328 380 341.431 380 358V680C380 691.046 371.046 700 360 700H20C8.9543 700 0 691.046 0 680V358Z" fill="white"/>
<path d="M27.6 417.1V431H25.32V424.92H18.78V431H16.5V417.1H18.78V423.06H25.32V417.1H27.6ZM40.3216 421.24C40.3216 421.947 40.1549 422.613 39.8216 423.24C39.4882 423.867 38.9549 424.38 38.2216 424.78C37.4882 425.167 36.5482 425.36 35.4016 425.36H32.8816V431H30.6016V417.1H35.4016C36.4682 417.1 37.3682 417.287 38.1016 417.66C38.8482 418.02 39.4016 418.513 39.7616 419.14C40.1349 419.767 40.3216 420.467 40.3216 421.24ZM35.4016 423.5C36.2682 423.5 36.9149 423.307 37.3416 422.92C37.7682 422.52 37.9816 421.96 37.9816 421.24C37.9816 419.72 37.1216 418.96 35.4016 418.96H32.8816V423.5H35.4016Z" fill="#AAAAAA"/>
<path d="M24.88 458.16H19.06L18.06 461H15.68L20.66 447.08H23.3L28.28 461H25.88L24.88 458.16ZM24.24 456.3L21.98 449.84L19.7 456.3H24.24ZM33.1053 451.84V457.94C33.1053 458.353 33.1986 458.653 33.3853 458.84C33.5853 459.013 33.9186 459.1 34.3853 459.1H35.7853V461H33.9853C32.9586 461 32.172 460.76 31.6253 460.28C31.0786 459.8 30.8053 459.02 30.8053 457.94V451.84H29.5053V449.98H30.8053V447.24H33.1053V449.98H35.7853V451.84H33.1053ZM42.2467 455.5L47.3267 461H44.2467L40.1667 456.26V461H37.8867V446.2H40.1667V454.8L44.1667 449.98H47.3267L42.2467 455.5Z" fill="#AAAAAA"/>
<path d="M21.04 477.1C22.52 477.1 23.8133 477.387 24.92 477.96C26.04 478.52 26.9 479.333 27.5 480.4C28.1133 481.453 28.42 482.687 28.42 484.1C28.42 485.513 28.1133 486.74 27.5 487.78C26.9 488.82 26.04 489.62 24.92 490.18C23.8133 490.727 22.52 491 21.04 491H16.5V477.1H21.04ZM21.04 489.14C22.6667 489.14 23.9133 488.7 24.78 487.82C25.6467 486.94 26.08 485.7 26.08 484.1C26.08 482.487 25.6467 481.227 24.78 480.32C23.9133 479.413 22.6667 478.96 21.04 478.96H18.78V489.14H21.04ZM40.7797 485.22C40.7797 485.633 40.753 486.007 40.6997 486.34H32.2797C32.3464 487.22 32.673 487.927 33.2597 488.46C33.8464 488.993 34.5664 489.26 35.4197 489.26C36.6464 489.26 37.513 488.747 38.0197 487.72H40.4797C40.1464 488.733 39.5397 489.567 38.6597 490.22C37.793 490.86 36.713 491.18 35.4197 491.18C34.3664 491.18 33.4197 490.947 32.5797 490.48C31.753 490 31.0997 489.333 30.6197 488.48C30.153 487.613 29.9197 486.613 29.9197 485.48C29.9197 484.347 30.1464 483.353 30.5997 482.5C31.0664 481.633 31.713 480.967 32.5397 480.5C33.3797 480.033 34.3397 479.8 35.4197 479.8C36.4597 479.8 37.3864 480.027 38.1997 480.48C39.013 480.933 39.6464 481.573 40.0997 482.4C40.553 483.213 40.7797 484.153 40.7797 485.22ZM38.3997 484.5C38.3864 483.66 38.0864 482.987 37.4997 482.48C36.913 481.973 36.1864 481.72 35.3197 481.72C34.533 481.72 33.8597 481.973 33.2997 482.48C32.7397 482.973 32.4064 483.647 32.2997 484.5H38.3997ZM47.6434 481.84H45.6034V491H43.3034V481.84H42.0034V479.98H43.3034V479.2C43.3034 477.933 43.6368 477.013 44.3034 476.44C44.9834 475.853 46.0434 475.56 47.4834 475.56V477.46C46.7901 477.46 46.3034 477.593 46.0234 477.86C45.7434 478.113 45.6034 478.56 45.6034 479.2V479.98H47.6434V481.84Z" fill="#AAAAAA"/>
<path d="M21.08 521.14C20.1467 521.14 19.3067 520.98 18.56 520.66C17.8133 520.327 17.2267 519.86 16.8 519.26C16.3733 518.66 16.16 517.96 16.16 517.16H18.6C18.6533 517.76 18.8867 518.253 19.3 518.64C19.7267 519.027 20.32 519.22 21.08 519.22C21.8667 519.22 22.48 519.033 22.92 518.66C23.36 518.273 23.58 517.78 23.58 517.18C23.58 516.713 23.44 516.333 23.16 516.04C22.8933 515.747 22.5533 515.52 22.14 515.36C21.74 515.2 21.18 515.027 20.46 514.84C19.5533 514.6 18.8133 514.36 18.24 514.12C17.68 513.867 17.2 513.48 16.8 512.96C16.4 512.44 16.2 511.747 16.2 510.88C16.2 510.08 16.4 509.38 16.8 508.78C17.2 508.18 17.76 507.72 18.48 507.4C19.2 507.08 20.0333 506.92 20.98 506.92C22.3267 506.92 23.4267 507.26 24.28 507.94C25.1467 508.607 25.6267 509.527 25.72 510.7H23.2C23.16 510.193 22.92 509.76 22.48 509.4C22.04 509.04 21.46 508.86 20.74 508.86C20.0867 508.86 19.5533 509.027 19.14 509.36C18.7267 509.693 18.52 510.173 18.52 510.8C18.52 511.227 18.6467 511.58 18.9 511.86C19.1667 512.127 19.5 512.34 19.9 512.5C20.3 512.66 20.8467 512.833 21.54 513.02C22.46 513.273 23.2067 513.527 23.78 513.78C24.3667 514.033 24.86 514.427 25.26 514.96C25.6733 515.48 25.88 516.18 25.88 517.06C25.88 517.767 25.6867 518.433 25.3 519.06C24.9267 519.687 24.3733 520.193 23.64 520.58C22.92 520.953 22.0667 521.14 21.08 521.14ZM36.9503 518.16H31.1303L30.1303 521H27.7503L32.7303 507.08H35.3703L40.3503 521H37.9503L36.9503 518.16ZM36.3103 516.3L34.0503 509.84L31.7703 516.3H36.3103ZM45.1756 511.84V517.94C45.1756 518.353 45.269 518.653 45.4556 518.84C45.6556 519.013 45.989 519.1 46.4556 519.1H47.8556V521H46.0556C45.029 521 44.2423 520.76 43.6956 520.28C43.149 519.8 42.8756 519.02 42.8756 517.94V511.84H41.5756V509.98H42.8756V507.24H45.1756V509.98H47.8556V511.84H45.1756ZM54.317 515.5L59.397 521H56.317L52.237 516.26V521H49.957V506.2H52.237V514.8L56.237 509.98H59.397L54.317 515.5Z" fill="#AAAAAA"/>
<path d="M21.08 551.14C20.1467 551.14 19.3067 550.98 18.56 550.66C17.8133 550.327 17.2267 549.86 16.8 549.26C16.3733 548.66 16.16 547.96 16.16 547.16H18.6C18.6533 547.76 18.8867 548.253 19.3 548.64C19.7267 549.027 20.32 549.22 21.08 549.22C21.8667 549.22 22.48 549.033 22.92 548.66C23.36 548.273 23.58 547.78 23.58 547.18C23.58 546.713 23.44 546.333 23.16 546.04C22.8933 545.747 22.5533 545.52 22.14 545.36C21.74 545.2 21.18 545.027 20.46 544.84C19.5533 544.6 18.8133 544.36 18.24 544.12C17.68 543.867 17.2 543.48 16.8 542.96C16.4 542.44 16.2 541.747 16.2 540.88C16.2 540.08 16.4 539.38 16.8 538.78C17.2 538.18 17.76 537.72 18.48 537.4C19.2 537.08 20.0333 536.92 20.98 536.92C22.3267 536.92 23.4267 537.26 24.28 537.94C25.1467 538.607 25.6267 539.527 25.72 540.7H23.2C23.16 540.193 22.92 539.76 22.48 539.4C22.04 539.04 21.46 538.86 20.74 538.86C20.0867 538.86 19.5533 539.027 19.14 539.36C18.7267 539.693 18.52 540.173 18.52 540.8C18.52 541.227 18.6467 541.58 18.9 541.86C19.1667 542.127 19.5 542.34 19.9 542.5C20.3 542.66 20.8467 542.833 21.54 543.02C22.46 543.273 23.2067 543.527 23.78 543.78C24.3667 544.033 24.86 544.427 25.26 544.96C25.6733 545.48 25.88 546.18 25.88 547.06C25.88 547.767 25.6867 548.433 25.3 549.06C24.9267 549.687 24.3733 550.193 23.64 550.58C22.92 550.953 22.0667 551.14 21.08 551.14ZM33.1103 537.1C34.5903 537.1 35.8836 537.387 36.9903 537.96C38.1103 538.52 38.9703 539.333 39.5703 540.4C40.1836 541.453 40.4903 542.687 40.4903 544.1C40.4903 545.513 40.1836 546.74 39.5703 547.78C38.9703 548.82 38.1103 549.62 36.9903 550.18C35.8836 550.727 34.5903 551 33.1103 551H28.5703V537.1H33.1103ZM33.1103 549.14C34.737 549.14 35.9836 548.7 36.8503 547.82C37.717 546.94 38.1503 545.7 38.1503 544.1C38.1503 542.487 37.717 541.227 36.8503 540.32C35.9836 539.413 34.737 538.96 33.1103 538.96H30.8503V549.14H33.1103ZM52.85 545.22C52.85 545.633 52.8233 546.007 52.77 546.34H44.35C44.4167 547.22 44.7433 547.927 45.33 548.46C45.9167 548.993 46.6367 549.26 47.49 549.26C48.7167 549.26 49.5833 548.747 50.09 547.72H52.55C52.2167 548.733 51.61 549.567 50.73 550.22C49.8633 550.86 48.7833 551.18 47.49 551.18C46.4367 551.18 45.49 550.947 44.65 550.48C43.8233 550 43.17 549.333 42.69 548.48C42.2233 547.613 41.99 546.613 41.99 545.48C41.99 544.347 42.2167 543.353 42.67 542.5C43.1367 541.633 43.7833 540.967 44.61 540.5C45.45 540.033 46.41 539.8 47.49 539.8C48.53 539.8 49.4567 540.027 50.27 540.48C51.0833 540.933 51.7167 541.573 52.17 542.4C52.6233 543.213 52.85 544.153 52.85 545.22ZM50.47 544.5C50.4567 543.66 50.1567 542.987 49.57 542.48C48.9833 541.973 48.2567 541.72 47.39 541.72C46.6033 541.72 45.93 541.973 45.37 542.48C44.81 542.973 44.4767 543.647 44.37 544.5H50.47ZM59.7138 541.84H57.6738V551H55.3738V541.84H54.0738V539.98H55.3738V539.2C55.3738 537.933 55.7071 537.013 56.3738 536.44C57.0538 535.853 58.1138 535.56 59.5538 535.56V537.46C58.8604 537.46 58.3738 537.593 58.0938 537.86C57.8138 538.113 57.6738 538.56 57.6738 539.2V539.98H59.7138V541.84Z" fill="#AAAAAA"/>
<path d="M21.08 581.14C20.1467 581.14 19.3067 580.98 18.56 580.66C17.8133 580.327 17.2267 579.86 16.8 579.26C16.3733 578.66 16.16 577.96 16.16 577.16H18.6C18.6533 577.76 18.8867 578.253 19.3 578.64C19.7267 579.027 20.32 579.22 21.08 579.22C21.8667 579.22 22.48 579.033 22.92 578.66C23.36 578.273 23.58 577.78 23.58 577.18C23.58 576.713 23.44 576.333 23.16 576.04C22.8933 575.747 22.5533 575.52 22.14 575.36C21.74 575.2 21.18 575.027 20.46 574.84C19.5533 574.6 18.8133 574.36 18.24 574.12C17.68 573.867 17.2 573.48 16.8 572.96C16.4 572.44 16.2 571.747 16.2 570.88C16.2 570.08 16.4 569.38 16.8 568.78C17.2 568.18 17.76 567.72 18.48 567.4C19.2 567.08 20.0333 566.92 20.98 566.92C22.3267 566.92 23.4267 567.26 24.28 567.94C25.1467 568.607 25.6267 569.527 25.72 570.7H23.2C23.16 570.193 22.92 569.76 22.48 569.4C22.04 569.04 21.46 568.86 20.74 568.86C20.0867 568.86 19.5533 569.027 19.14 569.36C18.7267 569.693 18.52 570.173 18.52 570.8C18.52 571.227 18.6467 571.58 18.9 571.86C19.1667 572.127 19.5 572.34 19.9 572.5C20.3 572.66 20.8467 572.833 21.54 573.02C22.46 573.273 23.2067 573.527 23.78 573.78C24.3667 574.033 24.86 574.427 25.26 574.96C25.6733 575.48 25.88 576.18 25.88 577.06C25.88 577.767 25.6867 578.433 25.3 579.06C24.9267 579.687 24.3733 580.193 23.64 580.58C22.92 580.953 22.0667 581.14 21.08 581.14ZM30.8503 571.6C31.237 571.093 31.7636 570.667 32.4303 570.32C33.097 569.973 33.8503 569.8 34.6903 569.8C35.6503 569.8 36.5236 570.04 37.3103 570.52C38.1103 570.987 38.737 571.647 39.1903 572.5C39.6436 573.353 39.8703 574.333 39.8703 575.44C39.8703 576.547 39.6436 577.54 39.1903 578.42C38.737 579.287 38.1103 579.967 37.3103 580.46C36.5236 580.94 35.6503 581.18 34.6903 581.18C33.8503 581.18 33.1036 581.013 32.4503 580.68C31.797 580.333 31.2636 579.907 30.8503 579.4V586.24H28.5703V569.98H30.8503V571.6ZM37.5503 575.44C37.5503 574.68 37.3903 574.027 37.0703 573.48C36.7636 572.92 36.3503 572.5 35.8303 572.22C35.3236 571.927 34.777 571.78 34.1903 571.78C33.617 571.78 33.0703 571.927 32.5503 572.22C32.0436 572.513 31.6303 572.94 31.3103 573.5C31.0036 574.06 30.8503 574.72 30.8503 575.48C30.8503 576.24 31.0036 576.907 31.3103 577.48C31.6303 578.04 32.0436 578.467 32.5503 578.76C33.0703 579.053 33.617 579.2 34.1903 579.2C34.777 579.2 35.3236 579.053 35.8303 578.76C36.3503 578.453 36.7636 578.013 37.0703 577.44C37.3903 576.867 37.5503 576.2 37.5503 575.44Z" fill="#AAAAAA"/>
<path d="M25.48 597.1V598.96H21.78V611H19.5V598.96H15.78V597.1H25.48ZM32.5691 611.18C31.5291 611.18 30.5891 610.947 29.7491 610.48C28.9091 610 28.2491 609.333 27.7691 608.48C27.2891 607.613 27.0491 606.613 27.0491 605.48C27.0491 604.36 27.2957 603.367 27.7891 602.5C28.2824 601.633 28.9557 600.967 29.8091 600.5C30.6624 600.033 31.6157 599.8 32.6691 599.8C33.7224 599.8 34.6757 600.033 35.5291 600.5C36.3824 600.967 37.0557 601.633 37.5491 602.5C38.0424 603.367 38.2891 604.36 38.2891 605.48C38.2891 606.6 38.0357 607.593 37.5291 608.46C37.0224 609.327 36.3291 610 35.4491 610.48C34.5824 610.947 33.6224 611.18 32.5691 611.18ZM32.5691 609.2C33.1557 609.2 33.7024 609.06 34.2091 608.78C34.7291 608.5 35.1491 608.08 35.4691 607.52C35.7891 606.96 35.9491 606.28 35.9491 605.48C35.9491 604.68 35.7957 604.007 35.4891 603.46C35.1824 602.9 34.7757 602.48 34.2691 602.2C33.7624 601.92 33.2157 601.78 32.6291 601.78C32.0424 601.78 31.4957 601.92 30.9891 602.2C30.4957 602.48 30.1024 602.9 29.8091 603.46C29.5157 604.007 29.3691 604.68 29.3691 605.48C29.3691 606.667 29.6691 607.587 30.2691 608.24C30.8824 608.88 31.6491 609.2 32.5691 609.2ZM43.203 601.84V607.94C43.203 608.353 43.2963 608.653 43.483 608.84C43.683 609.013 44.0163 609.1 44.483 609.1H45.883V611H44.083C43.0563 611 42.2696 610.76 41.723 610.28C41.1763 609.8 40.903 609.02 40.903 607.94V601.84H39.603V599.98H40.903V597.24H43.203V599.98H45.883V601.84H43.203ZM47.2244 605.44C47.2244 604.333 47.451 603.353 47.9044 602.5C48.371 601.647 48.9977 600.987 49.7844 600.52C50.5844 600.04 51.4644 599.8 52.4244 599.8C53.291 599.8 54.0444 599.973 54.6844 600.32C55.3377 600.653 55.8577 601.073 56.2444 601.58V599.98H58.5444V611H56.2444V609.36C55.8577 609.88 55.331 610.313 54.6644 610.66C53.9977 611.007 53.2377 611.18 52.3844 611.18C51.4377 611.18 50.571 610.94 49.7844 610.46C48.9977 609.967 48.371 609.287 47.9044 608.42C47.451 607.54 47.2244 606.547 47.2244 605.44ZM56.2444 605.48C56.2444 604.72 56.0844 604.06 55.7644 603.5C55.4577 602.94 55.051 602.513 54.5444 602.22C54.0377 601.927 53.491 601.78 52.9044 601.78C52.3177 601.78 51.771 601.927 51.2644 602.22C50.7577 602.5 50.3444 602.92 50.0244 603.48C49.7177 604.027 49.5644 604.68 49.5644 605.44C49.5644 606.2 49.7177 606.867 50.0244 607.44C50.3444 608.013 50.7577 608.453 51.2644 608.76C51.7844 609.053 52.331 609.2 52.9044 609.2C53.491 609.2 54.0377 609.053 54.5444 608.76C55.051 608.467 55.4577 608.04 55.7644 607.48C56.0844 606.907 56.2444 606.24 56.2444 605.48ZM63.8191 596.2V611H61.5391V596.2H63.8191Z" fill="#AAAAAA"/>
<rect x="107.413" y="449" width="256.587" height="12" rx="6" fill="#DDDDDD"/>
<rect x="107.413" y="479" width="256.587" height="12" rx="6" fill="#DDDDDD"/>
<rect x="107.413" y="509" width="256.587" height="12" rx="6" fill="#DDDDDD"/>
<rect x="107.413" y="539" width="256.587" height="12" rx="6" fill="#DDDDDD"/>
<rect x="107.413" y="569" width="256.587" height="12" rx="6" fill="#DDDDDD"/>
<rect x="107.413" y="599" width="256.587" height="12" rx="6" fill="#DDDDDD"/>
<rect x="107.413" y="419" width="256.587" height="12" rx="6" fill="#DDDDDD"/>
<path d="M25.2 385.14C24.2267 385.14 23.3467 384.973 22.56 384.64C21.7867 384.307 21.1733 383.827 20.72 383.2C20.2667 382.573 20.0333 381.833 20.02 380.98H23.02C23.06 381.553 23.26 382.007 23.62 382.34C23.9933 382.673 24.5 382.84 25.14 382.84C25.7933 382.84 26.3067 382.687 26.68 382.38C27.0533 382.06 27.24 381.647 27.24 381.14C27.24 380.727 27.1133 380.387 26.86 380.12C26.6067 379.853 26.2867 379.647 25.9 379.5C25.5267 379.34 25.0067 379.167 24.34 378.98C23.4333 378.713 22.6933 378.453 22.12 378.2C21.56 377.933 21.0733 377.54 20.66 377.02C20.26 376.487 20.06 375.78 20.06 374.9C20.06 374.073 20.2667 373.353 20.68 372.74C21.0933 372.127 21.6733 371.66 22.42 371.34C23.1667 371.007 24.02 370.84 24.98 370.84C26.42 370.84 27.5867 371.193 28.48 371.9C29.3867 372.593 29.8867 373.567 29.98 374.82H26.9C26.8733 374.34 26.6667 373.947 26.28 373.64C25.9067 373.32 25.4067 373.16 24.78 373.16C24.2333 373.16 23.7933 373.3 23.46 373.58C23.14 373.86 22.98 374.267 22.98 374.8C22.98 375.173 23.1 375.487 23.34 375.74C23.5933 375.98 23.9 376.18 24.26 376.34C24.6333 376.487 25.1533 376.66 25.82 376.86C26.7267 377.127 27.4667 377.393 28.04 377.66C28.6133 377.927 29.1067 378.327 29.52 378.86C29.9333 379.393 30.14 380.093 30.14 380.96C30.14 381.707 29.9467 382.4 29.56 383.04C29.1733 383.68 28.6067 384.193 27.86 384.58C27.1133 384.953 26.2267 385.14 25.2 385.14ZM35.8275 376.22V381.58C35.8275 381.953 35.9142 382.227 36.0875 382.4C36.2742 382.56 36.5808 382.64 37.0075 382.64H38.3075V385H36.5475C34.1875 385 33.0075 383.853 33.0075 381.56V376.22H31.6875V373.92H33.0075V371.18H35.8275V373.92H38.3075V376.22H35.8275ZM39.6014 379.42C39.6014 378.3 39.8214 377.307 40.2614 376.44C40.7147 375.573 41.3214 374.907 42.0814 374.44C42.8547 373.973 43.7147 373.74 44.6614 373.74C45.4881 373.74 46.2081 373.907 46.8214 374.24C47.4481 374.573 47.9481 374.993 48.3214 375.5V373.92H51.1414V385H48.3214V383.38C47.9614 383.9 47.4614 384.333 46.8214 384.68C46.1947 385.013 45.4681 385.18 44.6414 385.18C43.7081 385.18 42.8547 384.94 42.0814 384.46C41.3214 383.98 40.7147 383.307 40.2614 382.44C39.8214 381.56 39.6014 380.553 39.6014 379.42ZM48.3214 379.46C48.3214 378.78 48.1881 378.2 47.9214 377.72C47.6547 377.227 47.2947 376.853 46.8414 376.6C46.3881 376.333 45.9014 376.2 45.3814 376.2C44.8614 376.2 44.3814 376.327 43.9414 376.58C43.5014 376.833 43.1414 377.207 42.8614 377.7C42.5947 378.18 42.4614 378.753 42.4614 379.42C42.4614 380.087 42.5947 380.673 42.8614 381.18C43.1414 381.673 43.5014 382.053 43.9414 382.32C44.3947 382.587 44.8747 382.72 45.3814 382.72C45.9014 382.72 46.3881 382.593 46.8414 382.34C47.2947 382.073 47.6547 381.7 47.9214 381.22C48.1881 380.727 48.3214 380.14 48.3214 379.46ZM57.1361 376.22V381.58C57.1361 381.953 57.2228 382.227 57.3961 382.4C57.5828 382.56 57.8894 382.64 58.3161 382.64H59.6161V385H57.8561C55.4961 385 54.3161 383.853 54.3161 381.56V376.22H52.9961V373.92H54.3161V371.18H57.1361V373.92H59.6161V376.22H57.1361ZM65.87 385.18C64.9633 385.18 64.15 385.02 63.43 384.7C62.71 384.367 62.1367 383.92 61.71 383.36C61.2967 382.8 61.07 382.18 61.03 381.5H63.85C63.9033 381.927 64.11 382.28 64.47 382.56C64.8433 382.84 65.3033 382.98 65.85 382.98C66.3833 382.98 66.7967 382.873 67.09 382.66C67.3967 382.447 67.55 382.173 67.55 381.84C67.55 381.48 67.3633 381.213 66.99 381.04C66.63 380.853 66.05 380.653 65.25 380.44C64.4233 380.24 63.7433 380.033 63.21 379.82C62.69 379.607 62.2367 379.28 61.85 378.84C61.4767 378.4 61.29 377.807 61.29 377.06C61.29 376.447 61.4633 375.887 61.81 375.38C62.17 374.873 62.6767 374.473 63.33 374.18C63.9967 373.887 64.7767 373.74 65.67 373.74C66.99 373.74 68.0433 374.073 68.83 374.74C69.6167 375.393 70.05 376.28 70.13 377.4H67.45C67.41 376.96 67.2233 376.613 66.89 376.36C66.57 376.093 66.1367 375.96 65.59 375.96C65.0833 375.96 64.69 376.053 64.41 376.24C64.1433 376.427 64.01 376.687 64.01 377.02C64.01 377.393 64.1967 377.68 64.57 377.88C64.9433 378.067 65.5233 378.26 66.31 378.46C67.11 378.66 67.77 378.867 68.29 379.08C68.81 379.293 69.2567 379.627 69.63 380.08C70.0167 380.52 70.2167 381.107 70.23 381.84C70.23 382.48 70.05 383.053 69.69 383.56C69.3433 384.067 68.8367 384.467 68.17 384.76C67.5167 385.04 66.75 385.18 65.87 385.18Z" fill="black"/>
<path d="M14 393.5H76" stroke="black"/>
</g>
<defs>
<clipPath id="clip0_80_18">
<rect width="380" height="700" rx="20" fill="white"/>
</clipPath>
</defs>
</svg>
