<svg width="220" height="220" viewBox="0 0 220 220" fill="none" xmlns="http://www.w3.org/2000/svg">
<path d="M0 123.572L1.38845 124.96L1.38845 131.902L2.77689 133.291V136.068L4.16534 137.456V143.01L5.55378 144.398V147.175L6.94223 148.564V151.341L8.33067 152.729V154.117L9.71912 155.506V156.894L11.1076 158.283V159.671L13.8845 162.448V163.837L15.2729 165.225V166.613L16.6613 168.002V169.39L19.4382 172.167V173.556L24.992 179.109V180.498L38.8765 194.382H40.2649L47.2071 201.325H48.5956L51.3725 204.101H54.1494L55.5378 205.49H56.9263L59.7032 208.267H61.0916L62.4801 209.655H63.8685L65.2569 211.044H68.0338L69.4223 212.432H70.8107L72.1992 213.821H76.3645L77.753 215.209H81.9183L83.3067 216.598H86.0836L87.4721 217.986H94.4143L95.8027 219.374H123.572L124.96 217.986H131.902L133.291 216.598H136.068L137.456 215.209H141.621L143.01 213.821H147.175L148.564 212.432H149.952L151.341 211.044H152.729L154.117 209.655H155.506L156.894 208.267H158.283L159.671 206.878H161.06L162.448 205.49H163.837L165.225 204.101H166.613L168.002 202.713H169.39L172.167 199.936H173.556L179.109 194.382H180.498L194.382 180.498V179.109L199.936 173.556V172.167L202.713 169.39V168.002L204.102 166.613V165.225L205.49 163.837V162.448L208.267 159.671V158.283L209.655 156.894V155.506L211.044 154.117V152.729L212.432 151.341V148.564L213.821 147.175V143.01L215.209 141.621V137.456L216.598 136.068V133.291L217.986 131.902V124.96L219.374 123.572H158.283V126.349L156.894 127.737V131.902L155.506 133.291V134.679L151.341 138.845V140.233L140.233 151.341H138.845L134.679 155.506H133.291L131.902 156.894H127.737L126.349 158.283H123.572L122.183 159.671H118.018L116.629 161.06H102.745L101.357 159.671H97.1912L95.8027 158.283H93.0259L91.6374 156.894H87.4721L86.0836 155.506H84.6952L80.5298 151.341H79.1414L68.0338 140.233V138.845L63.8685 134.679V133.291L62.4801 131.902V127.737L61.0916 126.349V123.572H0Z" fill="white" fill-opacity="0.3"/>
<path d="M106.91 76.3645L105.522 77.7529H99.9681L98.5796 79.1414H97.1912L95.8027 80.5298H94.4143L93.0258 81.9183H91.6374L87.4721 86.0836H86.0836V87.4721L81.9183 91.6374V93.0258L80.5298 94.4143V95.8027L79.1414 97.1912V98.5796L77.7529 99.9681V102.745L76.3645 104.133V113.853L77.7529 115.241V119.406L79.1414 120.795V122.183L80.5298 123.572V124.96L81.9183 126.349V127.737L84.6952 130.514V131.902L86.0836 133.291H87.4721L91.6374 137.456H93.0258L94.4143 138.845H95.8027L97.1912 140.233H98.5796L99.9681 141.621H104.133L105.522 143.01H113.853L115.241 141.621H119.406L120.795 140.233H122.183L123.572 138.845H124.96L126.349 137.456H127.737L136.068 129.125V127.737L138.845 124.96V123.572L140.233 122.183V120.795L141.621 119.406V115.241L143.01 113.853V106.91L141.621 105.522V99.9681L140.233 98.5796V97.1912L138.845 95.8027V94.4143L136.068 91.6374V90.249L127.737 81.9183H126.349L124.96 80.5298H123.572L122.183 79.1414H120.795L119.406 77.7529H113.853L112.464 76.3645H106.91Z" fill="white" fill-opacity="0.3"/>
<path d="M95.8027 0L94.4143 1.38845L87.4721 1.38845L86.0836 2.77689L83.3067 2.77689L81.9183 4.16534H77.753L76.3645 5.55378L70.8107 5.55378L69.4223 6.94223H68.0338L66.6454 8.33067H65.2569L63.8685 9.71912H62.4801L61.0916 11.1076H59.7032L58.3147 12.496H56.9263L54.1494 15.2729H51.3725L48.5956 18.0498H47.2071L40.2649 24.992H38.8765L24.992 38.8765V40.2649L18.0498 47.2071V48.5956L15.2729 51.3725V54.1494L12.496 56.9263V58.3147L11.1076 59.7032V61.0916L9.71912 62.48V63.8685L8.33067 65.2569V66.6454L6.94223 68.0338V70.8107L5.55378 72.1992V74.9761L4.16534 76.3645V80.5298L2.77689 81.9183L2.77689 86.0836L1.38845 87.4721L1.38845 93.0258L0 94.4143L0 95.8027H59.7032L61.0916 94.4143V91.6374L62.4801 90.249V87.4721L63.8685 86.0836V84.6952L66.6454 81.9183V80.5298L79.1414 68.0338H80.5298L84.6952 63.8685H86.0836L87.4721 62.48H90.249L91.6374 61.0916H94.4143L95.8027 59.7032H99.9681L101.357 58.3147H118.018L119.406 59.7032H123.572L124.96 61.0916H127.737L129.125 62.48H131.902L133.291 63.8685H134.679L138.845 68.0338H140.233L151.341 79.1414V80.5298L155.506 84.6952V86.0836L156.894 87.4721V91.6374L158.283 93.0258V95.8027H219.374L217.986 94.4143V88.8605L216.598 87.4721V83.3067L215.209 81.9183V77.7529L213.821 76.3645V72.1992L212.432 70.8107V68.0338L211.044 66.6454V65.2569L209.655 63.8685V62.48L208.267 61.0916V59.7032L205.49 56.9263V55.5378L204.102 54.1494V52.7609L202.713 51.3725V49.984L199.936 47.2071V45.8187L194.382 40.2649V38.8765L180.498 24.992H179.109L173.556 19.4382H172.167L169.39 16.6613H168.002L166.613 15.2729H165.225L163.837 13.8845H162.448L159.671 11.1076H158.283L156.894 9.71912H155.506L154.117 8.33067H152.729L151.341 6.94223H148.564L147.175 5.55378H143.01L141.621 4.16534H137.456L136.068 2.77689H133.291L131.902 1.38845L124.96 1.38845L123.572 0L95.8027 0Z" fill="white" fill-opacity="0.3"/>
</svg>
