<svg width="36" height="36" viewBox="0 0 36 36" fill="none" xmlns="http://www.w3.org/2000/svg">
<path d="M19.2417 30.998C19.0765 31.2463 18.8193 31.4189 18.5269 31.4777C18.2344 31.5365 17.9306 31.4767 17.6822 31.3116C13.444 28.4921 8.46535 26.9918 3.375 27C3.07663 27 2.79048 26.8815 2.5795 26.6705C2.36853 26.4595 2.25 26.1734 2.25 25.875C2.25 25.5766 2.36853 25.2905 2.5795 25.0795C2.79048 24.8685 3.07663 24.75 3.375 24.75C8.90877 24.7415 14.321 26.373 18.9281 29.4384C19.1765 29.6037 19.349 29.8608 19.4078 30.1533C19.4666 30.4457 19.4069 30.7496 19.2417 30.998ZM3.375 20.25C3.07663 20.25 2.79048 20.3685 2.5795 20.5795C2.36853 20.7905 2.25 21.0766 2.25 21.375C2.25 21.6734 2.36853 21.9595 2.5795 22.1705C2.79048 22.3815 3.07663 22.5 3.375 22.5C11.3271 22.4818 18.9656 25.6 24.6333 31.178C24.7378 31.2855 24.8628 31.371 25.0009 31.4295C25.139 31.488 25.2874 31.5183 25.4374 31.5187C25.5874 31.519 25.7359 31.4893 25.8743 31.4314C26.0126 31.3735 26.138 31.2885 26.243 31.1814C26.348 31.0743 26.4306 30.9473 26.4858 30.8079C26.541 30.6684 26.5678 30.5193 26.5645 30.3694C26.5613 30.2194 26.5281 30.0717 26.4669 29.9347C26.4058 29.7978 26.3178 29.6745 26.2083 29.572C20.1212 23.5799 11.9165 20.2302 3.375 20.25ZM32.625 22.5C30.3255 22.4985 28.0332 22.7575 25.792 23.272C26.5645 23.858 27.3145 24.4748 28.042 25.1227C29.5571 24.8745 31.0898 24.7499 32.625 24.75C32.9234 24.75 33.2095 24.8685 33.4205 25.0795C33.6315 25.2905 33.75 25.5766 33.75 25.875C33.75 26.1734 33.6315 26.4595 33.4205 26.6705C33.2095 26.8815 32.9234 27 32.625 27C31.7812 27 30.9473 27.0408 30.1148 27.1209C30.8948 27.9338 31.642 28.7841 32.3564 29.6719C32.4543 29.7865 32.5281 29.9196 32.5735 30.0632C32.619 30.2069 32.6351 30.3583 32.6209 30.5083C32.6067 30.6583 32.5625 30.804 32.491 30.9366C32.4194 31.0692 32.3219 31.1861 32.2043 31.2803C32.0867 31.3746 31.9514 31.4442 31.8064 31.4851C31.6613 31.5261 31.5096 31.5374 31.3601 31.5186C31.2106 31.4997 31.0664 31.451 30.936 31.3753C30.8057 31.2997 30.6919 31.1986 30.6014 31.0781C27.3406 26.9891 23.1985 23.6892 18.4842 21.4247C13.7698 19.1602 8.60499 17.9895 3.375 18C3.07663 18 2.79048 17.8815 2.5795 17.6705C2.36853 17.4595 2.25 17.1734 2.25 16.875C2.25 16.5766 2.36853 16.2905 2.5795 16.0795C2.79048 15.8685 3.07663 15.75 3.375 15.75C5.63895 15.7504 7.8982 15.9561 10.125 16.3645V11.25C10.125 11.0753 10.1657 10.9031 10.2438 10.7469C10.3219 10.5907 10.4353 10.4548 10.575 10.35L19.575 3.6C19.7697 3.45395 20.0066 3.375 20.25 3.375C20.4934 3.375 20.7303 3.45395 20.925 3.6L29.925 10.35C30.0647 10.4548 30.1781 10.5907 30.2562 10.7469C30.3343 10.9031 30.375 11.0753 30.375 11.25V15.8189C31.1217 15.7753 31.8712 15.75 32.625 15.75C32.9234 15.75 33.2095 15.8685 33.4205 16.0795C33.6315 16.2905 33.75 16.5766 33.75 16.875C33.75 17.1734 33.6315 17.4595 33.4205 17.6705C33.2095 17.8815 32.9234 18 32.625 18C28.5851 17.9923 24.5749 18.6914 20.7759 20.0658C21.6609 20.5345 22.5262 21.0398 23.3719 21.5817C26.3764 20.6963 29.4927 20.2478 32.625 20.25C32.9234 20.25 33.2095 20.3685 33.4205 20.5795C33.6315 20.7905 33.75 21.0766 33.75 21.375C33.75 21.6734 33.6315 21.9595 33.4205 22.1705C33.2095 22.3815 32.9234 22.5 32.625 22.5ZM16.875 12.375H23.625C23.9234 12.375 24.2095 12.4935 24.4205 12.7045C24.6315 12.9155 24.75 13.2016 24.75 13.5V16.5853C25.8638 16.3453 26.9888 16.1578 28.125 16.0228V11.8125L20.25 5.90625L12.375 11.8125V16.8483C13.5178 17.1295 14.6428 17.4661 15.75 17.858V13.5C15.75 13.2016 15.8685 12.9155 16.0795 12.7045C16.2905 12.4935 16.5766 12.375 16.875 12.375ZM18.0098 18.7411C19.4707 18.1139 20.9705 17.5817 22.5 17.1478V14.625H18V18.7369L18.0098 18.7411Z" fill="white"/>
</svg>
