<svg width="36" height="36" viewBox="0 0 36 36" fill="none" xmlns="http://www.w3.org/2000/svg">
<path d="M29.7773 6.22265C27.4219 3.86296 23.9583 2.92359 20.0334 3.57749C16.2492 4.2089 12.458 6.26203 9.36 9.35999C6.26203 12.458 4.20891 16.2506 3.5775 20.0334C2.92359 23.9583 3.85875 27.4177 6.22266 29.7773C8.09156 31.6477 10.6523 32.625 13.5872 32.625C14.3845 32.6227 15.1803 32.555 15.9666 32.4225C19.7508 31.7911 23.542 29.738 26.64 26.64C29.738 23.542 31.7911 19.7494 32.4225 15.9666C33.0764 12.0417 32.137 8.57812 29.7773 6.22265ZM10.9505 10.9505C14.4225 7.47984 18.7031 5.61515 22.3805 5.61515C23.7957 5.59358 25.195 5.91543 26.4586 6.55312C24.8826 7.10296 23.4075 7.90771 22.0922 8.93531C19.3922 11.0672 17.6442 14.0428 16.8975 17.7792C15.5306 24.6108 10.6116 26.9452 7.40812 27.7411C4.03734 23.7319 5.54063 16.3617 10.9505 10.9505ZM25.0495 25.0495C20.1712 29.9264 13.6997 31.628 9.53578 29.4469C11.1135 28.897 12.5904 28.0923 13.9078 27.0647C16.6078 24.9328 18.3558 21.9572 19.1025 18.2208C20.4694 11.3892 25.3884 9.05484 28.5919 8.2589C31.9627 12.2681 30.4594 19.6383 25.0495 25.0495Z" fill="white"/>
</svg>
