<svg width="36" height="36" viewBox="0 0 36 36" fill="none" xmlns="http://www.w3.org/2000/svg">
<path d="M11.25 7.875V3.375C11.25 3.07663 11.3685 2.79048 11.5795 2.5795C11.7905 2.36853 12.0766 2.25 12.375 2.25C12.6734 2.25 12.9595 2.36853 13.1705 2.5795C13.3815 2.79048 13.5 3.07663 13.5 3.375V7.875C13.5 8.17337 13.3815 8.45952 13.1705 8.67049C12.9595 8.88147 12.6734 9 12.375 9C12.0766 9 11.7905 8.88147 11.5795 8.67049C11.3685 8.45952 11.25 8.17337 11.25 7.875ZM16.875 9C17.1734 9 17.4595 8.88147 17.6705 8.67049C17.8815 8.45952 18 8.17337 18 7.875V3.375C18 3.07663 17.8815 2.79048 17.6705 2.5795C17.4595 2.36853 17.1734 2.25 16.875 2.25C16.5766 2.25 16.2905 2.36853 16.0795 2.5795C15.8685 2.79048 15.75 3.07663 15.75 3.375V7.875C15.75 8.17337 15.8685 8.45952 16.0795 8.67049C16.2905 8.88147 16.5766 9 16.875 9ZM21.375 9C21.6734 9 21.9595 8.88147 22.1705 8.67049C22.3815 8.45952 22.5 8.17337 22.5 7.875V3.375C22.5 3.07663 22.3815 2.79048 22.1705 2.5795C21.9595 2.36853 21.6734 2.25 21.375 2.25C21.0766 2.25 20.7905 2.36853 20.5795 2.5795C20.3685 2.79048 20.25 3.07663 20.25 3.375V7.875C20.25 8.17337 20.3685 8.45952 20.5795 8.67049C20.7905 8.88147 21.0766 9 21.375 9ZM34.875 16.875V18C34.8746 19.4309 34.3288 20.8079 33.3488 21.8506C32.3688 22.8933 31.0283 23.5233 29.6002 23.6123C28.8328 25.783 27.5262 27.7229 25.8033 29.25H29.25C29.5484 29.25 29.8345 29.3685 30.0455 29.5795C30.2565 29.7905 30.375 30.0766 30.375 30.375C30.375 30.6734 30.2565 30.9595 30.0455 31.1705C29.8345 31.3815 29.5484 31.5 29.25 31.5H4.5C4.20163 31.5 3.91548 31.3815 3.7045 31.1705C3.49353 30.9595 3.375 30.6734 3.375 30.375C3.375 30.0766 3.49353 29.7905 3.7045 29.5795C3.91548 29.3685 4.20163 29.25 4.5 29.25H7.95094C6.51558 27.9819 5.36554 26.4237 4.57675 24.6784C3.78796 22.9331 3.37836 21.0403 3.375 19.125V12.375C3.375 12.0766 3.49353 11.7905 3.7045 11.5795C3.91548 11.3685 4.20163 11.25 4.5 11.25H29.25C30.7418 11.25 32.1726 11.8426 33.2275 12.8975C34.2824 13.9524 34.875 15.3832 34.875 16.875ZM28.125 13.5H5.625V19.125C5.62934 21.2373 6.22628 23.306 7.34794 25.0959C8.4696 26.8858 10.071 28.325 11.97 29.25H21.78C23.679 28.325 25.2804 26.8858 26.4021 25.0959C27.5237 23.306 28.1207 21.2373 28.125 19.125V13.5ZM32.625 16.875C32.6248 16.1772 32.4083 15.4967 32.0054 14.9271C31.6024 14.3574 31.0328 13.9266 30.375 13.6941V19.125C30.3742 19.8315 30.3177 20.5368 30.2063 21.2344C30.9043 21.0282 31.5169 20.6018 31.9528 20.0189C32.3887 19.436 32.6245 18.7278 32.625 18V16.875Z" fill="white"/>
</svg>
