<svg width="36" height="36" viewBox="0 0 36 36" fill="none" xmlns="http://www.w3.org/2000/svg">
<path d="M18 9C16.8875 9 15.7999 9.3299 14.8749 9.94798C13.9499 10.5661 13.2289 11.4446 12.8032 12.4724C12.3774 13.5002 12.266 14.6312 12.4831 15.7224C12.7001 16.8135 13.2359 17.8158 14.0225 18.6025C14.8092 19.3891 15.8115 19.9249 16.9026 20.1419C17.9938 20.359 19.1248 20.2476 20.1526 19.8218C21.1804 19.3961 22.0589 18.6751 22.677 17.7501C23.2951 16.8251 23.625 15.7375 23.625 14.625C23.625 13.1332 23.0324 11.7024 21.9775 10.6475C20.9226 9.59263 19.4918 9 18 9ZM18 18C17.3325 18 16.68 17.8021 16.125 17.4312C15.5699 17.0604 15.1374 16.5333 14.8819 15.9166C14.6265 15.2999 14.5596 14.6213 14.6898 13.9666C14.8201 13.3119 15.1415 12.7105 15.6135 12.2385C16.0855 11.7665 16.6869 11.4451 17.3416 11.3148C17.9963 11.1846 18.6749 11.2515 19.2916 11.5069C19.9083 11.7624 20.4354 12.1949 20.8062 12.75C21.1771 13.305 21.375 13.9575 21.375 14.625C21.375 15.5201 21.0194 16.3786 20.3865 17.0115C19.7536 17.6444 18.8951 18 18 18ZM18 2.25C14.7191 2.25372 11.5736 3.55871 9.25366 5.87866C6.93371 8.19862 5.62872 11.3441 5.625 14.625C5.625 19.0406 7.66547 23.7206 11.5312 28.1602C13.2683 30.1663 15.2233 31.9727 17.3602 33.5461C17.5493 33.6786 17.7747 33.7497 18.0056 33.7497C18.2366 33.7497 18.4619 33.6786 18.6511 33.5461C20.784 31.9721 22.7352 30.1656 24.4688 28.1602C28.3289 23.7206 30.375 19.0406 30.375 14.625C30.3713 11.3441 29.0663 8.19862 26.7463 5.87866C24.4264 3.55871 21.2809 2.25372 18 2.25ZM18 31.2188C15.6755 29.3906 7.875 22.6758 7.875 14.625C7.875 11.9397 8.94174 9.36435 10.8405 7.46554C12.7393 5.56674 15.3147 4.5 18 4.5C20.6853 4.5 23.2606 5.56674 25.1595 7.46554C27.0583 9.36435 28.125 11.9397 28.125 14.625C28.125 22.673 20.3245 29.3906 18 31.2188Z" fill="white"/>
</svg>
