<svg width="28" height="28" viewBox="0 0 28 28" fill="none" xmlns="http://www.w3.org/2000/svg">
<path d="M23.1602 4.83983C21.3281 3.00452 18.6342 2.2739 15.5816 2.78249C12.6383 3.27358 9.68953 4.87046 7.28 7.27999C4.87047 9.68952 3.2736 12.6394 2.7825 15.5816C2.27391 18.6342 3.00125 21.3248 4.83985 23.1601C6.29344 24.6148 8.28516 25.375 10.5678 25.375C11.188 25.3732 11.8069 25.3205 12.4184 25.2175C15.3617 24.7264 18.3105 23.1295 20.72 20.72C23.1295 18.3105 24.7264 15.3606 25.2175 12.4184C25.7261 9.36577 24.9955 6.67186 23.1602 4.83983ZM8.51703 8.51702C11.2175 5.81765 14.5469 4.36733 17.407 4.36733C18.5077 4.35055 19.5961 4.60088 20.5789 5.09686C19.3531 5.52451 18.2059 6.15044 17.1828 6.94968C15.0828 8.6078 13.7233 10.9222 13.1425 13.8283C12.0794 19.1417 8.25344 20.9573 5.76188 21.5764C3.14016 18.4581 4.30938 12.7258 8.51703 8.51702ZM19.483 19.483C15.6888 23.2761 10.6553 24.5995 7.41672 22.9031C8.64383 22.4755 9.79255 21.8496 10.8172 21.0503C12.9172 19.3922 14.2767 17.0778 14.8575 14.1717C15.9206 8.85827 19.7466 7.04264 22.2381 6.42358C24.8598 9.54186 23.6906 15.2742 19.483 19.483Z" fill="white"/>
</svg>
