<svg width="50" height="50" viewBox="0 0 50 50" fill="none" xmlns="http://www.w3.org/2000/svg">
<path d="M9.96543 31.3196C13.4556 31.3196 16.285 28.4902 16.285 25C16.285 21.5098 13.4556 18.6804 9.96543 18.6804C6.47522 18.6804 3.64584 21.5098 3.64584 25C3.64584 28.4902 6.47522 31.3196 9.96543 31.3196Z" stroke="black" stroke-linecap="round" stroke-linejoin="round"/>
<path d="M19.9884 31.3196C23.4786 31.3196 26.308 28.4902 26.308 25C26.308 21.5098 23.4786 18.6804 19.9884 18.6804C16.4982 18.6804 13.6689 21.5098 13.6689 25C13.6689 28.4902 16.4982 31.3196 19.9884 31.3196Z" stroke="black" stroke-linecap="round" stroke-linejoin="round"/>
<path d="M30.0116 31.3196C33.5018 31.3196 36.3312 28.4902 36.3312 25C36.3312 21.5098 33.5018 18.6804 30.0116 18.6804C26.5214 18.6804 23.692 21.5098 23.692 25C23.692 28.4902 26.5214 31.3196 30.0116 31.3196Z" stroke="black" stroke-linecap="round" stroke-linejoin="round"/>
<path d="M40.0346 31.3196C43.5248 31.3196 46.3542 28.4902 46.3542 25C46.3542 21.5098 43.5248 18.6804 40.0346 18.6804C36.5444 18.6804 33.715 21.5098 33.715 25C33.715 28.4902 36.5444 31.3196 40.0346 31.3196Z" stroke="black" stroke-linecap="round" stroke-linejoin="round"/>
</svg>
