<svg width="50" height="50" viewBox="0 0 50 50" fill="none" xmlns="http://www.w3.org/2000/svg">
<g clip-path="url(#clip0_44_185)">
<path d="M25 0C11.1937 0 0 11.1937 0 25C0 38.8062 11.1937 50 25 50C38.8062 50 50 38.8062 50 25C50 11.1937 38.8062 0 25 0ZM25 1.625C37.9083 1.625 48.3729 12.0896 48.3729 25C48.3729 37.9083 37.9104 48.3729 25 48.3729C12.0896 48.3729 1.62708 37.9083 1.62708 25C1.62708 12.0917 12.0917 1.625 25 1.625ZM23.5875 2.9375C22.9 2.96667 22.2125 3.025 21.5208 3.1L21.2979 9.23333C21.7885 9.15033 22.2818 9.08501 22.7771 9.0375L22.9229 4.89583L22.8958 4.61042L22.9854 4.88125L24.3687 7.98333H25.6312L27.0146 4.88333L27.0979 4.61042L27.0771 4.89583L27.2229 9.0375C27.7062 9.08333 28.2083 9.15 28.7021 9.23333L28.475 3.1C27.7881 3.0226 27.0989 2.9684 26.4083 2.9375L25.0479 6.32292L25 6.57292L24.9521 6.32292L23.5875 2.9375ZM37.5375 6.7375L34.3229 11.7958C34.7292 12.1083 35.2646 12.5687 35.6083 12.8833L38.6354 11.3125L38.8271 11.1687L38.6833 11.3646L37.1167 14.3917C37.4562 14.7562 37.9458 15.3458 38.2208 15.7042L43.2833 12.4875C42.9729 12.0859 42.6533 11.6913 42.325 11.3042L39.1187 13.4167L38.9 13.6083L39.0625 13.3687L40.4792 10.5437L39.4792 9.54375L36.6542 10.9604L36.4146 11.1229L36.6042 10.9021L38.725 7.69583C38.35 7.37917 37.9937 7.08958 37.5375 6.7375ZM11.4583 7.88542C10.7083 7.9625 10.1292 8.475 8.55625 10.2292C8.01082 10.8473 7.48487 11.4823 6.97917 12.1333L11.3 16.2312C12.7312 14.6479 13.3125 14.0604 14.4417 12.8708C15.2396 12.0271 15.6917 11.0583 14.8917 10.1271C14.4583 9.62292 13.7292 9.5125 13.1208 9.7625L13.0625 9.78333L13.0833 9.72917C13.1585 9.45273 13.1505 9.16029 13.0605 8.88835C12.9705 8.6164 12.8023 8.37699 12.5771 8.2C12.4205 8.07656 12.241 7.98538 12.049 7.93174C11.857 7.8781 11.6562 7.86098 11.4583 7.88542ZM11.4708 9.16667C11.7542 9.08958 12.0479 9.29167 12.1125 9.58333C12.1792 9.875 11.9958 10.15 11.7917 10.3792C11.3333 10.9 9.64375 12.6667 9.64375 12.6667L8.80625 11.8687C9.675 10.8062 10.6 9.83958 11.0187 9.45625C11.1444 9.32528 11.2993 9.22603 11.4708 9.16667ZM25 10.1729C21.33 10.1713 17.7899 11.5314 15.0651 13.9899C12.3403 16.4484 10.6245 19.8304 10.25 23.4812V23.4854C10.0146 25.8017 10.3275 28.1408 11.1636 30.3137C11.9996 32.4866 13.3352 34.4322 15.0624 35.9934C16.7897 37.5545 18.86 38.6872 21.1061 39.3C23.3522 39.9128 25.7109 39.9885 27.9917 39.5208C31.3347 38.8336 34.3381 37.0134 36.4941 34.3676C38.6502 31.7219 39.8268 28.413 39.825 25C39.8211 21.0695 38.2579 17.3012 35.4785 14.5221C32.699 11.7431 28.9305 10.1804 25 10.1771V10.1729ZM13.4646 10.6771C13.5625 10.6771 13.6646 10.7042 13.7562 10.7667C13.9396 10.8896 14.0229 11.1 13.9771 11.3083C13.9229 11.5562 13.7167 11.7896 13.55 11.9708L11.3729 14.3042L10.4979 13.4708C10.4979 13.4708 12.1375 11.7375 12.675 11.1812C12.8875 10.9604 13.025 10.8271 13.1708 10.7542C13.2612 10.7073 13.3629 10.6809 13.4646 10.6771ZM25 12.1208C26.6919 12.1189 28.3675 12.4507 29.9309 13.0973C31.4944 13.7439 32.9149 14.6925 34.1112 15.8888C35.3075 17.0851 36.2561 18.5056 36.9027 20.0691C37.5493 21.6325 37.8811 23.3081 37.8792 25H25V37.8792C23.3081 37.8811 21.6325 37.5493 20.0691 36.9027C18.5056 36.2561 17.0851 35.3075 15.8888 34.1112C14.6925 32.9149 13.7439 31.4944 13.0973 29.9309C12.4507 28.3675 12.1189 26.6919 12.1208 25H25V12.1208Z" fill="black"/>
</g>
<defs>
<clipPath id="clip0_44_185">
<rect width="50" height="50" fill="white"/>
</clipPath>
</defs>
</svg>
