<?xml version="1.0" encoding="utf-8"?>
<!-- Generator: Adobe Illustrator 27.4.0, SVG Export Plug-In . SVG Version: 6.00 Build 0)  -->
<svg version="1.1" id="Capa_1" xmlns="http://www.w3.org/2000/svg" xmlns:xlink="http://www.w3.org/1999/xlink" x="0px" y="0px"
	 viewBox="0 0 1024.2 512.1" style="enable-background:new 0 0 1024.2 512.1;" xml:space="preserve">
<style type="text/css">
	.st0{fill:url(#SVGID_1_);}
	.st1{fill:#59FFF8;}
</style>
<g id="sky">
	
		<linearGradient id="SVGID_1_" gradientUnits="userSpaceOnUse" x1="512.0601" y1="271.41" x2="512.0601" y2="521.05" gradientTransform="matrix(1 0 0 -1 0 514)">
		<stop  offset="0" style="stop-color:#D1E9D7"/>
		<stop  offset="1" style="stop-color:#9FB9B3"/>
	</linearGradient>
	<polygon class="st0" points="0.1,0 0.1,16.4 0.1,512 1024.1,512 1024.1,0 	"/>
	<g>
		<path class="st1" d="M282.7,24.5c0,1-0.8,1.8-1.8,1.8s-1.8-0.8-1.8-1.8s0.8-1.8,1.8-1.8S282.7,23.5,282.7,24.5z"/>
		<path class="st1" d="M551.9,54.3c0,1-0.8,1.8-1.8,1.8s-1.8-0.8-1.8-1.8s0.8-1.8,1.8-1.8S551.9,53.3,551.9,54.3z"/>
		<path class="st1" d="M489.8,64.3c0,1-0.8,1.8-1.8,1.8s-1.8-0.8-1.8-1.8s0.8-1.8,1.8-1.8S489.8,63.3,489.8,64.3z"/>
		<path class="st1" d="M480.4,33.1c0,1-0.8,1.8-1.8,1.8s-1.8-0.8-1.8-1.8s0.8-1.8,1.8-1.8S480.4,32.1,480.4,33.1z"/>
		<path class="st1" d="M411.6,74.4c0,0.9-0.7,1.6-1.5,1.6s-1.5-0.7-1.5-1.6s0.7-1.6,1.5-1.6S411.6,73.6,411.6,74.4z"/>
		<path class="st1" d="M414.7,43.8c0,0.9-0.7,1.5-1.5,1.5s-1.5-0.7-1.5-1.5s0.7-1.5,1.5-1.5S414.7,42.9,414.7,43.8z"/>
		<path class="st1" d="M364.1,18.3c0,0.9-0.7,1.5-1.5,1.5s-1.5-0.7-1.5-1.5s0.7-1.5,1.5-1.5S364.1,17.5,364.1,18.3z"/>
		<path class="st1" d="M357,54.3c0,0.9-0.7,1.5-1.5,1.5s-1.5-0.7-1.5-1.5s0.7-1.5,1.5-1.5S357,53.4,357,54.3z"/>
		<path class="st1" d="M446.1,56.9c0,0.4-0.4,0.8-0.8,0.8s-0.8-0.4-0.8-0.8s0.4-0.8,0.8-0.8S446.1,56.4,446.1,56.9z"/>
		<circle class="st1" cx="432.6" cy="22.7" r="0.8"/>
		<circle class="st1" cx="371.6" cy="93.7" r="0.8"/>
		<circle class="st1" cx="470.9" cy="117.7" r="0.8"/>
		<path class="st1" d="M514.2,98.3c0,0.4-0.4,0.8-0.8,0.8s-0.8-0.4-0.8-0.8s0.4-0.8,0.8-0.8S514.2,97.9,514.2,98.3z"/>
		<circle class="st1" cx="452.2" cy="87" r="0.8"/>
	</g>
	<g>
		<path class="st1" d="M771.8,115.7c0-1,0.9-1.8,1.9-1.8s1.8,0.9,1.8,1.9s-0.9,1.8-1.9,1.8S771.8,116.7,771.8,115.7z"/>
		<path class="st1" d="M503.9,75.9c0-1,0.9-1.8,1.9-1.8c1,0,1.8,0.9,1.8,1.9s-0.9,1.8-1.9,1.8C504.7,77.8,503.9,76.9,503.9,75.9z"/>
		<path class="st1" d="M566.4,68.2c0-1,0.9-1.8,1.9-1.8s1.8,0.9,1.8,1.9s-0.9,1.8-1.9,1.8S566.4,69.2,566.4,68.2z"/>
		<path class="st1" d="M574.6,99.7c0-1,0.9-1.8,1.9-1.8s1.8,0.9,1.8,1.9s-0.9,1.8-1.9,1.8S574.6,100.7,574.6,99.7z"/>
		<path class="st1" d="M644.8,61c0-0.9,0.8-1.5,1.6-1.5s1.5,0.8,1.5,1.6s-0.8,1.5-1.6,1.5S644.8,61.8,644.8,61z"/>
		<path class="st1" d="M640.6,91.5c0-0.9,0.8-1.5,1.6-1.5s1.5,0.8,1.5,1.6s-0.8,1.5-1.6,1.5S640.6,92.3,640.6,91.5z"/>
		<path class="st1" d="M690.3,118.8c0-0.9,0.8-1.5,1.6-1.5s1.5,0.8,1.5,1.6s-0.8,1.5-1.6,1.5S690.3,119.7,690.3,118.8z"/>
		<path class="st1" d="M698.7,83.1c0-0.9,0.8-1.5,1.6-1.5s1.5,0.8,1.5,1.6s-0.8,1.5-1.6,1.5S698.7,84,698.7,83.1z"/>
		<path class="st1" d="M609.8,77.2c0-0.4,0.4-0.8,0.8-0.8c0.4,0,0.8,0.4,0.8,0.8c0,0.4-0.4,0.8-0.8,0.8
			C610.1,78,609.8,77.7,609.8,77.2z"/>
		<path class="st1" d="M621.2,111.9c0-0.4,0.4-0.8,0.8-0.8c0.4,0,0.8,0.4,0.8,0.8c0,0.4-0.4,0.8-0.8,0.8
			C621.5,112.7,621.1,112.3,621.2,111.9z"/>
		<path class="st1" d="M684.8,43.2c0-0.4,0.4-0.8,0.8-0.8c0.4,0,0.8,0.4,0.8,0.8c0,0.4-0.4,0.8-0.8,0.8
			C685.1,44,684.8,43.6,684.8,43.2z"/>
		<path class="st1" d="M586.4,15.5c0-0.4,0.4-0.8,0.8-0.8c0.4,0,0.8,0.4,0.8,0.8c0,0.4-0.4,0.8-0.8,0.8
			C586.8,16.3,586.4,15.9,586.4,15.5z"/>
		<path class="st1" d="M543.3,33.3c0-0.4,0.4-0.8,0.8-0.8c0.4,0,0.8,0.4,0.8,0.8c0,0.4-0.4,0.8-0.8,0.8
			C543.6,34.1,543.3,33.7,543.3,33.3z"/>
		<path class="st1" d="M604,46.9c0-0.4,0.4-0.8,0.8-0.8c0.4,0,0.8,0.4,0.8,0.8c0,0.4-0.4,0.8-0.8,0.8C604.3,47.7,604,47.3,604,46.9z
			"/>
	</g>
	<g>
		<path class="st1" d="M975.5,109.1c0-1,0.9-1.8,1.9-1.8s1.8,0.9,1.8,1.9s-0.9,1.8-1.9,1.8S975.5,110.1,975.5,109.1z"/>
		<path class="st1" d="M707.6,69.3c0-1,0.9-1.8,1.9-1.8s1.8,0.9,1.8,1.9s-0.9,1.8-1.9,1.8S707.6,70.3,707.6,69.3z"/>
		<path class="st1" d="M770.1,61.6c0-1,0.9-1.8,1.9-1.8s1.8,0.9,1.8,1.9c0,1-0.9,1.8-1.9,1.8S770,62.6,770.1,61.6z"/>
		<path class="st1" d="M778.3,93.2c0-1,0.9-1.8,1.9-1.8s1.8,0.9,1.8,1.9s-0.9,1.8-1.9,1.8S778.3,94.2,778.3,93.2z"/>
		<path class="st1" d="M848.5,54.4c0-0.9,0.8-1.5,1.6-1.5s1.5,0.8,1.5,1.6S850.9,56,850,56S848.5,55.2,848.5,54.4z"/>
		<path class="st1" d="M844.3,84.9c0-0.9,0.8-1.5,1.6-1.5s1.5,0.8,1.5,1.6s-0.8,1.5-1.6,1.5S844.3,85.8,844.3,84.9z"/>
		<path class="st1" d="M894,112.2c0-0.9,0.8-1.5,1.6-1.5s1.5,0.8,1.5,1.6s-0.8,1.5-1.6,1.5S893.9,113.1,894,112.2z"/>
		<path class="st1" d="M902.4,76.6c0-0.9,0.8-1.5,1.6-1.5s1.5,0.8,1.5,1.6s-0.8,1.5-1.6,1.5S902.4,77.4,902.4,76.6z"/>
		<path class="st1" d="M813.5,70.7c0-0.4,0.4-0.8,0.8-0.8c0.4,0,0.8,0.4,0.8,0.8c0,0.4-0.4,0.8-0.8,0.8
			C813.8,71.5,813.5,71.1,813.5,70.7z"/>
		<path class="st1" d="M824.8,105.3c0-0.4,0.4-0.8,0.8-0.8c0.4,0,0.8,0.4,0.8,0.8c0,0.4-0.4,0.8-0.8,0.8
			C825.2,106.1,824.8,105.7,824.8,105.3z"/>
		<path class="st1" d="M888.5,36.6c0-0.4,0.4-0.8,0.8-0.8c0.4,0,0.8,0.4,0.8,0.8s-0.4,0.8-0.8,0.8C888.8,37.4,888.5,37.1,888.5,36.6
			z"/>
		<path class="st1" d="M790.1,8.9c0-0.4,0.4-0.8,0.8-0.8c0.4,0,0.8,0.4,0.8,0.8c0,0.4-0.4,0.8-0.8,0.8S790.1,9.4,790.1,8.9z"/>
		<path class="st1" d="M747,26.7c0-0.4,0.4-0.8,0.8-0.8c0.4,0,0.8,0.4,0.8,0.8c0,0.4-0.4,0.8-0.8,0.8C747.3,27.5,747,27.1,747,26.7z
			"/>
		<path class="st1" d="M807.7,40.3c0-0.4,0.4-0.8,0.8-0.8c0.4,0,0.8,0.4,0.8,0.8c0,0.4-0.4,0.8-0.8,0.8
			C808,41.1,807.7,40.7,807.7,40.3z"/>
	</g>
	<g>
		<path class="st1" d="M634.2,175.8c0-0.6,0.5-1.1,1.2-1.1s1.1,0.6,1.1,1.2c0,0.6-0.5,1.1-1.2,1.1S634.1,176.4,634.2,175.8z"/>
		<path class="st1" d="M467.4,151c0-0.6,0.5-1.1,1.2-1.1c0.6,0,1.1,0.6,1.1,1.2s-0.5,1.1-1.2,1.1C467.8,152.1,467.3,151.6,467.4,151
			z"/>
		<path class="st1" d="M506.3,146.2c0-0.6,0.5-1.1,1.2-1.1c0.6,0,1.1,0.6,1.1,1.2s-0.5,1.1-1.2,1.1
			C506.7,147.3,506.2,146.8,506.3,146.2z"/>
		<path class="st1" d="M511.4,165.8c0-0.6,0.5-1.1,1.2-1.1c0.6,0,1.1,0.6,1.1,1.2c0,0.6-0.5,1.1-1.2,1.1
			C511.9,167,511.4,166.5,511.4,165.8L511.4,165.8z"/>
		<path class="st1" d="M555.1,141.7c0-0.5,0.5-0.9,1-0.9s1,0.5,0.9,1s-0.5,0.9-1,0.9S555.1,142.2,555.1,141.7z"/>
		<path class="st1" d="M552.5,160.7c0-0.5,0.5-0.9,1-0.9s1,0.5,0.9,1s-0.5,0.9-1,0.9S552.4,161.2,552.5,160.7z"/>
		<path class="st1" d="M583.4,177.7c0-0.5,0.5-0.9,1-0.9s1,0.5,0.9,1s-0.5,0.9-1,0.9S583.4,178.2,583.4,177.7z"/>
		<path class="st1" d="M588.7,155.5c0-0.5,0.5-0.9,1-0.9s1,0.5,0.9,1s-0.5,0.9-1,0.9S588.6,156,588.7,155.5z"/>
		<path class="st1" d="M533.3,151.8c0-0.3,0.2-0.5,0.5-0.5s0.5,0.2,0.5,0.5c0,0.3-0.2,0.5-0.5,0.5
			C533.5,152.3,533.3,152.1,533.3,151.8z"/>
		<path class="st1" d="M540.4,173.4c0-0.3,0.2-0.5,0.5-0.5c0.3,0,0.5,0.2,0.5,0.5c0,0.3-0.2,0.5-0.5,0.5
			C540.6,173.9,540.3,173.7,540.4,173.4z"/>
		<path class="st1" d="M580,130.6c0-0.3,0.2-0.5,0.5-0.5c0.3,0,0.5,0.2,0.5,0.5c0,0.3-0.2,0.5-0.5,0.5S580,130.9,580,130.6z"/>
		<path class="st1" d="M518.7,113.4c0-0.3,0.2-0.5,0.5-0.5c0.3,0,0.5,0.2,0.5,0.5c0,0.3-0.2,0.5-0.5,0.5
			C518.9,113.9,518.7,113.7,518.7,113.4z"/>
		<path class="st1" d="M491.9,124.4c0-0.3,0.2-0.5,0.5-0.5c0.3,0,0.5,0.2,0.5,0.5c0,0.3-0.2,0.5-0.5,0.5
			C492.1,124.9,491.9,124.7,491.9,124.4z"/>
		<path class="st1" d="M529.7,132.9c0-0.3,0.2-0.5,0.5-0.5c0.3,0,0.5,0.2,0.5,0.5c0,0.3-0.2,0.5-0.5,0.5
			C529.9,133.4,529.7,133.2,529.7,132.9z"/>
	</g>
	<g>
		<path class="st1" d="M396,150.3c0-0.6,0.5-1.1,1.2-1.1c0.6,0,1.1,0.6,1.1,1.2s-0.5,1.1-1.2,1.1C396.5,151.5,396,151,396,150.3z"/>
		<path class="st1" d="M229.2,125.6c0-0.6,0.6-1.1,1.2-1.1s1.1,0.6,1.1,1.2c0,0.6-0.6,1.1-1.2,1.1
			C229.7,126.7,229.2,126.2,229.2,125.6z"/>
		<path class="st1" d="M268.1,120.8c0-0.6,0.5-1.1,1.2-1.1c0.6,0,1.1,0.6,1.1,1.2s-0.5,1.1-1.2,1.1
			C268.6,121.9,268.1,121.4,268.1,120.8z"/>
		<path class="st1" d="M273.2,140.4c0-0.6,0.5-1.1,1.2-1.1c0.6,0,1.1,0.6,1.1,1.2c0,0.6-0.5,1.1-1.2,1.1
			C273.7,141.6,273.2,141,273.2,140.4z"/>
		<path class="st1" d="M317,116.3c0-0.5,0.5-0.9,1-0.9s1,0.5,0.9,1c0,0.5-0.5,0.9-1,0.9S316.9,116.8,317,116.3z"/>
		<path class="st1" d="M314.3,135.3c0-0.5,0.5-0.9,1-0.9s1,0.5,0.9,1c0,0.5-0.5,0.9-1,0.9S314.3,135.8,314.3,135.3z"/>
		<path class="st1" d="M345.2,152.3c0-0.5,0.5-0.9,1-0.9s1,0.5,0.9,1c0,0.5-0.5,0.9-1,0.9S345.2,152.8,345.2,152.3z"/>
		<path class="st1" d="M350.5,130.1c0-0.5,0.5-0.9,1-0.9s1,0.5,0.9,1c0,0.5-0.5,0.9-1,0.9S350.5,130.6,350.5,130.1z"/>
		<path class="st1" d="M295.1,126.4c0-0.3,0.2-0.5,0.5-0.5c0.3,0,0.5,0.2,0.5,0.5c0,0.3-0.2,0.5-0.5,0.5
			C295.3,126.9,295.1,126.7,295.1,126.4z"/>
		<path class="st1" d="M302.2,148c0-0.3,0.2-0.5,0.5-0.5c0.3,0,0.5,0.2,0.5,0.5c0,0.3-0.2,0.5-0.5,0.5
			C302.4,148.5,302.2,148.3,302.2,148z"/>
		<path class="st1" d="M341.8,105.2c0-0.3,0.2-0.5,0.5-0.5c0.3,0,0.5,0.2,0.5,0.5s-0.2,0.5-0.5,0.5S341.8,105.5,341.8,105.2z"/>
		<path class="st1" d="M280.6,88c0-0.3,0.2-0.5,0.5-0.5c0.3,0,0.5,0.2,0.5,0.5c0,0.3-0.2,0.5-0.5,0.5
			C280.8,88.5,280.6,88.3,280.6,88z"/>
		<path class="st1" d="M253.7,99c0-0.3,0.2-0.5,0.5-0.5c0.3,0,0.5,0.2,0.5,0.5c0,0.3-0.2,0.5-0.5,0.5
			C253.9,99.5,253.7,99.3,253.7,99z"/>
		<path class="st1" d="M291.5,107.5c0-0.3,0.2-0.5,0.5-0.5c0.3,0,0.5,0.2,0.5,0.5c0,0.3-0.2,0.5-0.5,0.5
			C291.7,108,291.5,107.8,291.5,107.5z"/>
	</g>
	<g>
		<path class="st1" d="M331.7,86.8c0-0.6,0.5-1.1,1.2-1.1c0.6,0,1.1,0.6,1.1,1.2s-0.5,1.1-1.2,1.1C332.2,88,331.7,87.4,331.7,86.8z"
			/>
		<path class="st1" d="M164.9,62c0-0.6,0.6-1.1,1.2-1.1c0.6,0,1.1,0.5,1.1,1.2c0,0.6-0.6,1.1-1.2,1.1
			C165.4,63.2,164.9,62.7,164.9,62z"/>
		<path class="st1" d="M203.8,57.2c0-0.6,0.6-1.1,1.2-1.1c0.6,0,1.1,0.5,1.1,1.2c0,0.6-0.6,1.1-1.2,1.1
			C204.3,58.4,203.8,57.9,203.8,57.2z"/>
		<path class="st1" d="M209,76.9c0-0.6,0.6-1.1,1.2-1.1c0.6,0,1.1,0.6,1.1,1.2c0,0.6-0.6,1.1-1.2,1.1C209.4,78,208.9,77.5,209,76.9z
			"/>
		<path class="st1" d="M252.7,52.7c0-0.5,0.5-1,1-0.9s0.9,0.5,0.9,1s-0.5,1-1,0.9S252.7,53.3,252.7,52.7z"/>
		<path class="st1" d="M250,71.7c0-0.5,0.5-0.9,1-0.9s0.9,0.5,0.9,1s-0.5,0.9-1,0.9S250,72.3,250,71.7z"/>
		<path class="st1" d="M281,88.8c0-0.5,0.5-0.9,1-0.9s1,0.5,0.9,1c0,0.5-0.5,0.9-1,0.9S281,89.3,281,88.8z"/>
		<path class="st1" d="M286.2,66.6c0-0.5,0.5-0.9,1-0.9s1,0.5,0.9,1c0,0.5-0.5,0.9-1,0.9S286.2,67.1,286.2,66.6z"/>
		<path class="st1" d="M230.9,62.9c0-0.3,0.2-0.5,0.5-0.5c0.3,0,0.5,0.2,0.5,0.5c0,0.3-0.2,0.5-0.5,0.5
			C231.1,63.4,230.8,63.1,230.9,62.9z"/>
		<path class="st1" d="M237.9,84.4c0-0.3,0.2-0.5,0.5-0.5c0.3,0,0.5,0.2,0.5,0.5c0,0.3-0.2,0.5-0.5,0.5
			C238.1,84.9,237.9,84.7,237.9,84.4z"/>
		<path class="st1" d="M277.5,41.7c0-0.3,0.2-0.5,0.5-0.5c0.3,0,0.5,0.2,0.5,0.5c0,0.3-0.2,0.5-0.5,0.5S277.5,42,277.5,41.7z"/>
		<path class="st1" d="M216.3,24.5c0-0.3,0.2-0.5,0.5-0.5c0.3,0,0.5,0.2,0.5,0.5c0,0.3-0.2,0.5-0.5,0.5
			C216.5,25,216.3,24.7,216.3,24.5z"/>
		<path class="st1" d="M189.4,35.5c0-0.3,0.2-0.5,0.5-0.5c0.3,0,0.5,0.2,0.5,0.5c0,0.3-0.2,0.5-0.5,0.5
			C189.6,36,189.4,35.8,189.4,35.5z"/>
		<path class="st1" d="M227.2,44c0-0.3,0.2-0.5,0.5-0.5c0.3,0,0.5,0.2,0.5,0.5c0,0.3-0.2,0.5-0.5,0.5
			C227.4,44.5,227.2,44.2,227.2,44z"/>
	</g>
	<g>
		<path class="st1" d="M229.6,133.9c0-0.6,0.6-1.1,1.2-1.1c0.6,0,1.1,0.6,1.1,1.2c0,0.6-0.6,1.1-1.2,1.1
			C230,135.1,229.5,134.6,229.6,133.9z"/>
		<path class="st1" d="M62.7,109.2c0-0.6,0.5-1.1,1.2-1.1c0.6,0,1.1,0.6,1.1,1.2s-0.6,1.1-1.2,1.1C63.2,110.3,62.7,109.8,62.7,109.2
			z"/>
		<path class="st1" d="M101.7,104.3c0-0.6,0.6-1.1,1.2-1.1c0.6,0,1.1,0.6,1.1,1.2c0,0.6-0.6,1.1-1.2,1.1
			C102.1,105.5,101.6,105,101.7,104.3z"/>
		<path class="st1" d="M106.8,124c0-0.6,0.6-1.1,1.2-1.1c0.6,0,1.1,0.6,1.1,1.2c0,0.6-0.6,1.1-1.2,1.1
			C107.2,125.2,106.7,124.6,106.8,124z"/>
		<path class="st1" d="M150.5,99.9c0-0.5,0.5-0.9,1-0.9s0.9,0.5,0.9,1s-0.5,0.9-1,0.9S150.5,100.4,150.5,99.9z"/>
		<path class="st1" d="M147.9,118.9c0-0.5,0.5-0.9,1-0.9s0.9,0.5,0.9,1s-0.5,0.9-1,0.9S147.8,119.4,147.9,118.9z"/>
		<path class="st1" d="M178.8,135.9c0-0.5,0.5-0.9,1-0.9s0.9,0.5,0.9,1s-0.5,0.9-1,0.9S178.8,136.4,178.8,135.9z"/>
		<path class="st1" d="M184,113.7c0-0.5,0.5-0.9,1-0.9s0.9,0.5,0.9,1s-0.5,0.9-1,0.9S184,114.2,184,113.7z"/>
		<path class="st1" d="M128.7,110c0-0.3,0.2-0.5,0.5-0.5c0.3,0,0.5,0.2,0.5,0.5c0,0.3-0.2,0.5-0.5,0.5
			C128.9,110.5,128.6,110.3,128.7,110z"/>
		<path class="st1" d="M135.7,131.6c0-0.3,0.2-0.5,0.5-0.5s0.5,0.2,0.5,0.5c0,0.3-0.2,0.5-0.5,0.5
			C135.9,132.1,135.7,131.8,135.7,131.6z"/>
		<path class="st1" d="M175.4,88.8c0-0.3,0.2-0.5,0.5-0.5c0.3,0,0.5,0.2,0.5,0.5c0,0.3-0.2,0.5-0.5,0.5
			C175.6,89.3,175.3,89.1,175.4,88.8z"/>
		<path class="st1" d="M114.1,71.6c0-0.3,0.2-0.5,0.5-0.5c0.3,0,0.5,0.2,0.5,0.5c0,0.3-0.2,0.5-0.5,0.5
			C114.3,72.1,114.1,71.9,114.1,71.6z"/>
		<path class="st1" d="M87.2,82.6c0-0.3,0.2-0.5,0.5-0.5c0.3,0,0.5,0.2,0.5,0.5c0,0.3-0.2,0.5-0.5,0.5
			C87.5,83.1,87.2,82.9,87.2,82.6z"/>
		<path class="st1" d="M125.1,91.1c0-0.3,0.2-0.5,0.5-0.5c0.3,0,0.5,0.2,0.5,0.5c0,0.3-0.2,0.5-0.5,0.5
			C125.3,91.6,125,91.4,125.1,91.1z"/>
	</g>
	<g>
		<path class="st1" d="M178.5,47.2c-0.1-0.6,0.3-1.2,0.9-1.3s1.2,0.3,1.4,0.9c0.1,0.6-0.3,1.2-0.9,1.3S178.6,47.8,178.5,47.2z"/>
		<path class="st1" d="M10.6,63.7c-0.1-0.6,0.3-1.2,0.9-1.3c0.6-0.1,1.2,0.3,1.4,0.9s-0.3,1.2-0.9,1.4S10.8,64.3,10.6,63.7z"/>
		<path class="st1" d="M47.2,49.5c-0.1-0.6,0.3-1.2,0.9-1.3s1.2,0.3,1.3,0.9s-0.3,1.2-0.9,1.3C47.9,50.6,47.3,50.2,47.2,49.5z"/>
		<path class="st1" d="M57,67.4c-0.1-0.6,0.3-1.2,0.9-1.3c0.6-0.1,1.2,0.3,1.3,0.9c0.1,0.6-0.3,1.2-0.9,1.3S57.1,68,57,67.4z"/>
		<path class="st1" d="M93.5,33.3c-0.1-0.5,0.2-1,0.7-1.1s1,0.2,1.1,0.7s-0.2,1-0.7,1.1S93.6,33.9,93.5,33.3z"/>
		<path class="st1" d="M95.6,52.4c-0.1-0.5,0.2-1,0.7-1.1s1,0.2,1.1,0.7s-0.2,1-0.7,1.1S95.7,52.9,95.6,52.4z"/>
		<path class="st1" d="M129.7,61.4c-0.1-0.5,0.2-1,0.7-1.1s1,0.2,1.1,0.7s-0.2,1-0.7,1.1S129.8,61.9,129.7,61.4z"/>
		<path class="st1" d="M129.4,38.6c-0.1-0.5,0.2-1,0.7-1.1s1,0.2,1.1,0.7s-0.2,1-0.7,1.1S129.5,39.1,129.4,38.6z"/>
		<path class="st1" d="M74.8,48.5c-0.1-0.3,0.1-0.5,0.4-0.6s0.5,0.1,0.6,0.4s-0.1,0.5-0.4,0.6S74.8,48.8,74.8,48.5z"/>
		<path class="st1" d="M86.9,67.7c-0.1-0.3,0.1-0.5,0.4-0.6s0.5,0.1,0.6,0.4s-0.1,0.5-0.4,0.6S87,68,86.9,67.7z"/>
		<path class="st1" d="M114.9,16.6c-0.1-0.3,0.1-0.5,0.4-0.6c0.3-0.1,0.5,0.1,0.6,0.4c0.1,0.3-0.1,0.5-0.4,0.6S115,16.8,114.9,16.6z
			"/>
		<path class="st1" d="M51.3,14.7c-0.1-0.3,0.1-0.5,0.4-0.6s0.5,0.1,0.6,0.4s-0.1,0.5-0.4,0.6S51.4,15,51.3,14.7z"/>
		<path class="st1" d="M28,32c-0.1-0.3,0.1-0.5,0.4-0.6c0.3-0.1,0.5,0.1,0.6,0.4s-0.1,0.5-0.4,0.6C28.3,32.4,28,32.2,28,32z"/>
		<path class="st1" d="M66.7,31c-0.1-0.3,0.1-0.5,0.4-0.6s0.5,0.1,0.6,0.4c0.1,0.3-0.1,0.5-0.4,0.6S66.8,31.3,66.7,31z"/>
	</g>
	<g>
		<path class="st1" d="M903.2,155.2c-0.1-0.6,0.3-1.2,0.9-1.4s1.2,0.3,1.3,0.9c0.1,0.6-0.3,1.2-0.9,1.4S903.4,155.8,903.2,155.2z"/>
		<path class="st1" d="M735.4,171.7c-0.1-0.6,0.3-1.2,0.9-1.4s1.2,0.3,1.3,0.9s-0.3,1.2-0.9,1.4S735.5,172.3,735.4,171.7z"/>
		<path class="st1" d="M772,157.6c-0.1-0.6,0.3-1.2,0.9-1.4s1.2,0.3,1.3,0.9s-0.3,1.2-0.9,1.4S772.1,158.2,772,157.6z"/>
		<path class="st1" d="M781.7,175.4c-0.1-0.6,0.3-1.2,0.9-1.4s1.2,0.3,1.3,0.9s-0.3,1.2-0.9,1.4S781.8,176,781.7,175.4z"/>
		<path class="st1" d="M818.3,141.4c-0.1-0.5,0.2-1,0.7-1.1s1,0.2,1.1,0.7s-0.2,1-0.7,1.1S818.4,141.9,818.3,141.4z"/>
		<path class="st1" d="M820.3,160.4c-0.1-0.5,0.2-1,0.7-1.1s1,0.2,1.1,0.7s-0.2,1-0.7,1.1S820.4,161,820.3,160.4z"/>
		<path class="st1" d="M854.5,169.4c-0.1-0.5,0.2-1,0.7-1.1s1,0.2,1.1,0.7s-0.2,1-0.7,1.1S854.6,169.9,854.5,169.4z"/>
		<path class="st1" d="M854.2,146.6c-0.1-0.5,0.2-1,0.7-1.1s1,0.2,1.1,0.7s-0.2,1-0.7,1.1S854.3,147.1,854.2,146.6z"/>
		<path class="st1" d="M799.5,156.5c-0.1-0.3,0.1-0.5,0.4-0.6s0.5,0.1,0.6,0.4s-0.1,0.5-0.4,0.6S799.6,156.8,799.5,156.5z"/>
		<path class="st1" d="M811.7,175.7c-0.1-0.3,0.1-0.5,0.4-0.6s0.5,0.1,0.6,0.4s-0.1,0.5-0.4,0.6S811.7,176,811.7,175.7z"/>
		<path class="st1" d="M839.7,124.6c-0.1-0.3,0.1-0.5,0.4-0.6s0.5,0.1,0.6,0.4s-0.1,0.5-0.4,0.6S839.8,124.9,839.7,124.6z"/>
		<path class="st1" d="M776.1,122.8c-0.1-0.3,0.1-0.5,0.4-0.6s0.5,0.1,0.6,0.4s-0.1,0.5-0.4,0.6S776.2,123,776.1,122.8z"/>
		<path class="st1" d="M752.7,140c-0.1-0.3,0.1-0.5,0.4-0.6s0.5,0.1,0.6,0.4s-0.1,0.5-0.4,0.6S752.8,140.3,752.7,140z"/>
		<path class="st1" d="M791.5,139c-0.1-0.3,0.1-0.5,0.4-0.6s0.5,0.1,0.6,0.4s-0.1,0.5-0.4,0.6S791.5,139.3,791.5,139z"/>
	</g>
</g>
</svg>
