<svg width="50" height="50" viewBox="0 0 50 50" fill="none" xmlns="http://www.w3.org/2000/svg">
<path d="M36.625 2.8125C33.125 1 29.1875 0 25 0C20.8125 0 16.875 1 13.375 2.8125C5.4375 7 0 15.375 0 25C0 34.625 5.4375 43 13.4375 47.1875C16.875 48.9375 20.8125 50 25 50C29.1875 50 33.0625 48.9375 36.5625 47.125C44.5625 43 50 34.625 50 25C50 15.375 44.5625 7 36.625 2.8125ZM2.5 25C2.5 16.8125 6.875 9.6875 13.4375 5.6875C16.625 3.75 20.3125 2.625 24.375 2.5L21.5625 22.9375L13.4375 29.25L5.1875 35.6875C3.5 32.5 2.5 28.875 2.5 25ZM36.625 44.25C33.1875 46.3125 29.25 47.5 25 47.5C20.75 47.5 16.75 46.3125 13.375 44.25C10.3125 42.4375 7.8125 39.9375 5.9375 36.9375L13.375 33.875L25 29.125L36.625 33.8125L44.125 36.875C42.25 39.9375 39.625 42.4375 36.625 44.25ZM36.625 29.25L28.5625 23L25.6875 2.5C29.625 2.625 33.375 3.75 36.5625 5.6875C43.125 9.625 47.5 16.8125 47.5 25C47.5 28.875 46.5625 32.5 44.8125 35.6875L36.625 29.25Z" fill="black"/>
</svg>
