<?xml version="1.0" encoding="UTF-8"?>
<svg id="mountains" xmlns="http://www.w3.org/2000/svg" xmlns:xlink="http://www.w3.org/1999/xlink" viewBox="0 0 1024.17 512.06">
  <defs>
    <style>
      .cls-1 {
        fill: url(#_Áåçûìÿííûé_ãðàäèåíò_130);
        opacity: .43;
      }

      .cls-2 {
        fill: url(#_Áåçûìÿííûé_ãðàäèåíò_107);
        opacity: .7;
      }

      .cls-3 {
        fill: url(#_Áåçûìÿííûé_ãðàäèåíò_81);
      }

      .cls-4 {
        fill: url(#_Áåçûìÿííûé_ãðàäèåíò_111);
        opacity: .74;
      }
    </style>
    <linearGradient id="_Áåçûìÿííûé_ãðàäèåíò_130" data-name="Áåçûìÿííûé ãðàäèåíò 130" x1="512.06" y1="144" x2="512.06" y2="188.01" gradientUnits="userSpaceOnUse">
      <stop offset="0" stop-color="#56988d"/>
      <stop offset="1" stop-color="#6eb499"/>
    </linearGradient>
    <linearGradient id="_Áåçûìÿííûé_ãðàäèåíò_81" data-name="Áåçûìÿííûé ãðàäèåíò 81" x1="456.39" y1="191" x2="456.39" y2="275.99" gradientUnits="userSpaceOnUse">
      <stop offset="0" stop-color="#57888e"/>
      <stop offset="1" stop-color="#879f99"/>
    </linearGradient>
    <linearGradient id="_Áåçûìÿííûé_ãðàäèåíò_111" data-name="Áåçûìÿííûé ãðàäèåíò 111" x1="512.06" y1="255" x2="512.06" y2="162.86" gradientUnits="userSpaceOnUse">
      <stop offset="0" stop-color="#66a78f"/>
      <stop offset="1" stop-color="#4b8381"/>
    </linearGradient>
    <linearGradient id="_Áåçûìÿííûé_ãðàäèåíò_107" data-name="Áåçûìÿííûé ãðàäèåíò 107" x1="510.85" y1="308.48" x2="508.85" y2="208.48" gradientUnits="userSpaceOnUse">
      <stop offset="0" stop-color="#548f7c"/>
      <stop offset="1" stop-color="#3d6c6c"/>
    </linearGradient>
  </defs>
  <polygon class="cls-1" points="953.38 128.44 886.13 157.77 729.92 164.71 670.39 147.11 618.46 143.11 543.88 187.77 495.94 158.44 417.37 120.44 371.06 140.74 224.28 185.11 74.46 105.11 .06 147.77 .06 412.11 1024.06 412.22 1024.06 147.77 953.38 128.44"/>
  <g>
    <path class="cls-3" d="M456.2,185.02s0,0,0,0l.37.22c.1-.11-.23-.28-.36-.23Z"/>
    <path class="cls-4" d="M1015.53,178.77c-13.07-7.25-26.14-14.5-39.21-21.76-1.88,1.63-3.76,3.25-5.64,4.88-3.38-3.28-6.77-6.57-10.15-9.85-1.01-.98-2.19-2.03-3.59-1.96-1.64.08-2.76,1.61-3.69,2.96-5.53,8.04-12.74,14.92-21.04,20.06-3.3,2.05-6.93,3.86-10.81,3.94-3.27.07-6.43-1.1-9.49-2.27-9.21-3.54-18.33-7.31-27.36-11.31-12.49,8.96-24.97,17.92-37.46,26.88-1.29.92-2.63,1.87-4.19,2.14-2.05.36-4.09-.5-6-1.32-11.59-4.93-23.61-8.86-35.88-11.73-.44,5.07-2.33,10.01-5.38,14.08-3.81-4.03-8.7-7.04-14.02-8.61-5.6,3.1-11.7,5.48-17.29,8.58,1.41.62,2.82,1.23,4.23,1.85-15.54-6.4-29.73-15.59-44.49-23.64-.77-.42-1.57-.84-2.44-.9-.81-.05-1.6.22-2.37.5-5.38,1.99-10.48,4.67-15.85,6.7-5.36,2.03-11.1,2.73-16.83,2.73l-4.5-.75c-.67-1.21-2.55-.68-3.77-.03-1.67.9-3.34,1.8-5.02,2.69-.23.13-.48.25-.74.28-.44.05-.85-.17-1.23-.39-6.72-3.8-12.52-11.31-20.24-11.31l-7.25-3.75c-11.21,5.94-23.39,10.08-35.88,12.31-7.09,1.27-14.63,1.94-20.62,5.94l-8.75,7.25c-2.57,1.3-5.53,1.52-8.37,2.03-2.84.51-5.79,1.41-7.66,3.6-.52.61-.96,1.32-1.62,1.78-.63.44-1.4.61-2.14.76-3.87.81-7.75,1.54-11.65,2.2.29-.1-.12.75.17.64,1.06,1.3,1.88,2.79,2.43,4.38-6.71-3.38-13.33-6.92-19.87-10.62-2.43-1.38-5.01-2.95-6.11-5.52-4.89,2.66-9.78,5.33-14.68,7.99-1.45.79-2.92,1.59-4.52,2-4.94,1.29-9.63-3.49-14.74-3.49l-20-4.25c-2.16-.16-4.46-.43-6.3-1.57-1.47-.91-2.55-2.35-3.97-3.34-.81-.56-1.73-.98-2.48-1.63-.75-.65-1.31-1.64-1.09-2.61.03-.13.09-.28.22-.33l-19.13-11.53c-11.16-4.76-22.17-9.88-33.33-14.64-5.45-2.32-10.94-4.74-15.42-8.61l-3.25,2.25c-5.43,2.25-10.98,4.23-16.41,6.48-7.37,3.06-14.86,6.77-22.84,6.77l-9.25,6.75c-8.08,4.25-17.27,6.38-26.38,7.01-4.31.3-8.55,1.24-12.87,1.24-3.86,2.48-7.73,4.96-11.59,7.44-2.74,1.76-5.49,3.52-8.23,5.29-1.02.65-1.77,1.16-2.47,1.51-11.19-7.99-23.07-15-35.51-20.87-3.8-1.8-8-3.83-9.57-7.73-9.47,5.93-18.11,13.19-25.6,21.49-3.59-3.07-7-6.36-10.21-9.82-4.5,3.67-11.09.13-15.71-3.38-8.35-6.34-16.69-12.69-25.04-19.03-2.75,3.07-6.2,6.36-10.33,6.36l-37.5-31c.13-.56-.55-.29-.98.09-7.13,6.17-13.27,13.43-19.02,20.91l-25-20c-8.67,6.67-17.49,13.14-26,20l-18.5,24.5c-5.29,2.48-10.57,5-15.88,7.45-.04.02-.08.04-.12.05v328.05h1024V184.29c-2.56-2.17-5.58-3.88-8.54-5.52Z"/>
  </g>
  <polygon class="cls-2" points="984.75 194.45 938.47 234.33 868.67 212.97 737.21 239.96 600.22 204.45 486.09 239.96 398.29 204.45 307.02 233.35 221.19 223.88 186.9 223.52 171.83 211.34 86.57 181.49 .06 220.19 .1 511.85 1024.08 511.85 1024.08 228.84 984.75 194.45"/>
</svg>