<?xml version="1.0" encoding="UTF-8"?>
<svg id="mountains" xmlns="http://www.w3.org/2000/svg" version="1.1" xmlns:xlink="http://www.w3.org/1999/xlink" viewBox="0 0 1024.2 512.1">
  <!-- Generator: Adobe Illustrator 29.3.1, SVG Export Plug-In . SVG Version: 2.1.0 Build 151)  -->
  <defs>
    <style>
      .st0 {
        fill: url(#Degradado_sin_nombre_106);
        opacity: .7;
      }

      .st0, .st1, .st2 {
        isolation: isolate;
      }

      .st3 {
        fill: url(#Degradado_sin_nombre_2);
      }

      .st1 {
        fill: url(#Degradado_sin_nombre_96);
        opacity: .7;
      }

      .st2 {
        fill: url(#Degradado_sin_nombre_157);
        opacity: .4;
      }
    </style>
    <linearGradient id="Degradado_sin_nombre_157" data-name="Degradado sin nombre 157" x1="512.1" y1="370" x2="512.1" y2="326" gradientTransform="translate(0 514) scale(1 -1)" gradientUnits="userSpaceOnUse">
      <stop offset="0" stop-color="#75893b"/>
      <stop offset=".6" stop-color="#75893b" stop-opacity="1"/>
      <stop offset=".8" stop-color="#75893b" stop-opacity=".9"/>
      <stop offset=".9" stop-color="#75893b" stop-opacity=".9"/>
      <stop offset="1" stop-color="#75893b" stop-opacity=".8"/>
      <stop offset="1" stop-color="#719d68" stop-opacity=".8"/>
      <stop offset="1" stop-color="#6db398" stop-opacity=".9"/>
    </linearGradient>
    <linearGradient id="Degradado_sin_nombre_2" data-name="Degradado sin nombre 2" x1="456.4" y1="323" x2="456.4" y2="238" gradientTransform="translate(0 514) scale(1 -1)" gradientUnits="userSpaceOnUse">
      <stop offset="0" stop-color="#57888e"/>
      <stop offset="1" stop-color="#879f99"/>
    </linearGradient>
    <linearGradient id="Degradado_sin_nombre_106" data-name="Degradado sin nombre 106" x1="512.1" y1="259" x2="512.1" y2="351.1" gradientTransform="translate(0 514) scale(1 -1)" gradientUnits="userSpaceOnUse">
      <stop offset="0" stop-color="#506d2e"/>
      <stop offset="1" stop-color="#3d6014"/>
    </linearGradient>
    <linearGradient id="Degradado_sin_nombre_96" data-name="Degradado sin nombre 96" x1="510.9" y1="205.5" x2="508.9" y2="305.5" gradientTransform="translate(0 514) scale(1 -1)" gradientUnits="userSpaceOnUse">
      <stop offset="0" stop-color="#194f11"/>
      <stop offset="1" stop-color="#023605"/>
    </linearGradient>
  </defs>
  <polygon class="st2" points="953.4 128.4 886.1 157.8 729.9 164.7 670.4 147.1 618.5 143.1 543.9 187.8 495.9 158.4 417.4 120.4 371.1 140.7 224.3 185.1 74.5 105.1 0 147.8 0 412.1 1024.1 412.2 1024.1 147.8 953.4 128.4"/>
  <g>
    <path class="st3" d="M456.2,185h0l.4.2c.1-.1-.2-.3-.4-.2h0Z"/>
    <path class="st0" d="M1015.5,178.8c-13.1-7.2-26.1-14.5-39.2-21.8-1.9,1.6-3.8,3.2-5.6,4.9-3.4-3.3-6.8-6.6-10.2-9.9-1-1-2.2-2-3.6-2-1.6,0-2.8,1.6-3.7,3-5.5,8-12.7,14.9-21,20.1-3.3,2.1-6.9,3.9-10.8,3.9-3.3,0-6.4-1.1-9.5-2.3-9.2-3.5-18.3-7.3-27.4-11.3-12.5,9-25,17.9-37.5,26.9-1.3.9-2.6,1.9-4.2,2.1-2,.4-4.1-.5-6-1.3-11.6-4.9-23.6-8.9-35.9-11.7-.4,5.1-2.3,10-5.4,14.1-3.8-4-8.7-7-14-8.6-5.6,3.1-11.7,5.5-17.3,8.6,1.4.6,2.8,1.2,4.2,1.9-15.5-6.4-29.7-15.6-44.5-23.6-.8-.4-1.6-.8-2.4-.9-.8,0-1.6.2-2.4.5-5.4,2-10.5,4.7-15.8,6.7-5.4,2-11.1,2.7-16.8,2.7l-4.5-.8c-.7-1.2-2.5-.7-3.8,0-1.7.9-3.3,1.8-5,2.7-.2.1-.5.2-.7.3-.4,0-.8-.2-1.2-.4-6.7-3.8-12.5-11.3-20.2-11.3l-7.2-3.8c-11.2,5.9-23.4,10.1-35.9,12.3-7.1,1.3-14.6,1.9-20.6,5.9l-8.8,7.2c-2.6,1.3-5.5,1.5-8.4,2-2.8.5-5.8,1.4-7.7,3.6-.5.6-1,1.3-1.6,1.8-.6.4-1.4.6-2.1.8-3.9.8-7.8,1.5-11.7,2.2.3-.1-.1.8.2.6,1.1,1.3,1.9,2.8,2.4,4.4-6.7-3.4-13.3-6.9-19.9-10.6-2.4-1.4-5-2.9-6.1-5.5-4.9,2.7-9.8,5.3-14.7,8-1.5.8-2.9,1.6-4.5,2-4.9,1.3-9.6-3.5-14.7-3.5l-20-4.2c-2.2-.2-4.5-.4-6.3-1.6-1.5-.9-2.5-2.4-4-3.3-.8-.6-1.7-1-2.5-1.6-.8-.6-1.3-1.6-1.1-2.6,0-.1,0-.3.2-.3l-19.1-11.5c-11.2-4.8-22.2-9.9-33.3-14.6-5.5-2.3-10.9-4.7-15.4-8.6l-3.2,2.2c-5.4,2.2-11,4.2-16.4,6.5-7.4,3.1-14.9,6.8-22.8,6.8l-9.2,6.8c-8.1,4.2-17.3,6.4-26.4,7-4.3.3-8.5,1.2-12.9,1.2-3.9,2.5-7.7,5-11.6,7.4-2.7,1.8-5.5,3.5-8.2,5.3-1,.6-1.8,1.2-2.5,1.5-11.2-8-23.1-15-35.5-20.9-3.8-1.8-8-3.8-9.6-7.7-9.5,5.9-18.1,13.2-25.6,21.5-3.6-3.1-7-6.4-10.2-9.8-4.5,3.7-11.1.1-15.7-3.4-8.4-6.3-16.7-12.7-25-19-2.8,3.1-6.2,6.4-10.3,6.4l-37.5-31c.1-.6-.6-.3-1,0-7.1,6.2-13.3,13.4-19,20.9l-25-20c-8.7,6.7-17.5,13.1-26,20l-18.5,24.5c-5.3,2.5-10.6,5-15.9,7.4,0,0,0,0-.1,0v328.1h1024V184.3c-2.6-2.2-5.6-3.9-8.5-5.5h0Z"/>
  </g>
  <polygon class="st1" points="984.8 194.4 938.5 234.3 868.7 213 737.2 240 600.2 204.4 486.1 240 398.3 204.4 307 233.4 221.2 223.9 186.9 223.5 171.8 211.3 86.6 181.5 0 220.2 .1 511.9 1024.1 511.9 1024.1 228.8 984.8 194.4"/>
</svg>