<svg width="42" height="42" viewBox="0 0 42 42" fill="none" xmlns="http://www.w3.org/2000/svg">
<path fill-rule="evenodd" clip-rule="evenodd" d="M19.2804 4.90275C11.1488 5.76137 4.8125 12.6407 4.8125 21C4.8125 29.94 12.0599 37.1875 21 37.1875C29.3592 37.1875 36.2386 30.8513 37.0972 22.7196C34.7755 25.6671 31.172 27.5625 27.125 27.5625C20.1178 27.5625 14.4375 21.8822 14.4375 14.875C14.4375 10.8279 16.333 7.22453 19.2804 4.90275ZM2.1875 21C2.1875 10.6101 10.6101 2.1875 21 2.1875C22.254 2.1875 22.8819 3.18721 22.9894 3.98347C23.093 4.74947 22.8098 5.72364 21.9292 6.25567C19.0097 8.0199 17.0625 11.2207 17.0625 14.875C17.0625 20.4323 21.5677 24.9375 27.125 24.9375C30.7793 24.9375 33.9801 22.9903 35.7443 20.0708C36.2763 19.1902 37.2505 18.907 38.0165 19.0106C38.8127 19.1181 39.8125 19.7459 39.8125 21C39.8125 31.3899 31.3899 39.8125 21 39.8125C10.6101 39.8125 2.1875 31.3899 2.1875 21Z" fill="#7B00FF"/>
</svg>
