<svg width="34" height="33" viewBox="0 0 34 33" fill="none" xmlns="http://www.w3.org/2000/svg">
<path d="M11.5 13.0625C11.5 12.4218 11.5 12.1015 11.6047 11.8488C11.7442 11.5119 12.0119 11.2442 12.3488 11.1047C12.6015 11 12.9218 11 13.5625 11C14.2032 11 14.5235 11 14.7762 11.1047C15.1131 11.2442 15.3808 11.5119 15.5204 11.8488C15.625 12.1015 15.625 12.4218 15.625 13.0625V19.9375C15.625 20.5781 15.625 20.8985 15.5204 21.1512C15.3808 21.4881 15.1131 21.7558 14.7762 21.8954C14.5235 22 14.2032 22 13.5625 22C12.9218 22 12.6015 22 12.3488 21.8954C12.0119 21.7558 11.7442 21.4881 11.6047 21.1512C11.5 20.8985 11.5 20.5781 11.5 19.9375V13.0625Z" stroke="#7B00FF" stroke-width="2"/>
<path d="M18.375 13.0625C18.375 12.4218 18.375 12.1015 18.4796 11.8488C18.6192 11.5119 18.8869 11.2442 19.2238 11.1047C19.4765 11 19.7969 11 20.4375 11C21.0781 11 21.3985 11 21.6512 11.1047C21.9881 11.2442 22.2558 11.5119 22.3954 11.8488C22.5 12.1015 22.5 12.4218 22.5 13.0625V19.9375C22.5 20.5781 22.5 20.8985 22.3954 21.1512C22.2558 21.4881 21.9881 21.7558 21.6512 21.8954C21.3985 22 21.0781 22 20.4375 22C19.7969 22 19.4765 22 19.2238 21.8954C18.8869 21.7558 18.6192 21.4881 18.4796 21.1512C18.375 20.8985 18.375 20.5781 18.375 19.9375V13.0625Z" stroke="#7B00FF" stroke-width="2"/>
<path d="M10.125 4.5895C12.1474 3.41958 14.4956 2.75 17 2.75C24.5938 2.75 30.75 8.90608 30.75 16.5C30.75 24.0938 24.5938 30.25 17 30.25C9.40608 30.25 3.25 24.0938 3.25 16.5C3.25 13.9956 3.91958 11.6474 5.0895 9.625" stroke="#7B00FF" stroke-width="2" stroke-linecap="round"/>
</svg>
