<?xml version="1.0" encoding="UTF-8"?>
<svg id="foreground" xmlns="http://www.w3.org/2000/svg" xmlns:xlink="http://www.w3.org/1999/xlink" viewBox="0 0 1024.17 512.06">
  <defs>
    <style>
      .cls-1 {
        fill: url(#_Áåçûìÿííûé_ãðàäèåíò_146-13);
      }

      .cls-2 {
        mask: url(#mask-35);
      }

      .cls-3 {
        fill: url(#_Áåçûìÿííûé_ãðàäèåíò_146-3);
      }

      .cls-4 {
        mask: url(#mask-15);
      }

      .cls-5 {
        fill: url(#_Áåçûìÿííûé_ãðàäèåíò_140-2);
      }

      .cls-6 {
        mask: url(#mask-5);
      }

      .cls-7 {
        mask: url(#mask-13);
      }

      .cls-8 {
        fill: url(#_Áåçûìÿííûé_ãðàäèåíò_198);
      }

      .cls-8, .cls-9, .cls-10, .cls-11, .cls-12, .cls-13, .cls-14, .cls-15, .cls-16, .cls-17, .cls-18, .cls-19, .cls-20, .cls-21, .cls-22, .cls-23, .cls-24, .cls-25 {
        mix-blend-mode: multiply;
      }

      .cls-9 {
        fill: url(#_Áåçûìÿííûé_ãðàäèåíò_190);
      }

      .cls-26 {
        mask: url(#mask-1);
      }

      .cls-27 {
        fill: url(#_Áåçûìÿííûé_ãðàäèåíò_140-3);
      }

      .cls-10 {
        fill: url(#_Áåçûìÿííûé_ãðàäèåíò_199);
      }

      .cls-28 {
        filter: url(#luminosity-noclip-21);
      }

      .cls-11 {
        fill: url(#_Áåçûìÿííûé_ãðàäèåíò_200);
      }

      .cls-29 {
        mask: url(#mask-10);
      }

      .cls-30 {
        mask: url(#mask-6);
      }

      .cls-31 {
        mask: url(#mask-7);
      }

      .cls-12 {
        fill: url(#_Áåçûìÿííûé_ãðàäèåíò_197);
      }

      .cls-32 {
        mask: url(#mask-18);
      }

      .cls-33 {
        filter: url(#luminosity-noclip-15);
      }

      .cls-34 {
        filter: url(#luminosity-noclip-5);
      }

      .cls-35 {
        mask: url(#mask-17);
      }

      .cls-36 {
        mask: url(#mask);
      }

      .cls-13 {
        fill: url(#_Áåçûìÿííûé_ãðàäèåíò_192);
      }

      .cls-37 {
        mask: url(#mask-30);
      }

      .cls-38 {
        fill: url(#_Áåçûìÿííûé_ãðàäèåíò_146-5);
      }

      .cls-39 {
        fill: #108c89;
      }

      .cls-40 {
        mask: url(#mask-20);
      }

      .cls-41 {
        fill: url(#_Áåçûìÿííûé_ãðàäèåíò_146-10);
      }

      .cls-42 {
        fill: #093a42;
      }

      .cls-43 {
        filter: url(#luminosity-noclip-35);
      }

      .cls-44 {
        fill: url(#_Áåçûìÿííûé_ãðàäèåíò_146-16);
      }

      .cls-45 {
        filter: url(#luminosity-noclip-23);
      }

      .cls-46 {
        mask: url(#mask-8);
      }

      .cls-47 {
        filter: url(#luminosity-noclip-11);
      }

      .cls-48 {
        fill: url(#_Áåçûìÿííûé_ãðàäèåíò_146-2);
      }

      .cls-49 {
        mask: url(#mask-2);
      }

      .cls-50 {
        filter: url(#luminosity-noclip-3);
      }

      .cls-51 {
        fill: #492909;
      }

      .cls-52 {
        mask: url(#mask-31);
      }

      .cls-53 {
        fill: #0f575b;
      }

      .cls-54 {
        mask: url(#mask-9);
      }

      .cls-55 {
        fill: url(#_Áåçûìÿííûé_ãðàäèåíò_146-12);
      }

      .cls-56 {
        fill: url(#_Áåçûìÿííûé_ãðàäèåíò_146-4);
      }

      .cls-14 {
        fill: url(#_Áåçûìÿííûé_ãðàäèåíò_195);
      }

      .cls-57 {
        mask: url(#mask-21);
      }

      .cls-15 {
        fill: url(#_Áåçûìÿííûé_ãðàäèåíò_188);
      }

      .cls-58 {
        fill: #0c4b51;
      }

      .cls-16 {
        fill: url(#_Áåçûìÿííûé_ãðàäèåíò_184);
      }

      .cls-59 {
        mask: url(#mask-28);
      }

      .cls-60 {
        mask: url(#mask-23);
      }

      .cls-61 {
        filter: url(#luminosity-noclip-17);
      }

      .cls-62 {
        fill: url(#_Áåçûìÿííûé_ãðàäèåíò_146-15);
      }

      .cls-63 {
        mask: url(#mask-34);
      }

      .cls-17 {
        fill: url(#_Áåçûìÿííûé_ãðàäèåíò_189);
      }

      .cls-64 {
        filter: url(#luminosity-noclip-13);
      }

      .cls-65 {
        mask: url(#mask-26);
      }

      .cls-66 {
        filter: url(#luminosity-noclip-19);
      }

      .cls-67 {
        fill: url(#_Áåçûìÿííûé_ãðàäèåíò_146-8);
      }

      .cls-68 {
        fill: url(#_Áåçûìÿííûé_ãðàäèåíò_146-18);
      }

      .cls-69 {
        fill: url(#_Áåçûìÿííûé_ãðàäèåíò_140);
      }

      .cls-18 {
        fill: url(#_Áåçûìÿííûé_ãðàäèåíò_196);
      }

      .cls-70 {
        fill: #086d6d;
      }

      .cls-71 {
        fill: url(#_Áåçûìÿííûé_ãðàäèåíò_146-6);
      }

      .cls-19 {
        fill: url(#_Áåçûìÿííûé_ãðàäèåíò_193);
      }

      .cls-72 {
        mask: url(#mask-24);
      }

      .cls-73 {
        filter: url(#luminosity-noclip-9);
      }

      .cls-74 {
        mask: url(#mask-16);
      }

      .cls-75 {
        fill: url(#_Áåçûìÿííûé_ãðàäèåíò_146-9);
      }

      .cls-76 {
        mask: url(#mask-32);
      }

      .cls-77 {
        mask: url(#mask-19);
      }

      .cls-78 {
        mask: url(#mask-33);
      }

      .cls-79 {
        mask: url(#mask-25);
      }

      .cls-80 {
        filter: url(#luminosity-noclip-29);
      }

      .cls-81 {
        mask: url(#mask-29);
      }

      .cls-82 {
        mask: url(#mask-11);
      }

      .cls-20 {
        fill: url(#_Áåçûìÿííûé_ãðàäèåíò_183);
      }

      .cls-83 {
        fill: url(#_Áåçûìÿííûé_ãðàäèåíò_146-7);
      }

      .cls-84 {
        fill: url(#_Áåçûìÿííûé_ãðàäèåíò_146-14);
      }

      .cls-85 {
        filter: url(#luminosity-noclip-33);
      }

      .cls-86 {
        mask: url(#mask-12);
      }

      .cls-21 {
        fill: url(#_Áåçûìÿííûé_ãðàäèåíò_187);
      }

      .cls-87 {
        filter: url(#luminosity-noclip-27);
      }

      .cls-88 {
        mask: url(#mask-22);
      }

      .cls-89 {
        mask: url(#mask-4);
      }

      .cls-22 {
        fill: url(#_Áåçûìÿííûé_ãðàäèåíò_186);
      }

      .cls-90 {
        fill: #041d23;
      }

      .cls-23 {
        fill: url(#_Áåçûìÿííûé_ãðàäèåíò_194);
      }

      .cls-91 {
        mask: url(#mask-14);
      }

      .cls-24 {
        fill: url(#_Áåçûìÿííûé_ãðàäèåíò_191);
      }

      .cls-92 {
        filter: url(#luminosity-noclip-31);
      }

      .cls-93 {
        fill: #062e35;
      }

      .cls-94 {
        filter: url(#luminosity-noclip-7);
      }

      .cls-25 {
        fill: url(#_Áåçûìÿííûé_ãðàäèåíò_185);
      }

      .cls-95 {
        fill: url(#_Áåçûìÿííûé_ãðàäèåíò_146-17);
      }

      .cls-96 {
        filter: url(#luminosity-noclip-25);
      }

      .cls-97 {
        mask: url(#mask-27);
      }

      .cls-98 {
        fill: url(#_Áåçûìÿííûé_ãðàäèåíò_146-11);
      }

      .cls-99 {
        fill: url(#_Áåçûìÿííûé_ãðàäèåíò_146);
      }

      .cls-100 {
        mask: url(#mask-3);
      }

      .cls-101 {
        filter: url(#luminosity-noclip);
      }
    </style>
    <filter id="luminosity-noclip" x="161.89" y="428.49" width="24.5" height="2.26" color-interpolation-filters="sRGB" filterUnits="userSpaceOnUse">
      <feFlood flood-color="#fff" result="bg"/>
      <feBlend in="SourceGraphic" in2="bg"/>
    </filter>
    <filter id="luminosity-noclip-2" x="161.89" y="-8448" width="24.5" height="32766" color-interpolation-filters="sRGB" filterUnits="userSpaceOnUse">
      <feFlood flood-color="#fff" result="bg"/>
      <feBlend in="SourceGraphic" in2="bg"/>
    </filter>
    <mask id="mask-1" x="161.89" y="-8448" width="24.5" height="32766" maskUnits="userSpaceOnUse"/>
    <linearGradient id="_Áåçûìÿííûé_ãðàäèåíò_200" data-name="Áåçûìÿííûé ãðàäèåíò 200" x1="161.89" y1="429.62" x2="186.39" y2="429.62" gradientUnits="userSpaceOnUse">
      <stop offset="0" stop-color="#fff"/>
      <stop offset=".86" stop-color="#000"/>
    </linearGradient>
    <mask id="mask" x="161.89" y="428.49" width="24.5" height="2.26" maskUnits="userSpaceOnUse">
      <g class="cls-101">
        <g class="cls-26">
          <path class="cls-11" d="M173.98,429.22c-4.03.43-8.05.86-12.08,1.29,8.24.66,16.72-.02,24.5-1.96-4.15-.21-8.31.23-12.42.67Z"/>
        </g>
      </g>
    </mask>
    <linearGradient id="_Áåçûìÿííûé_ãðàäèåíò_146" data-name="Áåçûìÿííûé ãðàäèåíò 146" x1="161.89" y1="429.62" x2="186.39" y2="429.62" gradientUnits="userSpaceOnUse">
      <stop offset="0" stop-color="#109991"/>
      <stop offset=".86" stop-color="#157671"/>
    </linearGradient>
    <filter id="luminosity-noclip-3" x=".06" y="406.41" width="135.11" height="13.69" color-interpolation-filters="sRGB" filterUnits="userSpaceOnUse">
      <feFlood flood-color="#fff" result="bg"/>
      <feBlend in="SourceGraphic" in2="bg"/>
    </filter>
    <filter id="luminosity-noclip-4" x=".06" y="-8448" width="135.11" height="32766" color-interpolation-filters="sRGB" filterUnits="userSpaceOnUse">
      <feFlood flood-color="#fff" result="bg"/>
      <feBlend in="SourceGraphic" in2="bg"/>
    </filter>
    <mask id="mask-3" x=".06" y="-8448" width="135.11" height="32766" maskUnits="userSpaceOnUse"/>
    <linearGradient id="_Áåçûìÿííûé_ãðàäèåíò_199" data-name="Áåçûìÿííûé ãðàäèåíò 199" x1=".06" y1="413.25" x2="135.17" y2="413.25" gradientUnits="userSpaceOnUse">
      <stop offset="0" stop-color="#fff"/>
      <stop offset=".86" stop-color="#000"/>
    </linearGradient>
    <mask id="mask-2" x=".06" y="406.41" width="135.11" height="13.69" maskUnits="userSpaceOnUse">
      <g class="cls-50">
        <g class="cls-100">
          <path class="cls-10" d="M135.17,408.72c-12.21-2.48-25.25-2.19-38.02-2.19-17.01,0-34.11-.58-50.97.9-16.73,1.47-33.51,5.17-46.11,12.59v.08c7.92-2.46,15.94-4.93,24.52-6.06-.72.63-1.43,1.26-2.15,1.89.96-.21,1.99-.3,3-.24-1.13.59-2.26,1.18-3.39,1.77,12.87-2.35,26.06-3.92,39.36-4.71-.43-.73-2.97-.32-2.76-1.09,25.3-2.55,50.95-3.54,76.53-2.95Z"/>
        </g>
      </g>
    </mask>
    <linearGradient id="_Áåçûìÿííûé_ãðàäèåíò_146-2" data-name="Áåçûìÿííûé ãðàäèåíò 146" x1=".06" y1="413.25" x2="135.17" y2="413.25" xlink:href="#_Áåçûìÿííûé_ãðàäèåíò_146"/>
    <filter id="luminosity-noclip-5" x="58.73" y="407.92" width="82.07" height="13.87" color-interpolation-filters="sRGB" filterUnits="userSpaceOnUse">
      <feFlood flood-color="#fff" result="bg"/>
      <feBlend in="SourceGraphic" in2="bg"/>
    </filter>
    <filter id="luminosity-noclip-6" x="58.73" y="-8448" width="82.07" height="32766" color-interpolation-filters="sRGB" filterUnits="userSpaceOnUse">
      <feFlood flood-color="#fff" result="bg"/>
      <feBlend in="SourceGraphic" in2="bg"/>
    </filter>
    <mask id="mask-5" x="58.73" y="-8448" width="82.07" height="32766" maskUnits="userSpaceOnUse"/>
    <linearGradient id="_Áåçûìÿííûé_ãðàäèåíò_198" data-name="Áåçûìÿííûé ãðàäèåíò 198" x1="58.73" y1="414.85" x2="140.8" y2="414.85" gradientUnits="userSpaceOnUse">
      <stop offset="0" stop-color="#fff"/>
      <stop offset=".86" stop-color="#000"/>
    </linearGradient>
    <mask id="mask-4" x="58.73" y="407.92" width="82.07" height="13.87" maskUnits="userSpaceOnUse">
      <g class="cls-34">
        <g class="cls-6">
          <path class="cls-8" d="M72.33,416.33c-.79.28-1.58.56-2.37.84.41.14.81.27,1.22.41-4.29,1.2-8.45,2.61-12.44,4.2,11.46-1.95,22.91-3.89,34.37-5.84-1,.72-2,1.43-3,2.15,10.05-1.43,20.16-2.69,30.31-3.79-1.08.26-2.07.68-2.89,1.21,7.76-.67,15.52-1.34,23.28-2.01-7.35-1.76-14.75-3.42-22.21-4.98.56.22,1.38-.21,1.19-.62-4.54.28-9.08.57-13.62.85-7.1.45-14.23.91-21.12,2.11-7.94,1.38-15.48,3.75-22.13,6.94,2.97-.86,6.18-1.37,9.41-1.49Z"/>
        </g>
      </g>
    </mask>
    <linearGradient id="_Áåçûìÿííûé_ãðàäèåíò_146-3" data-name="Áåçûìÿííûé ãðàäèåíò 146" x1="58.73" y1="414.85" x2="140.8" y2="414.85" xlink:href="#_Áåçûìÿííûé_ãðàäèåíò_146"/>
    <filter id="luminosity-noclip-7" x="206.17" y="405.71" width="139.49" height="10.53" color-interpolation-filters="sRGB" filterUnits="userSpaceOnUse">
      <feFlood flood-color="#fff" result="bg"/>
      <feBlend in="SourceGraphic" in2="bg"/>
    </filter>
    <filter id="luminosity-noclip-8" x="206.17" y="-8448" width="139.49" height="32766" color-interpolation-filters="sRGB" filterUnits="userSpaceOnUse">
      <feFlood flood-color="#fff" result="bg"/>
      <feBlend in="SourceGraphic" in2="bg"/>
    </filter>
    <mask id="mask-7" x="206.17" y="-8448" width="139.49" height="32766" maskUnits="userSpaceOnUse"/>
    <linearGradient id="_Áåçûìÿííûé_ãðàäèåíò_197" data-name="Áåçûìÿííûé ãðàäèåíò 197" x1="206.17" y1="410.98" x2="345.66" y2="410.98" gradientUnits="userSpaceOnUse">
      <stop offset="0" stop-color="#fff"/>
      <stop offset=".86" stop-color="#000"/>
    </linearGradient>
    <mask id="mask-6" x="206.17" y="405.71" width="139.49" height="10.53" maskUnits="userSpaceOnUse">
      <g class="cls-94">
        <g class="cls-31">
          <path class="cls-12" d="M226.49,408.79c-6.72,1.19-13.38,2.75-20.32,3.01,7.54.35,15.08.7,22.63,1.04-2.57.63-5.05,1.43-7.4,2.38,10.03-.79,20.13-1.16,30.23-1.1-1.44.47-2.66,1.21-3.5,2.12,21.13-2.99,43.04-3.57,64.46-1.72-2.25-.75-4.49-1.5-6.74-2.25,13.38-.23,26.8.7,39.8,2.78-13.37-5.52-30.19-5.2-45.51-7.62,2.72-.19,5.45-.39,8.17-.58-3.3-.23-6.61-.45-9.93-.64-14.55-.11-29.11-.28-43.66-.5-9.53.48-18.97,1.43-28.23,3.07Z"/>
        </g>
      </g>
    </mask>
    <linearGradient id="_Áåçûìÿííûé_ãðàäèåíò_146-4" data-name="Áåçûìÿííûé ãðàäèåíò 146" x1="206.17" y1="410.98" x2="345.66" y2="410.98" xlink:href="#_Áåçûìÿííûé_ãðàäèåíò_146"/>
    <filter id="luminosity-noclip-9" x="254.72" y="405.33" width="43.66" height=".89" color-interpolation-filters="sRGB" filterUnits="userSpaceOnUse">
      <feFlood flood-color="#fff" result="bg"/>
      <feBlend in="SourceGraphic" in2="bg"/>
    </filter>
    <filter id="luminosity-noclip-10" x="254.72" y="-8448" width="43.66" height="32766" color-interpolation-filters="sRGB" filterUnits="userSpaceOnUse">
      <feFlood flood-color="#fff" result="bg"/>
      <feBlend in="SourceGraphic" in2="bg"/>
    </filter>
    <mask id="mask-9" x="254.72" y="-8448" width="43.66" height="32766" maskUnits="userSpaceOnUse"/>
    <linearGradient id="_Áåçûìÿííûé_ãðàäèåíò_196" data-name="Áåçûìÿííûé ãðàäèåíò 196" x1="254.72" y1="405.77" x2="298.38" y2="405.77" gradientUnits="userSpaceOnUse">
      <stop offset="0" stop-color="#fff"/>
      <stop offset=".86" stop-color="#000"/>
    </linearGradient>
    <mask id="mask-8" x="254.72" y="405.33" width="43.66" height=".89" maskUnits="userSpaceOnUse">
      <g class="cls-73">
        <g class="cls-54">
          <path class="cls-18" d="M254.72,405.71c14.55.22,29.11.39,43.66.5-14.54-.84-29.2-1.23-43.66-.5Z"/>
        </g>
      </g>
    </mask>
    <linearGradient id="_Áåçûìÿííûé_ãðàäèåíò_146-5" data-name="Áåçûìÿííûé ãðàäèåíò 146" x1="254.72" y1="405.77" x2="298.38" y2="405.77" xlink:href="#_Áåçûìÿííûé_ãðàäèåíò_146"/>
    <filter id="luminosity-noclip-11" x="107.66" y="404.92" width="56.02" height="6.92" color-interpolation-filters="sRGB" filterUnits="userSpaceOnUse">
      <feFlood flood-color="#fff" result="bg"/>
      <feBlend in="SourceGraphic" in2="bg"/>
    </filter>
    <filter id="luminosity-noclip-12" x="107.66" y="-8448" width="56.02" height="32766" color-interpolation-filters="sRGB" filterUnits="userSpaceOnUse">
      <feFlood flood-color="#fff" result="bg"/>
      <feBlend in="SourceGraphic" in2="bg"/>
    </filter>
    <mask id="mask-11" x="107.66" y="-8448" width="56.02" height="32766" maskUnits="userSpaceOnUse"/>
    <linearGradient id="_Áåçûìÿííûé_ãðàäèåíò_195" data-name="Áåçûìÿííûé ãðàäèåíò 195" x1="107.66" y1="408.38" x2="163.68" y2="408.38" gradientUnits="userSpaceOnUse">
      <stop offset="0" stop-color="#fff"/>
      <stop offset=".86" stop-color="#000"/>
    </linearGradient>
    <mask id="mask-10" x="107.66" y="404.92" width="56.02" height="6.92" maskUnits="userSpaceOnUse">
      <g class="cls-47">
        <g class="cls-82">
          <path class="cls-14" d="M130,405c-7.7.18-15.74.56-22.34,3.2,3.56-.26,7.16-.23,10.71.09-1,.46-2,.92-3,1.38,2.2-.39,4.5-.49,6.76-.31-2.03.6-3.89,1.45-5.47,2.48,10.49-2.79,21.83-4.18,33.14-4.05-1.46.75-3.37.97-5.13,1.36-1.75.39-3.58,1.11-4.04,2.3,7.28-1.25,14.97-1.41,22.35-.48-2.39-1.39-5.13-2.5-8.08-3.27,2.93.26,5.86.53,8.78.79-10.12-3.62-22.18-3.75-33.68-3.49Z"/>
        </g>
      </g>
    </mask>
    <linearGradient id="_Áåçûìÿííûé_ãðàäèåíò_146-6" data-name="Áåçûìÿííûé ãðàäèåíò 146" x1="107.66" y1="408.38" x2="163.68" y2="408.38" xlink:href="#_Áåçûìÿííûé_ãðàäèåíò_146"/>
    <filter id="luminosity-noclip-13" x="128.3" y="411.98" width="81.18" height="9.22" color-interpolation-filters="sRGB" filterUnits="userSpaceOnUse">
      <feFlood flood-color="#fff" result="bg"/>
      <feBlend in="SourceGraphic" in2="bg"/>
    </filter>
    <filter id="luminosity-noclip-14" x="128.3" y="-8448" width="81.18" height="32766" color-interpolation-filters="sRGB" filterUnits="userSpaceOnUse">
      <feFlood flood-color="#fff" result="bg"/>
      <feBlend in="SourceGraphic" in2="bg"/>
    </filter>
    <mask id="mask-13" x="128.3" y="-8448" width="81.18" height="32766" maskUnits="userSpaceOnUse"/>
    <linearGradient id="_Áåçûìÿííûé_ãðàäèåíò_194" data-name="Áåçûìÿííûé ãðàäèåíò 194" x1="128.3" y1="416.59" x2="209.48" y2="416.59" gradientUnits="userSpaceOnUse">
      <stop offset="0" stop-color="#fff"/>
      <stop offset=".86" stop-color="#000"/>
    </linearGradient>
    <mask id="mask-12" x="128.3" y="411.98" width="81.18" height="9.22" maskUnits="userSpaceOnUse">
      <g class="cls-64">
        <g class="cls-7">
          <path class="cls-23" d="M147.88,414.49c-7.19,1.19-13.96,3.5-19.58,6.7,8.46-2.37,17.48-3.85,26.63-4.36-.67-.02-1.34.29-1.53.72,2.1-.11,4.21-.22,6.31-.33-.25.48-.74.91-1.37,1.21,13.78,1.6,27.78,2.1,41.75,2.59-3.09-.25-6.18-.5-9.27-.74,3.98-.24,7.92-.75,11.74-1.52-2.3-.03-4.6-.06-6.9-.09,4.7-.25,9.35-.89,13.81-1.9-6.95-.3-13.92-.42-20.89-.38,3.37-.41,6.75-.82,10.12-1.24.67-.08,1.46-.23,1.68-.66-9.52.83-19.14,1.14-28.73.91,1.05-.2,2.11-.4,3.16-.6-1.99-.72-4.12-1.28-6.31-1.67.92-.02,1.83-.17,2.65-.45-11.16-.82-23-1.56-33.14,1.64,3.81-.81,7.88-1.05,11.84-.73-1.71.12-3.38.43-4.93.92.98,0,1.97-.02,2.95-.03Z"/>
        </g>
      </g>
    </mask>
    <linearGradient id="_Áåçûìÿííûé_ãðàäèåíò_146-7" data-name="Áåçûìÿííûé ãðàäèåíò 146" x1="128.3" y1="416.59" x2="209.48" y2="416.59" xlink:href="#_Áåçûìÿííûé_ãðàäèåíò_146"/>
    <filter id="luminosity-noclip-15" x="151.89" y="406.48" width="27.18" height="4.54" color-interpolation-filters="sRGB" filterUnits="userSpaceOnUse">
      <feFlood flood-color="#fff" result="bg"/>
      <feBlend in="SourceGraphic" in2="bg"/>
    </filter>
    <filter id="luminosity-noclip-16" x="151.89" y="-8448" width="27.18" height="32766" color-interpolation-filters="sRGB" filterUnits="userSpaceOnUse">
      <feFlood flood-color="#fff" result="bg"/>
      <feBlend in="SourceGraphic" in2="bg"/>
    </filter>
    <mask id="mask-15" x="151.89" y="-8448" width="27.18" height="32766" maskUnits="userSpaceOnUse"/>
    <linearGradient id="_Áåçûìÿííûé_ãðàäèåíò_193" data-name="Áåçûìÿííûé ãðàäèåíò 193" x1="151.89" y1="408.75" x2="179.07" y2="408.75" gradientUnits="userSpaceOnUse">
      <stop offset="0" stop-color="#fff"/>
      <stop offset=".86" stop-color="#000"/>
    </linearGradient>
    <mask id="mask-14" x="151.89" y="406.48" width="27.18" height="4.54" maskUnits="userSpaceOnUse">
      <g class="cls-33">
        <g class="cls-4">
          <path class="cls-19" d="M158.63,409.23c-2.19-.38-4.5-.46-6.74-.23,2.63-1.69,6.45-2.3,10.11-2.48,6.22-.29,13.02.67,17.07,3.81-2.44-.37-4.91-.64-7.4-.8,1.08.49,2.16.98,3.24,1.47-6.01-.61-12.07-.97-18.14-1.06.62-.24,1.25-.48,1.87-.72Z"/>
        </g>
      </g>
    </mask>
    <linearGradient id="_Áåçûìÿííûé_ãðàäèåíò_146-8" data-name="Áåçûìÿííûé ãðàäèåíò 146" x1="151.89" y1="408.75" x2="179.07" y2="408.75" xlink:href="#_Áåçûìÿííûé_ãðàäèåíò_146"/>
    <filter id="luminosity-noclip-17" x="220.95" y="413.87" width="152.62" height="16.02" color-interpolation-filters="sRGB" filterUnits="userSpaceOnUse">
      <feFlood flood-color="#fff" result="bg"/>
      <feBlend in="SourceGraphic" in2="bg"/>
    </filter>
    <filter id="luminosity-noclip-18" x="220.95" y="-8448" width="152.62" height="32766" color-interpolation-filters="sRGB" filterUnits="userSpaceOnUse">
      <feFlood flood-color="#fff" result="bg"/>
      <feBlend in="SourceGraphic" in2="bg"/>
    </filter>
    <mask id="mask-17" x="220.95" y="-8448" width="152.62" height="32766" maskUnits="userSpaceOnUse"/>
    <linearGradient id="_Áåçûìÿííûé_ãðàäèåíò_192" data-name="Áåçûìÿííûé ãðàäèåíò 192" x1="220.95" y1="421.88" x2="373.57" y2="421.88" gradientUnits="userSpaceOnUse">
      <stop offset="0" stop-color="#fff"/>
      <stop offset=".86" stop-color="#000"/>
    </linearGradient>
    <mask id="mask-16" x="220.95" y="413.87" width="152.62" height="16.02" maskUnits="userSpaceOnUse">
      <g class="cls-61">
        <g class="cls-35">
          <path class="cls-13" d="M327.48,417.47c-1.75.02-3.5.35-5.01.93,5.23-.44,10.58-.21,15.69.65-1.29.28-2.58.56-3.88.84,13.17.15,26.37-.64,39.29-2.33-10.75,4.19-23.63,5.13-36.09,5.46-14.42.37-28.88.03-43.23-1.01-4.55-.33-9.43-.69-13.46.75,2.45-.23,4.98-.1,7.35.37-16.03,2.23-32.05,4.46-48.08,6.69,1.54-.97,2.95-2.03,4.21-3.16-7.86.77-15.66,1.86-23.33,3.24,8.7-4.76,18.85-8.36,29.65-10.52-1.07.72-2.13,1.43-3.2,2.15,3.34-1.51,6.95-2.77,10.73-3.73-.95.71-1.89,1.42-2.84,2.14,4.36-1.94,9.05-3.56,13.95-4.81-.74.48-1.47.96-2.21,1.43,7.86-1.41,15.94-2.31,24.07-2.67-1.7.63-3.41,1.26-5.11,1.89,13.84-1.09,27.97-.51,41.49,1.71Z"/>
        </g>
      </g>
    </mask>
    <linearGradient id="_Áåçûìÿííûé_ãðàäèåíò_146-9" data-name="Áåçûìÿííûé ãðàäèåíò 146" x1="220.95" y1="421.88" x2="373.57" y2="421.88" xlink:href="#_Áåçûìÿííûé_ãðàäèåíò_146"/>
    <filter id="luminosity-noclip-19" x="582.93" y="406.41" width="135.41" height="13.78" color-interpolation-filters="sRGB" filterUnits="userSpaceOnUse">
      <feFlood flood-color="#fff" result="bg"/>
      <feBlend in="SourceGraphic" in2="bg"/>
    </filter>
    <filter id="luminosity-noclip-20" x="582.93" y="-8448" width="135.41" height="32766" color-interpolation-filters="sRGB" filterUnits="userSpaceOnUse">
      <feFlood flood-color="#fff" result="bg"/>
      <feBlend in="SourceGraphic" in2="bg"/>
    </filter>
    <mask id="mask-19" x="582.93" y="-8448" width="135.41" height="32766" maskUnits="userSpaceOnUse"/>
    <linearGradient id="_Áåçûìÿííûé_ãðàäèåíò_191" data-name="Áåçûìÿííûé ãðàäèåíò 191" x1="582.93" y1="413.3" x2="718.34" y2="413.3" gradientUnits="userSpaceOnUse">
      <stop offset="0" stop-color="#fff"/>
      <stop offset=".86" stop-color="#000"/>
    </linearGradient>
    <mask id="mask-18" x="582.93" y="406.41" width="135.41" height="13.78" maskUnits="userSpaceOnUse">
      <g class="cls-66">
        <g class="cls-77">
          <path class="cls-24" d="M605.61,415.93c.72-.63,1.43-1.26,2.15-1.89-8.69,1.14-16.81,3.66-24.83,6.15,12.64-7.55,29.56-11.28,46.42-12.77,16.86-1.48,33.96-.91,50.97-.9,12.77,0,25.81-.29,38.02,2.19-25.57-.59-51.23.39-76.53,2.95-.21.77,2.33.36,2.76,1.09-13.3.78-26.49,2.36-39.36,4.71,1.13-.59,2.26-1.18,3.39-1.77-1.01-.05-2.04.03-3,.24Z"/>
        </g>
      </g>
    </mask>
    <linearGradient id="_Áåçûìÿííûé_ãðàäèåíò_146-10" data-name="Áåçûìÿííûé ãðàäèåíò 146" x1="582.93" y1="413.3" x2="718.34" y2="413.3" xlink:href="#_Áåçûìÿííûé_ãðàäèåíò_146"/>
    <filter id="luminosity-noclip-21" x="641.91" y="407.92" width="82.07" height="13.87" color-interpolation-filters="sRGB" filterUnits="userSpaceOnUse">
      <feFlood flood-color="#fff" result="bg"/>
      <feBlend in="SourceGraphic" in2="bg"/>
    </filter>
    <filter id="luminosity-noclip-22" x="641.91" y="-8448" width="82.07" height="32766" color-interpolation-filters="sRGB" filterUnits="userSpaceOnUse">
      <feFlood flood-color="#fff" result="bg"/>
      <feBlend in="SourceGraphic" in2="bg"/>
    </filter>
    <mask id="mask-21" x="641.91" y="-8448" width="82.07" height="32766" maskUnits="userSpaceOnUse"/>
    <linearGradient id="_Áåçûìÿííûé_ãðàäèåíò_190" data-name="Áåçûìÿííûé ãðàäèåíò 190" x1="641.91" y1="414.85" x2="723.97" y2="414.85" gradientUnits="userSpaceOnUse">
      <stop offset="0" stop-color="#fff"/>
      <stop offset=".86" stop-color="#000"/>
    </linearGradient>
    <mask id="mask-20" x="641.91" y="407.92" width="82.07" height="13.87" maskUnits="userSpaceOnUse">
      <g class="cls-28">
        <g class="cls-57">
          <path class="cls-9" d="M655.5,416.33c-.79.28-1.58.56-2.37.84.41.14.81.27,1.22.41-4.29,1.2-8.45,2.61-12.44,4.2,11.46-1.95,22.91-3.89,34.37-5.84-1,.72-2,1.43-3,2.15,10.05-1.43,20.16-2.69,30.31-3.79-1.08.26-2.07.68-2.89,1.21,7.76-.67,15.52-1.34,23.28-2.01-7.35-1.76-14.75-3.42-22.21-4.98.56.22,1.38-.21,1.19-.62-4.54.28-9.08.57-13.62.85-7.1.45-14.23.91-21.12,2.11-7.94,1.38-15.48,3.75-22.13,6.94,2.97-.86,6.18-1.37,9.41-1.49Z"/>
        </g>
      </g>
    </mask>
    <linearGradient id="_Áåçûìÿííûé_ãðàäèåíò_146-11" data-name="Áåçûìÿííûé ãðàäèåíò 146" x1="641.91" y1="414.85" x2="723.97" y2="414.85" xlink:href="#_Áåçûìÿííûé_ãðàäèåíò_146"/>
    <filter id="luminosity-noclip-23" x="789.34" y="405.32" width="139.49" height="10.92" color-interpolation-filters="sRGB" filterUnits="userSpaceOnUse">
      <feFlood flood-color="#fff" result="bg"/>
      <feBlend in="SourceGraphic" in2="bg"/>
    </filter>
    <filter id="luminosity-noclip-24" x="789.34" y="-8448" width="139.49" height="32766" color-interpolation-filters="sRGB" filterUnits="userSpaceOnUse">
      <feFlood flood-color="#fff" result="bg"/>
      <feBlend in="SourceGraphic" in2="bg"/>
    </filter>
    <mask id="mask-23" x="789.34" y="-8448" width="139.49" height="32766" maskUnits="userSpaceOnUse"/>
    <linearGradient id="_Áåçûìÿííûé_ãðàäèåíò_189" data-name="Áåçûìÿííûé ãðàäèåíò 189" x1="789.34" y1="410.78" x2="928.83" y2="410.78" gradientUnits="userSpaceOnUse">
      <stop offset="0" stop-color="#fff"/>
      <stop offset=".86" stop-color="#000"/>
    </linearGradient>
    <mask id="mask-22" x="789.34" y="405.32" width="139.49" height="10.92" maskUnits="userSpaceOnUse">
      <g class="cls-45">
        <g class="cls-60">
          <path class="cls-17" d="M928.83,415.06c-13.37-5.52-30.19-5.2-45.51-7.62,2.72-.19,5.45-.39,8.17-.58-27.3-1.91-55.31-2.78-81.83,1.93-6.72,1.19-13.38,2.75-20.32,3.01,7.54.35,15.08.7,22.63,1.04-2.57.63-5.05,1.43-7.4,2.38,10.03-.79,20.13-1.16,30.23-1.1-1.44.47-2.66,1.21-3.5,2.12,21.13-2.99,43.04-3.57,64.46-1.72-2.25-.75-4.49-1.5-6.74-2.25,13.38-.23,26.8.7,39.8,2.78Z"/>
        </g>
      </g>
    </mask>
    <linearGradient id="_Áåçûìÿííûé_ãðàäèåíò_146-12" data-name="Áåçûìÿííûé ãðàäèåíò 146" x1="789.34" y1="410.78" x2="928.83" y2="410.78" xlink:href="#_Áåçûìÿííûé_ãðàäèåíò_146"/>
    <filter id="luminosity-noclip-25" x="690.83" y="404.92" width="56.02" height="6.92" color-interpolation-filters="sRGB" filterUnits="userSpaceOnUse">
      <feFlood flood-color="#fff" result="bg"/>
      <feBlend in="SourceGraphic" in2="bg"/>
    </filter>
    <filter id="luminosity-noclip-26" x="690.83" y="-8448" width="56.02" height="32766" color-interpolation-filters="sRGB" filterUnits="userSpaceOnUse">
      <feFlood flood-color="#fff" result="bg"/>
      <feBlend in="SourceGraphic" in2="bg"/>
    </filter>
    <mask id="mask-25" x="690.83" y="-8448" width="56.02" height="32766" maskUnits="userSpaceOnUse"/>
    <linearGradient id="_Áåçûìÿííûé_ãðàäèåíò_188" data-name="Áåçûìÿííûé ãðàäèåíò 188" x1="690.83" y1="408.38" x2="746.85" y2="408.38" gradientUnits="userSpaceOnUse">
      <stop offset="0" stop-color="#fff"/>
      <stop offset=".86" stop-color="#000"/>
    </linearGradient>
    <mask id="mask-24" x="690.83" y="404.92" width="56.02" height="6.92" maskUnits="userSpaceOnUse">
      <g class="cls-96">
        <g class="cls-79">
          <path class="cls-15" d="M713.17,405c-7.7.18-15.74.56-22.34,3.2,3.56-.26,7.16-.23,10.71.09-1,.46-2,.92-3,1.38,2.2-.39,4.5-.49,6.76-.31-2.03.6-3.89,1.45-5.47,2.48,10.49-2.79,21.83-4.18,33.14-4.05-1.46.75-3.37.97-5.13,1.36-1.75.39-3.58,1.11-4.04,2.3,7.28-1.25,14.97-1.41,22.35-.48-2.39-1.39-5.13-2.5-8.08-3.27,2.93.26,5.86.53,8.78.79-10.12-3.62-22.18-3.75-33.68-3.49Z"/>
        </g>
      </g>
    </mask>
    <linearGradient id="_Áåçûìÿííûé_ãðàäèåíò_146-13" data-name="Áåçûìÿííûé ãðàäèåíò 146" x1="690.83" y1="408.38" x2="746.85" y2="408.38" xlink:href="#_Áåçûìÿííûé_ãðàäèåíò_146"/>
    <filter id="luminosity-noclip-27" x="711.47" y="411.98" width="81.18" height="9.22" color-interpolation-filters="sRGB" filterUnits="userSpaceOnUse">
      <feFlood flood-color="#fff" result="bg"/>
      <feBlend in="SourceGraphic" in2="bg"/>
    </filter>
    <filter id="luminosity-noclip-28" x="711.47" y="-8448" width="81.18" height="32766" color-interpolation-filters="sRGB" filterUnits="userSpaceOnUse">
      <feFlood flood-color="#fff" result="bg"/>
      <feBlend in="SourceGraphic" in2="bg"/>
    </filter>
    <mask id="mask-27" x="711.47" y="-8448" width="81.18" height="32766" maskUnits="userSpaceOnUse"/>
    <linearGradient id="_Áåçûìÿííûé_ãðàäèåíò_187" data-name="Áåçûìÿííûé ãðàäèåíò 187" x1="711.47" y1="416.59" x2="792.65" y2="416.59" gradientUnits="userSpaceOnUse">
      <stop offset="0" stop-color="#fff"/>
      <stop offset=".86" stop-color="#000"/>
    </linearGradient>
    <mask id="mask-26" x="711.47" y="411.98" width="81.18" height="9.22" maskUnits="userSpaceOnUse">
      <g class="cls-87">
        <g class="cls-97">
          <path class="cls-21" d="M731.05,414.49c-7.19,1.19-13.96,3.5-19.58,6.7,8.46-2.37,17.48-3.85,26.63-4.36-.67-.02-1.34.29-1.53.72,2.1-.11,4.21-.22,6.31-.33-.25.48-.74.91-1.37,1.21,13.78,1.6,27.78,2.1,41.75,2.59-3.09-.25-6.18-.5-9.27-.74,3.98-.24,7.92-.75,11.74-1.52-2.3-.03-4.6-.06-6.9-.09,4.7-.25,9.35-.89,13.81-1.9-6.95-.3-13.92-.42-20.89-.38,3.37-.41,6.75-.82,10.12-1.24.67-.08,1.46-.23,1.68-.66-9.52.83-19.14,1.14-28.73.91,1.05-.2,2.11-.4,3.16-.6-1.99-.72-4.12-1.28-6.31-1.67.92-.02,1.83-.17,2.65-.45-11.16-.82-23-1.56-33.14,1.64,3.81-.81,7.88-1.05,11.84-.73-1.71.12-3.38.43-4.93.92.98,0,1.97-.02,2.95-.03Z"/>
        </g>
      </g>
    </mask>
    <linearGradient id="_Áåçûìÿííûé_ãðàäèåíò_146-14" data-name="Áåçûìÿííûé ãðàäèåíò 146" x1="711.47" y1="416.59" x2="792.65" y2="416.59" xlink:href="#_Áåçûìÿííûé_ãðàäèåíò_146"/>
    <filter id="luminosity-noclip-29" x="735.06" y="406.48" width="27.18" height="4.54" color-interpolation-filters="sRGB" filterUnits="userSpaceOnUse">
      <feFlood flood-color="#fff" result="bg"/>
      <feBlend in="SourceGraphic" in2="bg"/>
    </filter>
    <filter id="luminosity-noclip-30" x="735.06" y="-8448" width="27.18" height="32766" color-interpolation-filters="sRGB" filterUnits="userSpaceOnUse">
      <feFlood flood-color="#fff" result="bg"/>
      <feBlend in="SourceGraphic" in2="bg"/>
    </filter>
    <mask id="mask-29" x="735.06" y="-8448" width="27.18" height="32766" maskUnits="userSpaceOnUse"/>
    <linearGradient id="_Áåçûìÿííûé_ãðàäèåíò_186" data-name="Áåçûìÿííûé ãðàäèåíò 186" x1="735.06" y1="408.75" x2="762.24" y2="408.75" gradientUnits="userSpaceOnUse">
      <stop offset="0" stop-color="#fff"/>
      <stop offset=".86" stop-color="#000"/>
    </linearGradient>
    <mask id="mask-28" x="735.06" y="406.48" width="27.18" height="4.54" maskUnits="userSpaceOnUse">
      <g class="cls-80">
        <g class="cls-81">
          <path class="cls-22" d="M741.8,409.23c-2.19-.38-4.5-.46-6.74-.23,2.63-1.69,6.45-2.3,10.11-2.48,6.22-.29,13.02.67,17.07,3.81-2.44-.37-4.91-.64-7.4-.8,1.08.49,2.16.98,3.24,1.47-6.01-.61-12.07-.97-18.14-1.06.62-.24,1.25-.48,1.87-.72Z"/>
        </g>
      </g>
    </mask>
    <linearGradient id="_Áåçûìÿííûé_ãðàäèåíò_146-15" data-name="Áåçûìÿííûé ãðàäèåíò 146" x1="735.06" y1="408.75" x2="762.24" y2="408.75" xlink:href="#_Áåçûìÿííûé_ãðàäèåíò_146"/>
    <filter id="luminosity-noclip-31" x="804.12" y="413.87" width="152.62" height="16.02" color-interpolation-filters="sRGB" filterUnits="userSpaceOnUse">
      <feFlood flood-color="#fff" result="bg"/>
      <feBlend in="SourceGraphic" in2="bg"/>
    </filter>
    <filter id="luminosity-noclip-32" x="804.12" y="-8448" width="152.62" height="32766" color-interpolation-filters="sRGB" filterUnits="userSpaceOnUse">
      <feFlood flood-color="#fff" result="bg"/>
      <feBlend in="SourceGraphic" in2="bg"/>
    </filter>
    <mask id="mask-31" x="804.12" y="-8448" width="152.62" height="32766" maskUnits="userSpaceOnUse"/>
    <linearGradient id="_Áåçûìÿííûé_ãðàäèåíò_185" data-name="Áåçûìÿííûé ãðàäèåíò 185" x1="804.12" y1="421.88" x2="956.74" y2="421.88" gradientUnits="userSpaceOnUse">
      <stop offset="0" stop-color="#fff"/>
      <stop offset=".86" stop-color="#000"/>
    </linearGradient>
    <mask id="mask-30" x="804.12" y="413.87" width="152.62" height="16.02" maskUnits="userSpaceOnUse">
      <g class="cls-92">
        <g class="cls-52">
          <path class="cls-25" d="M910.65,417.47c-1.75.02-3.5.35-5.01.93,5.23-.44,10.58-.21,15.69.65-1.29.28-2.58.56-3.88.84,13.17.15,26.37-.64,39.29-2.33-10.75,4.19-23.63,5.13-36.09,5.46-14.42.37-28.88.03-43.23-1.01-4.55-.33-9.43-.69-13.46.75,2.45-.23,4.98-.1,7.35.37-16.03,2.23-32.05,4.46-48.08,6.69,1.54-.97,2.95-2.03,4.21-3.16-7.86.77-15.66,1.86-23.33,3.24,8.7-4.76,18.85-8.36,29.65-10.52-1.07.72-2.13,1.43-3.2,2.15,3.34-1.51,6.95-2.77,10.73-3.73-.95.71-1.89,1.42-2.84,2.14,4.36-1.94,9.05-3.56,13.95-4.81-.74.48-1.47.96-2.21,1.43,7.86-1.41,15.94-2.31,24.07-2.67-1.7.63-3.41,1.26-5.11,1.89,13.84-1.09,27.97-.51,41.49,1.71Z"/>
        </g>
      </g>
    </mask>
    <linearGradient id="_Áåçûìÿííûé_ãðàäèåíò_146-16" data-name="Áåçûìÿííûé ãðàäèåíò 146" x1="804.12" y1="421.88" x2="956.74" y2="421.88" xlink:href="#_Áåçûìÿííûé_ãðàäèåíò_146"/>
    <filter id="luminosity-noclip-33" x="537.87" y="428.7" width=".93" height=".05" color-interpolation-filters="sRGB" filterUnits="userSpaceOnUse">
      <feFlood flood-color="#fff" result="bg"/>
      <feBlend in="SourceGraphic" in2="bg"/>
    </filter>
    <filter id="luminosity-noclip-34" x="537.87" y="-8448" width=".93" height="32766" color-interpolation-filters="sRGB" filterUnits="userSpaceOnUse">
      <feFlood flood-color="#fff" result="bg"/>
      <feBlend in="SourceGraphic" in2="bg"/>
    </filter>
    <mask id="mask-33" x="537.87" y="-8448" width=".93" height="32766" maskUnits="userSpaceOnUse"/>
    <linearGradient id="_Áåçûìÿííûé_ãðàäèåíò_184" data-name="Áåçûìÿííûé ãðàäèåíò 184" x1="537.87" y1="428.72" x2="538.8" y2="428.72" gradientUnits="userSpaceOnUse">
      <stop offset="0" stop-color="#fff"/>
      <stop offset=".86" stop-color="#000"/>
    </linearGradient>
    <mask id="mask-32" x="537.87" y="428.7" width=".93" height=".05" maskUnits="userSpaceOnUse">
      <g class="cls-85">
        <g class="cls-78">
          <path class="cls-16" d="M537.87,428.75c.31,0,.63-.02.93-.05-.31,0-.63.02-.93.05Z"/>
        </g>
      </g>
    </mask>
    <linearGradient id="_Áåçûìÿííûé_ãðàäèåíò_146-17" data-name="Áåçûìÿííûé ãðàäèåíò 146" x1="537.87" y1="428.72" x2="538.8" y2="428.72" xlink:href="#_Áåçûìÿííûé_ãðàäèåíò_146"/>
    <filter id="luminosity-noclip-35" x="446.68" y="401.82" width="149.79" height="28.12" color-interpolation-filters="sRGB" filterUnits="userSpaceOnUse">
      <feFlood flood-color="#fff" result="bg"/>
      <feBlend in="SourceGraphic" in2="bg"/>
    </filter>
    <filter id="luminosity-noclip-36" x="446.68" y="-8448" width="149.79" height="32766" color-interpolation-filters="sRGB" filterUnits="userSpaceOnUse">
      <feFlood flood-color="#fff" result="bg"/>
      <feBlend in="SourceGraphic" in2="bg"/>
    </filter>
    <mask id="mask-35" x="446.68" y="-8448" width="149.79" height="32766" maskUnits="userSpaceOnUse"/>
    <linearGradient id="_Áåçûìÿííûé_ãðàäèåíò_183" data-name="Áåçûìÿííûé ãðàäèåíò 183" x1="446.68" y1="415.88" x2="596.48" y2="415.88" gradientUnits="userSpaceOnUse">
      <stop offset="0" stop-color="#fff"/>
      <stop offset=".86" stop-color="#000"/>
    </linearGradient>
    <mask id="mask-34" x="446.68" y="401.82" width="149.79" height="28.12" maskUnits="userSpaceOnUse">
      <g class="cls-43">
        <g class="cls-2">
          <path class="cls-20" d="M458.46,405.09c-3.92.37-7.85.74-11.77,1.12,12.66.52,25.36.58,38.03.18,3.81-.12,7.75-.27,11.32.62-3.24.45-6.48.9-9.72,1.34,11.05-.08,22.1-.16,33.15-.24,3.36-.02,6.8-.04,9.99.68-10.69,1.14-21.37,2.28-32.06,3.41,4.2,2.66,9.96,4.21,15.77,4.25-.95.25-1.9.49-2.85.74,1.93.15,3.87.3,5.8.45-1.38.46-2.89.74-4.43.83,2.07-.05,4.15.16,6.09.63-2.52.77-5.23,1.27-7.99,1.48,4.65.89,9.39,1.57,14.18,2.05-3.75.62-7.51,1.24-11.26,1.86,2.33.52,4.66,1.03,7,1.55-.62.08-1.25.16-1.87.25,1.43.28,2.86.56,4.3.84-1.07.13-2.13.25-3.2.38,2.82.55,5.75.85,8.69.88-1.19.19-2.37.38-3.56.57,4.88.72,9.9,1.04,14.91.96-1.11-.01-2.22-.23-3.17-.61.61-.29,1.32-.47,2.06-.56-1.01.02-2.03-.11-2.97-.37,4.36-.37,8.73-.74,13.09-1.12-7.43-.83-14.96-1.26-22.5-1.26,6.4-.67,12.79-1.34,19.19-2-3.37-1.1-7.2-1.57-10.95-1.37,1.91-.1,3.81-.2,5.72-.3-3.38-.59-6.7-1.33-9.93-2.21,1.64-.66,3.41-1.17,5.26-1.51-1.34-.31-2.82-.34-4.18-.08,1.82-.24,3.56-.76,5.03-1.51-4.59-.64-9.18-1.28-13.77-1.92,19.4-.7,38.78-1.56,58.15-2.58,1.73-.09,3.76-.32,4.49-1.36-5.21-.69-10.57-.46-15.88-.4-11.52.13-23.05-.6-34.33-2.15,16.8-2.48,34.25-1.94,51.38-3.07,4.01-.27,8.48-.8,10.81-2.98-8.4-.16-16.79-.31-25.19-.47-9.66-.18-19.32-.36-28.97-.22-9.37.13-18.73.57-28.09.84-20,.77-39.99,1.49-59.97,2.06,1.4.11,2.8.21,4.21.32Z"/>
        </g>
      </g>
    </mask>
    <linearGradient id="_Áåçûìÿííûé_ãðàäèåíò_146-18" data-name="Áåçûìÿííûé ãðàäèåíò 146" x1="446.68" y1="415.88" x2="596.48" y2="415.88" xlink:href="#_Áåçûìÿííûé_ãðàäèåíò_146"/>
    <linearGradient id="_Áåçûìÿííûé_ãðàäèåíò_140" data-name="Áåçûìÿííûé ãðàäèåíò 140" x1="512.07" y1="426.5" x2="512.07" y2="448.21" gradientUnits="userSpaceOnUse">
      <stop offset="0" stop-color="#108c89"/>
      <stop offset="1" stop-color="#1b4e4d"/>
    </linearGradient>
    <linearGradient id="_Áåçûìÿííûé_ãðàäèåíò_140-2" data-name="Áåçûìÿííûé ãðàäèåíò 140" x1="1024.08" y1="446.84" x2="1024.08" y2="446.98" xlink:href="#_Áåçûìÿííûé_ãðàäèåíò_140"/>
    <linearGradient id="_Áåçûìÿííûé_ãðàäèåíò_140-3" data-name="Áåçûìÿííûé ãðàäèåíò 140" x1=".03" y1="430.02" x2=".03" y2="445.36" xlink:href="#_Áåçûìÿííûé_ãðàäèåíò_140"/>
  </defs>
  <g>
    <rect class="cls-51" x=".06" y="511.98" width="1023.96" height=".02"/>
    <rect class="cls-93" x=".06" y="427.74" width="1023.96" height="84.24"/>
    <g>
      <path class="cls-42" d="M502.1,438.85c-7.22-5.53-15.95-7.62-24.49-7.7-8.55-.08-17.02,1.73-25.44,3.47-23.01,4.76-46.09,9.05-69.28,12.32-13.97,1.97-28.22,3.65-41.16,10.33-4.36,2.25-8.62,5.15-11.67,9.54-3.05,4.39-4.71,10.5-3.35,15.99,1.36,5.5,5.5,9.49,9.98,11.41,4.48,1.92,9.32,2.11,14.07,2.27,15.6.52,31.19,1.01,46.79,1.46,29.85.86,60.59,1.4,88.48-11.47,8.85-4.09,17.68-9.9,22.79-19.54,1.54-2.91,2.72-6.19,2.89-9.64.36-7.61-4.27-14.37-9.6-18.45Z"/>
      <path class="cls-58" d="M462.62,448.75c-2.93.28-5.85.56-8.78.84-3.4.33-6.81.65-10.21,1.02-8.74.94-17.46,2.16-26.16,3.54-13.3,2.11-26.55,4.6-39.8,7.1-7.7,1.45-15.4,2.9-22.99,5.05-3.22.91-6.46,1.97-9.34,3.95-1.13.78-2.33,2.03-2.16,3.6.09.85.58,1.55,1.1,2.14,1.91,2.19,4.39,3.49,6.87,4.51,9.13,3.78,18.92,4.38,28.55,4.49,14.25.17,28.49-.67,42.71-1.79,13.46-1.06,26.96-2.39,40.1-6.07,8.41-2.35,16.69-5.68,24.23-10.8,1.58-1.07,3.25-2.4,3.79-4.5.75-2.89-.95-5.89-2.89-7.78-6.78-6.63-16.37-6.13-25.03-5.3Z"/>
      <path class="cls-53" d="M436.09,461.36c-1.83-.6-3.77-.43-5.67-.24-5.67.58-11.34,1.35-16.98,2.29-6.38,1.07-12.84,2.4-18.59,5.91-.57.35-1.16.75-1.52,1.39-.72,1.32-.15,3.22.89,4.18,1.04.96,2.41,1.21,3.71,1.39,12.1,1.71,24.51.19,36.09-4.43,2.67-1.07,5.69-2.83,6.18-6.18-.55-2.2-2.29-3.72-4.12-4.32Z"/>
      <path class="cls-70" d="M422.81,466.68c-4.38.39-8.72,1.24-13.01,2.34-.69.18-1.41.38-1.94.93-.54.55-.82,1.57-.43,2.27,4.07.69,8.21-.14,12.27-.96,2.45-.5,5.01-1.06,6.96-2.91-.57-1.62-2.39-1.8-3.84-1.67Z"/>
    </g>
    <g>
      <path class="cls-42" d="M946.42,451.19c-4.51-1.79-9.64-1.8-14.73-1.86-13.9-.17-27.67-.8-41.14-2.4-8.11-.96-16.27-2.26-25.5,1.39-3.11,1.23-6.4,3.09-9.58,6.58-3.17,3.49-6.22,8.87-7.45,14.28-1.23,5.42-.45,9.98,1.25,12.68,1.69,2.7,4.2,3.84,6.66,4.95,8.09,3.63,16.2,7.22,24.32,10.77,15.54,6.8,31.66,13.49,51.02,7.06,6.15-2.04,12.89-5.7,19.02-13.7,1.85-2.41,3.64-5.24,4.95-8.43,2.89-7.05,2.83-14.3,1.44-19.18-1.87-6.62-5.76-10.33-10.27-12.12Z"/>
      <path class="cls-58" d="M932.23,464.63c-1.65-.33-3.31-.65-4.96-.98-1.92-.38-3.84-.76-5.78-1.1-4.97-.87-10.03-1.49-15.13-1.95-7.8-.7-15.72-1.03-23.64-1.36-4.6-.19-9.2-.38-13.99.1-2.03.21-4.13.54-6.36,1.82-.87.5-1.96,1.43-2.42,2.93-.25.81-.24,1.57-.18,2.22.24,2.43,1.09,4.14,2.04,5.6,3.51,5.37,8.49,7.9,13.56,9.94,7.5,3.02,15.36,5.1,23.3,6.91,7.52,1.71,15.15,3.18,23.43,2.39,5.3-.51,10.87-1.96,16.68-5.23,1.22-.69,2.57-1.59,3.61-3.45,1.42-2.55,1.58-5.7,1.22-7.86-1.25-7.57-6.51-9.03-11.4-9.99Z"/>
      <path class="cls-53" d="M910.76,469.73c-3.22-.59-6.49-1.02-9.82-1.27-3.76-.28-7.67-.33-11.96,1.79-.43.21-.88.46-1.3,1-.85,1.09-1.22,2.98-1.01,4.09.21,1.11.85,1.62,1.47,2.05,5.82,4.03,12.94,5.1,20.72,3.11,1.8-.46,4.02-1.5,5.47-4.53.49-2.17.11-3.94-.65-4.87-.76-.93-1.85-1.16-2.92-1.36Z"/>
      <path class="cls-70" d="M904.75,473.4c-2.46-.52-5.07-.6-7.74-.43-.43.03-.88.07-1.36.48-.48.41-.99,1.3-1.03,2.04,1.92,1.47,4.4,1.52,6.85,1.57,1.48.03,3.03.02,4.72-1.33.27-1.63-.63-2.16-1.45-2.33Z"/>
    </g>
    <g>
      <path class="cls-42" d="M718.29,448.15c-7.23-4.55-12.13-13.08-20.46-14.96-4.1-.92-8.35-.03-12.51.49-7.39.93-14.88.69-22.33.43-3.31-.12-6.64-.24-9.95-.03-2.56.16-5.1.52-7.6,1.06-9.84,2.15-19.37,7.74-24.07,16.64-6.11,11.57-2.81,26.16,4.13,37.25,1.9,3.04,4.09,5.96,6.88,8.22,2.51,2.04,5.44,3.49,8.4,4.79,4.03,1.76,8.19,3.27,12.49,4.15,17.39,3.56,36.08-3.93,47.83-17.24,3.96-4.49,7.24-9.61,11.64-13.68,3.48-3.23,7.63-5.78,10.51-9.56,2.88-3.77,4.14-9.43,1.21-13.16-1.57-2-4.01-3.06-6.17-4.41Z"/>
      <path class="cls-58" d="M699.98,446.37c-4.03-1.44-8.4-1.52-12.59-2.42-2.83-.6-5.56-1.57-8.38-2.21-5.09-1.15-10.36-1.2-15.57-.86-6.32.41-12.71,1.43-18.38,4.25-5.67,2.82-10.56,7.66-12.29,13.75-.53,1.87-.76,3.83-.67,5.78.16,3.45,1.31,6.77,2.72,9.92,4.2,9.32,11.97,18.04,22.12,19.26,3.42.41,6.89-.07,10.23-.93,7.64-1.99,14.72-6.08,20.25-11.72,3.88-3.95,6.99-8.62,11.07-12.36,4.2-3.87,9.88-7.74,9.56-13.44-.24-4.27-4.05-7.58-8.08-9.01Z"/>
      <path class="cls-53" d="M692.61,452.48c-2.45-2.04-5.7-2.83-8.86-3.27-9.58-1.32-19.53.12-28.34,4.09-1.66.75-3.37,1.66-4.3,3.23-.66,1.11-.85,2.44-.91,3.72-.29,6.35,2.56,12.9,7.77,16.55,5.21,3.65,12.7,3.99,17.92.35,3.86-2.68,6.24-7.13,10.19-9.68,3.18-2.05,7.5-3.03,9.06-6.47,1.32-2.9-.08-6.49-2.53-8.53Z"/>
      <path class="cls-70" d="M677.53,455.03c-.43-.32-.89-.63-1.42-.76-.79-.19-1.6.06-2.37.3-2.51.81-4.99,1.71-7.45,2.69-2.61,1.05-5.56,2.67-5.85,5.46-.09.9.12,1.81.35,2.69.41,1.59.92,3.27,2.16,4.36,1.55,1.37,3.81,1.46,5.87,1.48,2.13.02,4.62-.13,5.82-1.89.72-1.05.78-2.46,1.56-3.47.94-1.22,2.66-1.55,3.72-2.66,1.12-1.17,1.26-3.04.68-4.55s-1.78-2.71-3.08-3.68Z"/>
    </g>
    <g>
      <path class="cls-42" d="M97.5,447.13c-5.42-3.41-9.1-9.81-15.35-11.22-3.07-.69-6.26-.02-9.39.37-5.54.7-11.16.52-16.74.32-2.49-.09-4.98-.18-7.46-.02-1.92.12-3.82.39-5.7.8-7.38,1.61-14.53,5.8-18.05,12.48-4.58,8.68-2.11,19.62,3.1,27.94,1.43,2.28,3.07,4.47,5.16,6.16,1.88,1.53,4.08,2.62,6.3,3.59,3.02,1.32,6.14,2.45,9.37,3.11,13.04,2.67,27.06-2.95,35.87-12.93,2.97-3.37,5.43-7.2,8.73-10.26,2.61-2.42,5.72-4.34,7.88-7.17,2.16-2.83,3.1-7.07.9-9.87-1.18-1.5-3.01-2.29-4.63-3.31Z"/>
      <path class="cls-58" d="M83.77,445.8c-3.02-1.08-6.3-1.14-9.44-1.81-2.12-.45-4.17-1.18-6.29-1.66-3.81-.86-7.77-.9-11.67-.64-4.74.31-9.53,1.07-13.78,3.19-4.25,2.12-7.92,5.75-9.22,10.31-.4,1.4-.57,2.87-.5,4.33.12,2.58.98,5.08,2.04,7.44,3.15,6.99,8.97,13.53,16.59,14.44,2.56.31,5.17-.05,7.67-.7,5.73-1.49,11.04-4.56,15.19-8.79,2.91-2.96,5.24-6.46,8.3-9.27,3.15-2.9,7.41-5.81,7.17-10.08-.18-3.2-3.04-5.68-6.06-6.76Z"/>
      <path class="cls-53" d="M78.24,450.38c-1.84-1.53-4.27-2.12-6.64-2.45-7.19-.99-14.64.09-21.26,3.07-1.25.56-2.53,1.25-3.22,2.42-.49.83-.64,1.83-.68,2.79-.22,4.76,1.92,9.67,5.82,12.41s9.52,2.99,13.44.27c2.89-2.01,4.68-5.35,7.64-7.26,2.39-1.54,5.62-2.27,6.8-4.86.99-2.18-.06-4.87-1.9-6.4Z"/>
      <path class="cls-70" d="M66.94,452.29c-.32-.24-.67-.47-1.06-.57-.59-.14-1.2.04-1.78.23-1.88.61-3.75,1.28-5.58,2.02-1.96.78-4.17,2-4.38,4.1-.07.68.09,1.36.26,2.02.31,1.2.69,2.45,1.62,3.27,1.16,1.02,2.85,1.1,4.4,1.11,1.6.02,3.47-.1,4.37-1.41.54-.79.59-1.84,1.17-2.6.7-.91,2-1.16,2.79-1.99.84-.88.95-2.28.51-3.41-.44-1.13-1.33-2.03-2.31-2.76Z"/>
    </g>
    <g>
      <path class="cls-42" d="M612.92,449.26c-3.97-4.73-8.25-9.55-13.97-11.86-2.23-.9-4.61-1.39-6.97-1.87l-12.81-2.62c-2.4-.49-4.81-.98-7.26-1.21-4.16-.39-8.36-.02-12.47.75-2.21.42-4.53,1.02-6.09,2.64-1.49,1.54-2.03,3.74-2.48,5.83-.63,2.97-1.17,5.95-1.62,8.95-.35,2.35-.64,4.81.15,7.06,1.18,3.36,4.46,5.45,7.59,7.14,9.5,5.13,19.7,8.95,30.23,11.33,4.14.93,8.41,1.65,12.63,1.17,4.22-.47,8.44-2.27,11.09-5.59,2.5-3.13,3.35-7.23,4.13-11.16.48-2.44.95-5.05,0-7.35-.49-1.2-1.33-2.22-2.16-3.21Z"/>
      <path class="cls-58" d="M597.87,444.56c-2.97-.61-5.95-1.22-8.92-1.84-4.07-.84-8.14-1.68-12.22-2.48-2.06-.41-4.16-.81-6.24-.56-3.68.45-6.97,3.04-8.5,6.42s-1.36,7.42.19,10.79c.49,1.05,1.11,2.06,1.94,2.86.86.83,1.91,1.42,2.95,2,4.61,2.58,9.26,5.18,14.32,6.72,5.42,1.65,11.23,2.02,16.81,1.07,1.55-.26,3.12-.64,4.44-1.49,3.03-1.94,4.08-5.81,4.68-9.35.62-3.65.89-7.82-1.53-10.61-1.93-2.23-5.04-2.95-7.93-3.54Z"/>
      <path class="cls-53" d="M596.19,448.97c-4.12-1.17-8.37-2.01-12.66-2.05-3.54-.03-7.08.49-10.45,1.58-.79.26-1.62.58-2.1,1.25-.73,1.04-.38,2.47.16,3.62,1.2,2.6,3.18,4.84,5.62,6.36,3.49,2.17,7.71,2.8,11.81,3.1,3.47.26,7.31.22,9.98-2.02,1.42-1.19,2.33-2.88,2.9-4.64.3-.94.52-1.94.32-2.91-.49-2.43-3.21-3.62-5.59-4.29Z"/>
      <path class="cls-70" d="M588.95,451.8c-2.97-1.56-6.54-1.16-9.87-.71-.98.13-2.25.58-2.18,1.57.03.42.32.77.61,1.08,2.27,2.37,5.55,3.73,8.82,3.67.87-.02,1.78-.14,2.47-.66.57-.43.93-1.08,1.21-1.74.26-.62.47-1.33.23-1.96-.22-.58-.76-.96-1.3-1.25Z"/>
    </g>
    <g>
      <path class="cls-42" d="M556.44,480.99c-.57-.45-1.31-.71-2.05-.97-3.48-1.21-7.17-2.37-11.15-1.89-1.55.19-3.1.62-4.63,1.05-2.77.78-5.54,1.56-8.31,2.33-1.56.44-3.12.88-4.64,1.45-2.59.98-5.03,2.36-7.32,3.9-1.23.83-2.48,1.79-3.05,3.02-.54,1.18-.36,2.42-.14,3.57.31,1.64.68,3.26,1.11,4.87.33,1.26.73,2.55,1.73,3.43,1.49,1.32,3.95,1.42,6.22,1.37,6.9-.16,13.92-1.16,20.8-2.97,2.71-.71,5.44-1.57,7.87-3s4.55-3.51,5.37-5.89c.77-2.25.34-4.51-.11-6.67-.28-1.34-.6-2.76-1.7-3.63Z"/>
      <path class="cls-58" d="M549.84,481.47c-1.68-.55-3.71-.03-5.59.5-1.93.54-3.86,1.08-5.79,1.62-2.64.74-5.28,1.48-7.92,2.23-1.33.38-2.69.78-3.88,1.49-2.11,1.26-3.48,3.47-3.62,5.57s.9,4.04,2.62,5.26c.54.38,1.14.7,1.83.86.71.16,1.48.16,2.24.15,3.37-.03,6.77-.07,10.16-.74,3.64-.72,7.22-2.18,10.36-4.23.87-.57,1.72-1.2,2.32-1.99,1.37-1.81,1.11-4.01.65-5.93-.47-1.97-1.28-4.1-3.38-4.8Z"/>
      <path class="cls-53" d="M548.63,485.15c-.86-1.06-2.77-.87-4.36-.53-2.75.59-5.5,1.38-8.08,2.57-2.13.99-4.15,2.24-5.92,3.73-.41.35-.84.74-.97,1.21-.2.72.35,1.32.93,1.74,1.33.94,3.04,1.48,4.85,1.54,2.6.08,5.29-.8,7.82-1.81,2.15-.85,4.44-1.96,5.53-3.82.58-.99.73-2.08.67-3.11-.04-.55-.14-1.1-.48-1.53Z"/>
      <path class="cls-70" d="M540.57,488.06c-2.15.07-4.2,1.28-6.1,2.44-.56.34-1.21.92-.94,1.39.12.2.37.29.62.36,1.91.53,4.2.27,6.16-.69.52-.25,1.03-.57,1.33-1.03.24-.37.31-.8.33-1.2.01-.38-.03-.79-.32-1.03-.26-.22-.68-.26-1.07-.25Z"/>
    </g>
    <g>
      <path class="cls-42" d="M184.87,433.27c-.3,1.82-.53,3.65-.69,5.48-.13,1.43-.2,2.93.5,4.22,1.05,1.93,3.57,2.97,5.95,3.77,7.23,2.44,14.91,4.04,22.75,4.75,3.08.28,6.25.42,9.31-.15,3.06-.57,6.05-1.93,7.81-4.1,1.65-2.05,2.05-4.56,2.4-6.97.22-1.5.42-3.09-.4-4.41-.43-.69-1.1-1.24-1.76-1.78-3.16-2.57-6.56-5.17-10.88-6.17-.32-.08-.66-.13-.99-.19h-28.61c-1.46.39-2.94.9-3.9,1.89-1,1.02-1.28,2.38-1.49,3.66Z"/>
      <path class="cls-58" d="M225.46,433.87c-1.54-1.21-3.85-1.43-6-1.59-2.21-.17-4.42-.33-6.63-.5-3.03-.23-6.05-.45-9.08-.66-1.53-.11-3.09-.21-4.59.09-2.67.52-4.93,2.3-5.86,4.43-.93,2.13-.59,4.54.74,6.46.41.6.93,1.16,1.58,1.59.67.44,1.48.72,2.27,1,3.52,1.24,7.06,2.48,10.85,3.06,4.06.62,8.33.45,12.36-.49,1.12-.26,2.24-.59,3.17-1.19,2.11-1.37,2.66-3.76,2.91-5.92.25-2.23.22-4.75-1.71-6.26Z"/>
      <path class="cls-53" d="M218.48,435.04c-3.08-.43-6.24-.64-9.38-.37-2.59.22-5.16.77-7.56,1.65-.56.21-1.15.46-1.46.89-.48.67-.14,1.51.32,2.16,1.03,1.48,2.6,2.69,4.47,3.43,2.68,1.07,5.8,1.16,8.82,1.06,2.56-.08,5.36-.36,7.19-1.89.97-.81,1.55-1.89,1.87-2.98.17-.58.27-1.2.08-1.77-.49-1.42-2.55-1.95-4.33-2.2Z"/>
      <path class="cls-70" d="M213.34,437.22c-2.26-.74-4.85-.25-7.26.24-.71.15-1.61.5-1.51,1.09.04.25.28.44.51.61,1.79,1.27,4.27,1.86,6.66,1.61.63-.07,1.29-.21,1.77-.57.39-.3.62-.71.79-1.12.16-.39.27-.83.06-1.19-.19-.33-.61-.53-1.02-.66Z"/>
    </g>
    <g>
      <path class="cls-42" d="M840.2,486.81c-.57-.45-1.31-.71-2.05-.97-3.48-1.21-7.17-2.37-11.15-1.89-1.55.19-3.1.62-4.63,1.05-2.77.78-5.54,1.56-8.31,2.33-1.56.44-3.12.88-4.64,1.45-2.59.98-5.03,2.36-7.32,3.9-1.23.83-2.48,1.79-3.05,3.02-.54,1.18-.36,2.42-.14,3.57.31,1.64.68,3.26,1.11,4.87.33,1.26.73,2.55,1.73,3.43,1.49,1.32,3.95,1.42,6.22,1.37,6.9-.16,13.92-1.16,20.8-2.97,2.71-.71,5.44-1.57,7.87-3s4.55-3.51,5.37-5.89c.77-2.25.34-4.51-.11-6.67-.28-1.34-.6-2.76-1.7-3.63Z"/>
      <path class="cls-58" d="M833.61,487.29c-1.68-.55-3.71-.03-5.59.5-1.93.54-3.86,1.08-5.79,1.62-2.64.74-5.28,1.48-7.92,2.23-1.33.38-2.69.78-3.88,1.49-2.11,1.26-3.48,3.47-3.62,5.57-.14,2.1.9,4.04,2.62,5.26.54.38,1.14.7,1.83.86.71.16,1.48.16,2.24.15,3.37-.03,6.77-.07,10.16-.74,3.64-.72,7.22-2.18,10.36-4.23.87-.57,1.72-1.2,2.32-1.99,1.37-1.81,1.11-4.01.65-5.93-.47-1.97-1.28-4.1-3.38-4.8Z"/>
      <path class="cls-53" d="M832.39,490.97c-.86-1.06-2.77-.87-4.36-.53-2.75.59-5.5,1.38-8.08,2.57-2.13.99-4.15,2.24-5.92,3.73-.41.35-.84.74-.97,1.21-.2.72.35,1.32.93,1.74,1.33.94,3.04,1.48,4.85,1.54,2.6.08,5.29-.8,7.82-1.81,2.15-.85,4.44-1.96,5.53-3.82.58-.99.73-2.08.67-3.11-.04-.55-.14-1.1-.48-1.53Z"/>
      <path class="cls-70" d="M824.34,493.87c-2.15.07-4.2,1.28-6.1,2.44-.56.34-1.21.92-.94,1.39.12.2.37.29.62.36,1.91.53,4.2.27,6.16-.69.52-.25,1.03-.57,1.33-1.03.24-.37.31-.8.33-1.2.01-.38-.03-.79-.32-1.03-.26-.22-.68-.26-1.07-.25Z"/>
    </g>
    <g>
      <path class="cls-42" d="M1004.63,447.32c-2.15-2.99-4.5-6.07-8.02-7.97-1.38-.74-2.89-1.28-4.39-1.81-2.71-.96-5.42-1.92-8.14-2.88-1.53-.54-3.06-1.08-4.63-1.49-2.68-.69-5.47-.98-8.23-1.03-1.49-.03-3.06.03-4.23.72-1.12.66-1.68,1.77-2.17,2.84-.69,1.52-1.33,3.06-1.9,4.62-.45,1.22-.87,2.51-.57,3.8.46,1.94,2.4,3.44,4.29,4.7,5.73,3.85,12.05,7.07,18.71,9.56,2.62.98,5.35,1.85,8.16,2.08,2.81.23,5.74-.24,7.79-1.72,1.93-1.39,2.87-3.49,3.76-5.51.55-1.25,1.1-2.6.7-3.94-.21-.7-.66-1.34-1.11-1.97Z"/>
      <path class="cls-58" d="M995.23,443.07c-1.89-.67-3.78-1.34-5.67-2.01-2.59-.92-5.17-1.84-7.76-2.74-1.31-.46-2.64-.91-4.03-1.02-2.45-.18-4.85.83-6.17,2.47-1.32,1.64-1.59,3.82-.89,5.81.22.62.53,1.23,1,1.76.48.54,1.12.98,1.74,1.41,2.77,1.92,5.57,3.85,8.73,5.25,3.39,1.51,7.16,2.37,10.9,2.51,1.04.04,2.1.02,3.04-.29,2.16-.69,3.22-2.64,3.95-4.47.75-1.88,1.32-4.09,0-5.87-1.05-1.42-3.02-2.16-4.85-2.81Z"/>
      <path class="cls-53" d="M993.71,445.24c-2.59-1.1-5.29-2.04-8.09-2.55-2.31-.42-4.68-.55-6.99-.36-.54.05-1.11.12-1.49.43-.58.47-.48,1.28-.24,1.96.54,1.53,1.63,2.96,3.08,4.06,2.08,1.57,4.78,2.39,7.44,3.02,2.25.54,4.76.96,6.72.06,1.04-.47,1.8-1.28,2.34-2.16.29-.47.52-.98.49-1.52-.09-1.36-1.76-2.31-3.25-2.95Z"/>
      <path class="cls-70" d="M988.71,445.92c-1.79-1.18-4.17-1.37-6.39-1.52-.66-.04-1.52.05-1.57.59-.02.23.14.45.3.65,1.26,1.53,3.28,2.64,5.43,2.99.57.09,1.18.13,1.68-.07.41-.16.71-.47.96-.79.23-.3.43-.66.34-1.03-.09-.33-.41-.6-.74-.82Z"/>
    </g>
    <g>
      <path class="cls-42" d="M211.22,469.73c-5.59-6.67-11.63-13.46-19.7-16.73-3.15-1.28-6.5-1.96-9.84-2.64-6.02-1.23-12.04-2.46-18.06-3.69-3.39-.69-6.79-1.39-10.23-1.71-5.87-.55-11.8-.03-17.59,1.06-3.12.59-6.39,1.44-8.59,3.73-2.1,2.17-2.87,5.27-3.5,8.22-.89,4.18-1.65,8.4-2.28,12.63-.49,3.32-.9,6.79.22,9.95,1.67,4.73,6.29,7.69,10.7,10.07,13.39,7.24,27.78,12.63,42.63,15.98,5.85,1.32,11.86,2.32,17.81,1.66s11.91-3.2,15.64-7.88c3.52-4.42,4.72-10.19,5.82-15.74.68-3.44,1.34-7.12.01-10.37-.69-1.69-1.88-3.12-3.05-4.52Z"/>
      <path class="cls-58" d="M190,463.11c-4.19-.86-8.39-1.73-12.58-2.59-5.74-1.18-11.49-2.36-17.24-3.5-2.9-.58-5.86-1.14-8.8-.79-5.2.63-9.83,4.29-11.99,9.06-2.16,4.77-1.92,10.47.27,15.22.69,1.49,1.56,2.9,2.74,4.04,1.21,1.17,2.69,2,4.16,2.82,6.5,3.64,13.06,7.31,20.19,9.47,7.65,2.32,15.83,2.84,23.71,1.51,2.18-.37,4.39-.9,6.26-2.1,4.27-2.73,5.75-8.19,6.61-13.18.88-5.14,1.25-11.02-2.16-14.97-2.72-3.15-7.1-4.16-11.18-5Z"/>
      <path class="cls-53" d="M187.62,469.33c-5.81-1.66-11.8-2.83-17.85-2.89-4.99-.04-9.99.69-14.74,2.22-1.11.36-2.28.82-2.96,1.77-1.03,1.46-.53,3.49.22,5.11,1.7,3.67,4.49,6.83,7.93,8.97,4.93,3.06,10.88,3.94,16.66,4.38,4.9.37,10.31.31,14.07-2.85,2-1.68,3.29-4.07,4.09-6.55.43-1.32.73-2.74.46-4.1-.69-3.43-4.53-5.1-7.89-6.06Z"/>
      <path class="cls-70" d="M177.42,473.32c-4.18-2.21-9.23-1.63-13.92-1-1.39.19-3.17.82-3.07,2.22.04.59.45,1.09.86,1.52,3.2,3.34,7.82,5.27,12.45,5.18,1.22-.02,2.51-.2,3.48-.94.81-.61,1.32-1.52,1.71-2.45.37-.88.66-1.88.33-2.77-.31-.81-1.07-1.36-1.84-1.76Z"/>
    </g>
    <g>
      <path class="cls-42" d="M807.7,436.52c-4.01-3.03-8.27-5.98-13.17-7.09-7.81-1.78-15.82,1.35-23.22,4.42-1.11.46-2.26.96-2.99,1.9-.57.74-.81,1.67-.97,2.59-.78,4.44.14,9.06-.79,13.47-.88,4.17-3.37,7.88-6.43,10.85s-6.69,5.29-10.32,7.52c-2.83,1.74-5.71,3.46-8.08,5.77-2.37,2.32-4.23,5.34-4.48,8.65-.33,4.37,2.2,8.52,5.41,11.5,6,5.56,14.46,7.97,22.63,7.74,8.17-.23,16.11-2.9,23.48-6.44,10.32-4.95,20.18-12.11,25.09-22.45,2.68-5.65,3.73-11.94,4.23-18.17.23-2.82.34-5.71-.45-8.43-1.47-5.03-5.75-8.66-9.94-11.82Z"/>
      <path class="cls-58" d="M803.7,441.12c-3.35-2.77-8.23-3.93-12.2-2.16-1.11.5-2.14,1.2-3.33,1.47-.59.13-1.21.15-1.78.34-1.03.34-1.79,1.21-2.45,2.07-3.34,4.37-5.36,9.63-6.48,15.01-.63,3.01-1.04,6.22-2.87,8.69-2.04,2.76-5.45,4.08-8.68,5.27-2.48.91-4.97,1.83-7.45,2.74-2.09.77-4.28,1.6-5.72,3.3-2.58,3.04-1.74,7.98,1,10.89s6.82,4.13,10.78,4.61c6.71.82,13.69-.2,19.68-3.32,3.95-2.06,7.39-4.97,10.66-7.99,2.16-2,4.27-4.06,6.09-6.37,2.73-3.46,4.77-7.41,6.8-11.32,1.31-2.54,2.66-5.19,2.77-8.06.05-1.35-.17-2.7-.48-4.01-1-4.23-2.98-8.37-6.33-11.15Z"/>
      <path class="cls-53" d="M792.47,448.61c-1.73.21-3.54.68-4.74,1.95-1.6,1.69-1.66,4.25-1.99,6.55-.89,6.27-4.51,12.11-9.73,15.7-2.05,1.4-4.34,2.49-6.11,4.23-.77.76-1.47,1.74-1.39,2.81.08,1.16,1.04,2.07,2.05,2.65,2.7,1.54,6.1,1.47,9.04.45,2.94-1.02,5.5-2.89,7.91-4.86,6.62-5.4,12.79-12.29,13.99-20.75.32-2.28.2-4.81-1.28-6.58-1.79-2.15-4.98-2.49-7.76-2.15Z"/>
      <path class="cls-70" d="M795.14,456.47c-.23-.1-.49-.07-.74-.03-2.1.32-4.33,1.01-5.55,2.75-1.15,1.63-1.14,3.77-1.67,5.68-1.11,4-4.52,6.86-7.24,9.99-.21.24-.43.51-.45.83-.05.78.98,1.12,1.76,1.04,2.42-.24,4.43-1.91,6.16-3.61,4.24-4.16,7.99-9.39,8.24-15.32.02-.5-.05-1.12-.51-1.33Z"/>
    </g>
    <g>
      <path class="cls-42" d="M754.68,438.93c-1.6-1.21-3.3-2.39-5.26-2.83-3.12-.71-6.32.54-9.28,1.76-.44.18-.9.38-1.2.76-.23.29-.32.67-.39,1.03-.31,1.77.05,3.62-.32,5.38-.35,1.67-1.35,3.15-2.57,4.33-1.22,1.19-2.67,2.11-4.12,3-1.13.69-2.28,1.38-3.23,2.31-.95.93-1.69,2.13-1.79,3.45-.13,1.75.88,3.41,2.16,4.6,2.4,2.22,5.78,3.18,9.04,3.09,3.27-.09,6.44-1.16,9.38-2.57,4.12-1.98,8.06-4.84,10.02-8.97,1.07-2.26,1.49-4.77,1.69-7.26.09-1.13.14-2.28-.18-3.37-.59-2.01-2.3-3.46-3.97-4.72Z"/>
      <path class="cls-58" d="M753.08,440.77c-1.34-1.11-3.29-1.57-4.87-.86-.44.2-.86.48-1.33.59-.24.05-.48.06-.71.13-.41.14-.71.48-.98.83-1.33,1.74-2.14,3.85-2.59,6-.25,1.2-.42,2.48-1.15,3.47-.82,1.1-2.18,1.63-3.47,2.11-.99.37-1.98.73-2.98,1.1-.83.31-1.71.64-2.28,1.32-1.03,1.21-.69,3.19.4,4.35,1.09,1.16,2.73,1.65,4.31,1.84,2.68.33,5.47-.08,7.86-1.33,1.58-.82,2.95-1.98,4.26-3.19.86-.8,1.71-1.62,2.43-2.54,1.09-1.38,1.91-2.96,2.72-4.52.52-1.02,1.06-2.08,1.11-3.22.02-.54-.07-1.08-.19-1.6-.4-1.69-1.19-3.35-2.53-4.45Z"/>
      <path class="cls-53" d="M748.59,443.77c-.69.08-1.42.27-1.89.78-.64.67-.66,1.7-.79,2.62-.35,2.51-1.8,4.84-3.89,6.27-.82.56-1.73,1-2.44,1.69-.31.3-.59.69-.55,1.12.03.46.41.83.82,1.06,1.08.62,2.44.59,3.61.18,1.17-.41,2.2-1.16,3.16-1.94,2.65-2.16,5.11-4.91,5.59-8.29.13-.91.08-1.92-.51-2.63-.72-.86-1.99-1-3.1-.86Z"/>
      <path class="cls-70" d="M749.66,446.91c-.09-.04-.2-.03-.29-.01-.84.13-1.73.4-2.22,1.1-.46.65-.45,1.51-.67,2.27-.44,1.6-1.8,2.74-2.89,3.99-.08.1-.17.2-.18.33-.02.31.39.45.7.42.97-.1,1.77-.76,2.46-1.44,1.7-1.66,3.19-3.75,3.29-6.12,0-.2-.02-.45-.2-.53Z"/>
    </g>
    <g>
      <path class="cls-42" d="M989.35,479.63c-1.6-1.21-3.3-2.39-5.26-2.83-3.12-.71-6.32.54-9.28,1.76-.44.18-.9.38-1.2.76-.23.29-.33.67-.39,1.03-.31,1.77.05,3.62-.32,5.38-.35,1.67-1.35,3.15-2.57,4.33-1.22,1.19-2.67,2.11-4.12,3-1.13.69-2.28,1.38-3.23,2.31-.95.93-1.69,2.13-1.79,3.45-.13,1.75.88,3.41,2.16,4.6,2.4,2.22,5.78,3.18,9.04,3.09,3.27-.09,6.44-1.16,9.38-2.57,4.12-1.98,8.06-4.84,10.02-8.97,1.07-2.26,1.49-4.77,1.69-7.26.09-1.13.14-2.28-.18-3.37-.59-2.01-2.3-3.46-3.97-4.72Z"/>
      <path class="cls-58" d="M987.75,481.47c-1.34-1.11-3.29-1.57-4.87-.86-.44.2-.86.48-1.33.59-.24.05-.48.06-.71.13-.41.14-.71.48-.98.83-1.33,1.74-2.14,3.85-2.59,6-.25,1.2-.42,2.48-1.15,3.47-.82,1.1-2.18,1.63-3.47,2.11-.99.36-1.98.73-2.98,1.1-.83.31-1.71.64-2.28,1.32-1.03,1.21-.69,3.19.4,4.35,1.09,1.16,2.73,1.65,4.31,1.84,2.68.33,5.47-.08,7.86-1.33,1.58-.82,2.95-1.98,4.26-3.19.86-.8,1.71-1.62,2.43-2.54,1.09-1.38,1.91-2.96,2.72-4.52.52-1.02,1.06-2.08,1.11-3.22.02-.54-.07-1.08-.19-1.6-.4-1.69-1.19-3.35-2.53-4.45Z"/>
      <path class="cls-53" d="M983.27,484.46c-.69.08-1.42.27-1.89.78-.64.67-.66,1.7-.79,2.62-.35,2.51-1.8,4.84-3.89,6.27-.82.56-1.73,1-2.44,1.69-.31.3-.59.69-.55,1.12.03.46.41.83.82,1.06,1.08.62,2.44.59,3.61.18s2.2-1.16,3.16-1.94c2.65-2.16,5.11-4.91,5.59-8.29.13-.91.08-1.92-.51-2.63-.72-.86-1.99-1-3.1-.86Z"/>
      <path class="cls-70" d="M984.33,487.61c-.09-.04-.2-.03-.29-.01-.84.13-1.73.4-2.22,1.1-.46.65-.45,1.51-.67,2.27-.44,1.6-1.8,2.74-2.89,3.99-.08.1-.17.2-.18.33-.02.31.39.45.7.42.97-.1,1.77-.76,2.46-1.44,1.7-1.66,3.19-3.75,3.29-6.12,0-.2-.02-.45-.2-.53Z"/>
    </g>
    <g>
      <path class="cls-42" d="M119.22,493.66c-1.03-1.48-2.59-2.53-3.57-4.04-.93-1.43-1.27-3.18-1.24-4.88.03-1.7.4-3.38.8-5.04.31-1.29.64-2.59.66-3.91.02-1.33-.31-2.7-1.17-3.71-1.14-1.33-3.02-1.8-4.78-1.73-3.26.12-6.34,1.82-8.59,4.18-2.25,2.37-3.74,5.36-4.84,8.44-1.53,4.31-2.3,9.11-.78,13.42.83,2.36,2.31,4.43,3.92,6.34.73.86,1.51,1.71,2.5,2.26,1.83,1.01,4.07.83,6.15.55,1.99-.27,4.03-.64,5.73-1.7,2.71-1.7,4.1-4.84,5.33-7.79.18-.44.37-.91.31-1.38-.05-.37-.24-.7-.45-1.01Z"/>
      <path class="cls-58" d="M110.85,490.99c-.67-1.03-1.46-2.05-1.64-3.27-.2-1.36.39-2.69.97-3.94.45-.96.89-1.92,1.34-2.88.38-.81.76-1.66.69-2.55-.12-1.59-1.76-2.75-3.35-2.8s-3.1.75-4.35,1.73c-2.13,1.66-3.82,3.91-4.64,6.48-.54,1.7-.69,3.49-.77,5.26-.05,1.17-.06,2.35.07,3.52.2,1.75.74,3.44,1.27,5.12.35,1.09.71,2.22,1.49,3.06.37.4.81.72,1.27,1,1.48.92,3.2,1.53,4.94,1.37s3.44-1.2,4.06-2.82c.17-.45.27-.94.53-1.35.13-.2.3-.38.41-.6.19-.39.17-.85.11-1.27-.29-2.18-1.2-4.24-2.39-6.08Z"/>
      <path class="cls-53" d="M107.05,486.34c.18-.97.53-1.93.54-2.92,0-.43-.07-.9-.4-1.19-.35-.3-.88-.29-1.33-.17-1.2.32-2.14,1.3-2.69,2.42-.55,1.12-.74,2.37-.87,3.6-.35,3.39-.16,7.08,1.89,9.82.55.74,1.3,1.42,2.22,1.5,1.11.11,2.11-.7,2.8-1.58.43-.55.81-1.19.79-1.89-.02-.93-.73-1.67-1.28-2.42-1.52-2.03-2.14-4.7-1.67-7.19Z"/>
      <path class="cls-70" d="M106.12,491.73c-.81-1.45-.65-3.21-.76-4.87,0-.13-.02-.26-.11-.36-.2-.24-.59-.04-.79.2-.62.75-.72,1.79-.73,2.76-.03,2.37.38,4.91,1.99,6.66.14.15.33.3.52.23.09-.03.16-.12.22-.2.5-.68.94-1.51.8-2.34-.13-.78-.74-1.39-1.13-2.08Z"/>
    </g>
    <g>
      <path class="cls-42" d="M602.03,506.99c1.66-.4,3.38-.46,5.08-.49,1.33-.02,2.67-.03,3.95-.34,1.29-.31,2.54-.97,3.3-2.06,1-1.44.98-3.38.48-5.06-.93-3.13-3.35-5.68-6.21-7.26-2.86-1.58-6.13-2.28-9.38-2.56-4.56-.4-9.4.06-13.19,2.62-2.07,1.4-3.71,3.35-5.15,5.39-.65.92-1.28,1.9-1.56,2.99-.52,2.03.22,4.15,1.01,6.08.76,1.86,1.63,3.74,3.08,5.12.22.21.46.39.69.57h11.75c.53-.9,1.03-1.81,1.73-2.57,1.15-1.26,2.76-2.02,4.42-2.42Z"/>
      <path class="cls-58" d="M606.76,495.54c-2.14-1.65-4.75-2.72-7.44-2.86-1.78-.1-3.55.21-5.29.58-1.15.25-2.29.53-3.39.95-1.64.63-3.15,1.58-4.64,2.51-.97.61-1.97,1.25-2.59,2.21-.29.45-.49.96-.65,1.48-.52,1.66-.68,3.49-.09,5.12.59,1.64,2.03,3.02,3.76,3.22.48.06.98.02,1.44.17.23.08.45.2.68.25.42.09.86-.05,1.26-.21,2.04-.82,3.8-2.22,5.28-3.84.83-.91,1.62-1.93,2.76-2.4,1.26-.53,2.71-.29,4.06-.05,1.04.19,2.08.38,3.12.57.88.16,1.8.32,2.64.03,1.51-.52,2.22-2.39,1.87-3.95s-1.5-2.81-2.77-3.78Z"/>
      <path class="cls-53" d="M599.46,496.04c-1.22-.25-2.48-.12-3.71.06-3.38.51-6.9,1.62-9.03,4.29-.57.72-1.05,1.61-.9,2.52.18,1.1,1.2,1.87,2.23,2.32.64.28,1.36.49,2.03.3.89-.26,1.44-1.12,2.02-1.85,1.58-1.98,4.01-3.25,6.54-3.42.99-.07,2,.02,2.96-.21.42-.1.86-.3,1.05-.69.21-.42.06-.92-.17-1.33-.62-1.08-1.8-1.75-3.02-1.99Z"/>
      <path class="cls-70" d="M597.63,497.85c-.88-.41-1.91-.24-2.85-.01-2.31.57-4.66,1.6-5.95,3.59-.11.17-.21.4-.09.56.06.08.15.12.25.16.79.32,1.7.53,2.47.18.72-.33,1.16-1.06,1.73-1.61,1.2-1.15,2.95-1.44,4.52-1.96.12-.04.25-.09.32-.19.18-.26-.11-.58-.39-.72Z"/>
    </g>
    <g>
      <path class="cls-42" d="M300.21,436.86c1.6,3.73,4.6,6.79,8.02,9.39,4.78,3.64,10.78,6.57,17.78,6.47,3.83-.05,7.74-1.01,11.52-2.2,1.71-.54,3.44-1.15,4.91-2.14,2.72-1.83,4.1-4.65,5.22-7.31,1.07-2.55,2.06-5.2,1.84-7.72-.18-2.13-1.2-3.97-2.57-5.64h-47.44c-.83,3.14-.48,6.35.72,9.14Z"/>
      <path class="cls-58" d="M306.28,434.1c.72,3.29,2.57,6.29,5.49,8.35,1.93,1.36,4.26,2.28,6.64,3.1,1.57.54,3.17,1.05,4.86,1.36,2.54.47,5.24.51,7.92.55,1.74.03,3.55.04,5.27-.56.81-.28,1.57-.7,2.29-1.14,2.33-1.43,4.42-3.3,5.46-5.48,1.04-2.19.85-4.71-.91-6.14-.49-.4-1.1-.72-1.46-1.21-.18-.24-.3-.53-.52-.75-.39-.4-1.03-.55-1.66-.66-3.18-.54-6.66-.28-10.05.44-1.9.4-3.87.94-5.66.66-2-.31-3.39-1.59-4.68-2.81-.73-.7-1.46-1.4-2.2-2.09h-9.75c-.08.11-.18.22-.25.34-1.23,1.93-1.22,4.1-.8,6.05Z"/>
      <path class="cls-53" d="M335.77,435.05c-1.29-.35-2.81.2-4.23.58-3.87,1.03-7.98.69-11.04-.91-1.2-.63-2.25-1.44-3.6-1.86-.59-.18-1.29-.28-1.92,0-.67.3-1.04.96-1.2,1.55-.43,1.6.22,3.16,1.35,4.29,1.13,1.13,2.7,1.88,4.29,2.55,4.38,1.83,9.57,3.1,14.79,1.72,1.41-.37,2.88-1.01,3.67-2.1.95-1.32.58-2.87-.12-4.08-.44-.75-1.04-1.48-2-1.75Z"/>
      <path class="cls-70" d="M330.86,437.54c-1.17-.16-2.43.34-3.66.53-2.57.4-4.87-.52-7.21-1.07-.18-.04-.38-.08-.57-.02-.47.15-.49.71-.3,1.05.58,1.06,1.92,1.61,3.24,2.03,3.22,1.01,6.99,1.55,10.55.3.3-.11.65-.28.7-.54.02-.13-.05-.24-.11-.35-.57-.9-1.38-1.77-2.62-1.94Z"/>
    </g>
    <g>
      <path class="cls-42" d="M296.58,445.87c-9.29-6.69-20.29-11.93-31.72-11.29-6.25.35-12.27,2.44-17.99,4.98-2.59,1.15-5.18,2.43-7.19,4.43-3.72,3.69-4.86,9.19-5.63,14.38-.74,4.97-1.3,10.12.07,14.96,2.17,7.71,8.75,13.24,14.99,18.27.93.75,1.92,1.53,3.1,1.72.92.15,1.86-.08,2.74-.38,4.27-1.44,7.9-4.45,12.21-5.75,4.09-1.23,8.53-.81,12.6.45,4.07,1.27,7.84,3.34,11.54,5.47,2.88,1.65,5.77,3.36,8.94,4.33,3.17.97,6.71,1.16,9.74-.2,4-1.8,6.44-6.01,7.52-10.26,2.01-7.92.08-16.5-4.03-23.57-4.11-7.06-10.26-12.75-16.89-17.53Z"/>
      <path class="cls-58" d="M292.29,453.41c-3.7-2.48-7.9-4.11-12.12-5.53-2.79-.94-5.61-1.81-8.51-2.3-4.35-.74-8.79-.65-13.2-.55-2.86.06-5.83.15-8.4,1.42-1.21.6-2.29,1.44-3.29,2.34-3.24,2.9-5.93,6.62-6.76,10.89-.83,4.27.48,9.1,3.94,11.74.97.74,2.08,1.3,2.88,2.22.4.46.71.99,1.15,1.4.79.74,1.91.99,2.99,1.16,5.43.84,11.02.1,16.28-1.49,2.95-.89,5.96-2.06,9.01-1.64,3.4.47,6.2,2.83,8.78,5.1,1.99,1.74,3.98,3.49,5.97,5.23,1.68,1.47,3.45,2.99,5.64,3.44,3.91.81,7.84-2.29,9.09-6.08s.37-7.96-1.11-11.67c-2.49-6.28-6.72-11.93-12.33-15.69Z"/>
      <path class="cls-53" d="M288.28,460.82c-2.3-2.09-5.17-3.45-8.05-4.62-7.91-3.23-16.92-5.35-24.92-2.35-2.16.81-4.32,2.13-5.17,4.27-1.03,2.6.19,5.56,1.82,7.84,1.01,1.42,2.29,2.78,3.98,3.23,2.25.6,4.53-.57,6.71-1.39,5.94-2.22,12.79-1.84,18.44,1.03,2.21,1.12,4.26,2.62,6.64,3.34,1.03.31,2.23.46,3.14-.13.98-.63,1.32-1.9,1.35-3.07.06-3.11-1.63-6.06-3.93-8.15Z"/>
      <path class="cls-70" d="M275.91,458.67c-5.68-1.74-12.07-2.52-17.4.1-.45.22-.96.58-.92,1.08.02.25.17.46.32.66,1.29,1.69,2.96,3.32,5.07,3.56,1.98.23,3.85-.81,5.79-1.25,4.05-.94,8.18.69,12.24,1.58.31.07.65.13.94,0,.71-.32.51-1.4.07-2.04-1.37-2.01-3.79-2.98-6.12-3.68Z"/>
    </g>
    <path class="cls-90" d="M2.64,511.98h105.78c-4.47-1.78-8.58-4.43-12.02-7.79-1.29-1.25-2.49-2.61-3.42-4.14-2.27-3.72-2.86-8.3-2.26-12.61.6-4.31,2.3-8.4,4.35-12.25,2.8-5.26,6.36-10.28,11.26-13.68-4.19,1.55-7.99,4.16-10.93,7.52-2.32,2.65-4.1,5.74-6.41,8.41-2.27,2.63-5.01,4.8-7.79,6.88-5.83,4.35-12.01,8.39-18.89,10.73-6.88,2.35-14.59,2.89-21.38.29-3.15-1.2-6.03-3.04-8.65-5.17-9.24-7.52-15.3-19.07-15.41-30.98-2.66,4.19-5.45,8.5-9.61,11.22-1.93,1.26-4.11,2.13-5.99,3.47-.43.31-.84.65-1.23,1.02v10.46c.64.98,1.28,1.98,1.71,3.03.69,1.67.87,3.51,1.03,5.31.3,3.25.58,6.5.85,9.75.17,2.07.33,4.17-.13,6.19-.18.81-.48,1.6-.89,2.32Z"/>
    <path class="cls-90" d="M93.93,438.97c2.64,1.51,5.13,3.27,7.42,5.26,1.97,1.7,3.84,3.65,4.76,6.09s.66,5.46-1.2,7.28c2.07-.79,4.08-1.74,5.99-2.84,2.49,1.85,2.97,5.87.99,8.25-.65.78-1.57,1.71-1.12,2.62,2.4-1.49,5.84-.95,7.67,1.2,1.6-2.38,1.16-5.52,1.47-8.37.82-7.56,7.38-13.56,14.65-15.81,7.27-2.26,15.11-1.44,22.6-.08,8.72,1.59,17.4,3.91,26.26,3.73-3.09-1.8-4.72-5.77-3.79-9.21,1.03-3.83,4.58-6.31,7.17-9.36h-100.93c.73,3.27,1.75,6.57,4.22,8.77,1.14,1.02,2.52,1.72,3.84,2.48Z"/>
    <path class="cls-90" d="M79.6,427.72H.06v42.54c1.17-.74,2.35-1.48,3.52-2.23,2.27-1.46,4.55-2.94,6.43-4.89,1.47-1.52,2.66-3.3,3.84-5.06,2.47-3.7,4.95-7.39,7.42-11.09-.44,1.77-.88,3.54-1.32,5.31,2.43-3.86,4.9-7.77,8.27-10.84,4.17-3.8,9.55-6.12,15.07-7.3,5.52-1.18,11.22-1.3,16.86-1.12,6.4.2,13.42.6,18.53-3.26.45-.34.91-.76,1-1.32.04-.26,0-.51-.07-.76Z"/>
    <path class="cls-90" d="M191.2,510.75c-13.31.46-26.28-3.84-38.91-8.09-8.31-2.79-16.7-5.62-24.22-10.14-3.86-2.32-7.58-5.21-9.58-9.24-.87,3.09.09,6.62,2.41,8.85,1.59,1.53,3.86,2.65,4.38,4.79.59,2.41-1.42,4.66-3.45,6.08-4.11,2.88-9.07,4.52-14.09,4.66,4.8.73,9.66,1.47,14.17,3.26.81.32,1.6.68,2.4,1.04h68.75c.97-.49,1.95-.95,2.98-1.27-1.62-.13-3.24,0-4.86.05Z"/>
    <path class="cls-90" d="M252.15,511.59c7.38.1,14.82.83,22.1-.39-8.13-7.16-19.49-9.58-28.06-16.2-5.29-4.09-9.29-9.6-12.79-15.29-1.39-2.26-2.73-4.59-3.44-7.14-1.86-6.68.81-13.74,4.07-19.86-8.49,3.71-18.19,2.83-27.41,1.88-2.77-.29-5.57-.57-8.24-1.38,2.92,1.13,5.36,3.21,7.73,5.26,4.54,3.92,9.28,8.12,11.24,13.79,1.53,4.41,1.19,9.22.81,13.87-.15,1.87-.31,3.76-.79,5.57-.78,2.96-2.38,5.63-4.08,8.17-3.29,4.92-7.51,9.84-13.31,11.03.81.4,1.71.57,2.61.72.83.14,1.67.25,2.51.36h32.69c4.79-.25,9.58-.45,14.36-.39Z"/>
    <path class="cls-90" d="M232.76,446.92c3.36-6.27,8.74-11.66,15.44-14.06,5.36-1.92,11.19-1.85,16.87-1.76,2.69.04,5.38.08,8.05.46,2.68.38,5.3,1.11,7.88,1.91,2.93.91,5.82,1.93,8.67,3.05,3.31,1.3,6.61,2.81,9.5,4.84-3.5-3.57-6.08-8.02-6.69-12.94-.03-.24-.05-.48-.07-.72h-61.65c1.56,1.9,2.67,4.2,3.2,6.61.92,4.18.29,8.59-1.2,12.6Z"/>
    <path class="cls-90" d="M299.17,441.38c1.16,1.18,2.41,2.27,3.73,3.24-1.12-1.23-2.38-2.29-3.73-3.24Z"/>
    <path class="cls-90" d="M553.75,501.66c-8.77-.29-17.16,3.51-25.88,4.49-8.72.98-19.35-2.41-21.45-10.93-.98-4,.18-8.19,1.45-12.12-16.9,15.9-42.44,17.14-65.64,17.49-25.94.39-51.87.78-77.81,1.17-7.61.11-15.3.22-22.71-1.47-7.42-1.69-14.64-5.39-19.1-11.55-1.93,6.41-8.4,10.76-15.05,11.6-6.65.84-13.36-1.33-19.24-4.53-3.43-1.87-6.73-4.13-10.51-5.12-8.64-2.26-17.4,2.53-25.06,7.13,9.15,2.4,18.83,5.1,25.27,12.04.63.68,1.24,1.41,1.84,2.13h263.52c.99-.38,1.9-.89,2.68-1.62,2.92-2.74,3.74-8.2,7.71-8.7Z"/>
    <path class="cls-90" d="M352.17,440.3c-1.12,3.67-4.45,6.18-7.72,8.2-5.13,3.16-10.68,5.78-16.61,6.79-5.93,1.01-12.31.29-17.44-2.85,6.99,6.6,11.37,15.9,11.98,25.49.93-5.38,3.07-10.6,6.56-14.8,1.97-2.38,4.35-4.4,6.85-6.2,11.58-8.35,25.84-12.13,39.98-14.09,14.14-1.96,28.48-2.27,42.57-4.51,11.17-1.78,22.37-4.91,32.05-10.61h-99.87c1.04,4.26,2.9,8.47,1.65,12.59Z"/>
    <path class="cls-90" d="M576.33,497.06c1.57-3.58,4.94-6.04,8.43-7.8,9.04-4.58,19.83-5.59,29.56-2.75-1.48-4.44-1.35-9.4.38-13.75-6.84,4.07-14.11,8.27-22.07,8.34-11.57.09-21.23-8.42-32.14-12.24-6.22-2.18-13.55-3.25-17.36-8.62-2.83-3.99-2.82-9.47-1.07-14.03,1.76-4.56,5.03-8.36,8.45-11.86,2.34-2.4,4.9-4.74,7.68-6.62h-64.19c.16.06.32.12.47.17,6.23,2.31,12.49,4.91,17.52,9.24,5.03,4.33,8.71,10.71,8.29,17.33-.18,2.79-1.06,5.49-2.13,8.07-2.9,7.05-7.19,13.51-12.57,18.92,1.99-1.24,3.98-2.49,5.97-3.73,1.62.89,2.69,2.68,2.72,4.53,6.87-3.47,14.17-6.08,21.68-7.76,6.05-1.35,12.45-2.07,18.38-.25s11.25,6.68,12.02,12.83c.69,5.55-2.45,11.07-6.92,14.44-1.7,1.28-3.61,2.32-5.14,3.8-1.53,1.49-2.68,3.59-2.31,5.7,1.24-2.41,4.55-3.03,7.15-2.26,2.17.64,4.03,1.99,5.93,3.23h12.64c-1.93-4.88-3.45-10.2-1.39-14.92Z"/>
    <path class="cls-90" d="M613.35,441.99c2.32,2.66,4.75,5.93,3.98,9.38.61-3.66,2.87-6.88,5.66-9.33,2.79-2.45,6.09-4.22,9.38-5.94,2.81-1.48,5.65-2.95,8.7-3.84,4.22-1.24,8.69-1.33,13.09-1.41,9.13-.17,18.26-.33,27.39-.5,5.31-.1,10.64-.2,15.86-1.12,2.09-.37,4.16-.88,6.19-1.51h-108.5c1.91.75,3.77,1.62,5.54,2.69,4.93,2.98,8.92,7.25,12.71,11.59Z"/>
    <path class="cls-90" d="M756.53,509.21c-6.28.45-13,.36-18.31-3.03-3.08-1.97-5.42-4.9-7.51-7.9-1.26-1.8-2.46-3.68-3.07-5.79-1.89-6.56,2.34-13.17,6.35-18.7-5.82,1.88-10.15,6.77-13.56,11.84-3.42,5.07-6.29,10.6-10.63,14.91-7.7,7.64-18.95,10.37-29.77,11.44h107.58c.84-3.84,2.69-7.45,5.33-10.37-11.72,4.15-23.99,6.71-36.39,7.6Z"/>
    <path class="cls-90" d="M651.35,510.6c-12.79-3.13-24.5-10.56-32.77-20.8,2.24,7.89-.78,16.85-6.93,22.18h47.47c-2.61-.31-5.2-.75-7.76-1.38Z"/>
    <path class="cls-90" d="M709.83,431.36c-.97,1.24-.6,3.14.4,4.35,1,1.21,2.49,1.91,3.91,2.58,5.83,2.72,12.01,5.95,14.8,11.74-.36-3.89,4.88-6.06,5.79-9.86.65-2.72-.91-6.16,1.12-8.08.74-.7,1.79-.95,2.77-1.23,2.34-.65,4.62-1.54,6.79-2.65.26-.13.51-.29.7-.51h-31.03c-.97.85-2.04,1.59-3.17,2.2-.75.4-1.56.77-2.08,1.44Z"/>
    <path class="cls-90" d="M828.1,450.49c1.06,6.03-.62,12.29-3.5,17.7-2.88,5.41-6.91,10.1-10.91,14.74,7.86-7.33,21.55-7.12,29.18.44-2.99-9.88-1.59-21.08,4.04-29.74,5.63-8.66,15.44-14.55,25.75-15.11,6.03-.33,12,1.05,17.93,2.2,19.3,3.73,39.08,4.99,58.69,3.73,1.96-.13,3.97-.27,5.85.29s3.64,1.98,3.99,3.92c-1.2-6.59.64-13.68,4.9-18.85.59-.72,1.22-1.4,1.88-2.08h-158.98c3.52,1.72,6.93,3.63,10.04,6.02,5.45,4.18,9.95,10,11.13,16.76Z"/>
    <path class="cls-90" d="M848.73,492.81c-1.54,8.3-7.95,14.3-15.15,19.17h57.9c-14.69-5.13-28.79-12.18-42.74-19.17Z"/>
    <path class="cls-90" d="M1002.51,438.48c4.81,4.03,8.06,10.59,6.37,16.63-2.07,7.42-10.81,11.3-18.47,10.49-7.66-.8-14.45-5.09-20.93-9.27-3.41,2.23-7.9,1.28-11.84.26,5.57,7.14,7.78,16.78,5.89,25.63,5.11-6.89,12.87-12.41,21.45-12.53,8.58-.12,17.38,6.65,17.44,15.23.03,5.03-2.77,9.73-6.45,13.18-3.67,3.44-8.17,5.84-12.55,8.32-3.6,2.04-7.21,4.17-11.1,5.55h51.7v-84.26h-30.56c-2.62.91-5.24,1.83-7.86,2.74,5.97,1.95,12.09,3.99,16.91,8.03Z"/>
    <path class="cls-90" d="M953.53,496.64c-4.95,3.4-6.48,9.98-10.32,14.6-.22.26-.46.49-.69.74h15.37c-.99-.46-1.92-1.04-2.77-1.76-3.87-3.3-5.05-9.84-1.59-13.57Z"/>
  </g>
  <g>
    <path class="cls-39" d="M1021.22,399.96c-12.59,3.3-27.14,3.72-40.94,3.97-11.67.21-23.33.42-35,.63-11.07.2-22.16.4-33.2-.16-12.24-.62-24.37-2.18-36.65-2.37-10.6-.17-21.95.52-32.39-.67-4.69-.53-9.45-.64-14.21-.53-.8.02-1.61-.01-2.36-.07-127.13-9.04-255.32,1.01-383.09,4.31-137.23,3.54-274.6-.73-411.77-5.55-18.68.22-30.64.42-31.56.43v34.05c51.36,10.42,1023.94,4.12,1023.94,4.12l.07-37.82v-.35c-.39,0-1.38,0-2.86.01Z"/>
    <polygon class="cls-39" points="1024.08 399.95 1024.08 400.3 1024.08 399.95 1024.08 399.95"/>
    <g class="cls-36">
      <path class="cls-99" d="M173.98,429.22c-4.03.43-8.05.86-12.08,1.29,8.24.66,16.72-.02,24.5-1.96-4.15-.21-8.31.23-12.42.67Z"/>
    </g>
    <g>
      <g class="cls-49">
        <path class="cls-48" d="M135.17,408.72c-12.21-2.48-25.25-2.19-38.02-2.19-17.01,0-34.11-.58-50.97.9-16.73,1.47-33.51,5.17-46.11,12.59v.08c7.92-2.46,15.94-4.93,24.52-6.06-.72.63-1.43,1.26-2.15,1.89.96-.21,1.99-.3,3-.24-1.13.59-2.26,1.18-3.39,1.77,12.87-2.35,26.06-3.92,39.36-4.71-.43-.73-2.97-.32-2.76-1.09,25.3-2.55,50.95-3.54,76.53-2.95Z"/>
      </g>
      <g class="cls-89">
        <path class="cls-3" d="M72.33,416.33c-.79.28-1.58.56-2.37.84.41.14.81.27,1.22.41-4.29,1.2-8.45,2.61-12.44,4.2,11.46-1.95,22.91-3.89,34.37-5.84-1,.72-2,1.43-3,2.15,10.05-1.43,20.16-2.69,30.31-3.79-1.08.26-2.07.68-2.89,1.21,7.76-.67,15.52-1.34,23.28-2.01-7.35-1.76-14.75-3.42-22.21-4.98.56.22,1.38-.21,1.19-.62-4.54.28-9.08.57-13.62.85-7.1.45-14.23.91-21.12,2.11-7.94,1.38-15.48,3.75-22.13,6.94,2.97-.86,6.18-1.37,9.41-1.49Z"/>
      </g>
      <g class="cls-30">
        <path class="cls-56" d="M226.49,408.79c-6.72,1.19-13.38,2.75-20.32,3.01,7.54.35,15.08.7,22.63,1.04-2.57.63-5.05,1.43-7.4,2.38,10.03-.79,20.13-1.16,30.23-1.1-1.44.47-2.66,1.21-3.5,2.12,21.13-2.99,43.04-3.57,64.46-1.72-2.25-.75-4.49-1.5-6.74-2.25,13.38-.23,26.8.7,39.8,2.78-13.37-5.52-30.19-5.2-45.51-7.62,2.72-.19,5.45-.39,8.17-.58-3.3-.23-6.61-.45-9.93-.64-14.55-.11-29.11-.28-43.66-.5-9.53.48-18.97,1.43-28.23,3.07Z"/>
      </g>
      <g class="cls-46">
        <path class="cls-38" d="M254.72,405.71c14.55.22,29.11.39,43.66.5-14.54-.84-29.2-1.23-43.66-.5Z"/>
      </g>
      <g class="cls-29">
        <path class="cls-71" d="M130,405c-7.7.18-15.74.56-22.34,3.2,3.56-.26,7.16-.23,10.71.09-1,.46-2,.92-3,1.38,2.2-.39,4.5-.49,6.76-.31-2.03.6-3.89,1.45-5.47,2.48,10.49-2.79,21.83-4.18,33.14-4.05-1.46.75-3.37.97-5.13,1.36-1.75.39-3.58,1.11-4.04,2.3,7.28-1.25,14.97-1.41,22.35-.48-2.39-1.39-5.13-2.5-8.08-3.27,2.93.26,5.86.53,8.78.79-10.12-3.62-22.18-3.75-33.68-3.49Z"/>
      </g>
      <g class="cls-86">
        <path class="cls-83" d="M147.88,414.49c-7.19,1.19-13.96,3.5-19.58,6.7,8.46-2.37,17.48-3.85,26.63-4.36-.67-.02-1.34.29-1.53.72,2.1-.11,4.21-.22,6.31-.33-.25.48-.74.91-1.37,1.21,13.78,1.6,27.78,2.1,41.75,2.59-3.09-.25-6.18-.5-9.27-.74,3.98-.24,7.92-.75,11.74-1.52-2.3-.03-4.6-.06-6.9-.09,4.7-.25,9.35-.89,13.81-1.9-6.95-.3-13.92-.42-20.89-.38,3.37-.41,6.75-.82,10.12-1.24.67-.08,1.46-.23,1.68-.66-9.52.83-19.14,1.14-28.73.91,1.05-.2,2.11-.4,3.16-.6-1.99-.72-4.12-1.28-6.31-1.67.92-.02,1.83-.17,2.65-.45-11.16-.82-23-1.56-33.14,1.64,3.81-.81,7.88-1.05,11.84-.73-1.71.12-3.38.43-4.93.92.98,0,1.97-.02,2.95-.03Z"/>
      </g>
      <g class="cls-91">
        <path class="cls-67" d="M158.63,409.23c-2.19-.38-4.5-.46-6.74-.23,2.63-1.69,6.45-2.3,10.11-2.48,6.22-.29,13.02.67,17.07,3.81-2.44-.37-4.91-.64-7.4-.8,1.08.49,2.16.98,3.24,1.47-6.01-.61-12.07-.97-18.14-1.06.62-.24,1.25-.48,1.87-.72Z"/>
      </g>
      <g class="cls-74">
        <path class="cls-75" d="M327.48,417.47c-1.75.02-3.5.35-5.01.93,5.23-.44,10.58-.21,15.69.65-1.29.28-2.58.56-3.88.84,13.17.15,26.37-.64,39.29-2.33-10.75,4.19-23.63,5.13-36.09,5.46-14.42.37-28.88.03-43.23-1.01-4.55-.33-9.43-.69-13.46.75,2.45-.23,4.98-.1,7.35.37-16.03,2.23-32.05,4.46-48.08,6.69,1.54-.97,2.95-2.03,4.21-3.16-7.86.77-15.66,1.86-23.33,3.24,8.7-4.76,18.85-8.36,29.65-10.52-1.07.72-2.13,1.43-3.2,2.15,3.34-1.51,6.95-2.77,10.73-3.73-.95.71-1.89,1.42-2.84,2.14,4.36-1.94,9.05-3.56,13.95-4.81-.74.48-1.47.96-2.21,1.43,7.86-1.41,15.94-2.31,24.07-2.67-1.7.63-3.41,1.26-5.11,1.89,13.84-1.09,27.97-.51,41.49,1.71Z"/>
      </g>
    </g>
    <g>
      <g class="cls-32">
        <path class="cls-41" d="M605.61,415.93c.72-.63,1.43-1.26,2.15-1.89-8.69,1.14-16.81,3.66-24.83,6.15,12.64-7.55,29.56-11.28,46.42-12.77,16.86-1.48,33.96-.91,50.97-.9,12.77,0,25.81-.29,38.02,2.19-25.57-.59-51.23.39-76.53,2.95-.21.77,2.33.36,2.76,1.09-13.3.78-26.49,2.36-39.36,4.71,1.13-.59,2.26-1.18,3.39-1.77-1.01-.05-2.04.03-3,.24Z"/>
      </g>
      <g class="cls-40">
        <path class="cls-98" d="M655.5,416.33c-.79.28-1.58.56-2.37.84.41.14.81.27,1.22.41-4.29,1.2-8.45,2.61-12.44,4.2,11.46-1.95,22.91-3.89,34.37-5.84-1,.72-2,1.43-3,2.15,10.05-1.43,20.16-2.69,30.31-3.79-1.08.26-2.07.68-2.89,1.21,7.76-.67,15.52-1.34,23.28-2.01-7.35-1.76-14.75-3.42-22.21-4.98.56.22,1.38-.21,1.19-.62-4.54.28-9.08.57-13.62.85-7.1.45-14.23.91-21.12,2.11-7.94,1.38-15.48,3.75-22.13,6.94,2.97-.86,6.18-1.37,9.41-1.49Z"/>
      </g>
      <g class="cls-88">
        <path class="cls-55" d="M928.83,415.06c-13.37-5.52-30.19-5.2-45.51-7.62,2.72-.19,5.45-.39,8.17-.58-27.3-1.91-55.31-2.78-81.83,1.93-6.72,1.19-13.38,2.75-20.32,3.01,7.54.35,15.08.7,22.63,1.04-2.57.63-5.05,1.43-7.4,2.38,10.03-.79,20.13-1.16,30.23-1.1-1.44.47-2.66,1.21-3.5,2.12,21.13-2.99,43.04-3.57,64.46-1.72-2.25-.75-4.49-1.5-6.74-2.25,13.38-.23,26.8.7,39.8,2.78Z"/>
      </g>
      <g class="cls-72">
        <path class="cls-1" d="M713.17,405c-7.7.18-15.74.56-22.34,3.2,3.56-.26,7.16-.23,10.71.09-1,.46-2,.92-3,1.38,2.2-.39,4.5-.49,6.76-.31-2.03.6-3.89,1.45-5.47,2.48,10.49-2.79,21.83-4.18,33.14-4.05-1.46.75-3.37.97-5.13,1.36-1.75.39-3.58,1.11-4.04,2.3,7.28-1.25,14.97-1.41,22.35-.48-2.39-1.39-5.13-2.5-8.08-3.27,2.93.26,5.86.53,8.78.79-10.12-3.62-22.18-3.75-33.68-3.49Z"/>
      </g>
      <g class="cls-65">
        <path class="cls-84" d="M731.05,414.49c-7.19,1.19-13.96,3.5-19.58,6.7,8.46-2.37,17.48-3.85,26.63-4.36-.67-.02-1.34.29-1.53.72,2.1-.11,4.21-.22,6.31-.33-.25.48-.74.91-1.37,1.21,13.78,1.6,27.78,2.1,41.75,2.59-3.09-.25-6.18-.5-9.27-.74,3.98-.24,7.92-.75,11.74-1.52-2.3-.03-4.6-.06-6.9-.09,4.7-.25,9.35-.89,13.81-1.9-6.95-.3-13.92-.42-20.89-.38,3.37-.41,6.75-.82,10.12-1.24.67-.08,1.46-.23,1.68-.66-9.52.83-19.14,1.14-28.73.91,1.05-.2,2.11-.4,3.16-.6-1.99-.72-4.12-1.28-6.31-1.67.92-.02,1.83-.17,2.65-.45-11.16-.82-23-1.56-33.14,1.64,3.81-.81,7.88-1.05,11.84-.73-1.71.12-3.38.43-4.93.92.98,0,1.97-.02,2.95-.03Z"/>
      </g>
      <g class="cls-59">
        <path class="cls-62" d="M741.8,409.23c-2.19-.38-4.5-.46-6.74-.23,2.63-1.69,6.45-2.3,10.11-2.48,6.22-.29,13.02.67,17.07,3.81-2.44-.37-4.91-.64-7.4-.8,1.08.49,2.16.98,3.24,1.47-6.01-.61-12.07-.97-18.14-1.06.62-.24,1.25-.48,1.87-.72Z"/>
      </g>
      <g class="cls-37">
        <path class="cls-44" d="M910.65,417.47c-1.75.02-3.5.35-5.01.93,5.23-.44,10.58-.21,15.69.65-1.29.28-2.58.56-3.88.84,13.17.15,26.37-.64,39.29-2.33-10.75,4.19-23.63,5.13-36.09,5.46-14.42.37-28.88.03-43.23-1.01-4.55-.33-9.43-.69-13.46.75,2.45-.23,4.98-.1,7.35.37-16.03,2.23-32.05,4.46-48.08,6.69,1.54-.97,2.95-2.03,4.21-3.16-7.86.77-15.66,1.86-23.33,3.24,8.7-4.76,18.85-8.36,29.65-10.52-1.07.72-2.13,1.43-3.2,2.15,3.34-1.51,6.95-2.77,10.73-3.73-.95.71-1.89,1.42-2.84,2.14,4.36-1.94,9.05-3.56,13.95-4.81-.74.48-1.47.96-2.21,1.43,7.86-1.41,15.94-2.31,24.07-2.67-1.7.63-3.41,1.26-5.11,1.89,13.84-1.09,27.97-.51,41.49,1.71Z"/>
      </g>
    </g>
    <g class="cls-76">
      <path class="cls-95" d="M537.87,428.75c.31,0,.63-.02.93-.05-.31,0-.63.02-.93.05Z"/>
    </g>
    <g class="cls-63">
      <path class="cls-68" d="M458.46,405.09c-3.92.37-7.85.74-11.77,1.12,12.66.52,25.36.58,38.03.18,3.81-.12,7.75-.27,11.32.62-3.24.45-6.48.9-9.72,1.34,11.05-.08,22.1-.16,33.15-.24,3.36-.02,6.8-.04,9.99.68-10.69,1.14-21.37,2.28-32.06,3.41,4.2,2.66,9.96,4.21,15.77,4.25-.95.25-1.9.49-2.85.74,1.93.15,3.87.3,5.8.45-1.38.46-2.89.74-4.43.83,2.07-.05,4.15.16,6.09.63-2.52.77-5.23,1.27-7.99,1.48,4.65.89,9.39,1.57,14.18,2.05-3.75.62-7.51,1.24-11.26,1.86,2.33.52,4.66,1.03,7,1.55-.62.08-1.25.16-1.87.25,1.43.28,2.86.56,4.3.84-1.07.13-2.13.25-3.2.38,2.82.55,5.75.85,8.69.88-1.19.19-2.37.38-3.56.57,4.88.72,9.9,1.04,14.91.96-1.11-.01-2.22-.23-3.17-.61.61-.29,1.32-.47,2.06-.56-1.01.02-2.03-.11-2.97-.37,4.36-.37,8.73-.74,13.09-1.12-7.43-.83-14.96-1.26-22.5-1.26,6.4-.67,12.79-1.34,19.19-2-3.37-1.1-7.2-1.57-10.95-1.37,1.91-.1,3.81-.2,5.72-.3-3.38-.59-6.7-1.33-9.93-2.21,1.64-.66,3.41-1.17,5.26-1.51-1.34-.31-2.82-.34-4.18-.08,1.82-.24,3.56-.76,5.03-1.51-4.59-.64-9.18-1.28-13.77-1.92,19.4-.7,38.78-1.56,58.15-2.58,1.73-.09,3.76-.32,4.49-1.36-5.21-.69-10.57-.46-15.88-.4-11.52.13-23.05-.6-34.33-2.15,16.8-2.48,34.25-1.94,51.38-3.07,4.01-.27,8.48-.8,10.81-2.98-8.4-.16-16.79-.31-25.19-.47-9.66-.18-19.32-.36-28.97-.22-9.37.13-18.73.57-28.09.84-20,.77-39.99,1.49-59.97,2.06,1.4.11,2.8.21,4.21.32Z"/>
    </g>
    <g>
      <path class="cls-69" d="M1024,429.69c-9.39,0-67.84-3.5-67.84-3.5-67.31-1.71-73.46,11.63-143.08,5.43-69.62-6.19-76.5,3.61-128.88-1.11-52.38-4.72-111.5,4.32-162.42,1.11-50.92-3.21-99.76.39-169.43-1.93-69.67-2.32-104.29,4.08-183.46,1.06-77.98-2.98-166.19-1.12-168.83-1.06v17.26c1.75.17,47.07,4.48,106.45,3.31,60.57-1.19,100.44-4.34,169.09-6.54,68.65-2.2,143.92-3.1,181.75.87s130.74,3.79,198.15,4.97c67.41,1.18,68.82-5.1,132.39-5.71,63.57-.61,98.31-.91,157.29.72,58.94,1.62,78.87,2.43,78.9,2.43v-.16l-.07-17.15Z"/>
      <polygon class="cls-5" points="1024.08 446.84 1024.08 447 1024.08 447 1024.08 446.84"/>
      <path class="cls-27" d="M0,429.69v17.25s.03,0,.06,0v-17.26s-.06,0-.06,0Z"/>
    </g>
  </g>
</svg>