<?xml version="1.0" encoding="UTF-8"?>
<svg id="foreground" xmlns="http://www.w3.org/2000/svg" version="1.1" xmlns:xlink="http://www.w3.org/1999/xlink" viewBox="0 0 1024.2 512.1">
  <!-- Generator: Adobe Illustrator 29.3.1, SVG Export Plug-In . SVG Version: 2.1.0 Build 151)  -->
  <defs>
    <style>
      .st0 {
        fill: #136d15;
      }

      .st1 {
        fill: url(#Degradado_sin_nombre_19);
      }

      .st2 {
        fill: #332419;
      }

      .st3 {
        fill: #108c89;
      }

      .st4 {
        fill: #138510;
      }

      .st5 {
        fill: #492909;
      }

      .st6 {
        fill: #725d4c;
      }

      .st7 {
        fill: #5a4f3e;
      }

      .st8 {
        fill: url(#Degradado_sin_nombre_35);
      }

      .st9 {
        fill: #2b180c;
      }

      .st10 {
        fill: url(#Degradado_sin_nombre_39);
      }

      .st11 {
        fill: #4f3a2b;
      }

      .st12 {
        fill: url(#Degradado_sin_nombre_38);
      }
    </style>
    <linearGradient id="Degradado_sin_nombre_19" data-name="Degradado sin nombre 19" x1="161.9" y1="84.4" x2="186.4" y2="84.4" gradientTransform="translate(0 514) scale(1 -1)" gradientUnits="userSpaceOnUse">
      <stop offset="0" stop-color="#109991"/>
      <stop offset=".9" stop-color="#157671"/>
    </linearGradient>
    <linearGradient id="Degradado_sin_nombre_35" data-name="Degradado sin nombre 35" x1="537.9" y1="85.3" x2="538.8" y2="85.3" gradientTransform="translate(0 514) scale(1 -1)" gradientUnits="userSpaceOnUse">
      <stop offset="0" stop-color="#109991"/>
      <stop offset=".9" stop-color="#157671"/>
    </linearGradient>
    <linearGradient id="Degradado_sin_nombre_38" data-name="Degradado sin nombre 38" x1="1024.1" y1="67.2" x2="1024.1" y2="67" gradientTransform="translate(0 514) scale(1 -1)" gradientUnits="userSpaceOnUse">
      <stop offset="0" stop-color="#108c89"/>
      <stop offset="1" stop-color="#1b4e4d"/>
    </linearGradient>
    <linearGradient id="Degradado_sin_nombre_39" data-name="Degradado sin nombre 39" x1="0" y1="84" x2="0" y2="68.6" gradientTransform="translate(0 514) scale(1 -1)" gradientUnits="userSpaceOnUse">
      <stop offset="0" stop-color="#108c89"/>
      <stop offset="1" stop-color="#1b4e4d"/>
    </linearGradient>
  </defs>
  <g>
    <rect class="st5" x="0" y="512" width="1024" height="0"/>
    <rect class="st2" x="0" y="427.7" width="1024" height="84.2"/>
    <g>
      <path class="st11" d="M502.1,438.9c-7.2-5.5-16-7.6-24.5-7.7-8.5,0-17,1.7-25.4,3.5-23,4.8-46.1,9-69.3,12.3-14,2-28.2,3.6-41.2,10.3-4.4,2.2-8.6,5.1-11.7,9.5-3,4.4-4.7,10.5-3.4,16,1.4,5.5,5.5,9.5,10,11.4s9.3,2.1,14.1,2.3c15.6.5,31.2,1,46.8,1.5,29.9.9,60.6,1.4,88.5-11.5,8.9-4.1,17.7-9.9,22.8-19.5,1.5-2.9,2.7-6.2,2.9-9.6.4-7.6-4.3-14.4-9.6-18.5h0Z"/>
      <path class="st7" d="M462.6,448.8c-2.9.3-5.9.6-8.8.8-3.4.3-6.8.6-10.2,1-8.7.9-17.5,2.2-26.2,3.5-13.3,2.1-26.5,4.6-39.8,7.1-7.7,1.5-15.4,2.9-23,5-3.2.9-6.5,2-9.3,4-1.1.8-2.3,2-2.2,3.6,0,.9.6,1.5,1.1,2.1,1.9,2.2,4.4,3.5,6.9,4.5,9.1,3.8,18.9,4.4,28.5,4.5,14.2.2,28.5-.7,42.7-1.8,13.5-1.1,27-2.4,40.1-6.1,8.4-2.4,16.7-5.7,24.2-10.8,1.6-1.1,3.2-2.4,3.8-4.5.8-2.9-1-5.9-2.9-7.8-6.8-6.6-16.4-6.1-25-5.3h0Z"/>
      <path class="st2" d="M436.1,461.4c-1.8-.6-3.8-.4-5.7-.2-5.7.6-11.3,1.4-17,2.3-6.4,1.1-12.8,2.4-18.6,5.9-.6.4-1.2.8-1.5,1.4-.7,1.3-.1,3.2.9,4.2s2.4,1.2,3.7,1.4c12.1,1.7,24.5.2,36.1-4.4,2.7-1.1,5.7-2.8,6.2-6.2-.5-2.2-2.3-3.7-4.1-4.3h0Z"/>
      <path class="st6" d="M422.8,466.7c-4.4.4-8.7,1.2-13,2.3-.7.2-1.4.4-1.9.9-.5.5-.8,1.6-.4,2.3,4.1.7,8.2-.1,12.3-1,2.5-.5,5-1.1,7-2.9-.6-1.6-2.4-1.8-3.8-1.7h0Z"/>
    </g>
    <g>
      <path class="st11" d="M946.4,451.2c-4.5-1.8-9.6-1.8-14.7-1.9-13.9-.2-27.7-.8-41.1-2.4-8.1-1-16.3-2.3-25.5,1.4-3.1,1.2-6.4,3.1-9.6,6.6-3.2,3.5-6.2,8.9-7.5,14.3-1.2,5.4-.5,10,1.2,12.7,1.7,2.7,4.2,3.8,6.7,5,8.1,3.6,16.2,7.2,24.3,10.8,15.5,6.8,31.7,13.5,51,7.1,6.2-2,12.9-5.7,19-13.7,1.8-2.4,3.6-5.2,5-8.4,2.9-7,2.8-14.3,1.4-19.2-1.9-6.6-5.8-10.3-10.3-12.1h0Z"/>
      <path class="st7" d="M932.2,464.6c-1.7-.3-3.3-.6-5-1-1.9-.4-3.8-.8-5.8-1.1-5-.9-10-1.5-15.1-2-7.8-.7-15.7-1-23.6-1.4-4.6-.2-9.2-.4-14,.1-2,.2-4.1.5-6.4,1.8-.9.5-2,1.4-2.4,2.9-.2.8-.2,1.6-.2,2.2.2,2.4,1.1,4.1,2,5.6,3.5,5.4,8.5,7.9,13.6,9.9,7.5,3,15.4,5.1,23.3,6.9,7.5,1.7,15.2,3.2,23.4,2.4,5.3-.5,10.9-2,16.7-5.2,1.2-.7,2.6-1.6,3.6-3.5,1.4-2.5,1.6-5.7,1.2-7.9-1.2-7.6-6.5-9-11.4-10h0Z"/>
      <path class="st2" d="M910.8,469.7c-3.2-.6-6.5-1-9.8-1.3-3.8-.3-7.7-.3-12,1.8-.4.2-.9.5-1.3,1-.8,1.1-1.2,3-1,4.1.2,1.1.8,1.6,1.5,2,5.8,4,12.9,5.1,20.7,3.1,1.8-.5,4-1.5,5.5-4.5.5-2.2.1-3.9-.7-4.9s-1.8-1.2-2.9-1.4h0Z"/>
      <path class="st6" d="M904.8,473.4c-2.5-.5-5.1-.6-7.7-.4-.4,0-.9,0-1.4.5s-1,1.3-1,2c1.9,1.5,4.4,1.5,6.8,1.6,1.5,0,3,0,4.7-1.3.3-1.6-.6-2.2-1.5-2.3h0Z"/>
    </g>
    <g>
      <path class="st11" d="M718.3,448.1c-7.2-4.5-12.1-13.1-20.5-15-4.1-.9-8.3,0-12.5.5-7.4.9-14.9.7-22.3.4-3.3-.1-6.6-.2-10,0-2.6.2-5.1.5-7.6,1.1-9.8,2.1-19.4,7.7-24.1,16.6-6.1,11.6-2.8,26.2,4.1,37.2,1.9,3,4.1,6,6.9,8.2,2.5,2,5.4,3.5,8.4,4.8,4,1.8,8.2,3.3,12.5,4.1,17.4,3.6,36.1-3.9,47.8-17.2,4-4.5,7.2-9.6,11.6-13.7,3.5-3.2,7.6-5.8,10.5-9.6,2.9-3.8,4.1-9.4,1.2-13.2-1.6-2-4-3.1-6.2-4.4h0Z"/>
      <path class="st7" d="M700,446.4c-4-1.4-8.4-1.5-12.6-2.4-2.8-.6-5.6-1.6-8.4-2.2-5.1-1.1-10.4-1.2-15.6-.9-6.3.4-12.7,1.4-18.4,4.2s-10.6,7.7-12.3,13.8c-.5,1.9-.8,3.8-.7,5.8.2,3.5,1.3,6.8,2.7,9.9,4.2,9.3,12,18,22.1,19.3,3.4.4,6.9,0,10.2-.9,7.6-2,14.7-6.1,20.2-11.7,3.9-4,7-8.6,11.1-12.4,4.2-3.9,9.9-7.7,9.6-13.4-.2-4.3-4-7.6-8.1-9h0Z"/>
      <path class="st2" d="M692.6,452.5c-2.5-2-5.7-2.8-8.9-3.3-9.6-1.3-19.5.1-28.3,4.1-1.7.8-3.4,1.7-4.3,3.2-.7,1.1-.8,2.4-.9,3.7-.3,6.4,2.6,12.9,7.8,16.5s12.7,4,17.9.4c3.9-2.7,6.2-7.1,10.2-9.7,3.2-2,7.5-3,9.1-6.5,1.3-2.9,0-6.5-2.5-8.5h0Z"/>
      <path class="st6" d="M677.5,455c-.4-.3-.9-.6-1.4-.8-.8-.2-1.6,0-2.4.3-2.5.8-5,1.7-7.5,2.7-2.6,1-5.6,2.7-5.8,5.5,0,.9.1,1.8.3,2.7.4,1.6.9,3.3,2.2,4.4,1.5,1.4,3.8,1.5,5.9,1.5,2.1,0,4.6-.1,5.8-1.9.7-1,.8-2.5,1.6-3.5.9-1.2,2.7-1.5,3.7-2.7,1.1-1.2,1.3-3,.7-4.5s-1.8-2.7-3.1-3.7h0Z"/>
    </g>
    <path class="st11" d="M97.5,447.1c-5.4-3.4-9.1-9.8-15.4-11.2-3.1-.7-6.3,0-9.4.4-5.6.7-11.2.5-16.8.3-2.5,0-5-.2-7.5,0-1.9.1-3.8.4-5.7.8-7.4,1.6-14.6,5.8-18.1,12.5-4.6,8.7-2.1,19.6,3.1,27.9,1.4,2.3,3.1,4.5,5.2,6.2,1.9,1.5,4.1,2.6,6.3,3.6,3,1.3,6.2,2.5,9.4,3.1,13.1,2.7,27.2-3,36-12.9,3-3.4,5.5-7.2,8.8-10.3,2.6-2.4,5.7-4.3,7.9-7.2,2.2-2.8,3.1-7.1.9-9.9-1.2-1.5-3-2.3-4.7-3.3h0Z"/>
    <path class="st7" d="M83.7,445.8c-3-1.1-6.3-1.1-9.5-1.8-2.1-.5-4.2-1.2-6.3-1.7-3.8-.9-7.8-.9-11.7-.6-4.8.3-9.6,1.1-13.8,3.2s-8,5.8-9.3,10.3c-.4,1.4-.6,2.9-.5,4.3.1,2.6,1,5.1,2.1,7.4,3.2,7,9,13.5,16.7,14.4,2.6.3,5.2,0,7.7-.7,5.8-1.5,11.1-4.6,15.3-8.8,2.9-3,5.3-6.5,8.3-9.3,3.2-2.9,7.4-5.8,7.2-10.1-.2-3.2-3.1-5.7-6.1-6.8h0Z"/>
    <path class="st2" d="M78.1,450.4c-1.8-1.5-4.3-2.1-6.7-2.5-7.2-1-14.7,0-21.4,3.1-1.3.6-2.5,1.2-3.2,2.4-.5.8-.6,1.8-.7,2.8-.2,4.8,1.9,9.7,5.8,12.4s9.6,3,13.5.3c2.9-2,4.7-5.4,7.7-7.3,2.4-1.5,5.6-2.3,6.8-4.9,1-2.2,0-4.9-1.9-6.4h0Z"/>
    <path class="st6" d="M66.8,452.3c-.3-.2-.7-.5-1.1-.6-.6-.1-1.2,0-1.8.2-1.9.6-3.8,1.3-5.6,2-2,.8-4.2,2-4.4,4.1,0,.7,0,1.4.3,2,.3,1.2.7,2.5,1.6,3.3,1.2,1,2.9,1.1,4.4,1.1,1.6,0,3.5-.1,4.4-1.4.5-.8.6-1.8,1.2-2.6.7-.9,2-1.2,2.8-2,.8-.9,1-2.3.5-3.4-.4-1.1-1.3-2-2.3-2.8h0Z"/>
    <g>
      <path class="st11" d="M612.9,449.3c-4-4.7-8.2-9.5-14-11.9-2.2-.9-4.6-1.4-7-1.9l-12.8-2.6c-2.4-.5-4.8-1-7.3-1.2-4.2-.4-8.4,0-12.5.8-2.2.4-4.5,1-6.1,2.6-1.5,1.5-2,3.7-2.5,5.8-.6,3-1.2,6-1.6,9-.3,2.4-.6,4.8.2,7.1,1.2,3.4,4.5,5.5,7.6,7.1,9.5,5.1,19.7,9,30.2,11.3,4.1.9,8.4,1.6,12.6,1.2,4.2-.5,8.4-2.3,11.1-5.6,2.5-3.1,3.3-7.2,4.1-11.2.5-2.4,1-5,0-7.4-.5-1.2-1.3-2.2-2.2-3.2h0Z"/>
      <path class="st7" d="M597.9,444.6c-3-.6-6-1.2-8.9-1.8-4.1-.8-8.1-1.7-12.2-2.5-2.1-.4-4.2-.8-6.2-.6-3.7.5-7,3-8.5,6.4s-1.4,7.4.2,10.8c.5,1,1.1,2.1,1.9,2.9.9.8,1.9,1.4,3,2,4.6,2.6,9.3,5.2,14.3,6.7,5.4,1.6,11.2,2,16.8,1.1,1.5-.3,3.1-.6,4.4-1.5,3-1.9,4.1-5.8,4.7-9.4.6-3.6.9-7.8-1.5-10.6-1.9-2.2-5-3-7.9-3.5h0Z"/>
      <path class="st2" d="M596.2,449c-4.1-1.2-8.4-2-12.7-2-3.5,0-7.1.5-10.5,1.6-.8.3-1.6.6-2.1,1.2-.7,1-.4,2.5.2,3.6,1.2,2.6,3.2,4.8,5.6,6.4,3.5,2.2,7.7,2.8,11.8,3.1,3.5.3,7.3.2,10-2,1.4-1.2,2.3-2.9,2.9-4.6.3-.9.5-1.9.3-2.9-.5-2.4-3.2-3.6-5.6-4.3h0Z"/>
      <path class="st6" d="M589,451.8c-3-1.6-6.5-1.2-9.9-.7-1,.1-2.2.6-2.2,1.6,0,.4.3.8.6,1.1,2.3,2.4,5.5,3.7,8.8,3.7.9,0,1.8-.1,2.5-.7.6-.4.9-1.1,1.2-1.7.3-.6.5-1.3.2-2-.2-.6-.8-1-1.3-1.2h0Z"/>
    </g>
    <g>
      <path class="st11" d="M556.4,481c-.6-.5-1.3-.7-2-1-3.5-1.2-7.2-2.4-11.2-1.9-1.5.2-3.1.6-4.6,1-2.8.8-5.5,1.6-8.3,2.3-1.6.4-3.1.9-4.6,1.5-2.6,1-5,2.4-7.3,3.9-1.2.8-2.5,1.8-3,3-.5,1.2-.4,2.4-.1,3.6.3,1.6.7,3.3,1.1,4.9.3,1.3.7,2.5,1.7,3.4,1.5,1.3,4,1.4,6.2,1.4,6.9-.2,13.9-1.2,20.8-3,2.7-.7,5.4-1.6,7.9-3s4.5-3.5,5.4-5.9c.8-2.2.3-4.5-.1-6.7-.3-1.3-.6-2.8-1.7-3.6h0Z"/>
      <path class="st7" d="M549.8,481.5c-1.7-.5-3.7,0-5.6.5-1.9.5-3.9,1.1-5.8,1.6-2.6.7-5.3,1.5-7.9,2.2-1.3.4-2.7.8-3.9,1.5-2.1,1.3-3.5,3.5-3.6,5.6s.9,4,2.6,5.3c.5.4,1.1.7,1.8.9.7.2,1.5.2,2.2.1,3.4,0,6.8,0,10.2-.7,3.6-.7,7.2-2.2,10.4-4.2.9-.6,1.7-1.2,2.3-2,1.4-1.8,1.1-4,.7-5.9-.5-2-1.3-4.1-3.4-4.8h0Z"/>
      <path class="st2" d="M548.6,485.1c-.9-1.1-2.8-.9-4.4-.5-2.8.6-5.5,1.4-8.1,2.6-2.1,1-4.2,2.2-5.9,3.7-.4.4-.8.7-1,1.2-.2.7.3,1.3.9,1.7,1.3.9,3,1.5,4.8,1.5,2.6,0,5.3-.8,7.8-1.8,2.2-.9,4.4-2,5.5-3.8.6-1,.7-2.1.7-3.1,0-.5-.1-1.1-.5-1.5h0Z"/>
      <path class="st6" d="M540.6,488.1c-2.2,0-4.2,1.3-6.1,2.4-.6.3-1.2.9-.9,1.4.1.2.4.3.6.4,1.9.5,4.2.3,6.2-.7.5-.2,1-.6,1.3-1,.2-.4.3-.8.3-1.2,0-.4,0-.8-.3-1-.3-.2-.7-.3-1.1-.2h0Z"/>
    </g>
    <g>
      <path class="st11" d="M184.9,433.3c-.3,1.8-.5,3.6-.7,5.5-.1,1.4-.2,2.9.5,4.2,1.1,1.9,3.6,3,5.9,3.8,7.2,2.4,14.9,4,22.8,4.8,3.1.3,6.2.4,9.3-.1s6.1-1.9,7.8-4.1c1.6-2,2.1-4.6,2.4-7,.2-1.5.4-3.1-.4-4.4-.4-.7-1.1-1.2-1.8-1.8-3.2-2.6-6.6-5.2-10.9-6.2-.3,0-.7-.1-1-.2h-28.6c-1.5.4-2.9.9-3.9,1.9-1,1-1.3,2.4-1.5,3.7h0Z"/>
      <path class="st7" d="M225.5,433.9c-1.5-1.2-3.9-1.4-6-1.6-2.2-.2-4.4-.3-6.6-.5-3-.2-6.1-.5-9.1-.7-1.5-.1-3.1-.2-4.6,0-2.7.5-4.9,2.3-5.9,4.4-.9,2.1-.6,4.5.7,6.5.4.6.9,1.2,1.6,1.6.7.4,1.5.7,2.3,1,3.5,1.2,7.1,2.5,10.9,3.1,4.1.6,8.3.5,12.4-.5,1.1-.3,2.2-.6,3.2-1.2,2.1-1.4,2.7-3.8,2.9-5.9.2-2.2.2-4.8-1.7-6.3h0Z"/>
      <path class="st2" d="M218.5,435c-3.1-.4-6.2-.6-9.4-.4-2.6.2-5.2.8-7.6,1.6-.6.2-1.1.5-1.5.9-.5.7-.1,1.5.3,2.2,1,1.5,2.6,2.7,4.5,3.4,2.7,1.1,5.8,1.2,8.8,1.1,2.6,0,5.4-.4,7.2-1.9,1-.8,1.6-1.9,1.9-3,.2-.6.3-1.2,0-1.8-.5-1.4-2.6-2-4.3-2.2h0Z"/>
      <path class="st6" d="M213.3,437.2c-2.3-.7-4.9-.2-7.3.2-.7.1-1.6.5-1.5,1.1,0,.2.3.4.5.6,1.8,1.3,4.3,1.9,6.7,1.6.6,0,1.3-.2,1.8-.6.4-.3.6-.7.8-1.1.2-.4.3-.8,0-1.2-.2-.3-.6-.5-1-.7h0Z"/>
    </g>
    <g>
      <path class="st11" d="M840.2,486.8c-.6-.5-1.3-.7-2-1-3.5-1.2-7.2-2.4-11.2-1.9-1.5.2-3.1.6-4.6,1-2.8.8-5.5,1.6-8.3,2.3-1.6.4-3.1.9-4.6,1.5-2.6,1-5,2.4-7.3,3.9-1.2.8-2.5,1.8-3,3-.5,1.2-.4,2.4-.1,3.6.3,1.6.7,3.3,1.1,4.9.3,1.3.7,2.5,1.7,3.4,1.5,1.3,4,1.4,6.2,1.4,6.9-.2,13.9-1.2,20.8-3,2.7-.7,5.4-1.6,7.9-3s4.5-3.5,5.4-5.9c.8-2.2.3-4.5-.1-6.7-.3-1.3-.6-2.8-1.7-3.6h0Z"/>
      <path class="st7" d="M833.6,487.3c-1.7-.5-3.7,0-5.6.5-1.9.5-3.9,1.1-5.8,1.6-2.6.7-5.3,1.5-7.9,2.2-1.3.4-2.7.8-3.9,1.5-2.1,1.3-3.5,3.5-3.6,5.6s.9,4,2.6,5.3c.5.4,1.1.7,1.8.9.7.2,1.5.2,2.2.1,3.4,0,6.8,0,10.2-.7,3.6-.7,7.2-2.2,10.4-4.2.9-.6,1.7-1.2,2.3-2,1.4-1.8,1.1-4,.7-5.9-.5-2-1.3-4.1-3.4-4.8h0Z"/>
      <path class="st2" d="M832.4,491c-.9-1.1-2.8-.9-4.4-.5-2.8.6-5.5,1.4-8.1,2.6-2.1,1-4.2,2.2-5.9,3.7-.4.4-.8.7-1,1.2-.2.7.3,1.3.9,1.7,1.3.9,3,1.5,4.8,1.5,2.6,0,5.3-.8,7.8-1.8,2.2-.9,4.4-2,5.5-3.8.6-1,.7-2.1.7-3.1,0-.5-.1-1.1-.5-1.5h0Z"/>
      <path class="st6" d="M824.3,493.9c-2.2,0-4.2,1.3-6.1,2.4-.6.3-1.2.9-.9,1.4.1.2.4.3.6.4,1.9.5,4.2.3,6.2-.7.5-.2,1-.6,1.3-1,.2-.4.3-.8.3-1.2,0-.4,0-.8-.3-1-.3-.2-.7-.3-1.1-.2h0Z"/>
    </g>
    <g>
      <path class="st11" d="M1004.6,447.3c-2.2-3-4.5-6.1-8-8-1.4-.7-2.9-1.3-4.4-1.8-2.7-1-5.4-1.9-8.1-2.9-1.5-.5-3.1-1.1-4.6-1.5-2.7-.7-5.5-1-8.2-1-1.5,0-3.1,0-4.2.7-1.1.7-1.7,1.8-2.2,2.8-.7,1.5-1.3,3.1-1.9,4.6-.5,1.2-.9,2.5-.6,3.8.5,1.9,2.4,3.4,4.3,4.7,5.7,3.9,12,7.1,18.7,9.6,2.6,1,5.3,1.9,8.2,2.1,2.8.2,5.7-.2,7.8-1.7,1.9-1.4,2.9-3.5,3.8-5.5.5-1.2,1.1-2.6.7-3.9-.2-.7-.7-1.3-1.1-2h0Z"/>
      <path class="st7" d="M995.2,443.1c-1.9-.7-3.8-1.3-5.7-2-2.6-.9-5.2-1.8-7.8-2.7-1.3-.5-2.6-.9-4-1-2.5-.2-4.8.8-6.2,2.5s-1.6,3.8-.9,5.8c.2.6.5,1.2,1,1.8.5.5,1.1,1,1.7,1.4,2.8,1.9,5.6,3.9,8.7,5.2,3.4,1.5,7.2,2.4,10.9,2.5,1,0,2.1,0,3-.3,2.2-.7,3.2-2.6,4-4.5.8-1.9,1.3-4.1,0-5.9-1-1.4-3-2.2-4.8-2.8h0Z"/>
      <path class="st2" d="M993.7,445.2c-2.6-1.1-5.3-2-8.1-2.5-2.3-.4-4.7-.5-7-.4-.5,0-1.1.1-1.5.4-.6.5-.5,1.3-.2,2,.5,1.5,1.6,3,3.1,4.1,2.1,1.6,4.8,2.4,7.4,3,2.2.5,4.8,1,6.7,0,1-.5,1.8-1.3,2.3-2.2.3-.5.5-1,.5-1.5,0-1.4-1.8-2.3-3.2-3h0Z"/>
      <path class="st6" d="M988.7,445.9c-1.8-1.2-4.2-1.4-6.4-1.5-.7,0-1.5,0-1.6.6,0,.2.1.5.3.6,1.3,1.5,3.3,2.6,5.4,3,.6,0,1.2.1,1.7,0,.4-.2.7-.5,1-.8.2-.3.4-.7.3-1,0-.3-.4-.6-.7-.8h0Z"/>
    </g>
    <g>
      <path class="st11" d="M211.2,469.7c-5.6-6.7-11.6-13.5-19.7-16.7-3.1-1.3-6.5-2-9.8-2.6-6-1.2-12-2.5-18.1-3.7-3.4-.7-6.8-1.4-10.2-1.7-5.9-.5-11.8,0-17.6,1.1-3.1.6-6.4,1.4-8.6,3.7-2.1,2.2-2.9,5.3-3.5,8.2-.9,4.2-1.7,8.4-2.3,12.6-.5,3.3-.9,6.8.2,10,1.7,4.7,6.3,7.7,10.7,10.1,13.4,7.2,27.8,12.6,42.6,16,5.9,1.3,11.9,2.3,17.8,1.7s11.9-3.2,15.6-7.9c3.5-4.4,4.7-10.2,5.8-15.7.7-3.4,1.3-7.1,0-10.4-.7-1.7-1.9-3.1-3.1-4.5h0Z"/>
      <path class="st7" d="M190,463.1c-4.2-.9-8.4-1.7-12.6-2.6-5.7-1.2-11.5-2.4-17.2-3.5-2.9-.6-5.9-1.1-8.8-.8-5.2.6-9.8,4.3-12,9.1s-1.9,10.5.3,15.2c.7,1.5,1.6,2.9,2.7,4,1.2,1.2,2.7,2,4.2,2.8,6.5,3.6,13.1,7.3,20.2,9.5,7.6,2.3,15.8,2.8,23.7,1.5,2.2-.4,4.4-.9,6.3-2.1,4.3-2.7,5.8-8.2,6.6-13.2.9-5.1,1.2-11-2.2-15-2.7-3.1-7.1-4.2-11.2-5h0Z"/>
      <path class="st2" d="M187.6,469.3c-5.8-1.7-11.8-2.8-17.9-2.9-5,0-10,.7-14.7,2.2-1.1.4-2.3.8-3,1.8-1,1.5-.5,3.5.2,5.1,1.7,3.7,4.5,6.8,7.9,9,4.9,3.1,10.9,3.9,16.7,4.4,4.9.4,10.3.3,14.1-2.9,2-1.7,3.3-4.1,4.1-6.5.4-1.3.7-2.7.5-4.1-.7-3.4-4.5-5.1-7.9-6.1h0Z"/>
      <path class="st6" d="M177.4,473.3c-4.2-2.2-9.2-1.6-13.9-1-1.4.2-3.2.8-3.1,2.2,0,.6.4,1.1.9,1.5,3.2,3.3,7.8,5.3,12.4,5.2,1.2,0,2.5-.2,3.5-.9.8-.6,1.3-1.5,1.7-2.5.4-.9.7-1.9.3-2.8-.3-.8-1.1-1.4-1.8-1.8h0Z"/>
    </g>
    <g>
      <path class="st11" d="M807.7,436.5c-4-3-8.3-6-13.2-7.1-7.8-1.8-15.8,1.4-23.2,4.4-1.1.5-2.3,1-3,1.9-.6.7-.8,1.7-1,2.6-.8,4.4.1,9.1-.8,13.5-.9,4.2-3.4,7.9-6.4,10.9s-6.7,5.3-10.3,7.5c-2.8,1.7-5.7,3.5-8.1,5.8-2.4,2.3-4.2,5.3-4.5,8.6-.3,4.4,2.2,8.5,5.4,11.5,6,5.6,14.5,8,22.6,7.7s16.1-2.9,23.5-6.4c10.3-5,20.2-12.1,25.1-22.5,2.7-5.6,3.7-11.9,4.2-18.2.2-2.8.3-5.7-.5-8.4-1.5-5-5.8-8.7-9.9-11.8h0Z"/>
      <path class="st7" d="M803.7,441.1c-3.3-2.8-8.2-3.9-12.2-2.2-1.1.5-2.1,1.2-3.3,1.5-.6.1-1.2.1-1.8.3-1,.3-1.8,1.2-2.5,2.1-3.3,4.4-5.4,9.6-6.5,15-.6,3-1,6.2-2.9,8.7-2,2.8-5.5,4.1-8.7,5.3-2.5.9-5,1.8-7.5,2.7-2.1.8-4.3,1.6-5.7,3.3-2.6,3-1.7,8,1,10.9s6.8,4.1,10.8,4.6c6.7.8,13.7-.2,19.7-3.3,4-2.1,7.4-5,10.7-8,2.2-2,4.3-4.1,6.1-6.4,2.7-3.5,4.8-7.4,6.8-11.3,1.3-2.5,2.7-5.2,2.8-8.1,0-1.4-.2-2.7-.5-4-1-4.2-3-8.4-6.3-11.1h0Z"/>
      <path class="st2" d="M792.5,448.6c-1.7.2-3.5.7-4.7,2-1.6,1.7-1.7,4.2-2,6.5-.9,6.3-4.5,12.1-9.7,15.7-2,1.4-4.3,2.5-6.1,4.2-.8.8-1.5,1.7-1.4,2.8,0,1.2,1,2.1,2,2.6,2.7,1.5,6.1,1.5,9,.5s5.5-2.9,7.9-4.9c6.6-5.4,12.8-12.3,14-20.8.3-2.3.2-4.8-1.3-6.6-1.8-2.1-5-2.5-7.8-2.1h0Z"/>
      <path class="st6" d="M795.1,456.5c-.2-.1-.5,0-.7,0-2.1.3-4.3,1-5.5,2.8-1.2,1.6-1.1,3.8-1.7,5.7-1.1,4-4.5,6.9-7.2,10-.2.2-.4.5-.5.8,0,.8,1,1.1,1.8,1,2.4-.2,4.4-1.9,6.2-3.6,4.2-4.2,8-9.4,8.2-15.3,0-.5,0-1.1-.5-1.3Z"/>
    </g>
    <g>
      <path class="st11" d="M754.7,438.9c-1.6-1.2-3.3-2.4-5.3-2.8-3.1-.7-6.3.5-9.3,1.8-.4.2-.9.4-1.2.8-.2.3-.3.7-.4,1-.3,1.8,0,3.6-.3,5.4-.3,1.7-1.3,3.1-2.6,4.3-1.2,1.2-2.7,2.1-4.1,3-1.1.7-2.3,1.4-3.2,2.3-1,.9-1.7,2.1-1.8,3.5-.1,1.8.9,3.4,2.2,4.6,2.4,2.2,5.8,3.2,9,3.1,3.3,0,6.4-1.2,9.4-2.6,4.1-2,8.1-4.8,10-9,1.1-2.3,1.5-4.8,1.7-7.3,0-1.1.1-2.3-.2-3.4-.6-2-2.3-3.5-4-4.7h0Z"/>
      <path class="st7" d="M753.1,440.8c-1.3-1.1-3.3-1.6-4.9-.9-.4.2-.9.5-1.3.6-.2,0-.5,0-.7.1-.4.1-.7.5-1,.8-1.3,1.7-2.1,3.9-2.6,6-.2,1.2-.4,2.5-1.2,3.5-.8,1.1-2.2,1.6-3.5,2.1-1,.4-2,.7-3,1.1-.8.3-1.7.6-2.3,1.3-1,1.2-.7,3.2.4,4.4s2.7,1.6,4.3,1.8c2.7.3,5.5,0,7.9-1.3,1.6-.8,3-2,4.3-3.2.9-.8,1.7-1.6,2.4-2.5,1.1-1.4,1.9-3,2.7-4.5.5-1,1.1-2.1,1.1-3.2,0-.5,0-1.1-.2-1.6-.4-1.7-1.2-3.4-2.5-4.5h0Z"/>
      <path class="st2" d="M748.6,443.8c-.7,0-1.4.3-1.9.8-.6.7-.7,1.7-.8,2.6-.3,2.5-1.8,4.8-3.9,6.3-.8.6-1.7,1-2.4,1.7-.3.3-.6.7-.5,1.1,0,.5.4.8.8,1.1,1.1.6,2.4.6,3.6.2s2.2-1.2,3.2-1.9c2.7-2.2,5.1-4.9,5.6-8.3.1-.9,0-1.9-.5-2.6-.7-.9-2-1-3.1-.9h0Z"/>
      <path class="st6" d="M749.7,446.9c0,0-.2,0-.3,0-.8.1-1.7.4-2.2,1.1-.5.6-.5,1.5-.7,2.3-.4,1.6-1.8,2.7-2.9,4,0,.1-.2.2-.2.3,0,.3.4.5.7.4,1-.1,1.8-.8,2.5-1.4,1.7-1.7,3.2-3.8,3.3-6.1,0-.2,0-.5-.2-.5h0Z"/>
    </g>
    <g>
      <path class="st11" d="M989.3,479.6c-1.6-1.2-3.3-2.4-5.3-2.8-3.1-.7-6.3.5-9.3,1.8-.4.2-.9.4-1.2.8-.2.3-.3.7-.4,1-.3,1.8,0,3.6-.3,5.4-.3,1.7-1.3,3.1-2.6,4.3-1.2,1.2-2.7,2.1-4.1,3-1.1.7-2.3,1.4-3.2,2.3-1,.9-1.7,2.1-1.8,3.5-.1,1.8.9,3.4,2.2,4.6,2.4,2.2,5.8,3.2,9,3.1,3.3,0,6.4-1.2,9.4-2.6,4.1-2,8.1-4.8,10-9,1.1-2.3,1.5-4.8,1.7-7.3,0-1.1.1-2.3-.2-3.4-.6-2-2.3-3.5-4-4.7h0Z"/>
      <path class="st7" d="M987.8,481.5c-1.3-1.1-3.3-1.6-4.9-.9-.4.2-.9.5-1.3.6-.2,0-.5,0-.7.1-.4.1-.7.5-1,.8-1.3,1.7-2.1,3.9-2.6,6-.2,1.2-.4,2.5-1.2,3.5-.8,1.1-2.2,1.6-3.5,2.1-1,.4-2,.7-3,1.1-.8.3-1.7.6-2.3,1.3-1,1.2-.7,3.2.4,4.4s2.7,1.6,4.3,1.8c2.7.3,5.5,0,7.9-1.3,1.6-.8,3-2,4.3-3.2.9-.8,1.7-1.6,2.4-2.5,1.1-1.4,1.9-3,2.7-4.5.5-1,1.1-2.1,1.1-3.2,0-.5,0-1.1-.2-1.6-.4-1.7-1.2-3.4-2.5-4.5h0Z"/>
      <path class="st2" d="M983.3,484.5c-.7,0-1.4.3-1.9.8-.6.7-.7,1.7-.8,2.6-.3,2.5-1.8,4.8-3.9,6.3-.8.6-1.7,1-2.4,1.7-.3.3-.6.7-.5,1.1,0,.5.4.8.8,1.1,1.1.6,2.4.6,3.6.2s2.2-1.2,3.2-1.9c2.7-2.2,5.1-4.9,5.6-8.3.1-.9,0-1.9-.5-2.6-.7-.9-2-1-3.1-.9h0Z"/>
      <path class="st6" d="M984.3,487.6c0,0-.2,0-.3,0-.8.1-1.7.4-2.2,1.1-.5.6-.5,1.5-.7,2.3-.4,1.6-1.8,2.7-2.9,4,0,.1-.2.2-.2.3,0,.3.4.5.7.4,1-.1,1.8-.8,2.5-1.4,1.7-1.7,3.2-3.8,3.3-6.1,0-.2,0-.5-.2-.5h0Z"/>
    </g>
    <g>
      <path class="st11" d="M119.2,493.7c-1-1.5-2.6-2.5-3.6-4-.9-1.4-1.3-3.2-1.2-4.9s.4-3.4.8-5c.3-1.3.6-2.6.7-3.9,0-1.3-.3-2.7-1.2-3.7-1.1-1.3-3-1.8-4.8-1.7-3.3.1-6.3,1.8-8.6,4.2-2.2,2.4-3.7,5.4-4.8,8.4-1.5,4.3-2.3,9.1-.8,13.4.8,2.4,2.3,4.4,3.9,6.3.7.9,1.5,1.7,2.5,2.3,1.8,1,4.1.8,6.2.5,2-.3,4-.6,5.7-1.7,2.7-1.7,4.1-4.8,5.3-7.8.2-.4.4-.9.3-1.4,0-.4-.2-.7-.4-1h0Z"/>
      <path class="st7" d="M110.8,491c-.7-1-1.5-2-1.6-3.3-.2-1.4.4-2.7,1-3.9.4-1,.9-1.9,1.3-2.9.4-.8.8-1.7.7-2.5-.1-1.6-1.8-2.8-3.3-2.8s-3.1.8-4.3,1.7c-2.1,1.7-3.8,3.9-4.6,6.5-.5,1.7-.7,3.5-.8,5.3,0,1.2,0,2.4,0,3.5.2,1.8.7,3.4,1.3,5.1.3,1.1.7,2.2,1.5,3.1.4.4.8.7,1.3,1,1.5.9,3.2,1.5,4.9,1.4s3.4-1.2,4.1-2.8c.2-.5.3-.9.5-1.4.1-.2.3-.4.4-.6.2-.4.2-.9.1-1.3-.3-2.2-1.2-4.2-2.4-6.1h0Z"/>
      <path class="st2" d="M107.1,486.3c.2-1,.5-1.9.5-2.9,0-.4,0-.9-.4-1.2-.3-.3-.9-.3-1.3-.2-1.2.3-2.1,1.3-2.7,2.4-.6,1.1-.7,2.4-.9,3.6-.3,3.4-.2,7.1,1.9,9.8.6.7,1.3,1.4,2.2,1.5,1.1.1,2.1-.7,2.8-1.6.4-.5.8-1.2.8-1.9,0-.9-.7-1.7-1.3-2.4-1.5-2-2.1-4.7-1.7-7.2h0Z"/>
      <path class="st6" d="M106.1,491.7c-.8-1.5-.7-3.2-.8-4.9,0-.1,0-.3-.1-.4-.2-.2-.6,0-.8.2-.6.8-.7,1.8-.7,2.8,0,2.4.4,4.9,2,6.7.1.1.3.3.5.2,0,0,.2-.1.2-.2.5-.7.9-1.5.8-2.3-.1-.8-.7-1.4-1.1-2.1h0Z"/>
    </g>
    <g>
      <path class="st11" d="M602,507c1.7-.4,3.4-.5,5.1-.5,1.3,0,2.7,0,4-.3,1.3-.3,2.5-1,3.3-2.1,1-1.4,1-3.4.5-5.1-.9-3.1-3.3-5.7-6.2-7.3-2.9-1.6-6.1-2.3-9.4-2.6-4.6-.4-9.4,0-13.2,2.6-2.1,1.4-3.7,3.4-5.2,5.4-.7.9-1.3,1.9-1.6,3-.5,2,.2,4.1,1,6.1.8,1.9,1.6,3.7,3.1,5.1.2.2.5.4.7.6h11.8c.5-.9,1-1.8,1.7-2.6,1.2-1.3,2.8-2,4.4-2.4h0Z"/>
      <path class="st7" d="M606.8,495.5c-2.1-1.6-4.8-2.7-7.4-2.9-1.8-.1-3.5.2-5.3.6-1.2.2-2.3.5-3.4,1-1.6.6-3.2,1.6-4.6,2.5-1,.6-2,1.2-2.6,2.2-.3.5-.5,1-.7,1.5-.5,1.7-.7,3.5,0,5.1.6,1.6,2,3,3.8,3.2.5,0,1,0,1.4.2.2,0,.5.2.7.2.4,0,.9,0,1.3-.2,2-.8,3.8-2.2,5.3-3.8.8-.9,1.6-1.9,2.8-2.4,1.3-.5,2.7-.3,4.1,0,1,.2,2.1.4,3.1.6.9.2,1.8.3,2.6,0,1.5-.5,2.2-2.4,1.9-4s-1.5-2.8-2.8-3.8h0Z"/>
      <path class="st2" d="M599.5,496c-1.2-.2-2.5-.1-3.7,0-3.4.5-6.9,1.6-9,4.3-.6.7-1,1.6-.9,2.5.2,1.1,1.2,1.9,2.2,2.3.6.3,1.4.5,2,.3.9-.3,1.4-1.1,2-1.9,1.6-2,4-3.2,6.5-3.4,1,0,2,0,3-.2.4-.1.9-.3,1-.7.2-.4,0-.9-.2-1.3-.6-1.1-1.8-1.8-3-2h0Z"/>
      <path class="st6" d="M597.6,497.9c-.9-.4-1.9-.2-2.8,0-2.3.6-4.7,1.6-6,3.6-.1.2-.2.4,0,.6,0,0,.2.1.2.2.8.3,1.7.5,2.5.2.7-.3,1.2-1.1,1.7-1.6,1.2-1.1,3-1.4,4.5-2,.1,0,.2,0,.3-.2.2-.3-.1-.6-.4-.7h0Z"/>
    </g>
    <g>
      <path class="st11" d="M300.2,436.9c1.6,3.7,4.6,6.8,8,9.4,4.8,3.6,10.8,6.6,17.8,6.5,3.8,0,7.7-1,11.5-2.2,1.7-.5,3.4-1.1,4.9-2.1,2.7-1.8,4.1-4.6,5.2-7.3,1.1-2.5,2.1-5.2,1.8-7.7-.2-2.1-1.2-4-2.6-5.6h-47.4c-.8,3.1-.5,6.4.7,9.1h0Z"/>
      <path class="st7" d="M306.3,434.1c.7,3.3,2.6,6.3,5.5,8.4,1.9,1.4,4.3,2.3,6.6,3.1,1.6.5,3.2,1,4.9,1.4,2.5.5,5.2.5,7.9.5,1.7,0,3.5,0,5.3-.6.8-.3,1.6-.7,2.3-1.1,2.3-1.4,4.4-3.3,5.5-5.5,1-2.2.9-4.7-.9-6.1-.5-.4-1.1-.7-1.5-1.2-.2-.2-.3-.5-.5-.8-.4-.4-1-.5-1.7-.7-3.2-.5-6.7-.3-10,.4-1.9.4-3.9.9-5.7.7-2-.3-3.4-1.6-4.7-2.8-.7-.7-1.5-1.4-2.2-2.1h-9.8c0,.1-.2.2-.2.3-1.2,1.9-1.2,4.1-.8,6h0Z"/>
      <path class="st2" d="M335.8,435c-1.3-.4-2.8.2-4.2.6-3.9,1-8,.7-11-.9-1.2-.6-2.2-1.4-3.6-1.9-.6-.2-1.3-.3-1.9,0-.7.3-1,1-1.2,1.5-.4,1.6.2,3.2,1.4,4.3s2.7,1.9,4.3,2.5c4.4,1.8,9.6,3.1,14.8,1.7,1.4-.4,2.9-1,3.7-2.1,1-1.3.6-2.9-.1-4.1-.4-.8-1-1.5-2-1.8h0Z"/>
      <path class="st6" d="M330.9,437.5c-1.2-.2-2.4.3-3.7.5-2.6.4-4.9-.5-7.2-1.1-.2,0-.4,0-.6,0-.5.1-.5.7-.3,1,.6,1.1,1.9,1.6,3.2,2,3.2,1,7,1.5,10.5.3.3-.1.6-.3.7-.5,0-.1,0-.2-.1-.4-.6-.9-1.4-1.8-2.6-1.9h0Z"/>
    </g>
    <g>
      <path class="st11" d="M296.6,445.9c-9.3-6.7-20.3-11.9-31.7-11.3-6.2.4-12.3,2.4-18,5-2.6,1.1-5.2,2.4-7.2,4.4-3.7,3.7-4.9,9.2-5.6,14.4-.7,5-1.3,10.1,0,15,2.2,7.7,8.8,13.2,15,18.3.9.8,1.9,1.5,3.1,1.7.9.1,1.9,0,2.7-.4,4.3-1.4,7.9-4.5,12.2-5.8,4.1-1.2,8.5-.8,12.6.5,4.1,1.3,7.8,3.3,11.5,5.5,2.9,1.6,5.8,3.4,8.9,4.3s6.7,1.2,9.7-.2c4-1.8,6.4-6,7.5-10.3,2-7.9,0-16.5-4-23.6-4.1-7.1-10.3-12.8-16.9-17.5h0Z"/>
      <path class="st7" d="M292.3,453.4c-3.7-2.5-7.9-4.1-12.1-5.5-2.8-.9-5.6-1.8-8.5-2.3-4.4-.7-8.8-.6-13.2-.5-2.9,0-5.8.1-8.4,1.4-1.2.6-2.3,1.4-3.3,2.3-3.2,2.9-5.9,6.6-6.8,10.9-.8,4.3.5,9.1,3.9,11.7,1,.7,2.1,1.3,2.9,2.2.4.5.7,1,1.1,1.4.8.7,1.9,1,3,1.2,5.4.8,11,.1,16.3-1.5,3-.9,6-2.1,9-1.6,3.4.5,6.2,2.8,8.8,5.1,2,1.7,4,3.5,6,5.2,1.7,1.5,3.5,3,5.6,3.4,3.9.8,7.8-2.3,9.1-6.1s.4-8-1.1-11.7c-2.5-6.3-6.7-11.9-12.3-15.7h0Z"/>
      <path class="st2" d="M288.3,460.8c-2.3-2.1-5.2-3.5-8-4.6-7.9-3.2-16.9-5.4-24.9-2.4-2.2.8-4.3,2.1-5.2,4.3-1,2.6.2,5.6,1.8,7.8,1,1.4,2.3,2.8,4,3.2,2.2.6,4.5-.6,6.7-1.4,5.9-2.2,12.8-1.8,18.4,1,2.2,1.1,4.3,2.6,6.6,3.3,1,.3,2.2.5,3.1-.1,1-.6,1.3-1.9,1.4-3.1,0-3.1-1.6-6.1-3.9-8.1h0Z"/>
      <path class="st6" d="M275.9,458.7c-5.7-1.7-12.1-2.5-17.4.1-.5.2-1,.6-.9,1.1s.2.5.3.7c1.3,1.7,3,3.3,5.1,3.6,2,.2,3.9-.8,5.8-1.2,4-.9,8.2.7,12.2,1.6.3,0,.6.1.9,0,.7-.3.5-1.4,0-2-1.4-2-3.8-3-6.1-3.7h0Z"/>
    </g>
    <path class="st9" d="M2.6,512h105.8c-4.5-1.8-8.6-4.4-12-7.8-1.3-1.2-2.5-2.6-3.4-4.1-2.3-3.7-2.9-8.3-2.3-12.6s2.3-8.4,4.3-12.2c2.8-5.3,6.4-10.3,11.3-13.7-4.2,1.5-8,4.2-10.9,7.5-2.3,2.6-4.1,5.7-6.4,8.4-2.3,2.6-5,4.8-7.8,6.9-5.8,4.4-12,8.4-18.9,10.7-6.9,2.4-14.6,2.9-21.4.3-3.2-1.2-6-3-8.7-5.2-9.2-7.5-15.3-19.1-15.4-31-2.7,4.2-5.4,8.5-9.6,11.2-1.9,1.3-4.1,2.1-6,3.5-.4.3-.8.6-1.2,1v10.5c.6,1,1.3,2,1.7,3,.7,1.7.9,3.5,1,5.3.3,3.2.6,6.5.9,9.8.2,2.1.3,4.2-.1,6.2-.2.8-.5,1.6-.9,2.3h0Z"/>
    <path class="st9" d="M93.9,439c2.6,1.5,5.1,3.3,7.4,5.3,2,1.7,3.8,3.6,4.8,6.1s.7,5.5-1.2,7.3c2.1-.8,4.1-1.7,6-2.8,2.5,1.9,3,5.9,1,8.2-.7.8-1.6,1.7-1.1,2.6,2.4-1.5,5.8-1,7.7,1.2,1.6-2.4,1.2-5.5,1.5-8.4.8-7.6,7.4-13.6,14.7-15.8,7.3-2.3,15.1-1.4,22.6,0,8.7,1.6,17.4,3.9,26.3,3.7-3.1-1.8-4.7-5.8-3.8-9.2,1-3.8,4.6-6.3,7.2-9.4h-100.9c.7,3.3,1.8,6.6,4.2,8.8,1.1,1,2.5,1.7,3.8,2.5h0Z"/>
    <path class="st9" d="M79.6,427.7H0v42.5c1.2-.7,2.3-1.5,3.5-2.2,2.3-1.5,4.6-2.9,6.4-4.9,1.5-1.5,2.7-3.3,3.8-5.1,2.5-3.7,4.9-7.4,7.4-11.1-.4,1.8-.9,3.5-1.3,5.3,2.4-3.9,4.9-7.8,8.3-10.8,4.2-3.8,9.5-6.1,15.1-7.3s11.2-1.3,16.9-1.1c6.4.2,13.4.6,18.5-3.3.4-.3.9-.8,1-1.3,0-.3,0-.5,0-.8h0Z"/>
    <path class="st9" d="M191.2,510.8c-13.3.5-26.3-3.8-38.9-8.1-8.3-2.8-16.7-5.6-24.2-10.1-3.9-2.3-7.6-5.2-9.6-9.2-.9,3.1,0,6.6,2.4,8.9,1.6,1.5,3.9,2.6,4.4,4.8.6,2.4-1.4,4.7-3.4,6.1-4.1,2.9-9.1,4.5-14.1,4.7,4.8.7,9.7,1.5,14.2,3.3.8.3,1.6.7,2.4,1h68.8c1-.5,1.9-1,3-1.3-1.6-.1-3.2,0-4.9,0h0Z"/>
    <path class="st9" d="M252.1,511.6c7.4.1,14.8.8,22.1-.4-8.1-7.2-19.5-9.6-28.1-16.2-5.3-4.1-9.3-9.6-12.8-15.3-1.4-2.3-2.7-4.6-3.4-7.1-1.9-6.7.8-13.7,4.1-19.9-8.5,3.7-18.2,2.8-27.4,1.9-2.8-.3-5.6-.6-8.2-1.4,2.9,1.1,5.4,3.2,7.7,5.3,4.5,3.9,9.3,8.1,11.2,13.8,1.5,4.4,1.2,9.2.8,13.9-.1,1.9-.3,3.8-.8,5.6-.8,3-2.4,5.6-4.1,8.2-3.3,4.9-7.5,9.8-13.3,11,.8.4,1.7.6,2.6.7.8.1,1.7.2,2.5.4h32.7c4.8-.2,9.6-.5,14.4-.4h0Z"/>
    <path class="st9" d="M232.8,446.9c3.4-6.3,8.7-11.7,15.4-14.1,5.4-1.9,11.2-1.9,16.9-1.8,2.7,0,5.4,0,8,.5,2.7.4,5.3,1.1,7.9,1.9,2.9.9,5.8,1.9,8.7,3,3.3,1.3,6.6,2.8,9.5,4.8-3.5-3.6-6.1-8-6.7-12.9,0-.2,0-.5,0-.7h-61.6c1.6,1.9,2.7,4.2,3.2,6.6.9,4.2.3,8.6-1.2,12.6h0Z"/>
    <path class="st9" d="M299.2,441.4c1.2,1.2,2.4,2.3,3.7,3.2-1.1-1.2-2.4-2.3-3.7-3.2Z"/>
    <path class="st9" d="M553.8,501.7c-8.8-.3-17.2,3.5-25.9,4.5-8.7,1-19.4-2.4-21.5-10.9-1-4,.2-8.2,1.5-12.1-16.9,15.9-42.4,17.1-65.6,17.5-25.9.4-51.9.8-77.8,1.2-7.6.1-15.3.2-22.7-1.5-7.4-1.7-14.6-5.4-19.1-11.5-1.9,6.4-8.4,10.8-15,11.6s-13.4-1.3-19.2-4.5c-3.4-1.9-6.7-4.1-10.5-5.1-8.6-2.3-17.4,2.5-25.1,7.1,9.1,2.4,18.8,5.1,25.3,12,.6.7,1.2,1.4,1.8,2.1h263.5c1-.4,1.9-.9,2.7-1.6,2.9-2.7,3.7-8.2,7.7-8.7h0Z"/>
    <path class="st9" d="M352.2,440.3c-1.1,3.7-4.5,6.2-7.7,8.2-5.1,3.2-10.7,5.8-16.6,6.8s-12.3.3-17.4-2.9c7,6.6,11.4,15.9,12,25.5.9-5.4,3.1-10.6,6.6-14.8,2-2.4,4.4-4.4,6.9-6.2,11.6-8.4,25.8-12.1,40-14.1s28.5-2.3,42.6-4.5c11.2-1.8,22.4-4.9,32-10.6h-99.9c1,4.3,2.9,8.5,1.6,12.6h0Z"/>
    <path class="st9" d="M576.3,497.1c1.6-3.6,4.9-6,8.4-7.8,9-4.6,19.8-5.6,29.6-2.8-1.5-4.4-1.3-9.4.4-13.8-6.8,4.1-14.1,8.3-22.1,8.3-11.6,0-21.2-8.4-32.1-12.2-6.2-2.2-13.5-3.2-17.4-8.6-2.8-4-2.8-9.5-1.1-14,1.8-4.6,5-8.4,8.5-11.9,2.3-2.4,4.9-4.7,7.7-6.6h-64.2c.2,0,.3.1.5.2,6.2,2.3,12.5,4.9,17.5,9.2,5,4.3,8.7,10.7,8.3,17.3-.2,2.8-1.1,5.5-2.1,8.1-2.9,7-7.2,13.5-12.6,18.9,2-1.2,4-2.5,6-3.7,1.6.9,2.7,2.7,2.7,4.5,6.9-3.5,14.2-6.1,21.7-7.8,6-1.4,12.5-2.1,18.4-.2s11.2,6.7,12,12.8c.7,5.5-2.5,11.1-6.9,14.4-1.7,1.3-3.6,2.3-5.1,3.8-1.5,1.5-2.7,3.6-2.3,5.7,1.2-2.4,4.5-3,7.2-2.3,2.2.6,4,2,5.9,3.2h12.6c-1.9-4.9-3.5-10.2-1.4-14.9h0Z"/>
    <path class="st9" d="M613.3,442c2.3,2.7,4.8,5.9,4,9.4.6-3.7,2.9-6.9,5.7-9.3,2.8-2.5,6.1-4.2,9.4-5.9,2.8-1.5,5.7-3,8.7-3.8,4.2-1.2,8.7-1.3,13.1-1.4,9.1-.2,18.3-.3,27.4-.5,5.3-.1,10.6-.2,15.9-1.1,2.1-.4,4.2-.9,6.2-1.5h-108.5c1.9.8,3.8,1.6,5.5,2.7,4.9,3,8.9,7.2,12.7,11.6h0Z"/>
    <path class="st9" d="M756.5,509.2c-6.3.5-13,.4-18.3-3-3.1-2-5.4-4.9-7.5-7.9-1.3-1.8-2.5-3.7-3.1-5.8-1.9-6.6,2.3-13.2,6.3-18.7-5.8,1.9-10.2,6.8-13.6,11.8-3.4,5.1-6.3,10.6-10.6,14.9-7.7,7.6-19,10.4-29.8,11.4h107.6c.8-3.8,2.7-7.5,5.3-10.4-11.7,4.1-24,6.7-36.4,7.6h0Z"/>
    <path class="st9" d="M651.3,510.6c-12.8-3.1-24.5-10.6-32.8-20.8,2.2,7.9-.8,16.9-6.9,22.2h47.5c-2.6-.3-5.2-.8-7.8-1.4h0Z"/>
    <path class="st9" d="M709.8,431.4c-1,1.2-.6,3.1.4,4.4s2.5,1.9,3.9,2.6c5.8,2.7,12,6,14.8,11.7-.4-3.9,4.9-6.1,5.8-9.9.7-2.7-.9-6.2,1.1-8.1.7-.7,1.8-1,2.8-1.2,2.3-.6,4.6-1.5,6.8-2.6.3-.1.5-.3.7-.5h-31c-1,.9-2,1.6-3.2,2.2-.8.4-1.6.8-2.1,1.4h0Z"/>
    <path class="st9" d="M828.1,450.5c1.1,6-.6,12.3-3.5,17.7s-6.9,10.1-10.9,14.7c7.9-7.3,21.5-7.1,29.2.4-3-9.9-1.6-21.1,4-29.7s15.4-14.5,25.8-15.1c6-.3,12,1,17.9,2.2,19.3,3.7,39.1,5,58.7,3.7,2-.1,4-.3,5.8.3s3.6,2,4,3.9c-1.2-6.6.6-13.7,4.9-18.9.6-.7,1.2-1.4,1.9-2.1h-159c3.5,1.7,6.9,3.6,10,6,5.5,4.2,10,10,11.1,16.8h0Z"/>
    <path class="st9" d="M848.7,492.8c-1.5,8.3-8,14.3-15.2,19.2h57.9c-14.7-5.1-28.8-12.2-42.7-19.2h0Z"/>
    <path class="st9" d="M1002.5,438.5c4.8,4,8.1,10.6,6.4,16.6-2.1,7.4-10.8,11.3-18.5,10.5-7.7-.8-14.5-5.1-20.9-9.3-3.4,2.2-7.9,1.3-11.8.3,5.6,7.1,7.8,16.8,5.9,25.6,5.1-6.9,12.9-12.4,21.5-12.5s17.4,6.6,17.4,15.2c0,5-2.8,9.7-6.5,13.2-3.7,3.4-8.2,5.8-12.5,8.3-3.6,2-7.2,4.2-11.1,5.5h51.7v-84.3h-30.6c-2.6.9-5.2,1.8-7.9,2.7,6,2,12.1,4,16.9,8Z"/>
    <path class="st9" d="M953.5,496.6c-5,3.4-6.5,10-10.3,14.6-.2.3-.5.5-.7.7h15.4c-1-.5-1.9-1-2.8-1.8-3.9-3.3-5-9.8-1.6-13.6h0Z"/>
  </g>
  <g>
    <path class="st4" d="M1021.2,400c-12.6,3.3-27.1,3.7-40.9,4-11.7.2-23.3.4-35,.6-11.1.2-22.2.4-33.2-.2-12.2-.6-24.4-2.2-36.7-2.4-10.6-.2-22,.5-32.4-.7-4.7-.5-9.5-.6-14.2-.5-.8,0-1.6,0-2.4,0-127.1-9-255.3,1-383.1,4.3-137.2,3.5-274.6-.7-411.8-5.5-18.7.2-30.6.4-31.6.4v34c51.4,10.4,1023.9,4.1,1023.9,4.1v-37.8c0,0,0-.4,0-.4-.4,0-1.4,0-2.9,0h0Z"/>
    <polygon class="st3" points="1024.1 400 1024.1 400.3 1024.1 400 1024.1 400"/>
    <path class="st1" d="M174,429.2c-4,.4-8.1.9-12.1,1.3,8.2.7,16.7,0,24.5-2-4.1-.2-8.3.2-12.4.7h0Z"/>
    <g>
      <path class="st0" d="M135.2,408.7c-12.2-2.5-25.2-2.2-38-2.2s-34.1-.6-51,.9c-16.7,1.5-33.5,5.2-46.1,12.6H0c7.9-2.4,15.9-4.9,24.5-6-.7.6-1.4,1.3-2.1,1.9,1-.2,2-.3,3-.2-1.1.6-2.3,1.2-3.4,1.8,12.9-2.4,26.1-3.9,39.4-4.7-.4-.7-3-.3-2.8-1.1,25.3-2.5,51-3.5,76.5-3h0Z"/>
      <path class="st0" d="M72.3,416.3l-2.4.8c.4.1.8.3,1.2.4-4.3,1.2-8.5,2.6-12.4,4.2,11.5-2,22.9-3.9,34.4-5.8-1,.7-2,1.4-3,2.1,10.1-1.4,20.2-2.7,30.3-3.8-1.1.3-2.1.7-2.9,1.2,7.8-.7,15.5-1.3,23.3-2-7.4-1.8-14.8-3.4-22.2-5,.6.2,1.4-.2,1.2-.6-4.5.3-9.1.6-13.6.9-7.1.5-14.2.9-21.1,2.1-7.9,1.4-15.5,3.8-22.1,6.9,3-.9,6.2-1.4,9.4-1.5h0Z"/>
      <path class="st0" d="M226.5,408.8c-6.7,1.2-13.4,2.8-20.3,3,7.5.4,15.1.7,22.6,1-2.6.6-5.1,1.4-7.4,2.4,10-.8,20.1-1.2,30.2-1.1-1.4.5-2.7,1.2-3.5,2.1,21.1-3,43-3.6,64.5-1.7-2.2-.8-4.5-1.5-6.7-2.2,13.4-.2,26.8.7,39.8,2.8-13.4-5.5-30.2-5.2-45.5-7.6,2.7-.2,5.5-.4,8.2-.6-3.3-.2-6.6-.5-9.9-.6-14.5-.1-29.1-.3-43.7-.5-9.5.5-19,1.4-28.2,3.1h0Z"/>
      <path class="st0" d="M254.7,405.7c14.5.2,29.1.4,43.7.5-14.5-.8-29.2-1.2-43.7-.5Z"/>
      <path class="st0" d="M130,405c-7.7.2-15.7.6-22.3,3.2,3.6-.3,7.2-.2,10.7,0-1,.5-2,.9-3,1.4,2.2-.4,4.5-.5,6.8-.3-2,.6-3.9,1.5-5.5,2.5,10.5-2.8,21.8-4.2,33.1-4-1.5.8-3.4,1-5.1,1.4-1.8.4-3.6,1.1-4,2.3,7.3-1.2,15-1.4,22.4-.5-2.4-1.4-5.1-2.5-8.1-3.3,2.9.3,5.9.5,8.8.8-10.1-3.6-22.2-3.8-33.7-3.5h0Z"/>
      <path class="st0" d="M147.9,414.5c-7.2,1.2-14,3.5-19.6,6.7,8.5-2.4,17.5-3.9,26.6-4.4-.7,0-1.3.3-1.5.7,2.1-.1,4.2-.2,6.3-.3-.2.5-.7.9-1.4,1.2,13.8,1.6,27.8,2.1,41.8,2.6-3.1-.2-6.2-.5-9.3-.7,4-.2,7.9-.8,11.7-1.5-2.3,0-4.6,0-6.9,0,4.7-.2,9.4-.9,13.8-1.9-6.9-.3-13.9-.4-20.9-.4,3.4-.4,6.8-.8,10.1-1.2.7,0,1.5-.2,1.7-.7-9.5.8-19.1,1.1-28.7.9,1.1-.2,2.1-.4,3.2-.6-2-.7-4.1-1.3-6.3-1.7.9,0,1.8-.2,2.6-.5-11.2-.8-23-1.6-33.1,1.6,3.8-.8,7.9-1,11.8-.7-1.7.1-3.4.4-4.9.9,1,0,2,0,2.9,0h0Z"/>
      <path class="st0" d="M158.6,409.2c-2.2-.4-4.5-.5-6.7-.2,2.6-1.7,6.4-2.3,10.1-2.5,6.2-.3,13,.7,17.1,3.8-2.4-.4-4.9-.6-7.4-.8,1.1.5,2.2,1,3.2,1.5-6-.6-12.1-1-18.1-1.1.6-.2,1.2-.5,1.9-.7h0Z"/>
      <path class="st0" d="M327.5,417.5c-1.8,0-3.5.4-5,.9,5.2-.4,10.6-.2,15.7.6-1.3.3-2.6.6-3.9.8,13.2.1,26.4-.6,39.3-2.3-10.8,4.2-23.6,5.1-36.1,5.5-14.4.4-28.9,0-43.2-1-4.5-.3-9.4-.7-13.5.8,2.5-.2,5-.1,7.4.4-16,2.2-32,4.5-48.1,6.7,1.5-1,2.9-2,4.2-3.2-7.9.8-15.7,1.9-23.3,3.2,8.7-4.8,18.9-8.4,29.6-10.5-1.1.7-2.1,1.4-3.2,2.1,3.3-1.5,6.9-2.8,10.7-3.7-1,.7-1.9,1.4-2.8,2.1,4.4-1.9,9-3.6,14-4.8-.7.5-1.5,1-2.2,1.4,7.9-1.4,15.9-2.3,24.1-2.7-1.7.6-3.4,1.3-5.1,1.9,13.8-1.1,28-.5,41.5,1.7h0Z"/>
    </g>
    <g>
      <path class="st0" d="M605.6,415.9c.7-.6,1.4-1.3,2.2-1.9-8.7,1.1-16.8,3.7-24.8,6.1,12.6-7.5,29.6-11.3,46.4-12.8,16.9-1.5,34-.9,51-.9,12.8,0,25.8-.3,38,2.2-25.6-.6-51.2.4-76.5,3-.2.8,2.3.4,2.8,1.1-13.3.8-26.5,2.4-39.4,4.7l3.4-1.8c-1,0-2,0-3,.2h0Z"/>
      <path class="st0" d="M655.5,416.3c-.8.3-1.6.6-2.4.8.4.1.8.3,1.2.4-4.3,1.2-8.5,2.6-12.4,4.2,11.5-2,22.9-3.9,34.4-5.8-1,.7-2,1.4-3,2.1,10-1.4,20.2-2.7,30.3-3.8-1.1.3-2.1.7-2.9,1.2,7.8-.7,15.5-1.3,23.3-2-7.3-1.8-14.8-3.4-22.2-5,.6.2,1.4-.2,1.2-.6-4.5.3-9.1.6-13.6.9-7.1.5-14.2.9-21.1,2.1-7.9,1.4-15.5,3.8-22.1,6.9,3-.9,6.2-1.4,9.4-1.5h0Z"/>
      <path class="st0" d="M928.8,415.1c-13.4-5.5-30.2-5.2-45.5-7.6,2.7-.2,5.5-.4,8.2-.6-27.3-1.9-55.3-2.8-81.8,1.9-6.7,1.2-13.4,2.8-20.3,3,7.5.4,15.1.7,22.6,1-2.6.6-5,1.4-7.4,2.4,10-.8,20.1-1.2,30.2-1.1-1.4.5-2.7,1.2-3.5,2.1,21.1-3,43-3.6,64.5-1.7-2.2-.8-4.5-1.5-6.7-2.2,13.4-.2,26.8.7,39.8,2.8h0Z"/>
      <path class="st0" d="M713.2,405c-7.7.2-15.7.6-22.3,3.2,3.6-.3,7.2-.2,10.7,0-1,.5-2,.9-3,1.4,2.2-.4,4.5-.5,6.8-.3-2,.6-3.9,1.5-5.5,2.5,10.5-2.8,21.8-4.2,33.1-4-1.5.8-3.4,1-5.1,1.4-1.8.4-3.6,1.1-4,2.3,7.3-1.2,15-1.4,22.3-.5-2.4-1.4-5.1-2.5-8.1-3.3,2.9.3,5.9.5,8.8.8-10.1-3.6-22.2-3.8-33.7-3.5h0Z"/>
      <path class="st0" d="M731,414.5c-7.2,1.2-14,3.5-19.6,6.7,8.5-2.4,17.5-3.9,26.6-4.4-.7,0-1.3.3-1.5.7,2.1-.1,4.2-.2,6.3-.3-.2.5-.7.9-1.4,1.2,13.8,1.6,27.8,2.1,41.8,2.6-3.1-.2-6.2-.5-9.3-.7,4-.2,7.9-.8,11.7-1.5-2.3,0-4.6,0-6.9,0,4.7-.2,9.3-.9,13.8-1.9-7-.3-13.9-.4-20.9-.4,3.4-.4,6.8-.8,10.1-1.2.7,0,1.5-.2,1.7-.7-9.5.8-19.1,1.1-28.7.9,1-.2,2.1-.4,3.2-.6-2-.7-4.1-1.3-6.3-1.7.9,0,1.8-.2,2.7-.5-11.2-.8-23-1.6-33.1,1.6,3.8-.8,7.9-1,11.8-.7-1.7.1-3.4.4-4.9.9,1,0,2,0,3,0h0Z"/>
      <path class="st0" d="M741.8,409.2c-2.2-.4-4.5-.5-6.7-.2,2.6-1.7,6.5-2.3,10.1-2.5,6.2-.3,13,.7,17.1,3.8-2.4-.4-4.9-.6-7.4-.8,1.1.5,2.2,1,3.2,1.5-6-.6-12.1-1-18.1-1.1.6-.2,1.2-.5,1.9-.7h0Z"/>
      <path class="st0" d="M910.7,417.5c-1.8,0-3.5.4-5,.9,5.2-.4,10.6-.2,15.7.6-1.3.3-2.6.6-3.9.8,13.2.1,26.4-.6,39.3-2.3-10.8,4.2-23.6,5.1-36.1,5.5-14.4.4-28.9,0-43.2-1-4.5-.3-9.4-.7-13.5.8,2.5-.2,5-.1,7.3.4-16,2.2-32,4.5-48.1,6.7,1.5-1,3-2,4.2-3.2-7.9.8-15.7,1.9-23.3,3.2,8.7-4.8,18.8-8.4,29.7-10.5-1.1.7-2.1,1.4-3.2,2.1,3.3-1.5,7-2.8,10.7-3.7-1,.7-1.9,1.4-2.8,2.1,4.4-1.9,9-3.6,14-4.8-.7.5-1.5,1-2.2,1.4,7.9-1.4,15.9-2.3,24.1-2.7-1.7.6-3.4,1.3-5.1,1.9,13.8-1.1,28-.5,41.5,1.7h0Z"/>
    </g>
    <path class="st8" d="M537.9,428.8c.3,0,.6,0,.9,0-.3,0-.6,0-.9,0Z"/>
    <path class="st0" d="M458.5,405.1c-3.9.4-7.9.7-11.8,1.1,12.7.5,25.4.6,38,.2,3.8-.1,7.8-.3,11.3.6-3.2.5-6.5.9-9.7,1.3,11,0,22.1-.2,33.2-.2,3.4,0,6.8,0,10,.7-10.7,1.1-21.4,2.3-32.1,3.4,4.2,2.7,10,4.2,15.8,4.2-1,.2-1.9.5-2.9.7,1.9.1,3.9.3,5.8.5-1.4.5-2.9.7-4.4.8,2.1,0,4.2.2,6.1.6-2.5.8-5.2,1.3-8,1.5,4.7.9,9.4,1.6,14.2,2-3.8.6-7.5,1.2-11.3,1.9,2.3.5,4.7,1,7,1.5-.6,0-1.2.2-1.9.2,1.4.3,2.9.6,4.3.8-1.1.1-2.1.2-3.2.4,2.8.5,5.8.9,8.7.9-1.2.2-2.4.4-3.6.6,4.9.7,9.9,1,14.9,1-1.1,0-2.2-.2-3.2-.6.6-.3,1.3-.5,2.1-.6-1,0-2-.1-3-.4,4.4-.4,8.7-.7,13.1-1.1-7.4-.8-15-1.3-22.5-1.3,6.4-.7,12.8-1.3,19.2-2-3.4-1.1-7.2-1.6-11-1.4,1.9-.1,3.8-.2,5.7-.3-3.4-.6-6.7-1.3-9.9-2.2,1.6-.7,3.4-1.2,5.3-1.5-1.3-.3-2.8-.3-4.2,0,1.8-.2,3.6-.8,5-1.5-4.6-.6-9.2-1.3-13.8-1.9,19.4-.7,38.8-1.6,58.2-2.6,1.7,0,3.8-.3,4.5-1.4-5.2-.7-10.6-.5-15.9-.4-11.5.1-23-.6-34.3-2.1,16.8-2.5,34.2-1.9,51.4-3.1,4-.3,8.5-.8,10.8-3-8.4-.2-16.8-.3-25.2-.5-9.7-.2-19.3-.4-29-.2-9.4.1-18.7.6-28.1.8-20,.8-40,1.5-60,2.1,1.4.1,2.8.2,4.2.3h0Z"/>
    <g>
      <path class="st0" d="M1024,429.7c-9.4,0-67.8-3.5-67.8-3.5-67.3-1.7-73.5,11.6-143.1,5.4-69.6-6.2-76.5,3.6-128.9-1.1-52.4-4.7-111.5,4.3-162.4,1.1-50.9-3.2-99.8.4-169.4-1.9s-104.3,4.1-183.5,1.1c-78-3-166.2-1.1-168.8-1.1v17.3c1.8.2,47.1,4.5,106.4,3.3,60.6-1.2,100.4-4.3,169.1-6.5,68.6-2.2,143.9-3.1,181.8.9s130.7,3.8,198.1,5c67.4,1.2,68.8-5.1,132.4-5.7s98.3-.9,157.3.7c58.9,1.6,78.9,2.4,78.9,2.4v-17.3h0Z"/>
      <polygon class="st12" points="1024.1 446.8 1024.1 447 1024.1 447 1024.1 446.8"/>
      <path class="st10" d="M0,429.7v17.2h0v-17.3h0Z"/>
    </g>
  </g>
</svg>