<svg width="50" height="50" viewBox="0 0 50 50" fill="none" xmlns="http://www.w3.org/2000/svg">
<g clip-path="url(#clip0_44_208)">
<path d="M27.2774 36.9327C27.5674 36.711 28.2156 36.4892 28.5738 36.3357C28.5568 35.7898 28.335 35.278 28.4715 34.8174C28.7103 33.9986 29.2733 33.6404 29.8192 33.5721C29.8533 33.5892 29.8874 33.6574 29.8533 33.6745C29.5462 33.9645 29.4268 34.3739 29.3756 34.8174C29.3586 34.988 29.3244 35.5168 29.478 35.8921C29.8021 35.7216 30.5868 35.4486 30.8427 35.3974C30.8768 34.8515 30.9621 34.3227 31.1156 33.9304C31.4227 33.1627 32.1051 32.5486 32.7874 32.9068C32.8215 32.9239 32.8557 32.9921 32.8215 33.0092C32.3951 33.1627 32.1221 33.6062 31.8833 34.118C31.8151 34.2715 31.5762 35.0904 31.8492 35.261C31.8492 35.261 31.8662 35.261 31.8662 35.278C32.3609 35.1757 32.4462 35.2268 32.9751 35.1757C33.0604 34.6468 33.2992 34.1862 33.5039 33.8451C33.811 33.248 34.6127 32.7703 35.3292 33.1968C35.3633 33.2139 35.3975 33.2992 35.3463 33.2992C34.8516 33.4015 34.5274 33.7256 34.3569 34.0157C34.2716 34.1521 33.811 34.7833 34.0498 35.0392C34.0668 35.0392 34.101 35.0392 34.1351 35.0392C34.5616 35.0221 34.8686 35.1074 35.3122 35.1927C35.4486 34.8686 35.568 34.8345 35.7045 34.6639C36.1992 34.0668 37.0351 33.8621 37.3251 34.4251C37.3592 34.4592 37.3592 34.5274 37.3251 34.5274C37.0692 34.5615 36.6428 34.698 36.4381 34.9539C36.3869 35.0051 36.2504 35.1586 36.1139 35.4486C36.6939 35.8921 37.0181 36.2504 37.1716 36.8475C37.2057 36.9498 37.2569 37.5639 37.0522 37.2569C36.1139 36.0798 34.8516 35.8239 32.958 36.0116C30.928 36.1992 29.9897 36.5063 27.9597 37.598C29.0856 38.6045 27.3968 39.594 27.1238 38.1098C26.1344 39.611 25.0938 37.7175 26.4244 37.4445C25.0597 36.1139 26.9191 35.4998 27.2774 36.9327Z" fill="#7B00FF"/>
<path d="M30.7404 30.4503C31.4739 30.2115 32.2757 29.9556 32.6851 29.8703C32.7533 28.6762 33.8792 27.1921 35.2098 27.7038C35.261 27.7209 35.2951 27.7891 35.2439 27.8062C34.9028 27.9085 33.811 28.9491 34.1863 29.6144C34.4592 29.6315 35.2098 29.6144 35.4316 29.6315C35.7216 28.318 36.8645 27.3968 38.161 27.9938C38.2122 28.0109 38.2463 28.0962 38.1951 28.0962C37.6834 28.1815 36.5234 29.0003 36.6598 29.6997C36.8987 29.7168 37.5469 29.9386 37.9563 30.1603C38.1099 29.8362 38.2804 29.7168 38.434 29.5462C38.9969 28.9491 40.1569 28.898 40.4981 29.478C40.5322 29.5121 40.5322 29.5803 40.4981 29.5803C40.0034 29.5633 39.5599 29.6315 39.1334 30.0068C39.0652 30.058 38.9287 30.2627 38.7752 30.5527C39.1846 30.7745 39.6452 31.2009 39.7305 31.6104C39.7987 31.8151 39.8328 31.9857 39.7987 32.1904C39.7816 32.2415 39.6793 32.1904 39.6452 32.1562C38.5704 30.9792 36.1992 30.2456 33.8963 30.5356C32.361 30.7233 30.8598 31.1498 29.6145 31.6956C30.0409 31.3203 30.4162 30.9109 30.7404 30.4503ZM27.3627 33.1115C27.2603 33.2139 27.158 33.2992 27.0727 33.4016C27.6186 34.1521 26.7485 34.7492 26.4927 33.9986C25.8444 34.698 25.3326 33.8792 25.7591 33.538C26.305 33.4527 26.8509 33.3163 27.3627 33.1115Z" fill="#7B00FF"/>
<path d="M26.9874 43.1764C27.1409 43.0058 27.5162 42.6817 27.7038 42.5281C27.1238 41.624 27.4479 40.464 28.0109 40.3787C28.045 40.3958 28.0621 40.4469 28.045 40.4811C27.8915 40.7028 27.8232 41.897 28.2668 42.1528C28.4885 41.9993 28.915 41.6923 29.1027 41.6411C28.7786 40.5493 29.3415 39.0822 30.4333 39.321C30.4674 39.3381 30.4845 39.4063 30.4674 39.4234C29.5803 39.884 29.5633 41.2487 29.8021 41.4022C30.1603 41.2999 30.5527 41.1464 30.945 41.1122C31.1156 39.6622 32.3951 39.014 33.0433 39.3893C33.0774 39.4063 33.0945 39.4916 33.0774 39.4916C32.7192 39.2869 31.3715 40.6687 31.8151 41.0781C32.1221 41.0611 32.4804 41.1975 32.8386 41.2828C32.9921 40.4811 34.118 39.8158 34.5957 40.3275C34.6298 40.3616 34.6298 40.4299 34.6127 40.4299C34.1863 40.5152 33.6233 40.9075 33.538 41.6581C34.4422 42.0846 34.3398 42.9717 34.1863 42.7329C33.3333 41.607 31.5251 41.7946 30.1433 42.0846C29.3415 42.2552 28.2156 43.0229 27.738 43.5687C29.188 44.2511 27.8744 45.5305 27.2603 44.0805C26.2538 45.8547 25.2644 44.234 26.4415 43.7564C25.0085 42.6476 26.4926 41.897 26.9874 43.1764Z" fill="#7B00FF"/>
<path d="M12.3848 41.8288C10.9519 40.174 9.74067 38.3828 8.76831 36.5746H24.4626V41.8288H12.3848Z" fill="#7B00FF"/>
<path d="M32.0198 16.1549H43.5517V20.6755H32.0198V16.1549Z" fill="#7B00FF"/>
<path d="M43.5517 9.29712L40.1399 8.08593L36.1651 7.28416L31.6957 6.31179L27.5503 5.98767H24.3944V10.7471H43.5346L43.5517 9.29712Z" fill="#7B00FF"/>
<path d="M8.0348 3.95766C8.49539 3.80413 8.95598 3.66765 9.43364 3.53118C9.60423 3.48 9.77482 3.42883 9.96247 3.39471C10.1501 3.36059 10.3378 3.34353 10.5254 3.39471L10.5936 3.42883C10.6619 3.46295 10.696 3.51412 10.7301 3.58236C10.7813 3.70177 10.7984 3.82119 10.8154 3.95766C10.8495 4.2306 10.8495 4.50355 10.8154 4.77649C10.7984 4.99826 10.7642 5.22003 10.6789 5.40767C10.6448 5.49297 10.5936 5.56121 10.5254 5.62944C10.4742 5.68062 10.4231 5.7318 10.3719 5.76591C10.2525 5.85121 10.1501 5.91944 10.0136 5.97062C9.70658 6.10709 9.39952 6.20945 9.0754 6.3118C8.52951 6.49945 7.98362 6.6871 7.43773 6.87475V7.88123C7.16479 7.98359 6.89184 8.103 6.6189 8.20535V4.41825C7.09655 4.26472 7.55714 4.11119 8.0348 3.95766ZM7.43773 6.19239C7.98362 6.00474 8.52951 5.81709 9.09245 5.62944C9.26305 5.57826 9.43364 5.52709 9.58717 5.45885L9.70658 5.39062L9.75776 5.3565L9.80893 5.30532L9.86011 5.25414L9.89423 5.20297L9.94541 5.10061C9.96247 5.03238 9.97952 4.9812 9.97952 4.91296C9.99658 4.74237 9.99658 4.58884 9.94541 4.41825L9.91129 4.33296L9.87717 4.26472L9.82599 4.21354L9.75776 4.17942L9.68952 4.16237H9.62129H9.55305C9.38246 4.17942 9.22893 4.2306 9.05834 4.28178C8.51245 4.45237 7.96656 4.64002 7.42067 4.81061L7.43773 6.19239ZM14.3808 2.2347C14.7561 2.16646 15.1143 2.09822 15.4896 2.06411C15.609 2.04705 15.7284 2.04705 15.8478 2.04705C15.899 2.04705 15.9672 2.06411 16.0184 2.08116C16.0696 2.09822 16.1037 2.11528 16.1549 2.1494C16.189 2.18352 16.2231 2.20058 16.2572 2.2347C16.2914 2.26881 16.3084 2.31999 16.3255 2.35411C16.3596 2.42235 16.3767 2.47352 16.3767 2.54176C16.4108 2.76353 16.4278 3.00235 16.4449 3.24118C16.462 3.51412 16.462 3.77001 16.4449 4.02589C16.4449 4.12825 16.4449 4.24766 16.4278 4.35001C16.4108 4.55472 16.4108 4.75943 16.3596 4.96414C16.3425 5.01532 16.3255 5.06649 16.3084 5.10061C16.2743 5.16885 16.2402 5.23708 16.189 5.30532L16.0867 5.45885L15.9331 5.56121C15.8649 5.59532 15.8137 5.61238 15.7455 5.6465C15.4725 5.7318 15.1996 5.78297 14.9266 5.85121C14.3637 5.97062 13.8007 6.07298 13.2378 6.19239C12.9649 6.24357 12.6919 6.29474 12.419 6.32886C12.3507 6.34592 12.2654 6.34592 12.1972 6.34592L12.0266 6.32886C11.9754 6.3118 11.9413 6.29474 11.9072 6.27768L11.8219 6.20945L11.7537 6.10709L11.6513 5.54415V4.02589C11.6684 3.8553 11.6854 3.66765 11.7195 3.49706L11.7707 3.34353C11.8048 3.25824 11.839 3.19 11.8901 3.12177L12.0095 2.98529L12.1119 2.9C12.2143 2.83176 12.3337 2.76353 12.4701 2.71235L13.0843 2.5247C13.4766 2.40529 13.9202 2.31999 14.3808 2.2347ZM13.9543 3.00235L13.0672 3.20706C12.999 3.22412 12.9307 3.25824 12.8625 3.2753L12.7943 3.32647L12.726 3.37765L12.6749 3.42883L12.6237 3.48L12.5725 3.53118L12.5384 3.59942C12.5043 3.65059 12.4872 3.71883 12.4701 3.77001C12.419 3.99178 12.419 4.21354 12.419 4.43531C12.419 4.67414 12.419 4.91296 12.4531 5.13473L12.4872 5.22003L12.5384 5.30532L12.6066 5.37356L12.6749 5.42473L12.7601 5.45885L12.8454 5.47591H12.9478C13.016 5.47591 13.0672 5.47591 13.1184 5.45885C13.4596 5.40767 13.8007 5.33944 14.1419 5.2712C14.4149 5.22003 14.7049 5.15179 14.9778 5.08355C15.029 5.06649 15.0972 5.04943 15.1484 5.03238L15.2337 4.9812L15.319 4.93002L15.3872 4.86179L15.4555 4.79355L15.5066 4.70825L15.5408 4.62296L15.5749 4.53766C15.6261 4.28178 15.609 4.04295 15.609 3.78707C15.609 3.65059 15.609 3.51412 15.5919 3.39471L15.5749 3.29236C15.5578 3.22412 15.5408 3.15588 15.5066 3.08765L15.4725 3.01941L15.4384 2.96823L15.3872 2.91706L15.3531 2.9L15.2849 2.86588L15.2166 2.84882L15.0802 2.83176C14.9266 2.83176 14.7902 2.84882 14.6537 2.86588C14.4149 2.91706 14.176 2.96823 13.9543 3.00235ZM19.5838 1.60351C20.0102 1.56939 20.4367 1.53528 20.8632 1.53528C20.9485 1.53528 21.0508 1.53528 21.1361 1.53528C21.2385 1.53528 21.3238 1.55233 21.4091 1.60351C21.4432 1.62057 21.4773 1.63763 21.4944 1.65469C21.5626 1.70587 21.6138 1.75704 21.6479 1.84234C21.682 1.89352 21.6991 1.96175 21.7161 2.01293C21.7503 2.1494 21.7502 2.30293 21.7502 2.4394C21.7502 2.62705 21.7503 2.79764 21.7332 2.98529C21.7332 3.05353 21.7161 3.12177 21.6991 3.19L21.665 3.25824C21.6308 3.30941 21.6138 3.34353 21.5797 3.39471L21.4944 3.46295C21.4602 3.48 21.4261 3.51412 21.375 3.53118C21.3238 3.54824 21.2555 3.5653 21.2044 3.58236L20.7438 3.68471L21.2044 3.9406C21.2726 3.99178 21.3238 4.02589 21.375 4.07707L21.4261 4.14531C21.4944 4.24766 21.5455 4.35001 21.5967 4.46943C21.665 4.67414 21.6991 4.87884 21.6991 5.08355C21.4261 5.10061 21.1532 5.10061 20.8802 5.11767C20.8632 4.96414 20.8461 4.82767 20.7949 4.67414L20.7267 4.50355L20.6926 4.41825L20.6414 4.35001L20.5902 4.28178L20.522 4.2306L20.4367 4.17942C20.3855 4.16237 20.3344 4.14531 20.2832 4.14531C20.1808 4.12825 20.0614 4.14531 19.9591 4.14531C19.4302 4.17942 18.9185 4.2306 18.3896 4.28178L18.1849 4.29884V5.30532C17.912 5.33944 17.639 5.37356 17.3661 5.39062V1.80822C18.1167 1.72293 18.8502 1.65469 19.5838 1.60351ZM18.202 3.68471C18.7479 3.63354 19.2938 3.58236 19.8396 3.54824C20.0273 3.53118 20.2149 3.51412 20.4026 3.49706C20.4538 3.49706 20.5049 3.48 20.5561 3.46295L20.6244 3.44589L20.6926 3.41177L20.7438 3.37765L20.7949 3.32647L20.8291 3.2753L20.8632 3.22412C20.8802 3.17294 20.8973 3.13882 20.8973 3.08765C20.9144 2.93412 20.9144 2.78058 20.9144 2.62705C20.9144 2.57588 20.8973 2.5247 20.8802 2.45646L20.8461 2.40529L20.812 2.35411L20.7608 2.30293L20.7097 2.26881L20.6585 2.2347L20.5902 2.21764C20.5391 2.20058 20.4879 2.20058 20.4367 2.20058C20.1638 2.20058 19.8908 2.2347 19.6349 2.25175C19.1573 2.28587 18.6967 2.33705 18.219 2.37117L18.202 3.68471ZM24.002 4.5206C24.3091 4.5206 24.6162 4.5206 24.9403 4.5206C25.145 4.5206 25.3668 4.52061 25.5885 4.50355C25.6397 4.50355 25.6738 4.48649 25.725 4.48649C25.7762 4.46943 25.8103 4.45237 25.8444 4.43531L25.8956 4.40119L25.9297 4.35001L25.9638 4.29884L25.9809 4.24766L25.9979 4.12825V3.95766L25.9638 3.77001L25.9468 3.71883L25.9297 3.66765L25.8956 3.61648L25.8444 3.58236L25.7932 3.54824L25.6738 3.51412L25.4691 3.48H25.2132H23.4903C23.3197 3.48 23.1491 3.48 22.9956 3.44589C22.9444 3.42883 22.9103 3.42883 22.8761 3.41177L22.825 3.37765L22.7738 3.34353L22.7397 3.30941L22.7056 3.25824L22.6714 3.20706C22.6373 3.13882 22.6032 3.07059 22.5861 3.00235C22.552 2.8147 22.552 2.60999 22.552 2.42235C22.552 2.18352 22.5691 1.94469 22.6714 1.72293C22.6885 1.68881 22.7226 1.65469 22.7397 1.62057C22.8591 1.51822 23.0126 1.46704 23.1661 1.43292C23.3197 1.3988 23.4903 1.3988 23.6438 1.3988C24.0191 1.3988 24.3944 1.3988 24.7697 1.3988C25.3838 1.3988 26.015 1.41586 26.6291 1.43292V1.97881C25.8103 1.96175 24.9915 1.94469 24.1726 1.94469C23.985 1.94469 23.7973 1.94469 23.6097 1.96175C23.5756 1.96175 23.5244 1.97881 23.4903 1.97881L23.422 2.01293L23.3709 2.06411L23.3367 2.13234L23.3197 2.20058L23.3026 2.31999C23.3026 2.42235 23.3026 2.50764 23.3026 2.60999L23.3197 2.67823L23.3367 2.74647L23.3879 2.8147L23.4732 2.86588L23.5585 2.88294C24.4115 2.9 25.2815 2.91706 26.1344 2.95117L26.2368 2.96823C26.3732 3.00235 26.5097 3.05353 26.6121 3.15588C26.6632 3.20706 26.6974 3.25824 26.7144 3.30941C26.7997 3.49706 26.8168 3.71883 26.8168 3.92354C26.8168 4.16237 26.8168 4.40119 26.7485 4.62296C26.7315 4.65708 26.7315 4.6912 26.7144 4.72531L26.6632 4.79355C26.6291 4.84473 26.595 4.87884 26.5438 4.91296C26.4585 4.96414 26.3732 5.01532 26.288 5.03238C26.1515 5.06649 25.9979 5.06649 25.8615 5.08355C25.435 5.10061 25.0256 5.10061 24.5991 5.10061C23.9338 5.10061 23.2685 5.11767 22.6203 5.11767C22.6203 4.93002 22.6203 4.72531 22.6203 4.53766C23.0638 4.52061 23.5073 4.5206 23.9509 4.5206H24.002ZM29.6486 5.2712C29.3074 5.23708 28.9492 5.22002 28.608 5.16885C28.4544 5.15179 28.3009 5.11767 28.1644 5.06649C28.0962 5.03238 28.028 5.01532 27.9597 4.96414C27.9086 4.93002 27.8744 4.8959 27.8233 4.86179C27.7891 4.82767 27.755 4.77649 27.7209 4.74237C27.6868 4.6912 27.6697 4.64002 27.6527 4.58884C27.6015 4.40119 27.5844 4.19648 27.5844 3.99178C27.5674 3.49706 27.5674 3.01941 27.5844 2.5247V2.40529C27.6015 2.18352 27.6186 1.96175 27.755 1.7741C27.8062 1.72293 27.8403 1.67175 27.9086 1.63763C28.0791 1.55234 28.2839 1.51822 28.4715 1.50116C28.6762 1.4841 28.8639 1.4841 29.0686 1.50116C29.4609 1.51822 29.8703 1.53528 30.2627 1.56939C30.8427 1.62057 31.4057 1.67175 31.9857 1.73998V2.38823C31.218 2.31999 30.4674 2.25175 29.6998 2.20058C29.4609 2.18352 29.205 2.16646 28.9492 2.18352L28.8297 2.20058L28.7444 2.21764L28.6762 2.25175L28.608 2.30293L28.5397 2.37117L28.4886 2.4394L28.4544 2.5247C28.4374 2.57588 28.4203 2.62705 28.4203 2.67823C28.3862 2.91706 28.3692 3.17294 28.3862 3.42883C28.3862 3.63354 28.3862 3.83824 28.4203 4.04295C28.4374 4.09413 28.4374 4.14531 28.4544 4.19648L28.4886 4.28178L28.5397 4.35001L28.608 4.41825L28.6762 4.46943L28.7444 4.50355L28.8297 4.53766C28.898 4.55472 28.9662 4.57178 29.0345 4.57178C29.2562 4.6059 29.495 4.62296 29.7168 4.64002C30.4845 4.70825 31.2692 4.77649 32.0368 4.86179C32.0368 5.06649 32.0368 5.25414 32.0368 5.45885V5.52709C31.5592 5.47591 31.0645 5.42473 30.5868 5.39062C30.2968 5.32238 29.9727 5.30532 29.6486 5.2712ZM34.8686 3.65059C35.4998 3.77001 36.131 3.88942 36.7622 4.00883V2.55882C37.0522 2.62705 37.3422 2.69529 37.6493 2.74647V6.48239C37.3593 6.41416 37.0693 6.34592 36.7622 6.27768V4.81061C36.2504 4.70825 35.7557 4.6059 35.2439 4.50355C34.7833 4.41825 34.3057 4.33296 33.8451 4.24766V5.69768C33.5551 5.6465 33.2651 5.61238 32.958 5.56121V1.92763C33.248 1.96175 33.5551 1.99587 33.8451 2.04705V3.48C34.1863 3.53118 34.5275 3.58236 34.8686 3.65059ZM41.5728 3.88942C41.8799 3.99178 42.187 4.09413 42.5111 4.19648V4.81061C41.607 4.50355 40.6858 4.21354 39.7646 3.92354L39.4575 3.83824V4.77649C40.1228 4.9812 40.8052 5.18591 41.4705 5.40767C41.7605 5.51003 42.0675 5.59532 42.3576 5.69768V6.24357C41.5046 5.95356 40.6346 5.68062 39.7646 5.42473L39.4575 5.33944V6.32886C40.1058 6.51651 40.754 6.72122 41.3852 6.92593C41.7605 7.04534 42.1358 7.18181 42.5281 7.30123V7.93241C41.2999 7.52299 40.0546 7.14769 38.7922 6.78945L38.6557 6.75534V3.00235C39.6281 3.2753 40.6005 3.58236 41.5728 3.88942Z" fill="#7B00FF"/>
<path d="M6.56773 31.3374C6.02185 29.5121 5.73184 27.8062 5.71478 26.3391H17.1443C17.1784 28.2668 17.9802 30.0409 19.2426 31.3374H6.56773Z" fill="#7B00FF"/>
<path d="M5.203 3.78711L5.42477 3.70181C11.8048 1.34767 18.1679 0.119416 24.5479 2.62824e-06C30.928 -0.102352 37.291 0.904131 43.6711 3.05357L43.9099 3.13886V3.37769C43.8587 11.0372 43.8076 18.6967 43.7564 26.3562C43.7393 30.3139 41.6581 35.8751 37.7346 40.737C34.5786 44.6605 30.2115 48.1406 24.7526 49.9829H24.565C19.0549 48.567 14.7049 45.2235 11.5319 41.317C7.47185 36.2845 5.39065 30.2798 5.37359 26.2027C5.33948 22.5009 5.32242 18.799 5.2883 15.1143L5.203 3.78711ZM12.6407 41.624H24.2409V36.9669H9.3654C9.31423 36.8816 9.26305 36.7963 9.22893 36.711C10.0307 38.144 10.969 39.5599 12.0437 40.9075C12.2484 41.1464 12.436 41.3852 12.6407 41.624ZM24.2579 42.204H13.1696C16.0355 45.3429 19.7373 47.9529 24.2579 49.2153V42.204ZM12.9307 41.9481C12.9137 41.9311 12.9137 41.9311 12.9137 41.914C12.9137 41.9311 12.9307 41.9481 12.9307 41.9481ZM9.04128 36.3698H24.2579V33.6233C24.3773 33.6233 24.4968 33.6233 24.6162 33.6233C24.7015 33.6233 24.7697 33.6233 24.855 33.6233V49.2323C24.8379 49.2323 24.8209 49.2494 24.8209 49.2494C30.0068 47.4411 34.1692 44.0976 37.2057 40.3275C40.9758 35.6534 42.9887 30.3309 43.074 26.5097C43.074 26.5268 43.074 26.5268 43.074 26.5438H32.1051C32.1051 26.4244 32.1221 26.305 32.1221 26.1856V25.9468H43.0911C43.1082 24.3091 43.1082 22.6714 43.1252 21.0508H32.1221V20.4708H43.1252C43.1423 19.1402 43.1423 17.8267 43.1593 16.5131H32.1221V15.9331H32.0368V15.9161H43.1593C43.1764 14.3125 43.1764 12.726 43.1934 11.1225H24.6844V15.9331H24.0873V6.26066C18.0143 6.36302 11.9243 7.57421 5.81713 9.94541L5.80007 9.33129C12.0778 6.90891 18.3555 5.71478 24.6162 5.6636C30.8257 5.61242 37.0181 6.68714 43.1934 8.81952C43.1934 9.02423 43.1934 9.22893 43.1934 9.43364C43.2105 7.48891 43.2276 5.54419 43.2276 3.61652C37.001 1.55237 30.7745 0.580009 24.565 0.682364C18.2532 0.784718 11.9584 1.99591 5.6636 4.33299L5.97066 15.1143C6.00478 18.7308 6.02184 22.3473 6.05595 25.9809C6.05595 25.9809 6.05595 25.9809 6.05595 25.9638H17.1614V26.2027C17.1614 26.3221 17.1614 26.4415 17.1784 26.5609H6.0389C6.07301 27.9256 6.36302 29.5121 6.85773 31.1839C6.85773 31.1668 6.84067 31.1498 6.84067 31.1327H19.0208C19.1232 31.2521 19.2255 31.3715 19.3449 31.4739L19.7202 31.7298H7.02832C7.52303 33.231 8.18833 34.8004 9.04128 36.3698ZM6.9942 31.6104C6.97714 31.5763 6.97714 31.5421 6.96008 31.5251C6.97714 31.5592 6.9942 31.5763 6.9942 31.6104ZM6.92596 31.3886C6.90891 31.3545 6.90891 31.3204 6.89185 31.2863C6.90891 31.3204 6.92596 31.3545 6.92596 31.3886ZM43.057 26.2027V26.2197C43.057 26.2197 43.057 26.2197 43.057 26.2027ZM43.057 26.305V26.3221C43.057 26.3221 43.057 26.3221 43.057 26.305ZM43.057 26.305C43.057 26.288 43.057 26.288 43.057 26.288V26.305ZM43.057 26.2538C43.057 26.2368 43.057 26.2368 43.057 26.2368V26.2538ZM43.057 25.998C43.057 25.9809 43.057 25.9809 43.057 25.9809V25.998ZM24.6844 10.5425H43.1764C43.1764 10.6448 43.1764 10.7301 43.1764 10.8325C43.1764 10.3719 43.1764 9.9113 43.1764 9.4507C37.0181 7.30127 30.8598 6.22655 24.6844 6.26066V10.5425ZM24.6503 49.3006C24.6332 49.3006 24.6332 49.3006 24.6162 49.3176C24.6332 49.3176 24.6332 49.3176 24.6503 49.3006ZM24.4115 49.2665C24.3603 49.2494 24.3262 49.2494 24.275 49.2323C24.3262 49.2323 24.3773 49.2494 24.4115 49.2665Z" fill="#7B00FF"/>
<path d="M8.46127 13.2208C8.78539 13.016 9.12657 12.8113 9.46775 12.6408C9.41657 12.1119 9.36539 11.2931 9.50187 10.8496C9.75775 10.0307 10.5083 9.36542 11.3954 9.51895C11.4466 9.53601 11.4807 9.58719 11.4466 9.60424C10.9519 9.86013 10.5595 10.2525 10.3378 10.7984C10.2695 10.9519 10.0307 12.0437 10.3889 12.129C10.4231 12.146 10.4572 12.146 10.5083 12.146C11.1566 11.8731 11.8219 11.6343 12.5043 11.4296C12.5043 10.9007 12.5213 10.1672 12.709 9.77483C13.0501 9.00718 13.9031 8.44423 14.8243 8.71717C14.8755 8.73423 14.9096 8.80247 14.8755 8.81953C14.3296 9.00718 13.886 9.3313 13.596 9.84307C13.5107 9.9966 13.1525 11.0372 13.5278 11.1737H13.5449C14.176 11.0372 14.8243 10.9178 15.5237 10.8325C15.609 10.3037 15.7455 9.6213 15.9843 9.26306C16.4961 8.51247 17.5196 8.0007 18.4749 8.35894C18.5261 8.37599 18.5602 8.44423 18.509 8.46129C17.8778 8.61482 17.332 8.90482 16.9396 9.39954C16.8372 9.53601 16.3084 10.4913 16.6155 10.7131C16.6496 10.7131 16.6837 10.7131 16.7178 10.696C17.2637 10.6448 17.8949 10.6278 18.492 10.6619C18.6455 10.3378 18.799 10.0478 18.9696 9.86013C19.5667 9.246 20.8802 9.02424 21.2726 9.55307C21.3067 9.58719 21.3238 9.65542 21.2726 9.65542C20.7096 9.67248 20.1296 9.75778 19.7032 10.1501C19.6349 10.2184 19.3961 10.4572 19.2596 10.7301C20.1638 10.8837 20.9314 11.1907 21.1702 11.7707C21.2555 11.9584 21.3067 12.129 21.2726 12.3337C21.2726 12.3849 21.1532 12.3507 21.1191 12.2996C19.9761 11.2419 18.1508 11.1225 15.7113 11.549C13.2378 11.9754 11.1737 12.709 8.95598 13.7666C9.84305 14.7731 8.44421 15.5408 7.98361 14.4831C6.90889 15.7626 5.91947 13.9031 7.38655 13.6814C6.55065 12.3849 8.2395 12.3337 8.46127 13.2208Z" fill="#7B00FF"/>
<path d="M8.76833 23.422C9.05834 23.2002 9.43363 23.0126 9.7407 22.8249C9.43363 22.3302 9.24599 21.6137 9.3654 21.1531C9.57011 20.3343 10.0819 19.942 10.7131 19.9761C10.7642 19.9761 10.7984 20.0443 10.7642 20.0614C10.3207 20.3514 10.2525 20.7267 10.116 21.2896C10.0478 21.5967 10.2183 22.1085 10.4401 22.2961C11.0031 21.989 10.986 22.0402 11.5831 21.8184C11.4125 21.2896 11.4466 20.5731 11.6684 20.1296C12.0095 19.4131 12.5725 19.1402 13.1354 19.2596C13.1866 19.2767 13.2207 19.3278 13.1696 19.3449C12.726 19.5325 11.8219 20.249 12.419 21.5967C12.9649 21.409 12.999 21.3749 13.6984 21.2214C13.7496 20.6926 13.7666 20.0614 13.9713 19.6861C14.3978 18.9184 15.4043 18.5602 15.8649 18.7478C15.9161 18.7649 15.9502 18.8331 15.899 18.8502C15.6431 19.0208 15.3019 19.1572 14.9608 19.669C14.7731 19.942 14.449 20.5731 14.5343 20.9996C15.029 20.9314 15.6772 20.8973 16.2402 20.9143C16.3596 20.5902 16.5984 20.1978 16.752 20.0102C16.8543 19.8908 16.9908 19.7884 17.1273 19.7372V21.6479C16.189 21.5967 15.1484 21.699 14.159 21.9379C11.9243 22.4667 11.3442 22.8761 9.34834 23.9508C10.5425 24.7014 9.38246 25.8444 8.64892 24.7185C7.35243 26.2026 6.51654 24.292 7.8642 24.002C6.84066 22.7567 8.51245 22.0914 8.76833 23.422Z" fill="#7B00FF"/>
<path d="M8.18836 18.3384C8.52954 18.1337 8.99013 17.9802 9.33131 17.8096C9.29719 17.2808 9.22896 16.8031 9.38249 16.3596C9.65543 15.5578 10.0819 15.1484 10.7643 15.2166C10.8154 15.2337 10.8496 15.2848 10.8154 15.319C10.3207 15.5749 10.4401 15.916 10.2184 16.4449C10.1501 16.5984 9.97955 17.2466 10.3378 17.349C10.3719 17.366 10.406 17.3661 10.4572 17.3661C11.1055 17.1102 10.8666 17.1272 11.5319 16.9566C11.549 16.4449 11.5831 15.7454 11.7537 15.3701C12.1119 14.6366 12.7772 14.2784 13.3914 14.4319C13.4425 14.449 13.5449 14.5684 13.4937 14.5854C12.999 14.739 12.1461 15.7454 12.5043 16.5302C12.9308 16.4619 13.2208 16.3254 13.9884 16.2231C14.0908 15.6943 14.2614 15.1654 14.5173 14.8072C15.0461 14.0737 15.8649 13.9201 16.3426 14.1419C16.3937 14.159 16.462 14.2954 16.4108 14.3125C15.7796 14.449 15.7626 14.3807 15.3531 14.8754C15.1314 15.1313 14.6878 15.8307 15.012 16.1549C15.5579 16.1207 15.9332 16.0525 16.5302 16.1037C16.6838 15.7966 16.8032 15.3701 16.9738 15.1996C17.5708 14.5854 18.6114 14.5343 18.9526 14.9437C18.9867 14.9778 19.0038 15.046 18.9526 15.046C18.3897 15.0631 18.1849 15.2166 17.7414 15.609C17.6902 15.6431 17.5879 15.7796 17.4685 15.9502H17.1443V17.0078C16.2232 16.9225 15.2167 16.9566 14.2784 17.0931C11.8049 17.4684 10.9007 18.0314 8.85366 19.0208C9.72367 20.0443 8.30777 20.7608 7.88129 19.6861C6.78952 20.9484 5.81715 19.0549 7.31835 18.8672C6.48246 17.5196 7.94953 17.1613 8.18836 18.3384Z" fill="#7B00FF"/>
<path d="M31.7468 16.2913V26.2026C31.7468 30.1092 28.5568 33.2821 24.6162 33.2821C20.6926 33.2821 17.4855 30.1092 17.4855 26.2026V16.2913H31.7468ZM32.088 15.9331H17.1273V26.1856C17.1273 30.2627 20.4879 33.6233 24.5991 33.6233C28.7274 33.6233 32.071 30.2627 32.071 26.1856L32.088 15.9331Z" fill="#7B00FF"/>
<path d="M24.292 23.2003C24.3603 23.2685 24.5138 23.1832 24.565 23.115C24.6844 22.9273 24.6673 22.6885 24.6844 22.4497C24.7014 22.1938 24.7014 21.972 24.6162 21.7332C24.4797 21.3238 24.292 20.9997 23.8314 20.9314C23.7803 20.9144 23.6779 21.0167 23.712 21.0508C24.0191 21.375 24.1385 21.3579 24.2238 21.8526C24.3091 22.3303 24.2579 23.1662 24.292 23.2003ZM21.0679 29.1539C21.1361 29.1709 21.2896 28.9662 21.3408 28.8468C21.392 28.7445 21.3749 28.5397 21.3749 28.5227C21.3579 28.4886 21.1873 28.5568 21.102 28.5568C21.0167 28.5568 20.9485 28.5397 20.829 28.5227C20.7096 28.5056 20.7267 28.2327 20.7096 28.0792C20.6755 27.6868 20.6585 27.2944 20.6755 26.9021C20.6755 26.7997 20.7096 26.6632 20.7949 26.595C20.9143 26.5268 21.0849 26.5438 21.2214 26.5609C21.4943 26.6121 21.7502 26.7485 22.0402 26.7997C22.1938 26.8338 22.3644 26.8168 22.5179 26.7656C22.6544 26.7315 22.7567 26.6291 22.8761 26.578C22.9444 26.5609 23.0297 26.5438 23.0808 26.578C23.3026 26.6974 23.4561 26.9191 23.6779 27.0044C23.9679 27.0897 24.275 27.0556 24.582 27.0727C24.8209 27.0727 25.0597 27.0385 25.2985 27.0727C25.4009 27.0897 25.5715 27.1068 25.6056 27.2262C25.6397 27.3797 25.3838 27.5162 25.4179 27.6697C25.4862 27.9086 25.7591 28.028 25.8785 28.2327C25.9297 28.318 25.9126 28.4203 25.8785 28.5056C25.8444 28.5739 25.725 28.5909 25.6738 28.6592C25.6056 28.7615 25.5885 28.8809 25.5203 28.9833C25.452 29.0856 25.3497 29.1709 25.2473 29.2562C25.0256 29.4268 24.8038 29.5974 24.5479 29.7339C24.4626 29.7851 24.3091 29.6827 24.275 29.768C24.2067 29.9215 24.1385 30.1092 24.0703 30.2115C24.002 30.3139 23.9167 30.3309 23.8656 30.3821C23.8144 30.4504 23.7461 30.5698 23.7803 30.5868C23.8144 30.6039 24.1385 30.6039 24.2579 30.5868C24.3773 30.5698 24.4456 30.5527 24.4797 30.5356C24.5138 30.5015 24.4626 30.3992 24.4285 30.1945C24.4114 29.9898 24.9744 29.9045 25.2473 29.7509C25.5373 29.5633 25.8273 29.3586 26.1173 29.188C26.2368 29.1198 26.4073 29.1027 26.5097 29.0003C26.5609 28.9492 26.5438 28.8639 26.5438 28.7956C26.5438 28.625 26.5097 28.4544 26.5097 28.2839C26.5097 28.1986 26.5097 28.0962 26.5779 28.045C26.6291 27.9939 26.7315 27.9768 26.7826 28.0109C26.885 28.0621 26.9021 28.2156 26.9874 28.2839C27.1238 28.3862 27.2944 28.4203 27.4479 28.4886C27.5844 28.5568 27.8232 28.5568 27.8403 28.6933C27.8744 28.9492 27.7038 29.188 27.6015 29.4098C27.5503 29.5292 27.4309 29.5974 27.3627 29.7168C27.3285 29.7851 27.3285 29.8703 27.2774 29.9215C27.1409 30.058 26.9532 30.1433 26.8168 30.2798C26.7144 30.3821 26.6291 30.4845 26.5779 30.6039C26.5438 30.6721 26.5268 30.7404 26.4926 30.8086C26.4415 30.8768 26.3562 30.8939 26.305 30.9962C26.2538 31.0986 26.1344 31.3715 26.2368 31.3545C26.3391 31.3374 26.9362 31.2351 26.9532 31.1668C26.9703 31.1157 26.9191 30.9621 26.885 30.7745C26.8509 30.5868 27.2774 30.4504 27.4821 30.3309C27.6015 30.2627 27.7721 30.2968 27.8744 30.2115C27.9427 30.1604 27.9085 30.0409 27.9256 29.9727C27.9768 29.8533 28.0109 29.7168 28.1133 29.6145C28.2327 29.478 28.4374 29.4268 28.5397 29.2903C28.6421 29.1197 28.7615 28.915 28.7274 28.7274C28.6933 28.5739 28.5056 28.5227 28.4033 28.4033C28.318 28.318 28.2327 28.2156 28.1985 28.0962C28.1474 27.9256 28.1133 27.755 28.1644 27.5844C28.2327 27.3797 28.4374 27.2433 28.5568 27.0727C28.6591 26.9191 28.8127 26.7997 28.8638 26.6291C28.915 26.4244 28.8127 26.2027 28.7956 25.9979C28.7956 25.9638 28.7615 25.9127 28.7956 25.8785C28.9321 25.7591 29.0856 25.6056 29.2733 25.5715C29.4439 25.5544 29.5803 25.725 29.7509 25.7591C29.9215 25.7762 30.1262 25.7932 30.2968 25.725C30.348 25.7079 30.365 25.5885 30.3309 25.5374C30.2115 25.435 29.9556 25.4691 29.9044 25.3326C29.8703 25.2132 30.1092 25.1791 30.1774 25.0597C30.2627 24.9062 30.3309 24.7356 30.3309 24.5479C30.3309 24.4797 30.1945 24.4797 30.1433 24.5138C30.058 24.565 30.058 24.6844 29.9897 24.7526C29.9386 24.8038 29.8533 24.8209 29.785 24.8209C29.7168 24.8209 29.6144 24.7868 29.5803 24.7356C29.5291 24.6844 29.495 24.565 29.5462 24.5309C29.6827 24.4456 29.8703 24.4797 30.0239 24.4456C30.0921 24.4285 30.1774 24.4115 30.2115 24.3603C30.2627 24.2579 30.2627 24.1385 30.2115 24.0362C30.1945 23.985 30.1092 23.985 30.058 24.002C29.9897 24.0191 29.9556 24.1215 29.8703 24.1215C29.768 24.1215 29.6656 24.0703 29.5974 24.002C29.5462 23.9338 29.5291 23.8315 29.5633 23.7632C29.6144 23.6438 29.785 23.6097 29.8362 23.4903C29.9044 23.3367 29.9556 23.1491 29.9215 22.9785C29.9044 22.9103 29.768 22.8761 29.7168 22.9273C29.6315 22.9785 29.6486 23.0979 29.5974 23.1662C29.5291 23.2685 29.495 23.422 29.3927 23.4732C29.3244 23.5073 29.205 23.4391 29.188 23.3538C29.1539 23.2173 29.2391 23.0809 29.2733 22.9614C29.3244 22.825 29.3927 22.6885 29.478 22.5691C29.5633 22.4497 29.7339 22.3985 29.8021 22.262C29.8533 22.1597 29.9044 22.0232 29.8362 21.9379C29.785 21.8697 29.6656 21.9208 29.5974 21.972C29.5462 22.0061 29.5633 22.1255 29.5121 22.1597C29.3586 22.2279 29.1709 22.1767 29.0344 22.245C28.915 22.3132 28.8638 22.4326 28.7956 22.552C28.6762 22.7567 28.6591 23.115 28.608 23.1491C28.5568 23.2003 28.4374 23.1832 28.4033 23.115C28.3521 23.0297 28.4374 22.8932 28.3691 22.8079C28.318 22.7567 28.1815 22.7567 28.1303 22.8079C28.0621 22.8761 28.045 22.9785 28.045 23.0809C28.045 23.2344 28.0621 23.3879 28.1303 23.5244C28.2497 23.7462 28.4374 23.9167 28.5909 24.1215C28.7444 24.3262 28.9321 24.5138 29.0174 24.7526C29.0686 24.9062 29.0856 25.0938 29.0174 25.2303C28.9662 25.3668 28.8297 25.5032 28.6933 25.5032C28.5056 25.4862 28.3691 25.2815 28.2156 25.1791C28.0621 25.0768 27.9085 24.9403 27.738 24.9062C27.3456 24.8379 26.9362 24.9062 26.5268 24.9062C26.1685 24.9062 25.7932 24.9573 25.435 24.9062C25.2644 24.8891 25.0767 24.8209 24.9573 24.7015C24.8379 24.582 24.7526 24.4115 24.7526 24.2579C24.7356 24.0362 24.8209 23.8315 24.9062 23.6267C24.9744 23.4903 25.0767 23.3538 25.2132 23.2685C25.3156 23.2003 25.4862 23.1662 25.5885 23.2003C25.7079 23.2514 26.032 23.695 26.1003 23.6779C26.1685 23.6609 26.1173 23.2685 26.0832 23.1491C26.015 22.9614 25.8103 22.8591 25.7591 22.6714C25.742 22.6203 25.8273 22.552 25.8785 22.552C25.9809 22.552 26.1003 22.6203 26.1856 22.7056C26.2368 22.7397 26.4585 23.0638 26.5097 23.0467C26.5609 23.0297 26.4756 22.5861 26.4244 22.4497C26.3391 22.262 26.0662 22.1255 26.0491 22.0744C26.032 22.0403 26.0491 22.0061 26.1003 21.9891C26.2026 21.9891 26.305 22.0403 26.4073 22.0744C26.4926 22.1085 26.6291 22.2108 26.6803 22.1938C26.7315 22.1767 26.6803 22.0232 26.6291 21.955C26.4415 21.7332 26.1856 21.5967 25.9979 21.392C25.8956 21.2897 25.7932 21.1532 25.7932 20.9997C25.7932 20.9144 25.8956 20.8291 25.9809 20.7949C26.1344 20.7267 26.3391 20.6926 26.4756 20.6073C26.5268 20.5732 26.4926 20.5391 26.4415 20.522C26.2197 20.4367 25.9809 20.4026 25.742 20.4026C25.6056 20.4026 25.4862 20.4879 25.3497 20.522C25.2644 20.5561 25.1791 20.6073 25.0767 20.6073C24.9062 20.6073 24.7185 20.6244 24.5991 20.522C24.5309 20.4538 24.6162 20.3173 24.6673 20.2149C24.7185 20.1296 24.8038 20.0785 24.872 20.0102C24.9232 19.9591 25.0767 19.9079 25.0256 19.8908C24.9744 19.8738 24.7014 19.8738 24.5479 19.9249C24.4114 19.9591 24.292 20.0102 24.1897 20.1126C24.1044 20.1979 24.1214 20.3855 24.002 20.4367C23.7973 20.5561 23.695 20.522 23.4732 20.6244C23.422 20.6585 23.3026 20.7949 23.2514 20.812C22.9785 20.8461 22.4326 20.7097 22.4155 20.7608C22.3814 20.812 22.842 21.0679 22.9273 21.3067C22.9614 21.4091 22.7055 21.2555 22.6032 21.2726C22.4326 21.2897 22.262 21.3238 22.1255 21.392C21.9891 21.4602 21.8696 21.5797 21.7673 21.6991C21.6649 21.8014 21.6138 21.9379 21.4943 22.0232C21.4432 22.0573 21.3238 22.0061 21.2896 22.0573C21.2385 22.1256 21.2214 22.2791 21.3067 22.2791L21.7844 22.3132C21.8696 22.3132 21.6991 22.5008 21.7502 22.5861C21.7844 22.6373 21.9038 22.6203 21.9549 22.5861C22.0232 22.552 22.0573 22.4497 22.1426 22.3985C22.2279 22.3473 22.3132 22.2791 22.4155 22.2791C22.5349 22.2791 22.6885 22.3303 22.7397 22.4326C22.7908 22.535 22.6714 22.6544 22.6544 22.7567C22.6373 22.8761 22.7055 23.0297 22.6202 23.115C22.3644 23.3538 22.2791 23.1491 21.9038 23.6267C21.5967 24.002 21.7332 23.7973 21.6308 24.292C21.6138 24.3944 21.5967 24.4968 21.5114 24.565C21.4261 24.6162 21.2896 24.6503 21.2043 24.5991C21.0338 24.5138 20.9314 24.3432 20.812 24.1726C20.7438 24.0873 20.7779 23.9338 20.6926 23.8656C20.5732 23.7973 20.4026 23.7973 20.2661 23.8315C20.1637 23.8656 20.1126 23.985 20.0614 24.0703C19.9249 24.2579 19.8226 24.4797 19.7032 24.6673C19.6008 24.8209 19.4643 24.9573 19.379 25.1109C19.3279 25.1962 19.362 25.2985 19.3108 25.3838C19.2084 25.6227 19.1231 25.8444 19.0037 26.0662C18.9526 26.1515 18.8502 26.2027 18.8161 26.305C18.799 26.4074 18.8331 26.6291 18.8843 26.6291C18.9355 26.6291 19.1061 26.5097 19.2084 26.4415C19.3279 26.3903 19.5496 26.3221 19.5667 26.288C19.5837 26.2538 19.4473 26.1344 19.379 26.0491C19.2596 25.8956 19.5155 25.6738 19.6179 25.5032C19.652 25.435 19.7373 25.4179 19.7714 25.3497C19.8396 25.2132 19.8567 25.0426 19.9249 24.9062C20.0102 24.7185 20.1126 24.5309 20.249 24.3944C20.3173 24.3262 20.4367 24.275 20.522 24.3432C20.6585 24.4285 20.6755 24.6162 20.7608 24.7697C20.829 24.8721 20.9143 24.9744 20.9485 25.0938C20.9826 25.1962 20.8802 25.3326 20.9485 25.4179C21.0338 25.5203 21.2043 25.5544 21.3408 25.5715L21.6479 25.6056L21.682 26.0321C21.6991 26.1856 21.3579 26.0662 21.2043 26.1003C21.0679 26.1344 20.9314 26.1856 20.7779 26.2197C20.6414 26.2538 20.3855 26.1344 20.3514 26.288C20.232 26.885 20.3855 27.4821 20.4196 28.0792C20.4196 28.2327 20.3343 28.4886 20.4879 28.5568L20.7779 28.6762C20.829 28.7956 20.8632 28.9492 20.9314 29.0345C20.9143 29.1197 20.9996 29.1368 21.0679 29.1539Z" fill="#7B00FF"/>
<path d="M30.4674 17.7754C30.4674 17.656 30.3822 17.6049 30.2286 17.6049H29.6486C29.4951 17.6049 29.4098 17.656 29.4098 17.7754C29.4098 17.8949 29.4951 17.946 29.6486 17.946H29.768V19.0208C29.768 19.2084 29.8192 19.2937 29.9386 19.2937C30.058 19.2937 30.1092 19.2084 30.1092 19.0208V17.946H30.2286C30.3992 17.946 30.4674 17.8949 30.4674 17.7754ZM28.8127 18.1507C28.8127 18.2872 28.7445 18.3555 28.608 18.3555H28.4545V17.946H28.608C28.7445 17.946 28.8127 18.0143 28.8127 18.1507ZM29.188 19.1231C29.188 19.0549 29.1539 18.9866 29.0857 18.9013L28.8127 18.5602C29.0345 18.509 29.171 18.3384 29.171 18.0996C29.171 17.7925 28.9663 17.5707 28.608 17.5707H28.3521C28.1645 17.5707 28.1133 17.656 28.1133 17.8437V19.0037C28.1133 19.1913 28.1645 19.2766 28.2839 19.2766C28.4033 19.2766 28.4545 19.1913 28.4545 19.0037V18.5943L28.8468 19.1572C28.9151 19.2425 28.9663 19.2937 29.0345 19.2937C29.1198 19.2937 29.188 19.2255 29.188 19.1231ZM27.3798 18.5943H27.0215L27.2092 17.9802L27.3798 18.5943ZM27.8574 19.1061C27.8574 19.0719 27.8574 19.0378 27.8404 18.9866L27.4651 17.7925C27.4139 17.656 27.3286 17.5707 27.2092 17.5707C27.0898 17.5707 27.0045 17.656 26.9533 17.8096L26.5609 18.9866C26.5439 19.0208 26.5439 19.0549 26.5439 19.089C26.5439 19.1913 26.6121 19.2766 26.6974 19.2766C26.7656 19.2766 26.8339 19.2255 26.868 19.1061L26.9192 18.9355H27.4651L27.4992 19.089C27.5333 19.2084 27.5845 19.2766 27.6698 19.2766C27.7892 19.2937 27.8574 19.2255 27.8574 19.1061ZM26.305 18.509C26.305 18.3213 26.2368 18.2531 26.1003 18.2531H25.8786C25.7421 18.2531 25.6739 18.3043 25.6739 18.4237C25.6739 18.5431 25.7421 18.5943 25.8786 18.5943H25.9809C25.9809 18.799 25.8786 18.9355 25.708 18.9355C25.5203 18.9355 25.3839 18.7308 25.3839 18.4066C25.3839 18.0825 25.5203 17.8949 25.708 17.8949C25.8956 17.8949 25.9809 18.0484 26.0662 18.0484C26.1345 18.0484 26.2027 17.9631 26.2027 17.8778C26.2027 17.7072 26.015 17.5366 25.725 17.5366C25.3156 17.5366 25.0597 17.8778 25.0597 18.4237C25.0597 18.9525 25.3156 19.3108 25.6909 19.3108C26.0662 19.3108 26.305 18.9696 26.305 18.509ZM24.9744 17.7754C24.9744 17.656 24.8891 17.6049 24.7356 17.6049H24.1556C24.0021 17.6049 23.9168 17.656 23.9168 17.7754C23.9168 17.8949 24.0021 17.946 24.1556 17.946H24.275V19.0208C24.275 19.2084 24.3262 19.2937 24.4456 19.2937C24.565 19.2937 24.6162 19.2084 24.6162 19.0208V17.946H24.7356C24.8891 17.946 24.9744 17.8949 24.9744 17.7754ZM23.8485 17.7754C23.8485 17.656 23.7632 17.6049 23.6097 17.6049H23.0297C22.8762 17.6049 22.7909 17.656 22.7909 17.7754C22.7909 17.8949 22.8762 17.946 23.0297 17.946H23.1491V19.0208C23.1491 19.2084 23.2003 19.2937 23.3197 19.2937C23.4391 19.2937 23.4903 19.2084 23.4903 19.0208V17.946H23.6097C23.7632 17.946 23.8485 17.8949 23.8485 17.7754ZM22.5862 18.5431V17.8437C22.5862 17.656 22.535 17.5707 22.4156 17.5707C22.2962 17.5707 22.245 17.656 22.245 17.8437V18.509C22.245 18.799 22.1426 18.9525 21.955 18.9525C21.7673 18.9525 21.665 18.799 21.665 18.509V17.8437C21.665 17.656 21.6138 17.5707 21.4944 17.5707C21.375 17.5707 21.3238 17.656 21.3238 17.8437V18.5431C21.3238 19.0378 21.5626 19.3108 21.955 19.3108C22.3303 19.3108 22.5862 19.0378 22.5862 18.5431ZM21.1873 17.7754C21.1873 17.656 21.102 17.6049 20.9485 17.6049H20.3685C20.215 17.6049 20.1297 17.656 20.1297 17.7754C20.1297 17.8949 20.215 17.946 20.3685 17.946H20.4879V19.0208C20.4879 19.2084 20.5391 19.2937 20.6585 19.2937C20.7779 19.2937 20.8291 19.2084 20.8291 19.0208V17.946H20.9485C21.102 17.946 21.1873 17.8949 21.1873 17.7754ZM20.0103 18.7478C20.0103 18.4919 19.8738 18.3384 19.6008 18.236C19.4303 18.1678 19.3279 18.1507 19.3279 18.0313C19.3279 17.946 19.3961 17.8949 19.4985 17.8949C19.5838 17.8949 19.6861 17.946 19.7544 17.946C19.8567 17.946 19.9079 17.8778 19.9079 17.7925C19.9079 17.656 19.7544 17.5537 19.4985 17.5537C19.1744 17.5537 18.9697 17.7754 18.9697 18.0825C18.9697 18.3384 19.1061 18.4578 19.3791 18.5602C19.5326 18.6113 19.635 18.6625 19.635 18.799C19.635 18.9013 19.5667 18.9696 19.4644 18.9696C19.3108 18.9696 19.1914 18.8843 19.1061 18.8843C19.0038 18.8843 18.9355 18.9525 18.9355 19.0549C18.9355 19.1913 19.1403 19.3278 19.4132 19.3278C19.7885 19.3108 20.0103 19.0719 20.0103 18.7478Z" fill="#7B00FF"/>
</g>
<defs>
<clipPath id="clip0_44_208">
<rect width="50" height="50" fill="white"/>
</clipPath>
</defs>
</svg>
