<svg width="34" height="34" viewBox="0 0 34 34" fill="none" xmlns="http://www.w3.org/2000/svg">
<path d="M10.375 4.8395C12.3974 3.66958 14.7456 3 17.25 3C24.8438 3 31 9.15608 31 16.75C31 24.3438 24.8438 30.5 17.25 30.5C9.65608 30.5 3.5 24.3438 3.5 16.75C3.5 14.2456 4.16958 11.8974 5.3395 9.875" stroke="#7B00FF" stroke-width="2" stroke-linecap="round"/>
<path d="M18.375 11.2664L22.8046 14.4783C24.34 15.5918 24.34 17.9083 22.8046 19.0216L18.375 22.2337M10.8125 21.0168V12.4832C10.8125 11.3479 12.0766 10.6875 12.9867 11.3474L18.8711 15.6141C19.6388 16.1709 19.6388 17.3291 18.8711 17.8858L12.9867 22.1526C12.0766 22.8125 10.8125 22.1522 10.8125 21.0168Z" stroke="#7B00FF" stroke-width="2" stroke-linecap="round"/>
</svg>
