<svg width="34" height="33" viewBox="0 0 34 33" fill="none" xmlns="http://www.w3.org/2000/svg">
<path d="M15.6249 11.0982L11.1953 14.2622C9.65984 15.359 9.65984 17.641 11.1953 18.7377L15.6249 21.9018M23.1874 20.7031V12.2969C23.1874 11.1785 21.9233 10.5279 21.0133 11.178L15.1288 15.381C14.3612 15.9295 14.3612 17.0705 15.1288 17.6188L21.0133 21.8219C21.9233 22.472 23.1874 21.8215 23.1874 20.7031Z" stroke="#7B00FF" stroke-width="2" stroke-linecap="round"/>
<path d="M10.125 4.5895C12.1474 3.41958 14.4956 2.75 17 2.75C24.5938 2.75 30.75 8.90608 30.75 16.5C30.75 24.0938 24.5938 30.25 17 30.25C9.40608 30.25 3.25 24.0938 3.25 16.5C3.25 13.9956 3.91958 11.6474 5.0895 9.625" stroke="#7B00FF" stroke-width="2" stroke-linecap="round"/>
</svg>
