<svg width="50" height="50" viewBox="0 0 50 50" fill="none" xmlns="http://www.w3.org/2000/svg">
<path d="M24.9361 9.08765C11.3048 9.08765 0.182495 16.2044 0.182495 24.9362C0.182495 33.6679 11.3048 40.7847 24.9361 40.7847C38.5675 40.7847 49.6898 33.6679 49.6898 24.9362C49.6898 16.2044 38.5675 9.08765 24.9361 9.08765ZM31.7883 12.0256C33.9781 12.4453 36.031 13.0657 37.8741 13.8504C39.4617 14.6716 40.3924 15.6387 40.3924 16.688C40.3924 18.8048 36.5967 20.6387 31.177 21.4417C30.8029 17.3541 29.7993 13.8595 28.4489 11.6241C29.6168 11.7154 30.7299 11.8522 31.7883 12.0256ZM24.9361 11.4873C26.9891 11.4873 28.7135 15.8395 29.1971 21.688C27.8376 21.8157 26.4142 21.8887 24.9361 21.8887C23.458 21.8887 22.0256 21.8157 20.6752 21.688C21.1588 15.8303 22.8923 11.4873 24.9361 11.4873ZM11.9982 13.8504C13.8413 13.0657 15.8942 12.4544 18.084 12.0256C19.1332 11.8522 20.2555 11.7154 21.4234 11.6241C20.073 13.8595 19.0694 17.3632 18.6953 21.4417C13.2756 20.6296 9.47994 18.8048 9.47994 16.688C9.47994 15.6387 10.4106 14.6625 11.9982 13.8504ZM2.3814 24.9362C2.3814 21.7519 4.22447 18.823 7.29928 16.5055C7.29016 16.615 7.28104 16.7245 7.28104 16.834C7.28104 19.9453 11.9708 22.6187 18.5584 23.6862C18.5402 24.1333 18.5402 24.5803 18.5402 25.0366C18.5402 30.5475 19.6533 35.4198 21.3504 38.3121C10.6205 37.2811 2.3814 31.6698 2.3814 24.9362ZM25.4836 38.4855C25.3011 38.4855 25.1186 38.4855 24.9361 38.4855C24.7537 38.4855 24.5712 38.4855 24.3887 38.4855C22.2172 37.6552 20.5292 31.9344 20.5292 25.0366C20.5292 24.6716 20.5383 24.3157 20.5475 23.9599C21.9526 24.1059 23.4215 24.188 24.9361 24.188C26.4507 24.188 27.9197 24.1059 29.3248 23.9599C29.334 24.3157 29.3431 24.6807 29.3431 25.0366C29.334 31.9344 27.646 37.6552 25.4836 38.4855ZM28.5219 38.3212C30.219 35.4289 31.3321 30.5566 31.3321 25.0457C31.3321 24.5895 31.323 24.1424 31.3139 23.6953C37.9015 22.6278 42.5913 19.9544 42.5913 16.8431C42.5913 16.7336 42.5821 16.6241 42.573 16.5147C45.6478 18.8322 47.4909 21.761 47.4909 24.9453C47.4909 31.6698 39.2518 37.2811 28.5219 38.3212Z" fill="black"/>
</svg>
