<svg width="501" height="211" viewBox="0 0 501 211" fill="none" xmlns="http://www.w3.org/2000/svg">
<path d="M32.193 145.187C32.193 147.206 30.556 148.842 28.537 148.842H3.65601C1.63701 148.842 0 147.205 0 145.187V65.9817C0 63.9617 1.63701 62.3257 3.65601 62.3257H28.537C30.555 62.3257 32.193 63.9627 32.193 65.9817V145.187Z" fill="#0D151F"/>
<path d="M28.538 62.3257H3.65697C1.63797 62.3257 0.000976562 63.9627 0.000976562 65.9817V86.6467H32.194V65.9817C32.193 63.9617 30.556 62.3257 28.538 62.3257Z" fill="#161E26"/>
<path d="M46.091 100.3L28.538 148.842L40.521 173.146H142.281H374.683L476.447 173.118L486.493 163.072V100.3H46.091Z" fill="#03070A"/>
<path d="M116.25 185.241L99.9339 169.765L121.499 163.37C121.084 160.485 120.254 157.648 119.01 154.957L97.4389 161.354L102.685 139.476C99.9349 138.38 97.0599 137.701 94.1519 137.437L88.9079 159.307L72.5919 143.832C71.6609 144.566 70.7589 145.357 69.8999 146.217C68.6509 147.466 67.5409 148.801 66.5539 150.196L82.8699 165.672L61.3049 172.067C61.7189 174.953 62.5489 177.788 63.7929 180.48L85.3639 174.084L80.1189 195.962C82.8679 197.059 85.7439 197.738 88.6529 198.001L93.8969 176.131L110.213 191.606C111.144 190.871 112.045 190.082 112.904 189.222C114.152 187.972 115.263 186.636 116.25 185.241Z" fill="#776F74"/>
<path d="M107.797 167.719C107.797 176.776 100.456 184.116 91.401 184.116C82.345 184.116 75.005 176.775 75.005 167.719C75.005 158.664 82.346 151.324 91.401 151.324C100.457 151.324 107.797 158.665 107.797 167.719Z" fill="#51484E"/>
<path d="M91.401 124.814C67.705 124.814 48.495 144.025 48.495 167.721C48.495 191.416 67.705 210.626 91.401 210.626C115.097 210.626 134.307 191.416 134.307 167.721C134.307 144.025 115.097 124.814 91.401 124.814ZM91.401 198.129C74.607 198.129 60.992 184.514 60.992 167.721C60.992 150.926 74.606 137.311 91.401 137.311C108.195 137.311 121.809 150.926 121.809 167.721C121.809 184.514 108.195 198.129 91.401 198.129Z" fill="#0D151F"/>
<path d="M91.401 185.821C81.42 185.821 73.3 177.701 73.3 167.721C73.3 157.739 81.42 149.619 91.401 149.619C101.381 149.619 109.501 157.738 109.501 167.721C109.502 177.701 101.382 185.821 91.401 185.821ZM91.401 154.006C83.839 154.006 77.687 160.157 77.687 167.721C77.687 175.282 83.839 181.434 91.401 181.434C98.962 181.434 105.115 175.282 105.115 167.721C105.115 160.158 98.963 154.006 91.401 154.006Z" fill="#776F74"/>
<path d="M121.361 162.539L98.881 163.134L109.608 143.364C107.275 141.617 104.683 140.198 101.899 139.175L91.1689 158.951L79.4089 139.773C76.6899 140.941 74.1749 142.495 71.9329 144.365L83.6889 163.537L61.2099 164.131C61.0709 165.311 60.9919 166.507 60.9919 167.723C60.9919 169.489 61.1509 171.218 61.4399 172.902L83.9199 172.308L73.1929 192.079C75.5259 193.826 78.1179 195.245 80.9009 196.268L91.6309 176.492L103.392 195.671C106.111 194.504 108.626 192.949 110.868 191.079L99.1109 171.907L121.59 171.311C121.729 170.133 121.808 168.937 121.808 167.723C121.809 165.953 121.651 164.224 121.361 162.539Z" fill="#E6E6E6"/>
<path d="M101.145 167.721C101.145 173.102 96.782 177.464 91.401 177.464C86.02 177.464 81.657 173.102 81.657 167.721C81.657 162.339 86.019 157.976 91.401 157.976C96.782 157.976 101.145 162.339 101.145 167.721Z" fill="#776F74"/>
<path d="M97.1319 167.721C97.1319 170.886 94.5659 173.451 91.4009 173.451C88.2349 173.451 85.6689 170.886 85.6689 167.721C85.6689 164.555 88.2349 161.989 91.4009 161.989C94.5669 161.989 97.1319 164.555 97.1319 167.721Z" fill="#E6E6E6"/>
<path d="M91.401 200.323C73.424 200.323 58.799 185.697 58.799 167.721C58.799 149.743 73.425 135.117 91.401 135.117C109.378 135.117 124.003 149.743 124.003 167.721C124.003 185.697 109.378 200.323 91.401 200.323ZM91.401 139.504C75.843 139.504 63.186 152.161 63.186 167.721C63.186 183.278 75.843 195.936 91.401 195.936C106.959 195.936 119.616 183.278 119.616 167.721C119.616 152.162 106.959 139.504 91.401 139.504Z" fill="#B3B3B3"/>
<path d="M500.897 116.162L495.538 113.06C495.538 113.06 496.102 95.8507 481.434 83.4387C481.434 83.4387 438.271 67.6417 383.262 65.6677C383.262 65.6677 306.529 12.9136 281.704 6.70765C281.704 6.70765 199.33 -9.37135 55.107 8.25965L27.791 62.3857C27.791 62.3857 19.697 75.0337 22.732 105.891V120.055L17.38 129.703V157.349L31.203 173.147H40.521C40.333 171.364 40.232 169.554 40.232 167.722C40.232 139.461 63.142 116.552 91.401 116.552C119.661 116.552 142.57 139.461 142.57 167.722C142.57 169.554 142.469 171.364 142.281 173.147H166.611H368.031H374.683C374.495 171.364 374.393 169.554 374.393 167.722C374.393 139.461 397.303 116.552 425.563 116.552C453.823 116.552 476.732 139.461 476.732 167.722C476.732 169.544 476.632 171.344 476.447 173.118L493.282 167.786C493.282 167.786 503.438 160.734 498.078 151.425L500.897 116.162Z" fill="#9DC02E"/>
<path d="M450.412 185.241L434.095 169.765L455.661 163.37C455.246 160.485 454.416 157.648 453.172 154.957L431.602 161.354L436.846 139.476C434.097 138.38 431.222 137.701 428.314 137.437L423.07 159.307L406.755 143.832C405.823 144.566 404.921 145.357 404.063 146.217C402.813 147.466 401.704 148.801 400.716 150.196L417.032 165.672L395.467 172.067C395.881 174.953 396.711 177.788 397.954 180.48L419.527 174.084L414.281 195.962C417.03 197.059 419.907 197.738 422.814 198.001L428.058 176.131L444.374 191.606C445.305 190.871 446.206 190.082 447.065 189.222C448.314 187.972 449.425 186.636 450.412 185.241Z" fill="#776F74"/>
<path d="M441.96 167.719C441.96 176.776 434.62 184.116 425.564 184.116C416.509 184.116 409.168 176.775 409.168 167.719C409.168 158.664 416.509 151.324 425.564 151.324C434.62 151.324 441.96 158.665 441.96 167.719Z" fill="#51484E"/>
<path d="M425.563 124.814C401.868 124.814 382.657 144.025 382.657 167.721C382.657 191.416 401.868 210.626 425.563 210.626C449.259 210.626 468.469 191.416 468.469 167.721C468.469 144.025 449.259 124.814 425.563 124.814ZM425.563 198.129C408.769 198.129 395.154 184.514 395.154 167.721C395.154 150.926 408.769 137.311 425.563 137.311C442.357 137.311 455.971 150.926 455.971 167.721C455.971 184.514 442.357 198.129 425.563 198.129Z" fill="#0D151F"/>
<path d="M425.563 185.821C415.583 185.821 407.461 177.701 407.461 167.721C407.461 157.739 415.582 149.619 425.563 149.619C435.543 149.619 443.664 157.738 443.664 167.721C443.664 177.701 435.544 185.821 425.563 185.821ZM425.563 154.006C418.001 154.006 411.848 160.157 411.848 167.721C411.848 175.282 418.001 181.434 425.563 181.434C433.125 181.434 439.277 175.282 439.277 167.721C439.277 160.158 433.125 154.006 425.563 154.006Z" fill="#776F74"/>
<path d="M455.523 162.539L433.043 163.134L443.77 143.364C441.437 141.617 438.845 140.198 436.062 139.175L425.332 158.951L413.572 139.773C410.852 140.941 408.339 142.495 406.096 144.365L417.852 163.537L395.373 164.131C395.233 165.311 395.154 166.507 395.154 167.723C395.154 169.489 395.313 171.218 395.603 172.902L418.082 172.308L407.353 192.079C409.687 193.826 412.28 195.245 415.063 196.268L425.793 176.492L437.554 195.671C440.274 194.504 442.788 192.949 445.029 191.079L433.273 171.907L455.752 171.311C455.891 170.133 455.97 168.937 455.97 167.723C455.971 165.953 455.812 164.224 455.523 162.539Z" fill="#E6E6E6"/>
<path d="M435.307 167.721C435.307 173.102 430.945 177.464 425.563 177.464C420.182 177.464 415.82 173.102 415.82 167.721C415.82 162.339 420.182 157.976 425.563 157.976C430.945 157.976 435.307 162.339 435.307 167.721Z" fill="#776F74"/>
<path d="M431.295 167.721C431.295 170.886 428.729 173.451 425.564 173.451C422.398 173.451 419.832 170.886 419.832 167.721C419.832 164.555 422.397 161.989 425.564 161.989C428.728 161.989 431.295 164.555 431.295 167.721Z" fill="#E6E6E6"/>
<path d="M425.563 200.323C407.586 200.323 392.96 185.697 392.96 167.721C392.96 149.743 407.586 135.117 425.563 135.117C443.54 135.117 458.165 149.743 458.165 167.721C458.165 185.697 443.54 200.323 425.563 200.323ZM425.563 139.504C410.005 139.504 397.347 152.161 397.347 167.721C397.347 183.278 410.005 195.936 425.563 195.936C441.121 195.936 453.778 183.278 453.778 167.721C453.778 152.162 441.121 139.504 425.563 139.504Z" fill="#B3B3B3"/>
<path d="M94.731 12.8267H52.802L31.042 55.9427C46.402 61.7727 69.781 55.9427 69.781 55.9427L97.995 19.3337C101.96 13.0377 94.731 12.8267 94.731 12.8267Z" fill="#DAEDE2"/>
<path d="M286.64 13.9697C286.64 13.9697 336.074 34.4887 371.518 69.4667C371.518 69.4667 381.246 70.7277 383.261 65.6667C383.261 65.6667 323.67 24.6997 292.53 10.7247L286.64 13.9697Z" fill="#DAEDE2"/>
<g opacity="0.5">
<path d="M51.7389 126.707C36.6119 113.325 28.0759 98.9787 27.9919 98.8347L28.9369 98.2776C29.0209 98.4196 37.4749 112.625 52.4659 125.886L51.7389 126.707Z" fill="#0F1A26"/>
</g>
<path opacity="0.5" d="M491.878 131.891C491.878 131.891 488.092 143.373 498.335 148.216L499.641 131.891H491.878Z" fill="#0F1A26"/>
<path opacity="0.5" d="M254.703 82.1367C254.703 86.0257 251.55 89.1786 247.661 89.1786H246.855C242.965 89.1786 239.813 86.0257 239.813 82.1367C239.813 78.2467 242.965 75.0947 246.855 75.0947H247.661C251.55 75.0947 254.703 78.2477 254.703 82.1367Z" fill="#0F1A26"/>
<path opacity="0.5" d="M128.943 76.6487C128.943 80.5387 125.79 83.6917 121.901 83.6917H121.095C117.206 83.6917 114.053 80.5387 114.053 76.6487C114.053 72.7587 117.206 69.6057 121.095 69.6057H121.901C125.79 69.6057 128.943 72.7587 128.943 76.6487Z" fill="#0F1A26"/>
<path d="M139.502 12.8266C139.502 12.8266 116.417 28.8927 108.488 62.9377L350.998 74.3636L353.796 67.8346C353.796 67.8346 325.349 34.2567 278.479 17.0007C278.479 17.0007 181.008 6.31865 139.502 12.8266Z" fill="#DAEDE2"/>
<path d="M120.862 56.0746C125.98 34.0976 137.407 19.6237 144.87 12.1157C142.997 12.3257 141.199 12.5597 139.502 12.8267C139.502 12.8267 116.417 28.8927 108.488 62.9377L350.998 74.3636L353.796 67.8347C353.796 67.8347 353.553 67.5466 353.076 67.0146L120.862 56.0746Z" fill="#172633"/>
<path d="M126.033 63.7646L119.71 35.3867C115.244 42.7197 111.064 51.8717 108.488 62.9377L126.033 63.7646Z" fill="#283742"/>
<path d="M212.635 67.8447L236.331 68.9606L225.85 12.5557C218.2 12.0677 210.182 11.6287 202.129 11.3047L212.635 67.8447Z" fill="#283742"/>
<path opacity="0.5" d="M363.232 74.2947L363.191 74.1437C351.91 48.2227 283.937 13.7896 281.048 12.3356L280.946 12.2956C234.961 -0.21837 136.984 6.92765 135.999 7.00065L135.874 7.01066L135.766 7.07364C135.487 7.23464 107.756 23.7916 96.596 74.2456L96.583 74.3616C96.582 74.5696 96.674 95.2757 107.323 113.472L108.269 112.917C98.051 95.4577 97.691 75.6396 97.68 74.4206C108.391 26.0846 134.35 9.23561 136.211 8.08561C138.732 7.90161 175.391 5.32765 213.783 6.16465C214.244 11.3716 217.399 44.4066 225.073 68.5736C225.169 69.0066 234.643 112.167 230.791 146.765L230.785 146.821L230.791 146.878C230.803 147.006 232.029 159.826 234.203 170.694L235.278 170.48C233.189 160.032 231.978 147.762 231.887 146.83C235.742 112.057 226.24 68.7696 226.131 68.2896C218.533 44.3586 215.38 11.7266 214.886 6.18961C238.862 6.75261 263.392 8.66466 280.603 13.3387C282.799 14.4517 351.049 49.2386 362.152 74.5076C362.413 76.6586 367.673 121.06 363.156 161.927L364.245 162.047C368.87 120.238 363.289 74.7487 363.232 74.2947Z" fill="#0F1A26"/>
<g opacity="0.5">
<path d="M462.864 100.248L452.071 115.669L452.969 116.297L463.762 100.876L462.864 100.248Z" fill="#0F1A26"/>
</g>
<path opacity="0.5" d="M491.255 157.976V152.448C479.77 94.4136 428.442 90.7596 428.442 90.7596C369.483 88.6536 355.647 149.62 355.647 149.62L160.723 144.604C150.796 100.986 114.054 91.9626 114.054 91.9626C57.458 78.1256 34.983 121.742 34.983 121.742L22.733 120.053L17.381 129.701V157.347L31.204 173.145H40.522C40.334 171.362 40.233 169.552 40.233 167.72C40.233 139.459 63.143 116.55 91.402 116.55C119.662 116.55 142.571 139.459 142.571 167.72C142.571 169.552 142.47 171.362 142.282 173.145H166.612H368.032H374.684C374.496 171.362 374.394 169.552 374.394 167.72C374.394 139.459 397.304 116.55 425.564 116.55C453.824 116.55 476.733 139.459 476.733 167.72C476.733 169.542 476.633 171.342 476.448 173.116L493.283 167.784C493.283 167.784 498.95 163.848 499.582 157.974H491.255V157.976Z" fill="#0F1A26"/>
<path d="M493.282 167.786C493.282 167.786 503.438 160.734 498.078 151.425L485.978 153.239C479.432 125.941 454.838 105.585 425.563 105.585C393.234 105.585 366.605 130.405 363.702 161.989H153.262C150.359 130.405 123.73 105.585 91.401 105.585C64.175 105.585 41 123.193 32.622 147.614L17.38 141.451V157.348L31.203 173.146H40.521C40.333 171.363 40.232 169.553 40.232 167.721C40.232 139.46 63.142 116.551 91.401 116.551C119.661 116.551 142.57 139.46 142.57 167.721C142.57 169.553 142.469 171.363 142.281 173.146H166.611H368.031H374.683C374.495 171.363 374.393 169.553 374.393 167.721C374.393 139.46 397.303 116.551 425.563 116.551C453.823 116.551 476.732 139.46 476.732 167.721C476.732 169.543 476.632 171.343 476.447 173.117L493.282 167.786Z" fill="#0F1A26"/>
<path d="M26.106 66.0016C23.924 71.6666 20.636 84.2666 22.714 105.69C25.452 106.24 27.488 105.585 27.488 105.585C45.07 94.4436 58.799 67.8866 58.799 67.8866C40.101 61.2436 26.109 66.0016 26.106 66.0016Z" fill="#F15A24"/>
<path d="M491.193 113.424C491.193 113.424 495.06 78.6146 441.96 82.2366C441.96 82.2366 455.501 101.754 491.193 113.424Z" fill="#FCEE21"/>
<g opacity="0.3">
<path d="M22.732 120.054L34.982 121.743C34.982 121.743 57.457 78.1267 114.053 91.9637C114.053 91.9637 150.796 100.986 160.722 144.605L355.646 149.621C355.646 149.621 369.482 88.6547 428.441 90.7607L363.336 86.5737C325.907 84.9547 68.806 75.0967 68.806 75.0967C46.576 75.7087 33.813 70.4487 26.563 64.8697C24.426 69.8907 20.459 82.7847 22.732 105.891V120.054Z" fill="#0F1A26"/>
<path d="M427.756 116.606C427.984 116.617 428.213 116.624 428.442 116.637C428.214 116.624 427.984 116.616 427.756 116.606Z" fill="#0F1A26"/>
</g>
<path d="M262.047 82.1367C262.047 83.6917 260.786 84.9526 259.23 84.9526H235.287C233.731 84.9526 232.47 83.6907 232.47 82.1367C232.47 80.5807 233.731 79.3207 235.287 79.3207H259.23C260.786 79.3207 262.047 80.5817 262.047 82.1367Z" fill="#B8D346"/>
<path d="M136.287 76.6487C136.287 78.2047 135.026 79.4656 133.471 79.4656H109.527C107.971 79.4656 106.71 78.2037 106.71 76.6487C106.71 75.0927 107.971 73.8317 109.527 73.8317H133.47C135.026 73.8317 136.287 75.0927 136.287 76.6487Z" fill="#B8D346"/>
<path d="M390.869 93.9077C390.869 96.4627 388.797 98.5347 386.241 98.5347H379.199C376.642 98.5347 374.571 96.4627 374.571 93.9077C374.571 91.3517 376.642 89.2806 379.199 89.2806H386.241C388.797 89.2806 390.869 91.3517 390.869 93.9077Z" fill="#FCEE21"/>
<path d="M94.731 12.8267H52.802L31.042 55.9427C46.402 61.7727 69.781 55.9427 69.781 55.9427L97.995 19.3337C101.96 13.0377 94.731 12.8267 94.731 12.8267ZM67.41 51.9307C67.41 51.9307 57.556 54.7226 49.836 52.7516L70.941 18.9177C70.941 18.9177 80.878 17.4407 92.046 18.9177L67.41 51.9307Z" fill="#283742"/>
<path d="M248.846 45.2157C248.211 41.8337 244.951 39.6067 241.574 40.2407C238.192 40.8747 235.964 44.1307 236.598 47.5117L240.522 68.4397L253.346 69.2217L248.846 45.2157Z" fill="#172633"/>
<path d="M328.191 50.6877C326.418 49.9667 324.402 50.8187 323.68 52.5897L316.218 70.9377L323.511 71.3817L330.093 55.1976C330.814 53.4276 329.963 51.4087 328.191 50.6877Z" fill="#172633"/>
</svg>
