<svg width="549" height="235" viewBox="0 0 549 235" fill="none" xmlns="http://www.w3.org/2000/svg">
<path d="M257.82 15.6903L251.228 8.6973C244.242 7.8313 195.965 2.4063 123.412 7.9073L117.051 14.5343L113.394 11.0233L122.254 2.5233C201.596 -3.5797 251.947 3.2973 252.452 3.3683L253.685 3.9103L261.509 12.2113L257.82 15.6903Z" fill="#808080"/>
<path d="M122.254 2.52431L125.051 10.4353L133.237 18.0523L87.095 22.4473L99.108 10.1423L122.254 2.52431Z" fill="#172633"/>
<path d="M252.451 3.36931L249.654 11.2803L241.468 18.8983L287.61 23.2923L275.597 10.9873L252.451 3.36931Z" fill="#172633"/>
<path d="M61.276 23.8193L64.989 31.2463C64.989 31.2463 20.89 67.4543 12.071 83.7013C12.071 83.7013 7.42898 103.661 12.071 116.195L0.000976562 135.228V160.295C0.000976562 160.295 6.96299 185.826 28.316 186.29L132.2 194.944L393.006 198.324H500.594L541.714 191.001L546.221 143.685L536.08 126.786L523.689 104.254C523.689 104.254 513.549 91.2983 409.902 78.3433C409.902 78.3433 334.421 32.7153 288.23 20.3233C288.232 20.3223 179.057 7.0373 61.276 23.8193Z" fill="#03070A"/>
<path d="M95.338 188.96C95.338 198.375 87.705 206.007 78.291 206.007C68.876 206.007 61.244 198.375 61.244 188.96C61.244 179.545 68.877 171.912 78.291 171.912C87.705 171.912 95.338 179.545 95.338 188.96Z" fill="#666666"/>
<path d="M78.29 142.987C52.9 142.987 32.318 163.57 32.318 188.96C32.318 214.35 52.9 234.933 78.29 234.933C103.68 234.933 124.263 214.351 124.263 188.96C124.263 163.569 103.68 142.987 78.29 142.987ZM78.289 212.389C65.351 212.389 54.863 201.9 54.863 188.962C54.863 176.023 65.351 165.535 78.289 165.535C91.228 165.535 101.716 176.023 101.716 188.962C101.716 201.9 91.228 212.389 78.289 212.389Z" fill="#0D151F"/>
<path d="M78.29 156.282C60.243 156.282 45.613 170.911 45.613 188.959C45.613 207.006 60.243 221.637 78.29 221.637C96.338 221.637 110.968 207.007 110.968 188.959C110.968 170.912 96.338 156.282 78.29 156.282ZM78.289 212.389C65.351 212.389 54.863 201.9 54.863 188.962C54.863 176.023 65.351 165.535 78.289 165.535C91.228 165.535 101.716 176.023 101.716 188.962C101.716 201.9 91.228 212.389 78.289 212.389Z" fill="#999999"/>
<path d="M110.674 193.292L89.0611 188.964L110.679 184.662C110.493 183.25 110.222 181.866 109.863 180.517L88.312 184.806L106.591 172.626C105.883 171.402 105.102 170.228 104.246 169.111L85.9061 181.332L98.147 163.009C97.03 162.154 95.857 161.371 94.633 160.663L82.435 178.923L86.746 157.39C85.397 157.03 84.013 156.758 82.601 156.572L78.2771 178.167L73.98 156.573C72.568 156.759 71.184 157.031 69.834 157.392L74.119 178.918L61.954 160.663C60.731 161.371 59.557 162.154 58.44 163.009L70.646 181.325L52.347 169.101C51.491 170.218 50.709 171.391 50 172.614L68.2361 184.795L46.73 180.489C46.368 181.838 46.0961 183.221 45.9081 184.632L67.48 188.951L45.9041 193.245C46.0901 194.657 46.3591 196.041 46.7191 197.39L68.23 193.109L49.981 205.269C50.688 206.494 51.469 207.668 52.323 208.785L70.6351 196.583L58.41 214.883C59.525 215.739 60.699 216.524 61.92 217.233L74.1071 198.991L69.798 220.512C71.146 220.874 72.5301 221.149 73.9411 221.336L78.2641 199.747L82.562 221.347C83.975 221.162 85.3591 220.892 86.7081 220.534L82.422 198.998L94.597 217.27C95.821 216.564 96.9961 215.783 98.1131 214.929L85.894 196.592L104.22 208.834C105.076 207.719 105.86 206.546 106.569 205.323L88.3031 193.121L109.85 197.435C110.213 196.087 110.487 194.704 110.674 193.292Z" fill="#CCCCCC"/>
<path d="M86.8369 188.96C86.8369 193.68 83.0109 197.506 78.2899 197.506C73.5699 197.506 69.7429 193.68 69.7429 188.96C69.7429 184.24 73.5699 180.413 78.2899 180.413C83.0109 180.413 86.8369 184.239 86.8369 188.96Z" fill="#666666"/>
<path d="M78.29 223.327C59.34 223.327 43.923 207.909 43.923 188.959C43.923 170.009 59.34 154.592 78.29 154.592C97.24 154.592 112.658 170.009 112.658 188.959C112.658 207.909 97.24 223.327 78.29 223.327ZM78.29 157.972C61.203 157.972 47.303 171.873 47.303 188.959C47.303 206.046 61.204 219.947 78.29 219.947C95.377 219.947 109.277 206.046 109.277 188.959C109.278 171.873 95.377 157.972 78.29 157.972Z" fill="#666666"/>
<path d="M464.173 188.96C464.173 198.375 456.539 206.007 447.124 206.007C437.71 206.007 430.077 198.375 430.077 188.96C430.077 179.545 437.71 171.912 447.124 171.912C456.539 171.912 464.173 179.545 464.173 188.96Z" fill="#666666"/>
<path d="M447.124 142.987C421.735 142.987 401.152 163.57 401.152 188.96C401.152 214.35 421.735 234.933 447.124 234.933C472.516 234.933 493.098 214.351 493.098 188.96C493.098 163.569 472.516 142.987 447.124 142.987ZM447.124 212.389C434.185 212.389 423.697 201.9 423.697 188.962C423.697 176.023 434.185 165.535 447.124 165.535C460.062 165.535 470.552 176.023 470.552 188.962C470.552 201.9 460.063 212.389 447.124 212.389Z" fill="#0D151F"/>
<path d="M447.124 156.282C429.077 156.282 414.447 170.911 414.447 188.959C414.447 207.006 429.077 221.637 447.124 221.637C465.171 221.637 479.803 207.007 479.803 188.959C479.803 170.912 465.171 156.282 447.124 156.282ZM447.124 212.389C434.185 212.389 423.697 201.9 423.697 188.962C423.697 176.023 434.185 165.535 447.124 165.535C460.062 165.535 470.552 176.023 470.552 188.962C470.552 201.9 460.063 212.389 447.124 212.389Z" fill="#999999"/>
<path d="M479.508 193.292L457.895 188.964L479.513 184.662C479.327 183.25 479.056 181.866 478.696 180.517L457.145 184.806L475.425 172.626C474.717 171.402 473.935 170.228 473.079 169.111L454.739 181.332L466.978 163.009C465.862 162.154 464.688 161.371 463.464 160.663L451.266 178.923L455.579 157.39C454.229 157.03 452.846 156.758 451.435 156.572L447.111 178.167L442.812 156.573C441.402 156.759 440.017 157.031 438.668 157.392L442.952 178.918L430.787 160.663C429.563 161.371 428.39 162.154 427.272 163.009L439.478 181.325L421.179 169.101C420.324 170.218 419.541 171.391 418.832 172.614L437.068 184.795L415.561 180.489C415.2 181.838 414.928 183.221 414.741 184.632L436.312 188.951L414.736 193.245C414.921 194.657 415.192 196.041 415.552 197.39L437.062 193.109L418.814 205.269C419.52 206.494 420.302 207.668 421.156 208.785L439.467 196.583L427.242 214.883C428.357 215.739 429.53 216.524 430.753 217.233L442.939 198.991L438.63 220.512C439.979 220.874 441.361 221.149 442.773 221.336L447.096 199.747L451.395 221.347C452.806 221.162 454.191 220.892 455.539 220.534L451.254 198.998L463.429 217.27C464.654 216.564 465.829 215.783 466.947 214.929L454.727 196.592L473.052 208.834C473.908 207.719 474.694 206.546 475.402 205.323L457.136 193.121L478.684 197.435C479.048 196.087 479.32 194.704 479.508 193.292Z" fill="#CCCCCC"/>
<path d="M455.671 188.96C455.671 193.68 451.845 197.506 447.124 197.506C442.405 197.506 438.577 193.68 438.577 188.96C438.577 184.24 442.405 180.413 447.124 180.413C451.845 180.413 455.671 184.239 455.671 188.96Z" fill="#666666"/>
<path d="M447.124 223.327C428.174 223.327 412.758 207.909 412.758 188.959C412.758 170.009 428.174 154.592 447.124 154.592C466.074 154.592 481.492 170.009 481.492 188.959C481.492 207.909 466.074 223.327 447.124 223.327ZM447.124 157.972C430.038 157.972 416.137 171.873 416.137 188.959C416.137 206.046 430.038 219.947 447.124 219.947C464.211 219.947 478.112 206.046 478.112 188.959C478.112 171.873 464.211 157.972 447.124 157.972Z" fill="#666666"/>
<path d="M536.081 126.786L523.69 104.254C523.69 104.254 513.55 91.2983 409.903 78.3433C409.903 78.3433 334.422 32.7153 288.231 20.3233C288.231 20.3233 179.056 7.03831 61.275 23.8193L64.988 31.2463C64.988 31.2463 20.889 67.4543 12.07 83.7013C12.07 83.7013 7.42801 103.661 12.07 116.195L0 135.228V160.295C0 160.295 5.45101 180.241 21.471 185.186C23.422 155.534 48.153 132.002 78.289 132.002C109.696 132.002 135.246 157.552 135.246 188.959C135.246 190.993 135.135 193 134.926 194.98L390.946 198.297C390.441 195.257 390.167 192.14 390.167 188.959C390.167 157.553 415.718 132.002 447.123 132.002C478.53 132.002 504.081 157.552 504.081 188.959C504.081 191.976 503.841 194.936 503.387 197.827L541.714 191.001L546.221 143.685L536.081 126.786Z" fill="#F15A24"/>
<g opacity="0.5">
<path d="M112.091 133.844C91.32 92.3883 90.825 20.8483 90.823 20.1303L92.091 20.1263C92.093 20.8413 92.586 92.0823 113.224 133.276L112.091 133.844Z" fill="#0F1A26"/>
</g>
<path d="M105.754 30.6393L101.726 40.0363L112.658 71.8073L124.263 78.0723L367.084 92.8403L376.929 85.2333C376.929 85.2333 314.282 24.8223 224.785 27.0603L105.754 30.6393Z" fill="white"/>
<path d="M105.754 30.6393L101.726 40.0363L112.658 71.8073L124.263 78.0723L367.084 92.8403L376.929 85.2333C376.929 85.2333 314.282 24.8223 224.785 27.0603L105.754 30.6393Z" fill="white"/>
<path d="M105.754 30.6393L101.726 40.0363L112.658 71.8073L124.263 78.0723L367.084 92.8403L376.929 85.2333C376.929 85.2333 314.282 24.8223 224.785 27.0603L105.754 30.6393Z" fill="#DAEDE2"/>
<path d="M145.25 69.5393L133.645 63.2743L122.713 31.5033L123.309 30.1123L105.754 30.6403L101.726 40.0373L112.658 71.8083L124.263 78.0733L367.084 92.8413L376.929 85.2343C376.929 85.2343 376.284 84.6133 375.051 83.5153L145.25 69.5393Z" fill="#172633"/>
<path d="M220.141 83.9043L246.623 85.5143C246.622 85.5053 242.785 44.4623 235.636 27.1013C232.064 26.9913 228.449 26.9683 224.784 27.0593L215.162 27.3483C215.164 27.3563 219.315 60.9633 220.141 83.9043Z" fill="#283742"/>
<path opacity="0.5" d="M240.187 179.266V188.959H241.455L241.451 179.331C247.229 124.199 225.621 27.8863 225.402 26.9193L225.368 26.7693L225.269 26.6523C221.604 22.2763 224.011 17.1763 224.678 15.9623C224.24 15.9473 223.807 15.9313 223.366 15.9173C222.641 17.2403 220.226 22.4723 224.198 27.3463C225.163 31.6583 245.842 125.277 240.187 179.266Z" fill="#0F1A26"/>
<g opacity="0.5">
<path d="M388.744 163.627L387.488 163.458C387.563 162.898 394.876 106.903 381.27 62.4973L382.481 62.1253C396.171 106.801 388.82 163.064 388.744 163.627Z" fill="#0F1A26"/>
</g>
<path d="M303.199 31.7113C339.84 45.4903 384.863 73.6203 384.863 73.6203C397.318 79.5163 409.903 78.3433 409.903 78.3433C409.903 78.3433 347.167 40.4213 301.083 24.3333C300.391 28.7253 303.199 31.7113 303.199 31.7113Z" fill="#DAEDE2"/>
<path d="M131.702 78.5253L136.789 78.8353L134.753 29.7683L129.685 29.9203L131.702 78.5253Z" fill="#172633"/>
<path opacity="0.3" d="M142.203 149.873C142.203 149.873 151.878 164.391 166.391 171.913L372.789 176.21C372.789 176.21 375.074 163.041 378.424 158.743L142.203 149.873Z" fill="#0F1A26"/>
<path d="M12.071 116.195L29.06 112.248C29.06 112.248 47.8461 98.7363 53.119 87.2013L48.175 82.2583L12.071 83.7013C12.071 83.7013 7.42905 103.662 12.071 116.195Z" fill="#FF931E"/>
<g opacity="0.5">
<path d="M49.914 139.769C49.76 139.606 34.407 123.375 28.504 112.552L29.616 111.946C35.441 122.625 50.679 138.736 50.833 138.898L49.914 139.769Z" fill="#0F1A26"/>
</g>
<g opacity="0.5">
<path d="M85.322 109.587H63.099C60.517 109.587 58.417 107.408 58.417 104.729V86.4843C58.417 83.8053 60.517 81.6263 63.099 81.6263H85.322C87.904 81.6263 90.005 83.8063 90.005 86.4843V104.729C90.006 107.407 87.904 109.587 85.322 109.587ZM63.1 82.8923C61.217 82.8923 59.685 84.5033 59.685 86.4833V104.728C59.685 106.708 61.217 108.319 63.1 108.319H85.323C87.206 108.319 88.738 106.708 88.738 104.728V86.4833C88.738 84.5033 87.206 82.8923 85.323 82.8923H63.1Z" fill="#0F1A26"/>
</g>
<path d="M494.465 106.828C494.465 106.828 508.975 134.425 539.653 132.74L536.081 126.786L523.69 104.254H495.238L494.465 106.828Z" fill="#FF931E"/>
<path opacity="0.3" d="M506.637 127.224C484.824 95.7563 414.738 102.452 414.738 102.452L362.174 138.667C323.197 131.158 129.686 128.105 129.686 128.105L113.852 144.516C126.882 154.963 135.248 170.999 135.248 188.96C135.248 190.994 135.137 193.001 134.928 194.981L390.948 198.298C390.443 195.258 390.169 192.141 390.169 188.96C390.169 157.554 415.72 132.003 447.125 132.003C478.532 132.003 504.083 157.553 504.083 188.96C504.083 191.977 503.843 194.937 503.389 197.828L541.716 191.002L546.223 143.686C520.366 148.704 506.637 127.224 506.637 127.224Z" fill="#0F1A26"/>
<path opacity="0.3" d="M21.472 185.187C22.348 171.888 27.815 159.829 36.287 150.563L21.878 139.77L0.000976562 135.229V160.296C0.000976562 160.296 5.45198 180.242 21.472 185.187Z" fill="#0F1A26"/>
<path d="M544.781 158.813C544.781 158.813 519.081 163.566 519.277 194.998L541.715 191.002L544.781 158.813Z" fill="#0F1A26"/>
<path d="M548.685 188.96L547.806 184.897L542.597 181.736L516.521 183.475C513.711 147.638 483.671 119.33 447.125 119.33C410.244 119.33 379.985 148.158 377.655 184.461H377.644L146.614 175.69C140.397 143.627 112.145 119.329 78.29 119.329C43.812 119.329 15.121 144.524 9.62402 177.467C12.689 180.774 16.587 183.679 21.471 185.187C23.422 155.535 48.153 132.003 78.289 132.003C109.696 132.003 135.246 157.553 135.246 188.96C135.246 190.994 135.135 193.001 134.926 194.981L142.058 195.073L379.413 198.149L379.603 198.152L381.181 198.172L383.711 198.204L390.945 198.298C390.44 195.258 390.166 192.141 390.166 188.96C390.166 157.554 415.717 132.003 447.122 132.003C478.529 132.003 504.08 157.553 504.08 188.96C504.08 191.977 503.84 194.937 503.386 197.828L516.438 195.504L541.713 191.003L548.685 188.96Z" fill="#0F1A26"/>
<path opacity="0.4" d="M139.133 105.328C139.133 110.06 132.828 113.896 125.051 113.896C117.273 113.896 110.968 110.06 110.968 105.328C110.968 100.596 117.273 96.7593 125.051 96.7593C132.828 96.7593 139.133 100.595 139.133 105.328Z" fill="#0F1A26"/>
<path d="M139.133 105.328C139.133 110.06 110.968 110.06 110.968 105.328C110.968 100.596 117.273 96.7593 125.051 96.7593C132.828 96.7593 139.133 100.595 139.133 105.328Z" fill="#F15A24"/>
<path d="M139.133 105.328C139.133 110.06 110.968 110.06 110.968 105.328C110.968 100.596 117.273 96.7593 125.051 96.7593C132.828 96.7593 139.133 100.595 139.133 105.328Z" fill="#FF6D40"/>
<path opacity="0.4" d="M278.621 105.328C278.621 110.06 272.316 113.896 264.539 113.896C256.762 113.896 250.456 110.06 250.456 105.328C250.456 100.596 256.762 96.7593 264.539 96.7593C272.316 96.7593 278.621 100.595 278.621 105.328Z" fill="#0F1A26"/>
<path d="M278.621 105.328C278.621 110.06 250.456 110.06 250.456 105.328C250.456 100.596 256.762 96.7593 264.539 96.7593C272.316 96.7593 278.621 100.595 278.621 105.328Z" fill="#F15A24"/>
<path d="M278.621 105.328C278.621 110.06 250.456 110.06 250.456 105.328C250.456 100.596 256.762 96.7593 264.539 96.7593C272.316 96.7593 278.621 100.595 278.621 105.328Z" fill="#FF6D40"/>
<path d="M260.275 57.3813C259.501 53.2533 255.521 50.5353 251.399 51.3083C247.271 52.0813 244.552 56.0553 245.326 60.1843L250.115 85.7273L265.767 86.6793L260.275 57.3813Z" fill="#172633"/>
<path d="M343.478 65.8013C341.315 64.9213 338.853 65.9613 337.973 68.1223L328.865 90.5163L337.766 91.0573L345.8 71.3063C346.68 69.1453 345.64 66.6803 343.478 65.8013Z" fill="#172633"/>
</svg>
