<svg width="499" height="191" viewBox="0 0 499 191" fill="none" xmlns="http://www.w3.org/2000/svg">
<path d="M465.783 99.0302L375.5 83.4082L209.306 115.88L73.246 75.0132L31.11 99.0302L35.863 153.703L127.962 165.812L358.75 166.02L373.199 159.862L448.38 164.587L474.438 145.789L465.783 99.0302Z" fill="#1A1A1A"/>
<path d="M382.484 59.2002C382.484 59.2002 303.629 8.46422 244.336 3.57522C244.336 3.57522 101.137 -9.90279 37.645 15.4792L38.914 18.8632L47.797 24.3622L8.88199 59.2592L11.42 72.3712L8.88199 88.0232L9.93999 108.114L8.88199 114.674L2.53899 118.482L0.000976562 129.901C0.000976562 129.901 2.96098 141.749 12.266 151.9C12.266 151.9 26.859 157.82 40.606 158.667L42.115 158.79C41.576 156.016 41.285 153.151 41.285 150.218C41.285 125.508 61.315 105.481 86.023 105.481C110.731 105.481 130.761 125.508 130.761 150.218C130.761 155.703 129.769 160.956 127.963 165.812L131.127 166.072H355.528L358.751 166.02V150.218C358.751 125.508 378.781 105.481 403.487 105.481C428.197 105.481 448.225 125.508 448.225 150.218V164.591L448.38 164.587L493.22 156.762L498.93 134.343V100.081C498.93 100.081 443.611 62.8672 382.484 59.2002Z" fill="#295BA7"/>
<path opacity="0.2" d="M382.484 59.2002C382.484 59.2002 376.072 55.0762 365.544 49.0712L359.053 57.7742L373.199 69.3542C373.199 69.3542 458.75 71.6642 498.929 105.213V100.081C498.929 100.081 443.611 62.8672 382.484 59.2002Z" fill="#1A1A1A"/>
<path d="M86.0221 110.059C63.8431 110.059 45.8621 128.039 45.8621 150.22C45.8621 172.399 63.8421 190.378 86.0221 190.378C108.202 190.378 126.182 172.399 126.182 150.22C126.182 128.039 108.202 110.059 86.0221 110.059ZM86.0221 173.508C73.1601 173.508 62.7341 163.08 62.7341 150.22C62.7341 137.358 73.1601 126.931 86.0221 126.931C98.8841 126.931 109.311 137.358 109.311 150.22C109.311 163.08 98.8841 173.508 86.0221 173.508Z" fill="#333333"/>
<path d="M103.772 150.22C103.772 160.021 95.8261 167.968 86.0231 167.968C76.2201 167.968 68.2731 160.021 68.2731 150.22C68.2731 140.414 76.2201 132.468 86.0231 132.468C95.8251 132.468 103.772 140.414 103.772 150.22Z" fill="#999999"/>
<path d="M85.904 120.83C83.134 120.83 80.455 121.211 77.908 121.911L86.066 151.152L94.2 121.995C91.564 121.242 88.782 120.83 85.904 120.83Z" fill="#CCCCCC"/>
<path d="M57.175 141.937C56.319 144.571 55.855 147.237 55.734 149.877L86.066 151.153L60.85 134.408C59.319 136.682 58.065 139.2 57.175 141.937Z" fill="#CCCCCC"/>
<path d="M68.372 175.782C70.614 177.41 73.006 178.674 75.476 179.607L86.065 151.152L62.345 169.962C64.037 172.119 66.046 174.09 68.372 175.782Z" fill="#CCCCCC"/>
<path d="M96.624 179.525C99.199 178.583 101.695 177.283 104.022 175.592C106.263 173.963 108.205 172.079 109.855 170.018L86.067 151.153L96.624 179.525Z" fill="#CCCCCC"/>
<path d="M114.856 141.629C114.002 138.994 112.809 136.566 111.357 134.357L86.066 151.152L116.311 149.881C116.211 147.14 115.746 144.364 114.856 141.629Z" fill="#CCCCCC"/>
<path d="M116.126 150.218C116.126 166.845 102.649 180.322 86.0231 180.322C69.3971 180.322 55.9191 166.845 55.9191 150.218C55.9191 133.593 69.3971 120.115 86.0231 120.115C102.649 120.114 116.126 133.593 116.126 150.218Z" stroke="white" stroke-width="3" stroke-miterlimit="10"/>
<path d="M94.64 150.22C94.64 154.977 90.782 158.836 86.022 158.836C81.263 158.836 77.405 154.977 77.405 150.22C77.405 145.46 81.263 141.601 86.022 141.601C90.782 141.601 94.64 145.46 94.64 150.22Z" fill="white"/>
<path d="M403.486 110.059C381.308 110.059 363.328 128.039 363.328 150.22C363.328 172.399 381.309 190.378 403.486 190.378C425.668 190.378 443.647 172.399 443.647 150.22C443.648 128.039 425.668 110.059 403.486 110.059ZM403.486 173.508C390.626 173.508 380.2 163.08 380.2 150.22C380.2 137.358 390.626 126.931 403.486 126.931C416.349 126.931 426.774 137.358 426.774 150.22C426.775 163.08 416.35 173.508 403.486 173.508Z" fill="#333333"/>
<path d="M421.238 150.22C421.238 160.021 413.292 167.968 403.486 167.968C393.684 167.968 385.739 160.021 385.739 150.22C385.739 140.414 393.684 132.468 403.486 132.468C413.292 132.468 421.238 140.414 421.238 150.22Z" fill="#999999"/>
<path d="M403.371 120.83C400.599 120.83 397.921 121.211 395.373 121.911L403.531 151.152L411.666 121.995C409.03 121.242 406.249 120.83 403.371 120.83Z" fill="#CCCCCC"/>
<path d="M374.643 141.937C373.786 144.571 373.322 147.237 373.2 149.877L403.532 151.153L378.316 134.408C376.784 136.682 375.531 139.2 374.643 141.937Z" fill="#CCCCCC"/>
<path d="M385.838 175.782C388.08 177.41 390.472 178.674 392.944 179.607L403.532 151.152L379.813 169.962C381.502 172.119 383.511 174.09 385.838 175.782Z" fill="#CCCCCC"/>
<path d="M414.091 179.525C416.664 178.583 419.16 177.283 421.487 175.592C423.729 173.963 425.671 172.079 427.322 170.018L403.532 151.153L414.091 179.525Z" fill="#CCCCCC"/>
<path d="M432.322 141.629C431.468 138.994 430.275 136.566 428.824 134.357L403.531 151.152L433.777 149.881C433.677 147.14 433.211 144.364 432.322 141.629Z" fill="#CCCCCC"/>
<path d="M433.592 150.218C433.592 166.845 420.113 180.322 403.486 180.322C386.862 180.322 373.384 166.845 373.384 150.218C373.384 133.593 386.862 120.115 403.486 120.115C420.113 120.114 433.592 133.593 433.592 150.218Z" stroke="white" stroke-width="3" stroke-miterlimit="10"/>
<path d="M412.106 150.22C412.106 154.977 408.248 158.836 403.487 158.836C398.73 158.836 394.872 154.977 394.872 150.22C394.872 145.46 398.73 141.601 403.487 141.601C408.247 141.601 412.106 145.46 412.106 150.22Z" fill="white"/>
<path opacity="0.2" d="M124.913 21.3642L94.64 69.3072C94.64 69.3072 100.975 92.9222 135.212 132.468C135.212 132.468 147.516 150.084 175.867 151.153L336.883 155.967C336.883 155.967 354.499 99.1762 333.653 73.8112L287.669 35.0772L124.913 21.3642Z" fill="#1A1A1A"/>
<path d="M363.328 72.5202C363.328 72.5202 305.858 12.7682 199.405 13.1432C199.405 13.1432 101.805 7.7892 70.899 38.8152C70.899 38.8152 72.625 48.4442 90.278 55.4002C90.278 55.4002 341.698 80.0092 363.328 72.5202Z" fill="white"/>
<path d="M131.795 59.3002L129.071 35.9562L140.952 18.7202C134.697 19.5652 128.415 20.6272 122.313 21.9622L100.899 56.4192C108.183 57.1122 118.857 58.1192 131.795 59.3002Z" fill="#1A1A1A"/>
<path d="M205.95 65.7402C214.84 66.4672 223.853 67.1842 232.836 67.8742L217.774 13.6902C212.205 13.3412 206.484 13.1542 200.613 13.1502L205.95 65.7402Z" fill="#1A1A1A"/>
<path d="M84.26 46.0122C113.753 17.4972 206.895 22.4172 206.895 22.4172C292.449 22.1272 344.844 61.0272 359.256 73.3162C361.016 73.1072 362.393 72.8452 363.328 72.5202C363.328 72.5202 305.858 12.7682 199.405 13.1432C199.405 13.1432 101.805 7.7892 70.899 38.8152C70.899 38.8152 72.625 48.4442 90.278 55.4002C90.278 55.4002 90.828 55.4532 91.879 55.5552C85.114 50.6012 84.26 46.0122 84.26 46.0122Z" fill="#1A1A1A"/>
<path d="M124.1 58.5942L121.128 33.1142L133.009 15.8772C126.754 16.7212 120.472 17.7832 114.369 19.1202L91.735 55.5412C95.686 55.9242 107.483 57.0612 124.1 58.5942Z" fill="#3D3D3D"/>
<path opacity="0.5" d="M124.594 17.1522L100.963 56.4262C101.818 56.5082 102.718 56.5912 103.663 56.6812L127.219 17.5322L127.775 16.6352C126.713 16.8002 125.652 16.9732 124.594 17.1522Z" fill="#1A1A1A"/>
<path d="M8.96898 87.4832H33.277C51.759 78.0162 53.338 69.2292 53.338 69.2292C48.83 57.9592 16.823 62.2412 16.823 62.2412L8.88098 59.2592L11.419 72.3712L8.96898 87.4832Z" fill="#FF213D"/>
<path d="M437.403 86.0882C437.403 86.0882 435.39 97.3612 457.935 108.835C457.935 108.835 491.21 110.446 498.93 112.258V105.213C498.93 105.213 461.962 83.0692 437.403 86.0882Z" fill="white"/>
<path opacity="0.6" d="M87.614 79.0932C87.614 82.4682 84.877 85.2062 81.502 85.2062H64.991C61.615 85.2062 58.879 82.4682 58.879 79.0932V70.9332C58.879 67.5572 61.616 64.8192 64.991 64.8192H81.502C84.878 64.8192 87.614 67.5562 87.614 70.9332V79.0932Z" stroke="#1A1A1A" stroke-miterlimit="10"/>
<path opacity="0.3" d="M47.796 24.3622L14.125 54.5562C17.723 56.0972 24.202 54.5562 24.202 54.5562L65.42 26.4372L37.645 15.4792L38.914 18.8632L47.796 24.3622Z" fill="#1A1A1A"/>
<path opacity="0.3" d="M18.034 69.8682L11.419 72.3722L8.881 88.0242L9.939 108.115L8.881 114.675L2.53799 118.483L0 129.902C0 129.902 2.96 141.75 12.265 151.901C12.265 151.901 26.858 157.821 40.605 158.668L42.114 158.791C41.575 156.017 41.284 153.152 41.284 150.219C41.284 125.509 61.314 105.482 86.022 105.482C110.73 105.482 130.76 125.509 130.76 150.219C130.76 155.704 129.768 160.957 127.962 165.813L131.126 166.073H355.527L358.75 166.021V150.219C358.75 125.509 378.78 105.482 403.486 105.482C428.196 105.482 448.224 125.509 448.224 150.219V164.592L448.379 164.588L493.219 156.763L498.929 134.344V127.258C389.876 59.9442 18.034 69.8682 18.034 69.8682Z" fill="#1A1A1A"/>
<path opacity="0.3" d="M40.606 158.667L42.115 158.79C41.576 156.016 41.285 153.151 41.285 150.218C41.285 125.508 61.315 105.481 86.023 105.481C110.731 105.481 130.761 125.508 130.761 150.218C130.761 155.703 129.769 160.956 127.963 165.812L131.127 166.072H355.528L358.751 166.02V150.218C358.751 125.508 378.781 105.481 403.487 105.481C428.197 105.481 448.225 125.508 448.225 150.218V164.591L448.38 164.587L493.22 156.762L457.072 151.153C457.078 150.841 457.096 150.533 457.096 150.22C457.096 120.66 433.046 96.6122 403.486 96.6122C373.928 96.6122 349.88 120.661 349.88 150.22C349.88 152.161 349.99 154.078 350.193 155.967H336.883L145.195 141.601H133.97H133.961C129.879 118.836 109.943 101.501 86.022 101.501C64.3 101.501 45.859 115.793 39.594 135.466C19.951 133.869 0 129.902 0 129.902C0 129.902 2.96 141.75 12.265 151.901C12.265 151.901 26.859 157.82 40.606 158.667Z" fill="#1A1A1A"/>
<path d="M475.445 115.88L474.437 120.83C474.437 120.83 492.619 125.026 498.929 134.343V120.115L475.445 115.88Z" fill="#01345B"/>
<path d="M470.009 132.468C470.009 132.468 466.387 144.497 465.783 150.218C465.783 150.218 487.647 154.454 494.026 153.586H494.028L498.317 136.744C498.307 136.736 475.844 117.456 470.009 132.468Z" fill="#01345B"/>
<path opacity="0.3" d="M471.532 138.54C476.159 126.636 491.23 136.288 497.283 140.804L498.317 136.744C498.306 136.735 475.843 117.456 470.008 132.468C470.008 132.468 466.386 144.497 465.782 150.218C465.782 150.218 466.744 150.406 468.312 150.689C469.591 144.988 471.532 138.54 471.532 138.54Z" fill="#1A1A1A"/>
<path d="M191.727 12.8842L197.56 65.0492C206.609 65.8002 215.839 66.5472 225.085 67.2722L208.547 13.2662C205.54 13.1782 202.495 13.1332 199.405 13.1432C199.405 13.1432 196.573 12.9882 191.727 12.8842Z" fill="#3D3D3D"/>
<path d="M303.043 72.5772C313.593 73.1352 323.275 73.5452 331.693 73.7632L331.443 71.9482L311.617 37.7772C305.189 34.6902 298.179 31.6792 290.597 28.8812L303.043 72.5772Z" fill="#3D3D3D"/>
<path opacity="0.5" d="M215.891 166.071H218.335L218.332 152.495C224.684 80.9062 214.837 67.6682 212.177 65.4422L200.629 13.0112V0.84021C200.577 0.83721 200.526 0.837198 200.475 0.834198C199.717 0.803198 198.955 0.771225 198.184 0.743225V13.2752L209.889 66.4202L210.037 66.9282L210.45 67.2012C210.573 67.2822 222.647 76.2052 215.893 152.386V166.071H215.891Z" fill="#1A1A1A"/>
<path opacity="0.5" d="M322.046 73.4522C323.15 73.4952 324.242 73.5332 325.317 73.5712L324.466 72.7442L301.146 33.0492C300.125 32.6172 299.092 32.1892 298.047 31.7632L322.046 73.4522Z" fill="#1A1A1A"/>
<path opacity="0.3" d="M42.115 141.601L53.338 134.408V119.685L23.205 114.484V87.4842L27.542 69.6742C21.39 69.7782 18.035 69.8682 18.035 69.8682L11.42 72.3722L8.88199 88.0242L9.93999 108.115L8.88199 114.675L2.53899 118.483L0.000976562 129.902C0.000976562 129.902 2.96098 141.75 12.266 151.901C12.266 151.901 26.859 157.821 40.606 158.668L42.115 158.791C41.576 156.017 41.285 153.152 41.285 150.219C41.285 147.272 41.578 144.394 42.122 141.606L42.115 141.601Z" fill="#1A1A1A"/>
<path opacity="0.2" d="M244.336 3.57522C244.336 3.57522 101.137 -9.90279 37.645 15.4792L65.42 26.4372C65.42 26.4372 143.086 -11.7338 280.401 16.8882L298.047 21.3652L301.631 18.2512C282.588 10.9002 262.54 5.07622 244.336 3.57522Z" fill="#1A1A1A"/>
<path d="M280.401 16.8882C280.401 16.8882 339.9 42.2872 359.052 57.7742C359.052 57.7742 376.575 67.1482 382.484 59.2012C382.484 59.2012 337.672 30.3722 290.211 14.0822L280.401 16.8882Z" fill="white"/>
<path opacity="0.3" d="M117.727 118.657C125.781 126.747 130.761 137.9 130.761 150.217C130.761 155.702 129.769 160.955 127.963 165.811L131.127 166.071H355.528L358.751 166.019C335.968 125.863 200.4 119.011 117.727 118.657Z" fill="#1A1A1A"/>
<path opacity="0.2" d="M247.397 84.0692C247.28 86.9812 241.986 89.1282 235.57 88.8722C229.155 88.6112 224.048 86.0432 224.166 83.1292C224.284 80.2182 229.578 78.0682 235.995 78.3272C242.41 78.5862 247.516 81.1562 247.397 84.0692Z" fill="#1A1A1A"/>
<path d="M248.673 85.8912C248.658 85.8912 248.647 85.8912 248.632 85.8892L223.732 84.2082C222.943 84.1532 222.345 83.4702 222.397 82.6832C222.452 81.8912 223.164 81.2792 223.923 81.3502L248.826 83.0312C249.613 83.0852 250.212 83.7692 250.159 84.5582C250.106 85.3322 249.444 85.9222 248.673 85.8912Z" fill="#295BA7"/>
<path opacity="0.2" d="M132.046 77.5352C132.141 80.4472 127.016 82.9752 120.599 83.1852C114.181 83.3912 108.902 81.2012 108.808 78.2872C108.713 75.3742 113.838 72.8442 120.256 72.6362C126.675 72.4282 131.953 74.6222 132.046 77.5352Z" fill="#1A1A1A"/>
<path d="M133.451 79.2602C133.437 79.2582 133.424 79.2602 133.412 79.2602L108.453 79.3942C107.662 79.3972 107.017 78.7592 107.013 77.9692C107.009 77.1762 107.675 76.5142 108.438 76.5292L133.396 76.3962C134.186 76.3922 134.832 77.0312 134.836 77.8202C134.84 78.5992 134.224 79.2352 133.451 79.2602Z" fill="#295BA7"/>
</svg>
