<svg width="569" height="224" viewBox="0 0 569 224" fill="none" xmlns="http://www.w3.org/2000/svg">
<path d="M51.7301 183.73L157.778 184.424H410.475L516.459 184.328L553.856 178.484V107.783H266.933H33.1541V128.324L51.7301 183.73Z" fill="black"/>
<path d="M565.019 170.562C565.019 170.562 572.28 122.709 553.468 104.886C553.468 104.886 512.875 76.5052 419.474 70.2332C419.474 70.2332 349.509 16.6882 305.615 8.31324C305.615 8.31324 188.783 -8.64376 94.3951 5.87824L63.4171 8.31324L58.0361 14.1832L63.4171 21.0322C63.4171 21.0322 40.4251 40.1092 14.5011 76.7962C14.5011 76.7962 12.2141 97.2962 12.8741 109.177L4.62305 118.748C4.62305 118.748 5.28305 130.628 7.59305 141.52L0.00305176 148.451L3.63305 161.651C3.63305 161.651 22.1471 172.977 46.7811 181.981C44.8381 110.39 103.943 115.972 103.943 115.972C103.943 115.972 166.111 111.991 165.758 184.423H406.273H406.386C403.014 110.257 463.463 115.972 463.463 115.972C463.463 115.972 524.768 112.059 525.265 182.951L568.651 176.173V171.223L565.019 170.562Z" fill="#666666"/>
<g opacity="0.5">
<path d="M525.264 182.952L568.65 176.174V171.224L565.019 170.563C565.019 170.563 570.617 133.652 559.236 112.591L547.791 111.623L538.565 133.659L545.228 139.682V141.825H532.416L513.268 129.939L497.038 124.449C511.425 132.911 525.031 149.704 525.264 182.952Z" fill="#1A1A1A"/>
<path d="M12.8729 109.177L4.62195 118.748C4.62195 118.748 5.28195 130.628 7.59195 141.52L0.00195312 148.451L3.63195 161.651C3.63195 161.651 22.1459 172.977 46.7799 181.981C44.8369 110.39 103.942 115.972 103.942 115.972C103.942 115.972 166.11 111.991 165.757 184.423H406.272H406.385C403.013 110.257 463.462 115.972 463.462 115.972C463.462 115.972 467.592 115.711 473.71 116.558L459.118 111.622H419.473L411.472 101.927C377.138 97.8702 117.833 85.4912 117.833 85.4912L53.411 82.4112L14.499 76.7942C14.499 76.7942 12.2139 97.2952 12.8729 109.177Z" fill="#1A1A1A"/>
</g>
<path d="M392.627 139.683L170.023 129.939V126.143C170.023 126.143 165.331 117.932 278.146 126.027C278.677 126.065 279.211 126.105 279.747 126.143C394.206 134.432 392.628 137.929 392.628 137.929V139.683H392.627Z" fill="#666666"/>
<path d="M137.783 104.734V107.436C137.783 107.436 81.71 100.786 59.149 113.569H52.579C52.579 113.569 59.713 95.2942 93.177 95.1262C93.177 95.1262 123.733 94.9582 137.783 104.734Z" fill="#666666"/>
<path d="M104.79 129.938C78.9809 129.938 58.0599 150.859 58.0599 176.667C58.0599 202.476 78.9809 223.397 104.79 223.397C130.599 223.397 151.521 202.475 151.521 176.667C151.521 150.859 130.599 129.938 104.79 129.938ZM104.79 211.338C85.6419 211.338 70.1189 195.817 70.1189 176.667C70.1189 157.519 85.6419 141.997 104.79 141.997C123.938 141.997 139.462 157.519 139.462 176.667C139.462 195.817 123.938 211.338 104.79 211.338Z" fill="#1A1A1A"/>
<path d="M126.665 176.667C126.665 188.75 116.872 198.544 104.79 198.544C92.7079 198.544 82.9149 188.75 82.9149 176.667C82.9149 164.586 92.7079 154.793 104.79 154.793C116.872 154.793 126.665 164.586 126.665 176.667Z" fill="#8F9193"/>
<path d="M107.665 186.665L104.791 182.711L101.917 186.665L87.2939 206.792C88.3259 207.393 89.3929 207.942 90.4899 208.437L104.791 188.753L119.092 208.437C120.189 207.943 121.255 207.392 122.288 206.792L107.665 186.665Z" fill="#B3B3B3"/>
<path d="M71.7969 165.471L97.7729 173.911L102.423 175.424V170.534V142.919H107.159V170.534V175.424L111.809 173.911L137.784 165.471C137.401 164.341 136.962 163.238 136.469 162.163L110.712 170.534V142.337C108.787 142.008 106.811 141.825 104.792 141.825C102.772 141.825 100.797 142.008 98.8719 142.337V170.534L73.1139 162.163C72.6199 163.238 72.1799 164.341 71.7969 165.471Z" fill="#B3B3B3"/>
<path d="M138.998 170.057L113.271 178.417L108.622 179.927L111.496 183.882L126.211 204.137C127.15 203.404 128.049 202.624 128.906 201.802L114.37 181.793L139.493 173.632C139.387 172.421 139.223 171.23 138.998 170.057Z" fill="#B3B3B3"/>
<path d="M83.3689 204.135L98.0839 183.882L100.958 179.927L96.3089 178.417L70.5819 170.057C70.3579 171.229 70.1919 172.421 70.0879 173.631L95.2109 181.793L80.6749 201.802C81.5319 202.624 82.4309 203.403 83.3689 204.135Z" fill="#B3B3B3"/>
<path d="M104.79 213.651C84.3969 213.651 67.8059 197.059 67.8059 176.667C67.8059 156.275 84.3969 139.683 104.79 139.683C125.183 139.683 141.774 156.276 141.774 176.667C141.775 197.06 125.184 213.651 104.79 213.651ZM104.79 144.42C87.0089 144.42 72.5419 158.885 72.5419 176.667C72.5419 194.449 87.0089 208.916 104.79 208.916C122.572 208.916 137.038 194.449 137.038 176.667C137.039 158.885 122.572 144.42 104.79 144.42Z" fill="#E6E6E6"/>
<path d="M114.198 176.667C114.198 181.863 109.986 186.074 104.79 186.074C99.594 186.074 95.382 181.863 95.382 176.667C95.382 171.472 99.594 167.258 104.79 167.258C109.987 167.258 114.198 171.472 114.198 176.667Z" fill="#E6E6E6"/>
<path d="M109.135 176.702C109.135 179.099 107.19 181.047 104.791 181.047C102.392 181.047 100.447 179.1 100.447 176.702C100.447 174.304 102.392 172.358 104.791 172.358C107.189 172.358 109.135 174.304 109.135 176.702Z" fill="#8F9193"/>
<path d="M463.461 129.938C437.652 129.938 416.731 150.859 416.731 176.667C416.731 202.476 437.653 223.397 463.461 223.397C489.271 223.397 510.192 202.475 510.192 176.667C510.192 150.859 489.27 129.938 463.461 129.938ZM463.461 211.338C444.315 211.338 428.79 195.817 428.79 176.667C428.79 157.519 444.314 141.997 463.461 141.997C482.609 141.997 498.133 157.519 498.133 176.667C498.133 195.817 482.609 211.338 463.461 211.338Z" fill="#1A1A1A"/>
<path d="M485.336 176.667C485.336 188.75 475.543 198.544 463.461 198.544C451.381 198.544 441.586 188.75 441.586 176.667C441.586 164.586 451.381 154.793 463.461 154.793C475.543 154.793 485.336 164.586 485.336 176.667Z" fill="#8F9193"/>
<path d="M466.336 186.665L463.461 182.711L460.588 186.665L445.964 206.792C446.999 207.393 448.065 207.942 449.16 208.437L463.461 188.753L477.762 208.437C478.86 207.943 479.924 207.392 480.958 206.792L466.336 186.665Z" fill="#B3B3B3"/>
<path d="M430.469 165.471L456.444 173.911L461.094 175.424V170.534V142.919H465.83V170.534V175.424L470.479 173.911L496.455 165.471C496.071 164.341 495.632 163.238 495.139 162.163L469.382 170.534V142.337C467.458 142.008 465.482 141.825 463.461 141.825C461.444 141.825 459.468 142.008 457.541 142.337V170.534L431.783 162.163C431.291 163.238 430.851 164.341 430.469 165.471Z" fill="#B3B3B3"/>
<path d="M497.669 170.057L471.943 178.417L467.294 179.927L470.167 183.882L484.883 204.137C485.821 203.404 486.719 202.624 487.577 201.802L473.041 181.793L498.164 173.632C498.06 172.421 497.893 171.23 497.669 170.057Z" fill="#B3B3B3"/>
<path d="M442.041 204.135L456.756 183.882L459.63 179.927L454.982 178.417L429.253 170.057C429.029 171.229 428.864 172.421 428.761 173.631L453.883 181.793L439.345 201.802C440.204 202.624 441.103 203.403 442.041 204.135Z" fill="#B3B3B3"/>
<path d="M463.461 213.651C443.068 213.651 426.478 197.059 426.478 176.667C426.478 156.275 443.069 139.683 463.461 139.683C483.854 139.683 500.447 156.276 500.447 176.667C500.447 197.06 483.854 213.651 463.461 213.651ZM463.461 144.42C445.68 144.42 431.215 158.885 431.215 176.667C431.215 194.449 445.68 208.916 463.461 208.916C481.243 208.916 495.711 194.449 495.711 176.667C495.711 158.885 481.243 144.42 463.461 144.42Z" fill="#E6E6E6"/>
<path d="M472.87 176.667C472.87 181.863 468.658 186.074 463.461 186.074C458.267 186.074 454.055 181.863 454.055 176.667C454.055 171.472 458.267 167.258 463.461 167.258C468.658 167.258 472.87 171.472 472.87 176.667Z" fill="#E6E6E6"/>
<path d="M467.805 176.702C467.805 179.099 465.861 181.047 463.46 181.047C461.063 181.047 459.118 179.1 459.118 176.702C459.118 174.304 461.062 172.358 463.46 172.358C465.861 172.358 467.805 174.304 467.805 176.702Z" fill="#8F9193"/>
<path d="M63.417 21.0312C63.417 21.0312 45.535 35.8752 23.531 64.5402C27.179 65.1432 31.642 64.4452 31.642 64.4452C43.112 61.8972 70.421 21.8442 70.421 21.8442L63.417 21.0312Z" fill="white"/>
<path d="M330.734 20.9212C330.734 20.9212 380.718 45.4182 407.691 74.1232C407.691 74.1232 416.657 75.2532 419.474 70.2342C419.474 70.2342 375.513 36.5942 335.422 18.4712L330.734 20.9212Z" fill="#DAEDE2"/>
<path d="M396.431 84.6432L121.1 67.1262C121.1 67.1262 87.2899 71.0832 95.3819 47.7022L109.134 21.0322C109.134 21.0322 156.165 9.58023 241.239 12.0922C241.239 12.0922 348.952 9.46523 396.431 84.6432Z" fill="white"/>
<path d="M396.431 84.6432L121.1 67.1262C121.1 67.1262 87.2899 71.0832 95.3819 47.7022L109.134 21.0322C109.134 21.0322 156.165 9.58023 241.239 12.0922C241.239 12.0922 348.952 9.46523 396.431 84.6432Z" fill="#DAEDE2"/>
<path d="M147.399 57.0882C147.399 57.0882 113.59 61.0452 121.682 37.6642L132.339 16.9942C117.082 19.0982 109.134 21.0322 109.134 21.0322L95.3819 47.7022C87.2899 71.0832 121.1 67.1262 121.1 67.1262L396.431 84.6432C393.684 80.2922 390.727 76.2162 387.61 72.3702L147.399 57.0882Z" fill="#333333"/>
<path opacity="0.7" d="M130.457 1.82324V17.0422L120.234 66.9292L116.048 85.3312L117.453 117.088C118.039 117.195 118.638 117.316 119.247 117.447L117.834 85.4912L121.97 67.3032L132.216 17.3092L132.229 1.69324C131.639 1.73824 131.048 1.77724 130.457 1.82324Z" fill="#1A1A1A"/>
<path d="M132.216 17.3102V17.0102C131.603 17.0952 131.001 17.1802 130.412 17.2642L120.235 66.9292L120.17 67.2112C120.759 67.1652 121.101 67.1252 121.101 67.1252L121.996 67.1812L132.216 17.3102Z" fill="#333333"/>
<path opacity="0.7" d="M64.747 128.969C38.636 114.318 42.343 85.1942 42.388 84.8742L40.629 84.6272C40.582 84.9562 36.729 114.932 63.386 130.246C63.836 129.808 64.289 129.381 64.747 128.969Z" fill="#1A1A1A"/>
<g opacity="0.7">
<path d="M398.877 163.437L397.106 163.318C399.655 125.923 394.361 84.5893 394.312 84.1823L396.432 84.6432C396.482 85.0502 401.438 125.871 398.877 163.437Z" fill="#1A1A1A"/>
</g>
<path opacity="0.7" d="M503.194 128.676C513.824 120.237 524.667 116.243 524.796 116.198L524.193 114.528C524.059 114.575 512.732 118.738 501.742 127.563C502.227 127.921 502.711 128.293 503.194 128.676Z" fill="#1A1A1A"/>
<path d="M538.17 146.985C538.17 146.985 530.56 162.094 545.554 167.257H565.436C565.918 162.894 566.616 154.658 566.331 145.356L566.329 145.357L538.17 146.985Z" fill="#FF931E" fill-opacity="0.47"/>
<path d="M159.336 69.5802L166.506 70.0422C164.216 43.7312 163.567 23.1242 163.385 13.7132C160.942 13.9022 158.575 14.0992 156.292 14.3022C156.486 23.9112 157.142 44.0322 159.336 69.5802Z" fill="#202121"/>
<path d="M235.928 74.4992L263.987 76.3022L251.035 12.3362C244.855 12.0092 241.24 12.0912 241.24 12.0912C237.604 11.9842 234.043 11.9032 230.547 11.8462L235.928 74.4992Z" fill="#202121"/>
<path d="M12.8961 97.8802C57.8841 100.457 53.2791 79.5883 53.2791 79.5883C47.1811 65.9853 14.5 76.7953 14.5 76.7953C14.5 76.7953 13.31 87.4703 12.894 97.8783L12.8961 97.8802Z" fill="#F15A24"/>
<path d="M506.053 97.7443C506.053 97.7443 515.98 130.226 564.838 129.938H564.841C563.531 122.439 561.237 115.202 557.395 109.546C557.371 109.538 530.396 98.2313 506.053 97.7443Z" fill="#FF931E"/>
<path opacity="0.7" d="M252.881 184.424H254.655L254.652 160.531L257.721 131.99L255.05 125.122V92.2122L250.485 75.2622L242.12 11.9692L240.722 1.98123C240.418 1.96223 240.119 1.94124 239.814 1.92224L238.939 2.04523L240.361 12.2092L248.749 75.6112L253.275 92.3322V125.458L255.911 132.233L252.883 160.437V184.424H252.881Z" fill="#1A1A1A"/>
<path d="M152.561 95.1272C152.561 98.8832 149.516 101.928 145.76 101.928H140.923C137.166 101.928 134.12 98.8832 134.12 95.1272C134.12 91.3702 137.166 88.3252 140.923 88.3252H145.76C149.515 88.3242 152.561 91.3702 152.561 95.1272Z" fill="#808080"/>
<path d="M157.625 95.1273C157.625 96.7133 156.339 97.9993 154.754 97.9993H131.928C130.342 97.9993 129.056 96.7133 129.056 95.1273C129.056 93.5413 130.342 92.2552 131.928 92.2552H154.754C156.339 92.2552 157.625 93.5413 157.625 95.1273Z" fill="#B3B3B3"/>
<path d="M284.377 102.365C284.2 106.117 281.012 109.014 277.261 108.838L272.429 108.609C268.677 108.431 265.779 105.247 265.956 101.493C266.133 97.7413 269.32 94.8433 273.072 95.0203L277.904 95.2493C281.656 95.4253 284.554 98.6123 284.377 102.365Z" fill="#808080"/>
<path d="M289.435 102.604C289.36 104.188 288.014 105.412 286.43 105.337L263.63 104.259C262.046 104.183 260.822 102.839 260.898 101.254C260.973 99.6712 262.318 98.4462 263.902 98.5222L286.702 99.5992C288.287 99.6742 289.51 101.018 289.435 102.604Z" fill="#B3B3B3"/>
<g opacity="0.5">
<path d="M406.272 184.424H406.385C405.658 168.422 407.907 156.143 411.873 146.719L174.265 139.683C169.508 139.477 161.927 138.835 152.735 137.929C160.423 148.069 165.861 162.859 165.756 184.424H406.272Z" fill="#1A1A1A"/>
<path d="M0.00195312 148.451L3.63195 161.651C3.63195 161.651 22.1459 172.977 46.7799 181.981C46.0089 153.558 54.863 137.306 65.818 128.034C54.386 126.657 45.61 125.599 41.926 125.199C27.362 123.615 4.62295 118.748 4.62295 118.748C4.62295 118.748 5.28295 130.628 7.59295 141.52L0.00195312 148.451Z" fill="#1A1A1A"/>
</g>
<path d="M568.65 171.224L565.019 170.563H528.926C528.932 169.351 528.933 168.141 528.933 166.933C528.933 135.291 504.428 109.548 474.305 109.548H452.617C423.634 109.548 399.858 133.389 398.105 163.38L169.693 158.722C165.887 130.956 143.101 109.548 115.633 109.548H93.944C69.235 109.548 48.316 126.875 41.593 150.569C33.437 150.195 15.974 148.567 7.59 141.521L0 148.452L3.63 161.652C3.63 161.652 3.653 161.667 3.686 161.686C3.707 161.699 3.74299 161.721 3.77399 161.74C3.79799 161.756 3.819 161.766 3.849 161.785C3.916 161.826 3.99899 161.876 4.09599 161.933C4.10099 161.935 4.105 161.939 4.111 161.941C4.197 161.992 4.301 162.055 4.41 162.119C4.441 162.139 4.471 162.155 4.505 162.176C4.614 162.24 4.739 162.314 4.869 162.39C4.906 162.412 4.943 162.433 4.981 162.455C5.126 162.541 5.283 162.631 5.451 162.728C5.482 162.747 5.515 162.766 5.547 162.785C5.731 162.89 5.92599 163.004 6.13499 163.125C6.15299 163.133 6.171 163.145 6.189 163.154C11.314 166.09 23.72 172.86 39.521 179.197V179.201C39.631 179.246 39.746 179.289 39.857 179.334C39.909 179.354 39.959 179.375 40.01 179.395C40.017 179.399 40.024 179.402 40.032 179.405C40.747 179.69 41.469 179.974 42.196 180.257C42.225 180.267 42.253 180.279 42.282 180.289C42.294 180.296 42.306 180.299 42.318 180.303C42.553 180.395 42.793 180.485 43.029 180.576C43.505 180.759 43.98 180.941 44.462 181.123C44.486 181.133 44.51 181.141 44.533 181.15C44.693 181.21 44.856 181.269 45.017 181.329C45.35 181.455 45.684 181.577 46.019 181.703C46.272 181.795 46.523 181.891 46.777 181.983C46.777 181.981 46.777 181.98 46.777 181.977C48.404 182.573 50.049 183.16 51.727 183.731C51.166 178.533 51.158 172.868 51.158 166.934C51.158 141.781 70.314 121.39 93.944 121.39H115.633C139.263 121.39 158.42 141.781 158.42 166.934C158.42 173.132 158.417 179.038 157.776 184.425H161.716H165.756H169.673H398.577H406.27H406.383H410.473C409.833 179.038 409.828 173.132 409.828 166.934C409.828 141.781 428.984 121.39 452.615 121.39H474.303C497.933 121.39 517.09 141.781 517.09 166.934C517.09 173.095 517.087 178.969 516.456 184.33L526.51 182.76L568.648 176.176V171.224H568.65Z" fill="#1C1C1C"/>
<path d="M281.015 40.3222C279.93 34.5382 274.353 30.7292 268.578 31.8132C262.793 32.8982 258.982 38.4652 260.067 44.2512L266.086 76.3512L288.031 77.7472L281.015 40.3222Z" fill="#202121"/>
<path d="M363.128 82.5232L369.274 67.4062C370.022 65.5712 369.14 63.4772 367.303 62.7312C365.465 61.9812 363.374 62.8672 362.626 64.7022L355.573 82.0432L363.128 82.5232Z" fill="#202121"/>
</svg>
