<svg width="596" height="232" viewBox="0 0 596 232" fill="none" xmlns="http://www.w3.org/2000/svg">
<path d="M68.035 180.992L191.8 192.405L428.57 197.577L547.558 198.514L558.64 172.634L547.558 121.92L498.876 107.63H51.65L68.035 180.992Z" fill="#162026"/>
<path d="M591.927 142.539C591.927 142.539 589.804 113.452 579.968 100.292C579.968 100.292 574.012 94.1979 556.005 90.0419C556.005 90.0419 504.661 78.2679 446.115 74.2039C446.115 74.2039 406.961 46.4089 364.85 21.7529C364.85 21.7529 338.442 10.3029 304.088 10.3029C304.088 10.3029 88.068 4.45292 45.445 13.8469C45.013 13.9419 44.628 14.1729 44.334 14.5009L41.992 17.1139C41.404 17.7689 41.617 18.8049 42.411 19.1799L44.145 19.9959C44.814 20.3109 44.986 21.1859 44.476 21.7249C40.117 26.3309 23.307 45.2489 15.781 70.5419C15.426 71.7429 15.235 72.9879 15.235 74.2419V127.026C15.235 127.026 5.832 127.984 1.605 133.712L0 148.634C0 148.634 1.199 167.289 11.91 170.797C11.91 170.797 50.119 178.96 68.034 180.992C68.034 180.992 70.138 155.205 77.156 136.551C77.156 136.551 85.601 114.283 119.585 114.283C119.585 114.283 168.711 113.913 174.992 132.382C174.992 132.382 182.564 152.882 185.703 176.707L191.799 192.405L428.569 197.576L430.786 181.324C430.786 181.324 435.218 137.737 447.408 127.764C447.408 127.764 456.458 120.008 485.266 120.008C485.266 120.008 533.288 119.084 539.198 140.137C539.198 140.137 547.139 161.931 547.693 193.883H582.598C582.598 193.883 586.94 190.097 588.602 186.311L587.586 182.339L590.911 169.504H592.941C592.941 169.504 594.881 168.58 594.881 166.272C594.881 166.09 594.881 165.944 594.881 165.811L595.434 146.418C595.434 146.418 594.05 143.925 591.927 142.539Z" fill="#558AA2"/>
<g opacity="0.2">
<path d="M592.943 169.504C592.943 169.504 594.883 168.58 594.883 166.272C594.883 166.09 594.883 165.944 594.883 165.811L595.436 146.418C595.436 146.418 594.051 143.925 591.928 142.539C591.928 142.539 591.793 140.71 591.44 137.763L537.292 135.923C538.122 137.221 538.773 138.621 539.2 140.139C539.2 140.139 547.141 161.932 547.695 193.882H582.6C582.6 193.882 586.942 190.097 588.604 186.311L587.588 182.339L590.913 169.504H592.943Z" fill="#909596"/>
<path d="M77.1569 136.551C77.1569 136.551 80.641 127.369 92.132 120.797L15.2369 118.184V127.026C15.2369 127.026 5.83395 127.984 1.60695 133.712L0.00195312 148.634C0.00195312 148.634 1.20095 167.289 11.9119 170.797C11.9119 170.797 50.121 178.96 68.036 180.992C68.036 180.992 70.1389 155.206 77.1569 136.551Z" fill="#909596"/>
<path d="M430.786 181.325C430.786 181.325 434.212 147.654 443.317 132.73L166.685 123.33C170.699 125.683 173.722 128.647 174.993 132.382C174.993 132.382 182.565 152.882 185.704 176.707L191.8 192.405L428.57 197.576L430.786 181.325Z" fill="#909596"/>
</g>
<path d="M273.253 4.77598C190.513 -4.82802 80.392 3.02195 80.392 3.02195C72.081 4.68395 67.65 13.548 67.65 13.548H93.136L95.767 8.39997C96.288 7.38197 97.288 6.69796 98.425 6.58796C135.984 2.96096 228.979 6.12196 244.634 6.69096C246.014 6.74096 247.241 7.57696 247.792 8.84196L249.244 12.163H283.735C278.609 6.20798 273.253 4.77598 273.253 4.77598Z" fill="#4C7B91"/>
<path opacity="0.2" d="M23.735 51.1189H412.032C398.376 42.1769 381.856 31.7089 364.85 21.7529C364.85 21.7529 338.442 10.3029 304.088 10.3029C304.088 10.3029 88.068 4.45292 45.445 13.8469C45.013 13.9419 44.628 14.1729 44.334 14.5009L41.992 17.1139C41.404 17.7689 41.617 18.8049 42.411 19.1799L44.145 19.9959C44.814 20.3109 44.986 21.1859 44.476 21.7249C41.329 25.0519 31.685 35.8499 23.735 51.1189Z" fill="white"/>
<path d="M538.804 182.341C538.804 209.752 516.587 231.969 489.175 231.969C461.767 231.969 439.546 209.751 439.546 182.341C439.546 154.934 461.767 132.71 489.175 132.71C516.587 132.71 538.804 154.935 538.804 182.341Z" fill="#29212C"/>
<path d="M489.175 132.71C461.767 132.71 439.546 154.934 439.546 182.341C439.546 209.752 461.767 231.969 489.175 231.969C516.587 231.969 538.804 209.751 538.804 182.341C538.804 154.935 516.587 132.71 489.175 132.71ZM521.685 214.85C517.462 219.073 512.545 222.388 507.07 224.703C501.406 227.099 495.384 228.314 489.175 228.314C482.966 228.314 476.947 227.099 471.281 224.703C465.808 222.388 460.89 219.073 456.668 214.849C452.445 210.627 449.129 205.71 446.814 200.236C444.418 194.57 443.203 188.549 443.203 182.341C443.203 176.133 444.418 170.113 446.814 164.448C449.129 158.973 452.445 154.056 456.668 149.832C460.891 145.609 465.809 142.293 471.283 139.978C476.949 137.581 482.967 136.366 489.175 136.366C495.384 136.366 501.406 137.581 507.07 139.978C512.546 142.293 517.462 145.609 521.685 149.832C525.908 154.056 529.222 158.973 531.537 164.448C533.935 170.113 535.148 176.133 535.148 182.341C535.148 188.55 533.935 194.57 531.537 200.236C529.222 205.71 525.907 210.627 521.685 214.85Z" fill="#3F3643"/>
<path d="M489.175 143.62C467.825 143.62 450.454 160.99 450.454 182.342C450.454 203.691 467.825 221.061 489.175 221.061C510.525 221.061 527.895 203.691 527.895 182.342C527.895 160.99 510.524 143.62 489.175 143.62ZM522.887 182.341C522.887 186.894 521.996 191.308 520.241 195.462C518.543 199.477 516.112 203.083 513.015 206.179C509.917 209.276 506.312 211.708 502.298 213.405C498.144 215.162 493.73 216.053 489.175 216.053C484.622 216.053 480.208 215.161 476.054 213.405C472.04 211.708 468.435 209.276 465.337 206.178C462.239 203.082 459.808 199.476 458.11 195.462C456.352 191.308 455.462 186.894 455.462 182.341C455.462 177.788 456.353 173.373 458.11 169.22C459.807 165.205 462.239 161.599 465.337 158.502C468.435 155.404 472.04 152.973 476.054 151.274C480.208 149.517 484.623 148.626 489.175 148.626C493.728 148.626 498.144 149.518 502.298 151.274C506.312 152.972 509.917 155.404 513.015 158.501C516.112 161.599 518.541 165.205 520.241 169.219C521.996 173.374 522.887 177.789 522.887 182.341Z" fill="#3F3643"/>
<path d="M523.683 182.336C523.636 201.394 508.148 216.843 489.089 216.843C470.031 216.843 454.622 201.394 454.667 182.336C454.716 163.278 470.203 147.83 489.261 147.83C508.32 147.83 523.73 163.279 523.683 182.336Z" fill="#D0D2D3"/>
<path d="M519.976 182.337C519.935 199.347 506.111 213.138 489.099 213.138C472.087 213.138 458.332 199.347 458.374 182.337C458.415 165.324 472.24 151.536 489.251 151.536C506.263 151.536 520.019 165.325 519.976 182.337Z" fill="#29212C"/>
<path d="M519.968 185.57L519.984 179.102H508.961C508.749 177.769 508.404 176.48 507.942 175.248L517.499 169.737L514.278 164.135L504.719 169.647C503.877 168.615 502.934 167.67 501.905 166.826L507.439 157.28L501.847 154.047L496.313 163.59C495.082 163.124 493.793 162.776 492.46 162.559L492.486 151.536H486.017L485.99 162.559C484.656 162.775 483.365 163.123 482.133 163.59L476.645 154.047L471.038 157.28L476.526 166.826C475.492 167.67 474.544 168.616 473.698 169.647L464.165 164.135L460.917 169.737L470.446 175.248C469.977 176.48 469.626 177.769 469.407 179.102H458.384L458.368 185.57H469.391C469.602 186.905 469.95 188.195 470.411 189.427L460.852 194.937L464.075 200.54L473.634 195.028C474.479 196.059 475.419 197.004 476.448 197.849L470.914 207.393L476.507 210.627L482.039 201.084C483.272 201.55 484.56 201.899 485.893 202.115L485.866 213.138H492.334L492.361 202.115C493.696 201.899 494.988 201.55 496.219 201.084L501.706 210.627L507.314 207.393L501.826 197.849C502.86 197.003 503.807 196.058 504.654 195.028L514.188 200.54L517.435 194.937L507.905 189.427C508.375 188.195 508.726 186.905 508.947 185.57H519.968Z" fill="#919396"/>
<path d="M498.593 182.337C498.579 187.537 494.351 191.753 489.152 191.753C483.951 191.753 479.746 187.537 479.759 182.337C479.771 177.136 483.997 172.92 489.198 172.92C494.399 172.92 498.605 177.136 498.593 182.337Z" fill="#29212C"/>
<path d="M489.175 197.281C480.937 197.281 474.234 190.578 474.234 182.341C474.234 174.102 480.937 167.4 489.175 167.4C497.413 167.4 504.116 174.102 504.116 182.341C504.116 190.578 497.413 197.281 489.175 197.281ZM489.175 169.011C481.825 169.011 475.847 174.991 475.847 182.342C475.847 189.691 481.826 195.671 489.175 195.671C496.525 195.671 502.505 189.691 502.505 182.342C502.505 174.991 496.524 169.011 489.175 169.011Z" fill="#D0D2D3"/>
<path d="M494.646 182.337C494.637 185.358 492.183 187.806 489.162 187.806C486.141 187.806 483.699 185.358 483.705 182.337C483.715 179.315 486.17 176.867 489.189 176.867C492.208 176.867 494.652 179.316 494.646 182.337Z" fill="#CBCDCE"/>
<path d="M489.175 162.749C478.372 162.749 469.583 171.538 469.583 182.341C469.583 193.143 478.372 201.932 489.175 201.932C499.978 201.932 508.765 193.143 508.765 182.341C508.765 171.538 499.978 162.749 489.175 162.749ZM506.232 182.341C506.232 184.645 505.783 186.878 504.892 188.98C504.035 191.011 502.804 192.835 501.238 194.402C499.671 195.969 497.846 197.199 495.816 198.058C493.714 198.947 491.48 199.397 489.175 199.397C486.871 199.397 484.637 198.946 482.536 198.058C480.505 197.199 478.68 195.969 477.114 194.402C475.546 192.835 474.315 191.01 473.458 188.979C472.567 186.877 472.116 184.644 472.116 182.34C472.116 180.035 472.567 177.802 473.458 175.7C474.316 173.67 475.546 171.845 477.114 170.277C478.68 168.71 480.505 167.48 482.537 166.62C484.637 165.731 486.871 165.281 489.175 165.281C491.48 165.281 493.714 165.732 495.816 166.62C497.846 167.479 499.67 168.71 501.238 170.277C502.804 171.844 504.035 173.67 504.894 175.7C505.782 177.804 506.232 180.038 506.232 182.341Z" fill="#D0D2D3"/>
<path d="M489.258 148.953C470.822 148.953 455.837 163.9 455.792 182.337C455.745 200.775 470.653 215.721 489.093 215.721C507.529 215.721 522.513 200.775 522.559 182.337C522.605 163.899 507.695 148.953 489.258 148.953ZM489.099 212.577C472.4 212.577 458.894 199.038 458.935 182.337C458.977 165.636 472.55 152.097 489.25 152.097C505.951 152.097 519.458 165.636 519.416 182.337C519.374 199.038 505.802 212.577 489.099 212.577Z" fill="#D0D2D3"/>
<path d="M519.968 185.57L519.984 179.102H508.961C508.749 177.769 508.404 176.48 507.942 175.248L517.499 169.737L514.278 164.135L504.719 169.647C503.877 168.615 502.934 167.67 501.905 166.826L507.439 157.28L501.847 154.047L496.313 163.59C495.082 163.124 493.793 162.776 492.46 162.559L492.486 151.536H486.017L485.99 162.559C484.656 162.775 483.365 163.123 482.133 163.59L476.645 154.047L471.038 157.28L476.526 166.826C475.492 167.67 474.544 168.615 473.698 169.647L464.165 164.135L460.917 169.737L470.446 175.248C469.977 176.48 469.626 177.769 469.407 179.102H458.384L458.368 185.57H469.391C469.604 186.905 469.95 188.195 470.411 189.427L460.852 194.937L464.075 200.54L473.634 195.028C474.479 196.059 475.419 197.004 476.448 197.849L470.914 207.393L476.507 210.628L482.039 201.084C483.272 201.55 484.56 201.899 485.893 202.115L485.866 213.138H492.334L492.361 202.115C493.696 201.899 494.988 201.55 496.219 201.084L501.706 210.628L507.314 207.393L501.826 197.849C502.86 197.003 503.807 196.058 504.654 195.028L514.188 200.54L517.435 194.937L507.905 189.427C508.375 188.195 508.726 186.905 508.947 185.57H519.968ZM507.097 190.823L515.23 195.526L513.601 198.337L505.462 193.631L504.277 192.946L503.409 194.003C502.631 194.95 501.754 195.823 500.807 196.6L499.747 197.467L500.43 198.653L505.114 206.802L502.301 208.424L497.617 200.28L496.934 199.09L495.649 199.575C494.505 200.008 493.311 200.326 492.102 200.523L490.75 200.741L490.746 202.111L490.725 211.525H487.483L487.506 202.12L487.51 200.744L486.151 200.524C484.944 200.327 483.753 200.008 482.612 199.576L481.331 199.091L480.645 200.276L475.919 208.425L473.118 206.807L477.845 198.659L478.533 197.472L477.473 196.602C476.529 195.827 475.659 194.955 474.885 194.008L474.018 192.945L472.83 193.63L464.67 198.336L463.058 195.531L471.219 190.824L472.407 190.14L471.924 188.859C471.494 187.715 471.178 186.524 470.985 185.316L470.768 183.957H469.393H459.986L459.995 180.717H469.409H470.778L471.001 179.365C471.199 178.157 471.52 176.965 471.958 175.822L472.445 174.539L471.257 173.851L463.124 169.15L464.753 166.339L472.892 171.043L474.078 171.729L474.947 170.671C475.725 169.723 476.601 168.85 477.549 168.076L478.61 167.208L477.928 166.022L473.242 157.874L476.057 156.252L480.739 164.396L481.423 165.586L482.708 165.1C483.853 164.667 485.045 164.349 486.254 164.153L487.607 163.933L487.609 162.563L487.632 153.149H490.874L490.85 162.556L490.847 163.931L492.205 164.152C493.413 164.348 494.604 164.667 495.746 165.099L497.026 165.584L497.714 164.4L502.439 156.25L505.238 157.869L500.513 166.017L499.825 167.204L500.885 168.074C501.829 168.849 502.7 169.722 503.473 170.668L504.34 171.73L505.528 171.045L513.688 166.34L515.301 169.145L507.139 173.851L505.953 174.536L506.433 175.817C506.864 176.96 507.179 178.152 507.373 179.359L507.59 180.719H508.965H518.371L518.363 183.959H508.951H507.582L507.359 185.31C507.16 186.518 506.837 187.71 506.402 188.855L505.914 190.138L507.097 190.823Z" fill="#D0D2D3"/>
<path d="M176.908 182.341C176.908 209.752 154.692 231.969 127.28 231.969C99.872 231.969 77.651 209.751 77.651 182.341C77.651 154.934 99.872 132.71 127.28 132.71C154.692 132.71 176.908 154.935 176.908 182.341Z" fill="#29212C"/>
<path d="M127.28 132.71C99.872 132.71 77.651 154.934 77.651 182.341C77.651 209.752 99.872 231.969 127.28 231.969C154.692 231.969 176.908 209.751 176.908 182.341C176.908 154.935 154.692 132.71 127.28 132.71ZM159.79 214.85C155.567 219.073 150.649 222.388 145.175 224.703C139.511 227.099 133.489 228.314 127.28 228.314C121.071 228.314 115.051 227.099 109.386 224.703C103.911 222.388 98.994 219.073 94.772 214.849C90.549 210.627 87.233 205.71 84.918 200.236C82.52 194.57 81.306 188.549 81.306 182.341C81.306 176.133 82.52 170.113 84.918 164.448C87.232 158.973 90.549 154.056 94.772 149.832C98.995 145.609 103.913 142.293 109.386 139.978C115.051 137.581 121.071 136.366 127.28 136.366C133.489 136.366 139.51 137.581 145.175 139.978C150.65 142.293 155.568 145.609 159.79 149.832C164.011 154.056 167.327 158.973 169.643 164.448C172.038 170.113 173.252 176.133 173.252 182.341C173.252 188.55 172.037 194.57 169.643 200.236C167.328 205.71 164.011 210.627 159.79 214.85Z" fill="#3F3643"/>
<path d="M127.28 143.62C105.93 143.62 88.5601 160.99 88.5601 182.342C88.5601 203.691 105.93 221.061 127.28 221.061C148.63 221.061 165.999 203.691 165.999 182.342C165.999 160.99 148.63 143.62 127.28 143.62ZM160.992 182.341C160.992 186.894 160.1 191.308 158.345 195.462C156.648 199.477 154.216 203.083 151.12 206.179C148.022 209.276 144.417 211.708 140.402 213.405C136.249 215.162 131.833 216.053 127.28 216.053C122.727 216.053 118.311 215.161 114.157 213.405C110.144 211.708 106.54 209.276 103.442 206.178C100.343 203.082 97.9131 199.476 96.2151 195.462C94.4581 191.308 93.5671 186.894 93.5671 182.341C93.5671 177.788 94.4591 173.373 96.2151 169.22C97.9121 165.205 100.343 161.599 103.442 158.502C106.54 155.404 110.145 152.973 114.157 151.274C118.313 149.517 122.727 148.626 127.28 148.626C131.833 148.626 136.249 149.518 140.402 151.274C144.417 152.972 148.022 155.404 151.12 158.501C154.216 161.599 156.647 165.205 158.345 169.219C160.101 173.374 160.992 177.789 160.992 182.341Z" fill="#3F3643"/>
<path d="M161.787 182.336C161.739 201.394 146.251 216.843 127.193 216.843C108.137 216.843 92.7251 201.394 92.7731 182.336C92.8201 163.278 108.308 147.83 127.364 147.83C146.424 147.83 161.835 163.279 161.787 182.336Z" fill="#D0D2D3"/>
<path d="M158.081 182.337C158.04 199.347 144.216 213.138 127.204 213.138C110.192 213.138 96.436 199.347 96.479 182.337C96.521 165.324 110.344 151.536 127.356 151.536C144.368 151.536 158.124 165.325 158.081 182.337Z" fill="#29212C"/>
<path d="M158.073 185.57L158.091 179.102H147.066C146.853 177.769 146.508 176.48 146.045 175.248L155.603 169.737L152.382 164.135L142.821 169.647C141.979 168.615 141.038 167.67 140.009 166.826L145.543 157.28L139.95 154.047L134.417 163.59C133.185 163.124 131.897 162.776 130.563 162.559L130.591 151.536H124.122L124.094 162.559C122.761 162.775 121.47 163.123 120.236 163.59L114.75 154.047L109.143 157.28L114.631 166.826C113.596 167.67 112.649 168.616 111.801 169.647L102.27 164.135L99.0211 169.737L108.551 175.248C108.082 176.48 107.731 177.769 107.512 179.102H96.489L96.472 185.57H107.494C107.708 186.905 108.053 188.195 108.515 189.427L98.9581 194.937L102.177 200.54L111.738 195.028C112.58 196.059 113.523 197.004 114.552 197.849L109.017 207.393L114.611 210.627L120.142 201.084C121.375 201.55 122.662 201.899 123.997 202.115L123.97 213.138H130.437L130.466 202.115C131.8 201.899 133.091 201.55 134.323 201.084L139.81 210.627L145.418 207.393L139.93 197.849C140.965 197.003 141.911 196.058 142.759 195.028L152.291 200.54L155.539 194.937L146.01 189.427C146.479 188.195 146.828 186.905 147.049 185.57H158.073Z" fill="#919396"/>
<path d="M136.696 182.337C136.682 187.537 132.458 191.753 127.257 191.753C122.056 191.753 117.851 187.537 117.862 182.337C117.876 177.136 122.102 172.92 127.303 172.92C132.505 172.92 136.71 177.136 136.696 182.337Z" fill="#29212C"/>
<path d="M127.28 197.281C119.04 197.281 112.341 190.578 112.341 182.341C112.341 174.102 119.04 167.4 127.28 167.4C135.518 167.4 142.219 174.102 142.219 182.341C142.22 190.578 135.519 197.281 127.28 197.281ZM127.28 169.011C119.929 169.011 113.95 174.991 113.95 182.342C113.95 189.691 119.93 195.671 127.28 195.671C134.63 195.671 140.608 189.691 140.608 182.342C140.609 174.991 134.63 169.011 127.28 169.011Z" fill="#D0D2D3"/>
<path d="M132.749 182.337C132.742 185.358 130.287 187.806 127.267 187.806C124.246 187.806 121.804 185.358 121.81 182.337C121.818 179.315 124.273 176.867 127.294 176.867C130.315 176.867 132.757 179.316 132.749 182.337Z" fill="#CBCDCE"/>
<path d="M127.28 162.749C116.477 162.749 107.688 171.538 107.688 182.341C107.688 193.143 116.477 201.932 127.28 201.932C138.083 201.932 146.872 193.143 146.872 182.341C146.872 171.538 138.083 162.749 127.28 162.749ZM144.337 182.341C144.337 184.645 143.888 186.878 142.997 188.98C142.14 191.011 140.909 192.835 139.343 194.402C137.775 195.969 135.95 197.199 133.92 198.058C131.817 198.947 129.583 199.397 127.28 199.397C124.975 199.397 122.743 198.946 120.641 198.058C118.61 197.199 116.786 195.969 115.217 194.402C113.651 192.835 112.42 191.01 111.561 188.979C110.673 186.877 110.223 184.644 110.223 182.34C110.223 180.035 110.673 177.802 111.561 175.7C112.42 173.67 113.651 171.845 115.217 170.277C116.785 168.71 118.61 167.48 120.641 166.62C122.743 165.731 124.977 165.281 127.28 165.281C129.583 165.281 131.817 165.732 133.92 166.62C135.95 167.479 137.774 168.71 139.343 170.277C140.909 171.844 142.14 173.67 142.997 175.7C143.888 177.804 144.337 180.038 144.337 182.341Z" fill="#D0D2D3"/>
<path d="M127.362 148.953C108.926 148.953 93.941 163.9 93.897 182.337C93.85 200.775 108.76 215.721 127.196 215.721C145.633 215.721 160.618 200.775 160.664 182.337C160.71 163.899 145.8 148.953 127.362 148.953ZM127.206 212.577C110.504 212.577 96.997 199.038 97.04 182.337C97.081 165.636 110.653 152.097 127.354 152.097C144.056 152.097 157.561 165.636 157.52 182.337C157.48 199.038 143.906 212.577 127.206 212.577Z" fill="#D0D2D3"/>
<path d="M158.073 185.57L158.091 179.102H147.066C146.853 177.769 146.508 176.48 146.045 175.248L155.603 169.737L152.382 164.135L142.821 169.647C141.979 168.615 141.036 167.67 140.009 166.826L145.543 157.28L139.95 154.047L134.417 163.59C133.185 163.124 131.897 162.776 130.563 162.559L130.591 151.536H124.122L124.094 162.559C122.759 162.775 121.47 163.123 120.236 163.59L114.75 154.047L109.143 157.28L114.631 166.826C113.596 167.67 112.649 168.615 111.801 169.647L102.27 164.135L99.0211 169.737L108.551 175.248C108.081 176.48 107.731 177.769 107.512 179.102H96.489L96.472 185.57H107.494C107.708 186.905 108.053 188.195 108.515 189.427L98.9581 194.937L102.177 200.54L111.738 195.028C112.58 196.059 113.524 197.004 114.552 197.849L109.017 207.393L114.61 210.628L120.142 201.084C121.375 201.55 122.662 201.899 123.997 202.115L123.97 213.138H130.437L130.466 202.115C131.8 201.899 133.091 201.55 134.323 201.084L139.81 210.628L145.418 207.393L139.93 197.849C140.965 197.003 141.911 196.058 142.759 195.028L152.291 200.54L155.539 194.937L146.01 189.427C146.479 188.195 146.828 186.905 147.049 185.57H158.073ZM145.202 190.823L153.333 195.526L151.704 198.337L143.567 193.631L142.382 192.946L141.514 194.003C140.734 194.95 139.86 195.823 138.91 196.6L137.848 197.467L138.532 198.653L143.218 206.802L140.404 208.424L135.722 200.28L135.036 199.09L133.752 199.575C132.607 200.008 131.414 200.326 130.205 200.523L128.853 200.741L128.849 202.111L128.827 211.525H125.586L125.609 202.12L125.611 200.744L124.254 200.524C123.047 200.327 121.856 200.008 120.715 199.576L119.434 199.091L118.746 200.276L114.021 208.425L111.221 206.807L115.947 198.659L116.635 197.472L115.574 196.602C114.629 195.827 113.76 194.955 112.986 194.008L112.119 192.945L110.931 193.63L102.77 198.336L101.158 195.531L109.32 190.824L110.506 190.14L110.024 188.859C109.595 187.715 109.279 186.524 109.086 185.316L108.868 183.957H107.492H98.088L98.0961 180.717H107.51H108.877L109.1 179.365C109.299 178.157 109.621 176.965 110.058 175.822L110.547 174.539L109.358 173.851L101.225 169.15L102.854 166.339L110.993 171.043L112.179 171.729L113.048 170.671C113.825 169.723 114.702 168.85 115.65 168.076L116.711 167.208L116.029 166.022L111.344 157.874L114.158 156.252L118.84 164.396L119.524 165.586L120.809 165.1C121.954 164.667 123.147 164.349 124.356 164.153L125.707 163.933L125.711 162.563L125.733 153.149H128.974L128.95 162.556L128.948 163.931L130.305 164.152C131.513 164.348 132.703 164.667 133.846 165.099L135.127 165.584L135.813 164.4L140.54 156.25L143.339 157.869L138.614 166.017L137.926 167.204L138.987 168.074C139.93 168.849 140.801 169.722 141.575 170.668L142.442 171.73L143.63 171.045L151.79 166.34L153.403 169.145L145.241 173.851L144.055 174.536L144.534 175.817C144.968 176.96 145.281 178.152 145.475 179.359L145.692 180.719H147.067H156.473L156.465 183.959H147.051H145.683L145.459 185.31C145.262 186.518 144.939 187.71 144.503 188.855L144.014 190.138L145.202 190.823Z" fill="#D0D2D3"/>
<path d="M32.968 73.004C32.968 73.004 48.204 33.3889 63.163 18.1519C63.163 18.1519 139.347 16.491 161.511 16.213C161.511 16.213 167.605 17.691 163.54 24.524L138.055 66.818C138.055 66.818 133.991 73.004 126.974 73.004C119.955 73.004 32.968 73.004 32.968 73.004Z" fill="#312935"/>
<path d="M174.454 55.926C175.317 52.839 176.692 49.828 177.843 46.94C180.583 40.039 183.501 33.145 187.111 26.646C187.674 25.632 188.254 24.628 188.869 23.645C189.183 23.145 190.508 21.749 190.508 21.201C190.508 21.201 193.094 16.215 199.742 16.215C199.742 16.215 288.806 17.185 331.609 22.309C331.609 22.309 351.37 25.634 363.746 36.068L400.312 66.266C400.312 66.266 411.763 82.518 393.11 85.473C374.457 88.427 190.691 78.64 190.691 78.64C190.691 78.64 185.152 78.085 181.642 74.207C179.39 71.718 175.841 68.9369 174.39 65.9019C174.085 65.2669 173.923 64.574 173.808 63.879C173.361 61.19 173.726 58.531 174.454 55.926Z" fill="#312935"/>
<path d="M365.078 21.887L361.833 22.99C360.899 23.307 360.751 24.562 361.587 25.085C369.759 30.204 400.599 49.849 430.983 73.511C432.167 74.432 433.641 74.898 435.139 74.815L446.115 74.205C446.115 74.205 407.101 46.509 365.078 21.887Z" fill="#312935"/>
<path opacity="0.4" d="M418.874 76.606L417.849 73.2639C416.894 70.1539 414.982 67.425 412.386 65.465L363.005 28.2169C363.005 28.2169 347.677 17.506 319.234 14.735L184.505 11.78C184.505 11.78 164.28 46.409 158.741 76.3289C158.741 76.3289 156.153 100.463 155.016 118.628C164.441 121.275 172.662 125.532 174.993 132.382C174.993 132.382 182.565 152.882 185.704 176.707L189.325 186.034H413.608L418.874 167.473C418.874 167.473 429.956 117.607 418.874 76.606ZM417.798 167.203L412.773 184.926H190.083L186.785 176.43C183.687 153.06 176.266 132.637 176.038 132.012C173.93 125.838 167.252 121.063 156.179 117.811C157.306 100.339 159.718 77.617 159.837 76.49C164.907 49.181 182.527 17.496 185.138 12.903L319.169 15.843C346.564 18.52 361.823 28.7529 362.357 29.1169L411.923 66.506C414.2 68.2239 415.876 70.618 416.714 73.345L417.808 76.913C423.484 97.923 423.181 121.343 421.927 137.291C420.599 154.199 417.948 166.509 417.798 167.203Z" fill="#909596"/>
<path d="M433.001 90.2729C433.001 90.2729 432.101 98.3759 434.317 101.054L458.628 101.193C458.628 101.193 464.677 97.4759 465.046 92.4899C465.046 92.4899 464.769 90.6429 461.63 90.6429L435.589 89.1649C435.589 89.1649 433.095 89.5149 433.001 90.2729Z" fill="#1F1916"/>
<path d="M32.968 73.004H15.237C15.237 73.004 11.402 99.032 15.237 127.026H31.078C31.078 127.026 30.425 84.996 32.968 73.004Z" fill="#A41E22"/>
<path opacity="0.2" d="M542.917 153.588H595.231L595.434 146.418C595.434 146.418 594.049 143.925 591.926 142.539C591.926 142.539 591.916 142.432 591.901 142.231H539.894C540.589 144.432 541.724 148.315 542.917 153.588Z" fill="white"/>
<path d="M575.827 169.504C574.978 169.504 574.249 170.111 574.097 170.946L572.831 177.843C572.643 178.865 573.326 179.845 574.351 180.024L587.587 182.339L590.912 169.504H575.827Z" fill="#529496"/>
<path d="M575.827 170.027C574.978 170.027 574.249 170.633 574.097 171.468L572.831 178.364C572.643 179.387 573.326 180.366 574.351 180.545L587.587 182.861L590.912 170.026L575.827 170.027Z" fill="#3C7273"/>
<path d="M591.902 142.231C591.66 139.291 589.51 115.927 581.648 102.813C579.343 102.291 575.761 101.904 574.205 101.64C572.789 101.399 571.574 102.646 571.834 104.058C576.004 126.714 575.69 142.23 575.69 142.23H591.902V142.231Z" fill="#EBE7C7"/>
<path d="M582.974 142.231C582.107 125.764 576.265 106.491 574.754 101.734C574.566 101.702 574.38 101.669 574.204 101.64C572.788 101.399 571.573 102.646 571.833 104.058C576.003 126.714 575.689 142.23 575.689 142.23H582.974V142.231Z" fill="#F6921E"/>
<path opacity="0.5" d="M590.691 141.123H587.554H576.8C576.779 137.133 576.433 122.926 572.924 103.858C572.851 103.468 573.022 103.194 573.13 103.064C573.312 102.844 573.576 102.718 573.855 102.718C573.908 102.718 573.964 102.723 574.019 102.732C575.835 103.041 579.165 103.396 580.939 103.79L582.374 104.081C582.139 103.649 581.898 103.226 581.648 102.813C579.343 102.291 575.761 101.904 574.205 101.64C574.086 101.619 573.969 101.61 573.855 101.61C572.594 101.61 571.595 102.764 571.833 104.058C576.003 126.714 575.689 142.23 575.689 142.23H591.902C591.883 141.992 591.849 141.609 591.803 141.122H590.691V141.123Z" fill="#404041"/>
<path d="M583.179 196.402L582.599 193.883H547.694L547.558 198.514H581.497C582.607 198.514 583.429 197.483 583.179 196.402Z" fill="#404041"/>
<path opacity="0.4" d="M32.968 73.004H27.802H15.237L15.0291 74.838C15.0291 74.838 20.785 74.838 23.935 74.838C27.083 74.838 26.892 79.8199 26.892 79.8199C25.433 96.2049 25.912 127.026 25.912 127.026H31.078C31.078 127.026 30.425 84.996 32.968 73.004Z" fill="#909596"/>
<path opacity="0.3" d="M71.583 156.807L0.381958 151.771C1.25096 157.239 3.95796 168.191 11.911 170.797C11.911 170.797 50.12 178.96 68.035 180.992C68.035 180.992 68.948 169.787 71.583 156.807Z" fill="#909596"/>
<path opacity="0.2" d="M547.349 142.231H550.369C549.856 138.506 548.966 134.071 547.434 129.219C542.356 113.12 522.973 105.042 507.28 101.389C490.655 97.5189 472.528 98.0299 456.509 103.946C436.314 111.404 424.573 131.827 425.335 152.394C425.335 152.404 425.335 152.414 425.335 152.424C426.324 147.248 428.319 142.616 430.14 137.552C431.892 132.671 434.673 128.741 438.315 124.93C444.568 118.385 453.384 114.535 462.25 112.631C472.219 110.488 482.516 109.736 492.715 110.388C506.998 111.301 522.701 114.914 534.431 123.242C539.719 126.996 544.034 132 546.034 138.056L547.349 142.231Z" fill="white"/>
<g opacity="0.4">
<path d="M161.511 16.213C139.347 16.491 63.163 18.1519 63.163 18.1519C48.204 33.3889 32.968 73.004 32.968 73.004C32.968 73.004 119.955 73.004 126.974 73.004C133.992 73.004 138.055 66.818 138.055 66.818L163.54 24.524C167.605 17.691 161.511 16.213 161.511 16.213ZM161.816 23.4839L136.356 65.7299C136.083 66.125 132.573 70.989 126.974 70.989H35.943C39.619 61.95 51.972 32.942 64.039 20.149C72.352 19.969 140.174 18.502 161.213 18.233C161.604 18.378 162.465 18.778 162.783 19.563C163.14 20.441 162.794 21.8359 161.816 23.4839Z" fill="#909596"/>
<path d="M400.312 66.2639L363.744 36.0659C351.37 25.6319 331.609 22.3069 331.609 22.3069C288.806 17.1829 199.742 16.213 199.742 16.213C193.094 16.213 190.508 21.1989 190.508 21.1989C190.508 21.7469 189.183 23.1439 188.869 23.6429C188.254 24.6259 187.674 25.63 187.111 26.644C183.502 33.143 180.584 40.037 177.843 46.938C176.693 49.826 175.316 52.837 174.454 55.924C173.725 58.5289 173.361 61.188 173.808 63.875C173.923 64.57 174.085 65.264 174.39 65.8979C175.841 68.9329 179.39 71.7139 181.642 74.2029C185.152 78.0819 190.691 78.637 190.691 78.637C190.691 78.637 329.423 86.025 378.039 86.025C385.374 86.025 390.665 85.857 393.11 85.47C411.763 82.516 400.312 66.2639 400.312 66.2639ZM401.294 78.681C400.258 81.136 397.396 82.7499 392.794 83.4799C390.569 83.8319 385.605 84.011 378.038 84.011C330.425 84.011 194.433 76.817 190.859 76.628C190.432 76.573 185.917 75.926 183.135 72.853C182.423 72.066 181.627 71.288 180.784 70.465C178.959 68.684 177.071 66.8399 176.207 65.0309C176.033 64.6669 175.906 64.21 175.797 63.546C175.446 61.434 175.635 59.184 176.395 56.468C177.013 54.255 177.936 52.021 178.827 49.86C179.13 49.127 179.429 48.402 179.716 47.683C182.305 41.167 185.205 34.227 188.872 27.623C189.481 26.524 190.04 25.5719 190.572 24.7209C190.626 24.6409 190.815 24.4059 190.954 24.2339C191.661 23.3549 192.188 22.6589 192.408 21.9409C192.925 21.1319 195.103 18.2329 199.731 18.2289C201.233 18.2459 289.239 19.274 331.315 24.302C332.338 24.484 350.919 27.888 362.461 37.621L398.81 67.637C400.159 69.651 402.868 74.964 401.294 78.681Z" fill="#909596"/>
</g>
<path opacity="0.2" d="M307.898 98.0569C307.701 102.449 302.825 105.798 297.003 105.538C291.181 105.277 286.62 101.507 286.817 97.115C287.012 92.722 291.891 89.373 297.714 89.634C303.534 89.893 308.095 93.6649 307.898 98.0569Z" fill="#404041"/>
<path d="M311.321 95.06L283.12 93.8C282.124 93.755 281.282 94.527 281.236 95.523L281.132 97.834C281.089 98.829 281.861 99.673 282.857 99.718L311.058 100.978C312.054 101.023 312.898 100.251 312.942 99.255L313.045 96.944C313.089 95.948 312.317 95.104 311.321 95.06Z" fill="#D0D2D3"/>
<path opacity="0.2" d="M281.177 96.8619L281.132 97.8329C281.089 98.8279 281.861 99.6719 282.857 99.7169L311.058 100.977C312.054 101.022 312.898 100.25 312.942 99.2539L312.984 98.2839L281.177 96.8619Z" fill="#404041"/>
<path opacity="0.2" d="M287.625 93.9788L286.965 93.9496L286.703 99.8666L287.362 99.8959L287.625 93.9788Z" fill="#404041"/>
<path d="M285.72 96.9449C285.683 97.7269 285.023 98.3309 284.242 98.2959C283.462 98.2609 282.857 97.5999 282.893 96.8199C282.926 96.0399 283.588 95.435 284.369 95.47C285.149 95.504 285.755 96.1659 285.72 96.9449Z" fill="#404041"/>
<path opacity="0.2" d="M200.404 93.2519C200.208 97.6449 195.329 100.993 189.508 100.733C183.687 100.471 179.126 96.701 179.323 92.31C179.518 87.918 184.397 84.569 190.219 84.83C196.041 85.0879 200.601 88.8599 200.404 93.2519Z" fill="#404041"/>
<path d="M203.827 90.254L175.626 88.9929C174.63 88.9489 173.787 89.7199 173.741 90.7159L173.638 93.0269C173.594 94.0229 174.366 94.8659 175.36 94.9109L203.562 96.171C204.559 96.216 205.402 95.445 205.447 94.448L205.55 92.137C205.595 91.142 204.823 90.299 203.827 90.254Z" fill="#D0D2D3"/>
<path opacity="0.2" d="M173.683 92.0569L173.639 93.028C173.595 94.024 174.367 94.867 175.361 94.912L203.563 96.172C204.56 96.217 205.403 95.4459 205.448 94.4489L205.491 93.4789L173.683 92.0569Z" fill="#404041"/>
<path opacity="0.2" d="M180.113 89.2148L179.455 89.1851L179.187 95.1031L179.845 95.1329L180.113 89.2148Z" fill="#404041"/>
<path d="M178.226 92.141C178.191 92.922 177.529 93.526 176.749 93.491C175.968 93.457 175.363 92.795 175.398 92.015C175.432 91.234 176.093 90.629 176.874 90.664C177.655 90.7 178.261 91.361 178.226 92.141Z" fill="#404041"/>
<path opacity="0.2" d="M1.60693 133.711C30.8869 130.294 65.8859 130.657 80.4349 131.003C81.3589 129.77 82.5019 128.414 83.9039 127.025H15.2369C15.2369 127.025 5.83293 127.984 1.60693 133.711Z" fill="white"/>
<path opacity="0.2" d="M186.517 126.137C181.44 110.037 162.056 101.959 146.364 98.3069C129.738 94.4359 111.611 94.9459 95.592 100.864C82.93 105.54 73.592 115.316 68.574 127.026H73.115C74.371 125.232 75.795 123.526 77.396 121.849C83.648 115.303 92.466 111.455 101.33 109.55C111.301 107.408 121.598 106.657 131.795 107.307C146.08 108.219 161.781 111.832 173.512 120.161C178.801 123.915 183.115 128.919 185.115 134.975L190.051 150.605C190.051 150.605 190.913 140.08 186.517 126.137Z" fill="white"/>
<path opacity="0.3" d="M191.8 192.405L428.57 197.577L429.368 191.726L190.737 189.669L191.8 192.405Z" fill="#909596"/>
<path opacity="0.3" d="M182.896 160.612C183.975 165.641 184.964 171.082 185.705 176.707L191.801 192.405L428.571 197.576L430.788 181.324C430.788 181.324 431.606 173.293 433.501 163.34L182.896 160.612Z" fill="#909596"/>
<path opacity="0.3" d="M588.603 186.311L587.587 182.339L590.912 169.504H592.942C592.942 169.504 594.493 168.76 594.817 166.948H545.43C546.6 174.661 547.518 183.761 547.693 193.882H582.598C582.598 193.882 586.941 190.097 588.603 186.311Z" fill="#909596"/>
<path d="M416.374 118.686L278.456 115.605C277.324 115.58 276.387 116.477 276.36 117.609L276.346 118.211C276.322 119.344 277.217 120.281 278.352 120.307L416.268 123.388C417.401 123.412 418.338 122.515 418.364 121.384L418.378 120.782C418.404 119.649 417.505 118.711 416.374 118.686Z" fill="#6CA4B7"/>
<path d="M265.221 115.309L193.039 113.696C191.907 113.671 190.97 114.568 190.943 115.7L190.93 116.303C190.905 117.435 191.799 118.373 192.932 118.398L265.116 120.01C266.249 120.036 267.186 119.138 267.212 118.007L267.226 117.404C267.251 116.273 266.355 115.334 265.221 115.309Z" fill="#6CA4B7"/>
<path opacity="0.4" d="M265.116 120.011L192.932 118.399C191.886 118.376 191.047 117.566 190.948 116.548C190.938 116.629 190.921 116.709 190.919 116.792L190.906 117.396C190.882 118.527 191.778 119.465 192.909 119.491L265.093 121.104C266.225 121.129 267.163 120.232 267.188 119.1L267.203 118.496C267.205 118.413 267.191 118.333 267.183 118.251C267.038 119.264 266.164 120.034 265.116 120.011Z" fill="#909596"/>
<path opacity="0.4" d="M416.269 123.388L278.353 120.307C277.304 120.284 276.466 119.474 276.367 118.457C276.355 118.538 276.34 118.617 276.338 118.701L276.324 119.303C276.299 120.436 277.196 121.374 278.328 121.399L416.244 124.481C417.377 124.507 418.315 123.609 418.342 122.477L418.355 121.874C418.356 121.791 418.344 121.71 418.334 121.629C418.189 122.64 417.318 123.411 416.269 123.388Z" fill="#909596"/>
<path d="M388.343 72.297L384.144 78.617L385.783 87.058C385.97 88.009 386.801 88.696 387.772 88.696H397.072C397.072 88.696 403.355 83.475 403.451 78.617C403.548 73.759 388.343 72.297 388.343 72.297Z" fill="#162026"/>
<path d="M373.466 75.444L371.929 60.509C371.929 60.509 371.896 58.075 376.279 57.624C376.279 57.624 386.013 57.748 389.679 61.87C389.679 61.87 394.971 69.1999 397.072 78.0779C397.072 78.0779 396.289 82.0019 393.595 82.0919C393.595 82.0919 383.809 82.536 379.091 80.771C379.091 80.771 373.771 78.412 373.466 75.444Z" fill="#558AA2"/>
<path opacity="0.2" d="M376.279 57.624C375.857 57.668 375.477 57.729 375.132 57.806C378.183 60.811 386.993 70.254 390.455 82.14C392.311 82.15 393.595 82.0919 393.595 82.0919C396.288 82.0029 397.072 78.0779 397.072 78.0779C394.971 69.2009 389.679 61.87 389.679 61.87C386.013 57.749 376.279 57.624 376.279 57.624Z" fill="white"/>
<path opacity="0.3" d="M581.648 102.813C579.343 102.291 575.761 101.904 574.205 101.64C573.295 101.485 572.469 101.948 572.063 102.672C575.828 106.379 583.056 114.469 589.861 127.517C588.331 119.417 585.777 109.702 581.648 102.813Z" fill="white"/>
<path opacity="0.2" d="M579.968 100.292C579.968 100.292 574.012 94.198 556.005 90.042C556.005 90.042 504.661 78.268 446.115 74.204C446.115 74.204 452.682 83.546 470.321 86.026C485.964 88.226 542.245 93.231 580.961 101.715C580.64 101.224 580.309 100.748 579.968 100.292Z" fill="white"/>
<path d="M14.165 117.044H18.862C20.421 117.044 21.684 115.78 21.684 114.22V111.206C21.684 109.645 20.42 108.381 18.862 108.381H13.671C13.772 111.19 13.931 114.088 14.165 117.044Z" fill="#EBE7C7"/>
<path d="M13.726 91.1749H18.863C20.422 91.1749 21.685 89.9109 21.685 88.3509V85.3369C21.685 83.7769 20.421 82.5129 18.863 82.5129H14.243C14.044 85.0129 13.859 87.9309 13.726 91.1749Z" fill="#EBE7C7"/>
<mask id="mask0_50_371" style="mask-type:luminance" maskUnits="userSpaceOnUse" x="173" y="16" width="231" height="71">
<path d="M174.454 55.926C175.317 52.839 176.692 49.828 177.843 46.94C180.583 40.039 183.501 33.145 187.111 26.646C187.674 25.632 188.254 24.628 188.869 23.645C189.183 23.145 190.508 21.749 190.508 21.201C190.508 21.201 193.094 16.215 199.742 16.215C199.742 16.215 288.806 17.185 331.609 22.309C331.609 22.309 351.37 25.634 363.746 36.068L400.312 66.266C400.312 66.266 411.763 82.518 393.11 85.473C374.457 88.427 190.691 78.64 190.691 78.64C190.691 78.64 185.152 78.085 181.642 74.207C179.39 71.718 175.841 68.9369 174.39 65.9019C174.085 65.2669 173.923 64.574 173.808 63.879C173.361 61.19 173.726 58.531 174.454 55.926Z" fill="white"/>
</mask>
<g mask="url(#mask0_50_371)">
<path opacity="0.25" d="M294.165 1.79797L244.464 108.38H289.014L338.714 1.79797H294.165Z" fill="white"/>
<path opacity="0.25" d="M225.066 1.79797L175.363 108.38H191.237L240.937 1.79797H225.066Z" fill="white"/>
<path opacity="0.25" d="M360.667 1.79797L310.966 108.38H337.198L386.899 1.79797H360.667Z" fill="white"/>
<path opacity="0.25" d="M257.851 1.79797L208.152 108.38H218.393L268.094 1.79797H257.851Z" fill="white"/>
<path opacity="0.25" d="M271.872 1.79797L222.173 108.38H228.772L278.472 1.79797H271.872Z" fill="white"/>
</g>
<path d="M267.013 17.9609C264.589 31.9119 262.386 64.7139 261.335 82.1129C269.439 82.4839 277.832 82.8579 286.284 83.2199C284.268 58.3229 287.324 28.0599 288.362 18.9419C281.296 18.5699 274.098 18.2439 267.013 17.9609Z" fill="#1F1916"/>
<path opacity="0.4" d="M278.066 14.986L277.066 14.874C276.964 15.785 266.936 106.864 274.347 184.974L275.351 184.878C267.948 106.874 277.966 15.896 278.066 14.986Z" fill="#909596"/>
<mask id="mask1_50_371" style="mask-type:luminance" maskUnits="userSpaceOnUse" x="32" y="16" width="133" height="58">
<path d="M32.968 73.004C32.968 73.004 48.204 33.3889 63.163 18.1519C63.163 18.1519 139.347 16.491 161.511 16.213C161.511 16.213 167.605 17.691 163.54 24.524L138.055 66.818C138.055 66.818 133.991 73.004 126.974 73.004C119.955 73.004 32.968 73.004 32.968 73.004Z" fill="white"/>
</mask>
<g mask="url(#mask1_50_371)">
<path opacity="0.25" d="M123.376 4.33899L81.2941 94.585H119.015L161.097 4.33899H123.376Z" fill="white"/>
<path opacity="0.25" d="M64.866 4.33899L22.785 94.585H36.226L78.308 4.33899H64.866Z" fill="white"/>
<path opacity="0.25" d="M179.683 4.33899L137.601 94.585H159.812L201.896 4.33899H179.683Z" fill="white"/>
<path opacity="0.25" d="M92.628 4.33899L50.546 94.585H59.218L101.302 4.33899H92.628Z" fill="white"/>
<path opacity="0.25" d="M104.501 4.33899L62.4191 94.585H68.0071L110.087 4.33899H104.501Z" fill="white"/>
</g>
</svg>
