<svg width="360" height="50" viewBox="0 0 360 50" fill="none" xmlns="http://www.w3.org/2000/svg">
<path opacity="0.4" fill-rule="evenodd" clip-rule="evenodd" d="M2.92893 2.92893C0 5.85786 0 10.5719 0 20V30C0 39.4281 0 44.1421 2.92893 47.0711C5.85786 50 10.5719 50 20 50H120V0H20C10.5719 0 5.85786 0 2.92893 2.92893Z" fill="white"/>
<path opacity="0.6" fill-rule="evenodd" clip-rule="evenodd" d="M120 50H340C349.428 50 354.142 50 357.071 47.0711C360 44.1421 360 39.4281 360 30V20C360 10.5719 360 5.85786 357.071 2.92893C354.142 0 349.428 0 340 0H120V50Z" fill="white"/>
<path opacity="0.8" d="M23.456 18.8V30H21.744L15.568 22.416V30H13.504V18.8H15.216L21.392 26.384V18.8H23.456ZM30.1051 30.112C29.2411 30.112 28.4625 29.9253 27.7691 29.552C27.0758 29.1787 26.5318 28.6613 26.1371 28C25.7531 27.328 25.5611 26.5707 25.5611 25.728C25.5611 24.8853 25.7531 24.1333 26.1371 23.472C26.5318 22.8107 27.0758 22.2933 27.7691 21.92C28.4625 21.5467 29.2411 21.36 30.1051 21.36C30.9798 21.36 31.7638 21.5467 32.4571 21.92C33.1505 22.2933 33.6891 22.8107 34.0731 23.472C34.4678 24.1333 34.6651 24.8853 34.6651 25.728C34.6651 26.5707 34.4678 27.328 34.0731 28C33.6891 28.6613 33.1505 29.1787 32.4571 29.552C31.7638 29.9253 30.9798 30.112 30.1051 30.112ZM30.1051 28.4C30.8411 28.4 31.4491 28.1547 31.9291 27.664C32.4091 27.1733 32.6491 26.528 32.6491 25.728C32.6491 24.928 32.4091 24.2827 31.9291 23.792C31.4491 23.3013 30.8411 23.056 30.1051 23.056C29.3691 23.056 28.7611 23.3013 28.2811 23.792C27.8118 24.2827 27.5771 24.928 27.5771 25.728C27.5771 26.528 27.8118 27.1733 28.2811 27.664C28.7611 28.1547 29.3691 28.4 30.1051 28.4ZM47.3616 21.36C48.439 21.36 49.2923 21.6747 49.9216 22.304C50.551 22.9227 50.8656 23.856 50.8656 25.104V30H48.8656V25.36C48.8656 24.6133 48.7003 24.0533 48.3696 23.68C48.039 23.296 47.5643 23.104 46.9456 23.104C46.2736 23.104 45.735 23.328 45.3296 23.776C44.9243 24.2133 44.7216 24.8427 44.7216 25.664V30H42.7216V25.36C42.7216 24.6133 42.5563 24.0533 42.2256 23.68C41.895 23.296 41.4203 23.104 40.8016 23.104C40.119 23.104 39.575 23.3227 39.1696 23.76C38.775 24.1973 38.5776 24.832 38.5776 25.664V30H36.5776V21.456H38.4816V22.544C38.8016 22.16 39.2016 21.8667 39.6816 21.664C40.1616 21.4613 40.695 21.36 41.2816 21.36C41.9216 21.36 42.487 21.4827 42.9776 21.728C43.479 21.9627 43.8736 22.3147 44.1616 22.784C44.5136 22.336 44.967 21.9893 45.5216 21.744C46.0763 21.488 46.6896 21.36 47.3616 21.36ZM58.1574 21.36C58.9894 21.36 59.7307 21.5413 60.3814 21.904C61.0427 22.2667 61.56 22.7787 61.9334 23.44C62.3067 24.1013 62.4934 24.864 62.4934 25.728C62.4934 26.592 62.3067 27.36 61.9334 28.032C61.56 28.6933 61.0427 29.2053 60.3814 29.568C59.7307 29.9307 58.9894 30.112 58.1574 30.112C57.5707 30.112 57.032 30.0107 56.5414 29.808C56.0614 29.6053 55.656 29.3013 55.3254 28.896V30H53.4214V18.128H55.4214V22.496C55.7627 22.1227 56.1627 21.84 56.6214 21.648C57.0907 21.456 57.6027 21.36 58.1574 21.36ZM57.9334 28.4C58.6694 28.4 59.272 28.1547 59.7414 27.664C60.2214 27.1733 60.4614 26.528 60.4614 25.728C60.4614 24.928 60.2214 24.2827 59.7414 23.792C59.272 23.3013 58.6694 23.056 57.9334 23.056C57.4534 23.056 57.0214 23.168 56.6374 23.392C56.2534 23.6053 55.9494 23.9147 55.7254 24.32C55.5014 24.7253 55.3894 25.1947 55.3894 25.728C55.3894 26.2613 55.5014 26.7307 55.7254 27.136C55.9494 27.5413 56.2534 27.856 56.6374 28.08C57.0214 28.2933 57.4534 28.4 57.9334 28.4ZM66.2941 22.704C66.8701 21.808 67.8835 21.36 69.3341 21.36V23.264C69.1635 23.232 69.0088 23.216 68.8701 23.216C68.0915 23.216 67.4835 23.4453 67.0461 23.904C66.6088 24.352 66.3901 25.0027 66.3901 25.856V30H64.3901V21.456H66.2941V22.704ZM78.9846 25.776C78.9846 25.9147 78.974 26.112 78.9526 26.368H72.2486C72.366 26.9973 72.67 27.4987 73.1606 27.872C73.662 28.2347 74.2806 28.416 75.0166 28.416C75.9553 28.416 76.7286 28.1067 77.3366 27.488L78.4086 28.72C78.0246 29.1787 77.5393 29.5253 76.9526 29.76C76.366 29.9947 75.7046 30.112 74.9686 30.112C74.03 30.112 73.2033 29.9253 72.4886 29.552C71.774 29.1787 71.2193 28.6613 70.8246 28C70.4406 27.328 70.2486 26.5707 70.2486 25.728C70.2486 24.896 70.4353 24.1493 70.8086 23.488C71.1926 22.816 71.7206 22.2933 72.3926 21.92C73.0646 21.5467 73.822 21.36 74.6646 21.36C75.4966 21.36 76.238 21.5467 76.8886 21.92C77.55 22.2827 78.062 22.8 78.4246 23.472C78.798 24.1333 78.9846 24.9013 78.9846 25.776ZM74.6646 22.96C74.0246 22.96 73.4806 23.152 73.0326 23.536C72.5953 23.9093 72.3286 24.4107 72.2326 25.04H77.0806C76.9953 24.4213 76.734 23.92 76.2966 23.536C75.8593 23.152 75.3153 22.96 74.6646 22.96ZM81.5458 24.016C81.1831 24.016 80.8738 23.8933 80.6178 23.648C80.3618 23.392 80.2338 23.072 80.2338 22.688C80.2338 22.2933 80.3564 21.9733 80.6018 21.728C80.8578 21.4827 81.1724 21.36 81.5458 21.36C81.9191 21.36 82.2284 21.4827 82.4738 21.728C82.7298 21.9733 82.8578 22.2933 82.8578 22.688C82.8578 23.072 82.7298 23.392 82.4738 23.648C82.2178 23.8933 81.9084 24.016 81.5458 24.016ZM81.5458 30.112C81.1831 30.112 80.8738 29.9893 80.6178 29.744C80.3618 29.488 80.2338 29.168 80.2338 28.784C80.2338 28.3893 80.3564 28.0693 80.6018 27.824C80.8578 27.5787 81.1724 27.456 81.5458 27.456C81.9191 27.456 82.2284 27.5787 82.4738 27.824C82.7298 28.0693 82.8578 28.3893 82.8578 28.784C82.8578 29.168 82.7298 29.488 82.4738 29.744C82.2178 29.9893 81.9084 30.112 81.5458 30.112Z" fill="white"/>
</svg>
