<svg width="360" height="50" viewBox="0 0 360 50" fill="none" xmlns="http://www.w3.org/2000/svg">
<path opacity="0.4" fill-rule="evenodd" clip-rule="evenodd" d="M2.92893 2.92893C0 5.85786 0 10.5719 0 20V30C0 39.4281 0 44.1421 2.92893 47.0711C5.85786 50 10.5719 50 20 50H120V0H20C10.5719 0 5.85786 0 2.92893 2.92893Z" fill="white"/>
<path opacity="0.6" fill-rule="evenodd" clip-rule="evenodd" d="M120 50H340C349.428 50 354.142 50 357.071 47.0711C360 44.1421 360 39.4281 360 30V20C360 10.5719 360 5.85786 357.071 2.92893C354.142 0 349.428 0 340 0H120V50Z" fill="white"/>
<path opacity="0.8" d="M20.832 30L18.544 26.72C18.448 26.7307 18.304 26.736 18.112 26.736H15.584V30H13.504V18.8H18.112C19.0827 18.8 19.9253 18.96 20.64 19.28C21.3653 19.6 21.92 20.0587 22.304 20.656C22.688 21.2533 22.88 21.9627 22.88 22.784C22.88 23.6267 22.672 24.352 22.256 24.96C21.8507 25.568 21.264 26.0213 20.496 26.32L23.072 30H20.832ZM20.784 22.784C20.784 22.0693 20.5493 21.52 20.08 21.136C19.6107 20.752 18.9227 20.56 18.016 20.56H15.584V25.024H18.016C18.9227 25.024 19.6107 24.832 20.08 24.448C20.5493 24.0533 20.784 23.4987 20.784 22.784ZM28.201 21.36C29.4597 21.36 30.4197 21.664 31.081 22.272C31.753 22.8693 32.089 23.776 32.089 24.992V30H30.201V28.96C29.9557 29.3333 29.6037 29.6213 29.145 29.824C28.697 30.016 28.153 30.112 27.513 30.112C26.873 30.112 26.313 30.0053 25.833 29.792C25.353 29.568 24.9797 29.264 24.713 28.88C24.457 28.4853 24.329 28.0427 24.329 27.552C24.329 26.784 24.6117 26.1707 25.177 25.712C25.753 25.2427 26.6543 25.008 27.881 25.008H30.089V24.88C30.089 24.2827 29.9077 23.824 29.545 23.504C29.193 23.184 28.665 23.024 27.961 23.024C27.481 23.024 27.0063 23.0987 26.537 23.248C26.0783 23.3973 25.689 23.6053 25.369 23.872L24.585 22.416C25.033 22.0747 25.5717 21.8133 26.201 21.632C26.8303 21.4507 27.497 21.36 28.201 21.36ZM27.929 28.656C28.4303 28.656 28.873 28.544 29.257 28.32C29.6517 28.0853 29.929 27.7547 30.089 27.328V26.336H28.025C26.873 26.336 26.297 26.7147 26.297 27.472C26.297 27.8347 26.441 28.1227 26.729 28.336C27.017 28.5493 27.417 28.656 27.929 28.656ZM41.3278 28.4V30H33.9518V28.736L38.6398 23.056H34.0478V21.456H41.1998V22.72L36.4958 28.4H41.3278ZM46.4354 21.36C47.694 21.36 48.654 21.664 49.3154 22.272C49.9874 22.8693 50.3234 23.776 50.3234 24.992V30H48.4354V28.96C48.19 29.3333 47.838 29.6213 47.3794 29.824C46.9314 30.016 46.3874 30.112 45.7474 30.112C45.1074 30.112 44.5474 30.0053 44.0674 29.792C43.5874 29.568 43.214 29.264 42.9474 28.88C42.6914 28.4853 42.5634 28.0427 42.5634 27.552C42.5634 26.784 42.846 26.1707 43.4114 25.712C43.9874 25.2427 44.8887 25.008 46.1154 25.008H48.3234V24.88C48.3234 24.2827 48.142 23.824 47.7794 23.504C47.4274 23.184 46.8994 23.024 46.1954 23.024C45.7154 23.024 45.2407 23.0987 44.7714 23.248C44.3127 23.3973 43.9234 23.6053 43.6034 23.872L42.8194 22.416C43.2674 22.0747 43.806 21.8133 44.4354 21.632C45.0647 21.4507 45.7314 21.36 46.4354 21.36ZM46.1634 28.656C46.6647 28.656 47.1074 28.544 47.4914 28.32C47.886 28.0853 48.1634 27.7547 48.3234 27.328V26.336H46.2594C45.1074 26.336 44.5314 26.7147 44.5314 27.472C44.5314 27.8347 44.6754 28.1227 44.9634 28.336C45.2514 28.5493 45.6514 28.656 46.1634 28.656ZM53.5301 24.016C53.1675 24.016 52.8581 23.8933 52.6021 23.648C52.3461 23.392 52.2181 23.072 52.2181 22.688C52.2181 22.2933 52.3408 21.9733 52.5861 21.728C52.8421 21.4827 53.1568 21.36 53.5301 21.36C53.9035 21.36 54.2128 21.4827 54.4581 21.728C54.7141 21.9733 54.8421 22.2933 54.8421 22.688C54.8421 23.072 54.7141 23.392 54.4581 23.648C54.2021 23.8933 53.8928 24.016 53.5301 24.016ZM53.5301 30.112C53.1675 30.112 52.8581 29.9893 52.6021 29.744C52.3461 29.488 52.2181 29.168 52.2181 28.784C52.2181 28.3893 52.3408 28.0693 52.5861 27.824C52.8421 27.5787 53.1568 27.456 53.5301 27.456C53.9035 27.456 54.2128 27.5787 54.4581 27.824C54.7141 28.0693 54.8421 28.3893 54.8421 28.784C54.8421 29.168 54.7141 29.488 54.4581 29.744C54.2021 29.9893 53.8928 30.112 53.5301 30.112Z" fill="white"/>
</svg>
